<svg viewBox="0 0 24 24" fill="none" xmlns="http://www.w3.org/2000/svg" id="Arrow-Growth--Streamline-Unicons">
  <desc>
    Arrow Growth Streamline Icon: https://streamlinehq.com
  </desc>
  <path d="M23.666 5.6715c-0.1194 -0.2872 -0.3477 -0.5155 -0.6349 -0.6348 -0.1413 -0.0603 -0.2931 -0.0922 -0.4468 -0.0941H16.706c-0.3117 0 -0.6108 0.1239 -0.8313 0.3444 -0.2204 0.2205 -0.3443 0.5195 -0.3443 0.8313s0.1239 0.6108 0.3443 0.8313c0.2205 0.2205 0.5196 0.3444 0.8313 0.3444h3.045l-6.5719 6.5719 -3.8679 -3.8797c-0.1093 -0.1101 -0.2394 -0.1976 -0.3826 -0.2573 -0.1433 -0.0597 -0.297 -0.0904 -0.4522 -0.0904s-0.3088 0.0306 -0.4521 0.0904c-0.1433 0.0597 -0.2733 0.1472 -0.3826 0.2573l-7.0539 7.054c-0.1102 0.1093 -0.1977 0.2393 -0.2574 0.3825 -0.0596 0.1433 -0.0904 0.297 -0.0904 0.4522s0.0308 0.3088 0.0904 0.4522c0.0597 0.1432 0.1472 0.2732 0.2574 0.3825 0.1093 0.1102 0.2393 0.1976 0.3826 0.2574 0.1432 0.0597 0.2969 0.0904 0.4521 0.0904s0.3089 -0.0307 0.4521 -0.0904c0.1433 -0.0598 0.2733 -0.1472 0.3826 -0.2574l6.2192 -6.231 3.868 3.8797c0.1093 0.1101 0.2393 0.1976 0.3825 0.2573 0.1433 0.0598 0.297 0.0904 0.4522 0.0904s0.3088 -0.0306 0.4521 -0.0904c0.1432 -0.0597 0.2733 -0.1472 0.3826 -0.2573l7.3949 -7.4067v3.045c0 0.3118 0.1239 0.6109 0.3443 0.8313s0.5196 0.3444 0.8313 0.3444c0.3118 0 0.6109 -0.124 0.8314 -0.3444s0.3443 -0.5195 0.3443 -0.8313V6.1183c-0.0019 -0.1536 -0.0339 -0.3054 -0.094 -0.4468Z" fill="#000000" stroke-width="1"></path>
</svg>