<svg viewBox="0 0 24 24" fill="none" xmlns="http://www.w3.org/2000/svg" id="Book-Medical--Streamline-Unicons">
  <desc>
    Book Medical Streamline Icon: https://streamlinehq.com
  </desc>
  <path d="M13.176 8.472h-2.352V6.12c0 -0.3119 -0.1239 -0.611 -0.3444 -0.8316 -0.2205 -0.2205 -0.5197 -0.3444 -0.8316 -0.3444 -0.3119 0 -0.611 0.1239 -0.8316 0.3444 -0.2205 0.2206 -0.3444 0.5197 -0.3444 0.8316v2.352H6.12c-0.3119 0 -0.611 0.1239 -0.8316 0.3444 -0.2205 0.2206 -0.3444 0.5197 -0.3444 0.8316 0 0.3119 0.1239 0.6111 0.3444 0.8316 0.2206 0.2205 0.5197 0.3444 0.8316 0.3444h2.352v2.352c0 0.3119 0.1239 0.6111 0.3444 0.8316 0.2206 0.2205 0.5197 0.3444 0.8316 0.3444 0.3119 0 0.6111 -0.1239 0.8316 -0.3444s0.3444 -0.5197 0.3444 -0.8316v-2.352h2.352c0.3119 0 0.6111 -0.1239 0.8316 -0.3444s0.3444 -0.5197 0.3444 -0.8316c0 -0.3119 -0.1239 -0.611 -0.3444 -0.8316 -0.2205 -0.2205 -0.5197 -0.3444 -0.8316 -0.3444Zm5.88 7.056V3.768c0 -0.9357 -0.3717 -1.833 -1.0333 -2.4947C17.361 0.6117 16.4636 0.24 15.528 0.24H3.768c-0.9357 0 -1.833 0.3717 -2.4947 1.0333C0.6117 1.935 0.24 2.8323 0.24 3.768v11.76c0 0.9356 0.3717 1.833 1.0333 2.4947 0.6617 0.6616 1.559 1.0333 2.4947 1.0333h11.76c0.9356 0 1.833 -0.3717 2.4947 -1.0333 0.6616 -0.6617 1.0333 -1.5591 1.0333 -2.4947Zm-16.464 0V3.768c0 -0.3119 0.1239 -0.611 0.3444 -0.8316 0.2206 -0.2205 0.5197 -0.3444 0.8316 -0.3444h11.76c0.3119 0 0.6111 0.1239 0.8316 0.3444 0.2205 0.2206 0.3444 0.5197 0.3444 0.8316v11.76c0 0.3119 -0.1239 0.6111 -0.3444 0.8316s-0.5197 0.3444 -0.8316 0.3444H3.768c-0.3119 0 -0.611 -0.1239 -0.8316 -0.3444 -0.2205 -0.2205 -0.3444 -0.5197 -0.3444 -0.8316ZM22.584 4.944c-0.3119 0 -0.611 0.1239 -0.8315 0.3444 -0.2205 0.2206 -0.3445 0.5197 -0.3445 0.8316v11.76c0 0.9356 -0.3717 1.833 -1.0333 2.4947 -0.6617 0.6616 -1.5591 1.0333 -2.4947 1.0333H6.12c-0.3119 0 -0.611 0.124 -0.8316 0.3445 -0.2205 0.2205 -0.3444 0.5196 -0.3444 0.8315 0 0.3119 0.1239 0.6111 0.3444 0.8316 0.2206 0.2205 0.5197 0.3444 0.8316 0.3444h11.76c1.5595 0 3.0551 -0.6195 4.1578 -1.7222S23.76 19.4395 23.76 17.88V6.12c0 -0.3119 -0.1239 -0.611 -0.3444 -0.8316 -0.2205 -0.2205 -0.5197 -0.3444 -0.8316 -0.3444Z" fill="#000000" stroke-width="1"></path>
</svg>