<svg viewBox="0 0 24 24" fill="none" xmlns="http://www.w3.org/2000/svg" id="Calendar-Slash--Streamline-Unicons">
  <desc>
    Calendar Slash Streamline Icon: https://streamlinehq.com
  </desc>
  <path d="M11.6022 6.1263h3.9269V7.302c0 0.3118 0.1239 0.6109 0.3443 0.8314 0.2205 0.2205 0.5196 0.3443 0.8314 0.3443 0.3118 0 0.6109 -0.1238 0.8313 -0.3443 0.2205 -0.2205 0.3444 -0.5196 0.3444 -0.8314V6.1263h1.1757c0.3118 0 0.6109 0.1239 0.8314 0.3444 0.2204 0.2205 0.3443 0.5195 0.3443 0.8313v3.5272h-1.5754c-0.3118 0 -0.6109 0.1239 -0.8314 0.3443s-0.3443 0.5196 -0.3443 0.8314c0 0.3118 0.1239 0.6109 0.3443 0.8313s0.5196 0.3444 0.8314 0.3444h1.5754v1.5754c0 0.3118 0.1239 0.6109 0.3444 0.8314s0.5195 0.3444 0.8313 0.3444c0.3118 0 0.6109 -0.124 0.8314 -0.3444s0.3443 -0.5196 0.3443 -0.8314V7.302c0 -0.9354 -0.3716 -1.8326 -1.0331 -2.494 -0.6614 -0.6615 -1.5585 -1.0331 -2.494 -1.0331h-1.1757V2.5992c0 -0.3118 -0.1239 -0.6109 -0.3444 -0.8314 -0.2204 -0.2205 -0.5195 -0.3443 -0.8313 -0.3443 -0.3118 0 -0.6109 0.1238 -0.8314 0.3443 -0.2204 0.2205 -0.3443 0.5196 -0.3443 0.8314v1.1757h-3.9269c-0.3118 0 -0.6109 0.1239 -0.8314 0.3444 -0.2204 0.2204 -0.3443 0.5195 -0.3443 0.8313 0 0.3118 0.1239 0.6109 0.3443 0.8314 0.2205 0.2205 0.5196 0.3443 0.8314 0.3443Zm11.8159 15.6252 -1.8811 -1.8811L2.2553 0.5887c-0.1096 -0.1096 -0.2398 -0.1966 -0.383 -0.2559 -0.1432 -0.0593 -0.2968 -0.0899 -0.4518 -0.0899 -0.155 0 -0.3085 0.0306 -0.4518 0.0899C0.8255 0.3921 0.6954 0.4791 0.5858 0.5887 0.3644 0.8101 0.24 1.1104 0.24 1.4235s0.1244 0.6133 0.3458 0.8347l2.2456 2.2339c-0.4365 0.3273 -0.7911 0.7515 -1.0359 1.239 -0.2448 0.4876 -0.3732 1.0253 -0.375 1.5709v11.7572c0 0.9355 0.3716 1.8325 1.0331 2.494 0.6615 0.6614 1.5586 1.0331 2.4941 1.0331h14.1085c0.5256 -0.0031 1.0437 -0.1236 1.5167 -0.3527l1.1757 1.1757c0.1093 0.1101 0.2394 0.1976 0.3826 0.2573 0.1433 0.0598 0.297 0.0905 0.4522 0.0905s0.3088 -0.0307 0.4521 -0.0905c0.1432 -0.0597 0.2733 -0.1472 0.3826 -0.2573 0.2191 -0.2203 0.3419 -0.5183 0.3419 -0.8289s-0.1228 -0.6085 -0.3419 -0.8289ZM3.7719 7.302c0.0025 -0.2396 0.0782 -0.4727 0.2169 -0.6681 0.1387 -0.1955 0.3338 -0.3438 0.5591 -0.4253l4.6206 4.6206H3.7719V7.302Zm1.1758 12.9329c-0.3119 0 -0.6109 -0.124 -0.8314 -0.3444 -0.2205 -0.2204 -0.3444 -0.5196 -0.3444 -0.8313v-5.8786h7.748l7.0543 7.0543H4.9477Z" fill="#000000" stroke-width="1"></path>
</svg>