<svg viewBox="0 0 24 24" fill="none" xmlns="http://www.w3.org/2000/svg" id="Cancel--Streamline-Unicons">
  <desc>
    Cancel Streamline Icon: https://streamlinehq.com
  </desc>
  <path d="M23.4877 11.2474 17.6081 4.192c-0.1105 -0.1328 -0.249 -0.2395 -0.4054 -0.3127 -0.1565 -0.0731 -0.3273 -0.1109 -0.5 -0.1106H3.7677c-0.9356 0 -1.8329 0.3716 -2.4945 1.0332C0.6117 5.4635 0.24 6.3608 0.24 7.2964v9.4072c0 0.9357 0.3717 1.8329 1.0332 2.4945 0.6616 0.6615 1.5589 1.0332 2.4945 1.0332h12.935c0.1727 0.0003 0.3435 -0.0375 0.5 -0.1106 0.1564 -0.0732 0.2949 -0.1799 0.4054 -0.3127l5.8796 -7.0554c0.176 -0.2113 0.2723 -0.4776 0.2723 -0.7526s-0.0963 -0.5413 -0.2723 -0.7526ZM16.15 17.8795H3.7677c-0.3119 0 -0.611 -0.1239 -0.8315 -0.3444 -0.2205 -0.2205 -0.3444 -0.5196 -0.3444 -0.8315V7.2964c0 -0.3119 0.1239 -0.611 0.3444 -0.8315 0.2205 -0.2205 0.5196 -0.3444 0.8315 -0.3444H16.15L21.0535 12 16.15 17.8795Zm-3.316 -9.0662c-0.1094 -0.1102 -0.2395 -0.1977 -0.3827 -0.2574 -0.1433 -0.0597 -0.297 -0.0904 -0.4522 -0.0904s-0.3089 0.0307 -0.4523 0.0904c-0.1432 0.0597 -0.2733 0.1472 -0.3826 0.2574l-1.517 1.5287 -1.5169 -1.5287c-0.2214 -0.2214 -0.5217 -0.3458 -0.8349 -0.3458s-0.6134 0.1244 -0.8349 0.3458c-0.2214 0.2214 -0.3458 0.5217 -0.3458 0.8349 0 0.1551 0.0306 0.3085 0.0899 0.4519 0.0593 0.1432 0.1463 0.2734 0.2559 0.383L7.9892 12l-1.5287 1.5169c-0.1102 0.1094 -0.1977 0.2394 -0.2574 0.3827 -0.0597 0.1433 -0.0904 0.297 -0.0904 0.4522s0.0307 0.3089 0.0904 0.4523c0.0597 0.1432 0.1472 0.2732 0.2574 0.3826 0.1093 0.1102 0.2394 0.1977 0.3827 0.2574 0.1433 0.0597 0.297 0.0904 0.4522 0.0904 0.1553 0 0.309 -0.0307 0.4523 -0.0904 0.1433 -0.0597 0.2733 -0.1472 0.3826 -0.2574l1.5169 -1.5287 1.517 1.5287c0.1093 0.1102 0.2394 0.1977 0.3826 0.2574 0.1433 0.0597 0.297 0.0904 0.4522 0.0904s0.309 -0.0307 0.4523 -0.0904c0.1432 -0.0597 0.2733 -0.1472 0.3826 -0.2574 0.1102 -0.1094 0.1977 -0.2394 0.2574 -0.3826 0.0598 -0.1434 0.0905 -0.2971 0.0905 -0.4523s-0.0307 -0.3089 -0.0905 -0.4522c-0.0597 -0.1433 -0.1472 -0.2733 -0.2574 -0.3827L11.3053 12l1.5287 -1.5169c0.1101 -0.1094 0.1976 -0.2394 0.2574 -0.3827 0.0597 -0.1433 0.0904 -0.297 0.0904 -0.4522s-0.0307 -0.3089 -0.0904 -0.4522c-0.0598 -0.1433 -0.1473 -0.2734 -0.2574 -0.3827Z" fill="#000000" stroke-width="1"></path>
</svg>