<svg viewBox="0 0 24 24" fill="none" xmlns="http://www.w3.org/2000/svg" id="Closed-Captioning--Streamline-Unicons">
  <desc>
    Closed Captioning Streamline Icon: https://streamlinehq.com
  </desc>
  <path d="M11.1062 13.3406c-0.1334 -0.0782 -0.2811 -0.1293 -0.4345 -0.1504 -0.1532 -0.021 -0.3093 -0.0116 -0.4589 0.0277 -0.1497 0.0394 -0.2901 0.1078 -0.4132 0.2015 -0.1233 0.0938 -0.2267 0.2108 -0.3045 0.3446 -0.0917 0.1562 -0.2183 0.2891 -0.3698 0.3883 -0.1516 0.0993 -0.324 0.1622 -0.5039 0.1838 -0.1798 0.0217 -0.3622 0.0014 -0.533 -0.059 -0.1707 -0.0606 -0.3252 -0.1596 -0.4514 -0.2897 -0.1099 -0.1042 -0.197 -0.2302 -0.2557 -0.3698 -0.0587 -0.1397 -0.0878 -0.2901 -0.0853 -0.4416v-2.352c-0.0013 -0.2623 0.0851 -0.5175 0.2454 -0.725 0.1604 -0.2076 0.3856 -0.3555 0.6397 -0.4204 0.2541 -0.0649 0.5226 -0.0429 0.7628 0.0623 0.2403 0.1052 0.4384 0.2878 0.563 0.5186 0.161 0.2663 0.421 0.4578 0.723 0.5327 0.302 0.075 0.6213 0.0272 0.8881 -0.1328 0.1334 -0.0798 0.2497 -0.1851 0.3421 -0.3102 0.0924 -0.125 0.1591 -0.267 0.1963 -0.4179 0.0372 -0.1509 0.0441 -0.3077 0.0203 -0.4613s-0.0777 -0.3009 -0.1589 -0.4335c-0.1514 -0.2524 -0.3331 -0.4854 -0.5409 -0.6939 -0.3278 -0.3312 -0.7179 -0.5942 -1.1478 -0.7739 -0.4299 -0.1796 -0.8911 -0.2723 -1.3571 -0.2727 -0.9357 0 -1.833 0.3717 -2.4947 1.0333 -0.6616 0.6616 -1.0333 1.5591 -1.0333 2.4947v2.352c0.0036 0.7736 0.2613 1.5246 0.7336 2.1374 0.4723 0.6127 1.1328 1.0533 1.88 1.2537 0.7472 0.2005 1.5396 0.1499 2.2552 -0.1441 0.7156 -0.2941 1.3146 -0.8152 1.705 -1.483 0.1554 -0.2672 0.1992 -0.5848 0.1222 -0.8841 -0.077 -0.2993 -0.2688 -0.5563 -0.5338 -0.7153Zm7.056 0c-0.1335 -0.0782 -0.2812 -0.1293 -0.4345 -0.1504 -0.1532 -0.021 -0.3093 -0.0116 -0.4589 0.0277 -0.1497 0.0394 -0.2901 0.1078 -0.4132 0.2015 -0.1233 0.0938 -0.2266 0.2108 -0.3045 0.3446 -0.0917 0.1562 -0.2183 0.2891 -0.3698 0.3883 -0.1516 0.0993 -0.324 0.1622 -0.5038 0.1838 -0.18 0.0217 -0.3624 0.0014 -0.5331 -0.059 -0.1708 -0.0606 -0.3252 -0.1596 -0.4514 -0.2897 -0.1099 -0.1042 -0.1971 -0.2302 -0.2558 -0.3698 -0.0586 -0.1397 -0.0877 -0.2901 -0.0852 -0.4416v-2.352c-0.0013 -0.2623 0.085 -0.5175 0.2454 -0.725 0.1604 -0.2076 0.3855 -0.3555 0.6396 -0.4204 0.2542 -0.0649 0.5227 -0.0429 0.7629 0.0623 0.2403 0.1052 0.4384 0.2878 0.563 0.5186 0.161 0.2663 0.421 0.4578 0.723 0.5327 0.302 0.075 0.6212 0.0272 0.8881 -0.1328 0.1333 -0.0798 0.2496 -0.1851 0.3421 -0.3102 0.0924 -0.125 0.1591 -0.267 0.1962 -0.4179 0.0373 -0.1509 0.0441 -0.3077 0.0204 -0.4613s-0.0777 -0.3009 -0.1589 -0.4335c-0.1514 -0.2524 -0.3331 -0.4854 -0.5409 -0.6939 -0.3278 -0.3312 -0.7179 -0.5942 -1.1478 -0.7739 -0.4299 -0.1796 -0.8912 -0.2723 -1.3571 -0.2727 -0.9356 0 -1.833 0.3717 -2.4947 1.0333C12.3717 8.9909 12 9.8884 12 10.824v2.352c0.0035 0.7736 0.2613 1.5246 0.7336 2.1374 0.4723 0.6127 1.1328 1.0533 1.8801 1.2537 0.7471 0.2005 1.5395 0.1499 2.2551 -0.1441 0.7156 -0.2941 1.3146 -0.8152 1.705 -1.483 0.1554 -0.2672 0.1992 -0.5848 0.1222 -0.8841 -0.077 -0.2993 -0.2688 -0.5563 -0.5338 -0.7153ZM12 0.24c-2.3259 0 -4.5996 0.6897 -6.5335 1.9819 -1.9339 1.2922 -3.4412 3.1289 -4.3313 5.2777C0.2451 9.6485 0.0122 12.013 0.466 14.2942s1.5738 4.3766 3.2184 6.0214c1.6447 1.6446 3.7401 2.7647 6.0213 3.2185 2.2812 0.4537 4.6458 0.2208 6.7946 -0.6693 2.1489 -0.8901 3.9856 -2.3974 5.2778 -4.3313C23.0703 16.5996 23.76 14.3259 23.76 12c0 -1.5443 -0.3042 -3.0736 -0.8952 -4.5004 -0.5909 -1.4268 -1.4572 -2.7232 -2.5492 -3.8152 -1.092 -1.092 -2.3884 -1.9582 -3.8153 -2.5492C15.0736 0.5442 13.5443 0.24 12 0.24Zm0 21.168c-1.8607 0 -3.6797 -0.5518 -5.2268 -1.5855 -1.5471 -1.0338 -2.753 -2.5031 -3.465 -4.2222 -0.7121 -1.7191 -0.8984 -3.6108 -0.5354 -5.4357 0.363 -1.825 1.259 -3.5013 2.5748 -4.8171 1.3157 -1.3157 2.992 -2.2117 4.817 -2.5747 1.8249 -0.363 3.7166 -0.1767 5.4357 0.5353 1.7191 0.7121 3.1884 1.9179 4.2222 3.4651C20.8562 8.3203 21.408 10.1392 21.408 12c0 2.4951 -0.9911 4.8881 -2.7555 6.6525C16.8882 20.4167 14.4951 21.408 12 21.408Z" fill="#000000" stroke-width="1"></path>
</svg>