<svg viewBox="0 0 24 24" fill="none" xmlns="http://www.w3.org/2000/svg" id="Eye--Streamline-Unicons">
  <desc>
    Eye Streamline Icon: https://streamlinehq.com
  </desc>
  <path d="M23.6618 11.5298C21.2872 6.0162 16.8199 2.5953 12 2.5953S2.7128 6.0163 0.3382 11.5298C0.2734 11.6781 0.24 11.8381 0.24 12s0.0334 0.3219 0.0982 0.4702C2.7128 17.9838 7.1801 21.4047 12 21.4047s9.2872 -3.4209 11.6618 -8.9345c0.0648 -0.1483 0.0982 -0.3083 0.0982 -0.4702s-0.0334 -0.3219 -0.0982 -0.4702ZM12 19.0535c-3.7266 0 -7.2534 -2.6921 -9.2872 -7.0535C4.7466 7.6386 8.2734 4.9465 12 4.9465c3.7266 0 7.2534 2.6921 9.2872 7.0535 -2.0338 4.3614 -5.5606 7.0535 -9.2872 7.0535Zm0 -11.7559c-0.93 0 -1.8392 0.2758 -2.6125 0.7925 -0.7733 0.5167 -1.376 1.2511 -1.7319 2.1104 -0.3559 0.8593 -0.4491 1.8047 -0.2676 2.7169 0.1814 0.9122 0.6293 1.75 1.2869 2.4076 0.6577 0.6577 1.4955 1.1056 2.4077 1.287 0.9122 0.1815 1.8576 0.0884 2.7169 -0.2676 0.8592 -0.3558 1.5937 -0.9586 2.1104 -1.7319s0.7925 -1.6825 0.7925 -2.6125c0 -1.2472 -0.4954 -2.4432 -1.3774 -3.3251 -0.8818 -0.8818 -2.0778 -1.3773 -3.325 -1.3773Zm0 7.0536c-0.4651 0 -0.9196 -0.1379 -1.3062 -0.3963 -0.3867 -0.2583 -0.6881 -0.6255 -0.8661 -1.0551 -0.1778 -0.4297 -0.2244 -0.9024 -0.1337 -1.3585 0.0907 -0.456 0.3147 -0.875 0.6435 -1.2038s0.7478 -0.5528 1.2038 -0.6435c0.4561 -0.0907 0.9288 -0.0441 1.3585 0.1337 0.4295 0.178 0.7968 0.4795 1.0551 0.8661 0.2584 0.3867 0.3963 0.8411 0.3963 1.3062 0 0.6235 -0.2477 1.2216 -0.6887 1.6625s-1.039 0.6887 -1.6625 0.6887Z" fill="#000000" stroke-width="1"></path>
</svg>