<svg viewBox="0 0 24 24" fill="none" xmlns="http://www.w3.org/2000/svg" id="File-Share-Alt--Streamline-Unicons">
  <desc>
    File Share Alt Streamline Icon: https://streamlinehq.com
  </desc>
  <path d="M14.348 13.1172c0 -0.3119 -0.1239 -0.611 -0.3444 -0.8316 -0.2205 -0.2205 -0.5197 -0.3444 -0.8316 -0.3444h-5.88c-0.3119 0 -0.611 0.1239 -0.8315 0.3444 -0.2206 0.2206 -0.3445 0.5197 -0.3445 0.8316 0 0.312 0.1239 0.611 0.3445 0.8316 0.2205 0.2205 0.5196 0.3444 0.8315 0.3444h5.88c0.3119 0 0.6111 -0.1239 0.8316 -0.3444 0.2205 -0.2206 0.3444 -0.5196 0.3444 -0.8316Zm5.8801 5.88c-0.4996 0.0016 -0.9857 0.1623 -1.3877 0.4586l-2.058 -0.9408 2.2461 -1.0349c0.3551 0.2156 0.7608 0.3333 1.176 0.3411 0.4653 0 0.9199 -0.1378 1.3067 -0.3963 0.3868 -0.2585 0.6883 -0.6258 0.8664 -1.0556 0.1779 -0.4297 0.2245 -0.9027 0.1338 -1.3589 -0.0908 -0.4563 -0.3148 -0.8754 -0.6438 -1.2043 -0.3289 -0.3289 -0.748 -0.553 -1.2042 -0.6436 -0.4563 -0.0908 -0.9291 -0.0443 -1.359 0.1338 -0.4297 0.178 -0.7971 0.4794 -1.0554 0.8662 -0.2585 0.3868 -0.3965 0.8416 -0.3965 1.3067l-2.2226 1.0231c-0.3046 -0.216 -0.6561 -0.3564 -1.0257 -0.4097 -0.3696 -0.0533 -0.7466 -0.0177 -1.0997 0.1036 -0.3532 0.1214 -0.6723 0.325 -0.931 0.5942 -0.2589 0.2692 -0.4499 0.5961 -0.5572 0.9538 -0.1074 0.3576 -0.1281 0.7357 -0.0605 1.1028 0.0678 0.3673 0.2219 0.713 0.4498 1.0089 0.2278 0.2958 0.5229 0.5331 0.8606 0.6923 0.3378 0.1591 0.7087 0.2356 1.0818 0.223 0.379 0.0002 0.7515 -0.0969 1.082 -0.2822l2.4696 1.176c0.0521 0.45 0.2331 0.8754 0.5211 1.225 0.288 0.3496 0.6708 0.6086 1.1025 0.7458 0.4317 0.1374 0.8938 0.147 1.3308 0.028 0.437 -0.119 0.8305 -0.3617 1.1329 -0.6989 0.3025 -0.3373 0.5011 -0.7546 0.572 -1.2021 0.071 -0.4474 0.0113 -0.9056 -0.1721 -1.32 -0.1832 -0.4141 -0.4822 -0.7667 -0.861 -1.0151 -0.3788 -0.2485 -0.8212 -0.3822 -1.2742 -0.3852l-0.0235 -0.0353Zm-9.4081 2.352H4.94c-0.3119 0 -0.611 -0.1238 -0.8315 -0.3443 -0.2206 -0.2207 -0.3445 -0.5197 -0.3445 -0.8317V3.7092c0 -0.3119 0.1239 -0.611 0.3445 -0.8316 0.2205 -0.2205 0.5196 -0.3444 0.8315 -0.3444h5.88v3.528c0 0.9357 0.3718 1.8331 1.0334 2.4947 0.6616 0.6616 1.559 1.0333 2.4946 1.0333h3.528c0 0.3119 0.124 0.611 0.3445 0.8316 0.2205 0.2205 0.5197 0.3444 0.8315 0.3444 0.3119 0 0.6111 -0.1239 0.8316 -0.3444 0.2205 -0.2206 0.3444 -0.5197 0.3444 -0.8316V8.3427c-0.0122 -0.1081 -0.0358 -0.2145 -0.0705 -0.3176v-0.1058c-0.0566 -0.1209 -0.132 -0.2321 -0.2235 -0.3293L12.878 0.534c-0.0972 -0.0915 -0.2084 -0.1669 -0.3293 -0.2234 -0.0389 -0.0068 -0.0786 -0.0068 -0.1176 0 -0.0986 -0.0359 -0.2013 -0.0596 -0.3057 -0.0706H4.94c-0.9357 0 -1.833 0.3717 -2.4947 1.0333 -0.6616 0.6617 -1.0333 1.559 -1.0333 2.4947v16.464c0 0.9357 0.3717 1.8331 1.0333 2.4948S4.0043 23.76 4.94 23.76h5.88c0.3119 0 0.6111 -0.1238 0.8316 -0.3443 0.2205 -0.2207 0.3444 -0.5197 0.3444 -0.8317 0 -0.3119 -0.1239 -0.6109 -0.3444 -0.8316 -0.2205 -0.2205 -0.5197 -0.3444 -0.8316 -0.3444v-0.0588Zm2.352 -17.1578 3.0459 3.0458H14.348c-0.3118 0 -0.611 -0.1239 -0.8315 -0.3444 -0.2205 -0.2206 -0.3445 -0.5197 -0.3445 -0.8316V4.1914Zm-5.88 12.4538c-0.3119 0 -0.611 0.1239 -0.8315 0.3444 -0.2206 0.2207 -0.3445 0.5197 -0.3445 0.8316 0 0.312 0.1239 0.611 0.3445 0.8317 0.2205 0.2205 0.5196 0.3443 0.8315 0.3443h1.176c0.3119 0 0.611 -0.1238 0.8316 -0.3443 0.2205 -0.2207 0.3444 -0.5197 0.3444 -0.8317 0 -0.3119 -0.1239 -0.6109 -0.3444 -0.8316 -0.2206 -0.2205 -0.5197 -0.3444 -0.8316 -0.3444H7.292Zm0 -7.056h1.176c0.3119 0 0.611 -0.1239 0.8316 -0.3444 0.2205 -0.2206 0.3444 -0.5197 0.3444 -0.8316s-0.1239 -0.611 -0.3444 -0.8315c-0.2206 -0.2206 -0.5197 -0.3445 -0.8316 -0.3445H7.292c-0.3119 0 -0.611 0.1239 -0.8315 0.3445 -0.2206 0.2205 -0.3445 0.5196 -0.3445 0.8315s0.1239 0.611 0.3445 0.8316c0.2205 0.2205 0.5196 0.3444 0.8315 0.3444Z" fill="#000000" stroke-width="1"></path>
</svg>