<svg viewBox="0 0 24 24" fill="none" xmlns="http://www.w3.org/2000/svg" id="File-Redo-Alt--Streamline-Unicons">
  <desc>
    File Redo Alt Streamline Icon: https://streamlinehq.com
  </desc>
  <path d="M14.352 13.176c0 -0.3119 -0.124 -0.611 -0.3445 -0.8315S13.4879 12 13.176 12h-5.88c-0.3119 0 -0.611 0.124 -0.8316 0.3445 -0.2205 0.2205 -0.3444 0.5196 -0.3444 0.8315 0 0.3119 0.1239 0.6111 0.3444 0.8316 0.2206 0.2205 0.5197 0.3444 0.8316 0.3444h5.88c0.3119 0 0.6111 -0.1239 0.8315 -0.3444s0.3445 -0.5197 0.3445 -0.8316Zm-3.528 8.232h-5.88c-0.3119 0 -0.611 -0.1239 -0.8316 -0.3444 -0.2205 -0.2205 -0.3444 -0.5197 -0.3444 -0.8316V3.768c0 -0.3119 0.1239 -0.611 0.3444 -0.8316 0.2206 -0.2205 0.5197 -0.3444 0.8316 -0.3444h5.88V6.12c0 0.9357 0.3717 1.833 1.0333 2.4947 0.6617 0.6616 1.5591 1.0333 2.4947 1.0333h3.528v1.176c0 0.3119 0.1239 0.6111 0.3444 0.8316s0.5197 0.3444 0.8316 0.3444c0.3119 0 0.611 -0.1239 0.8315 -0.3444s0.3445 -0.5197 0.3445 -0.8316V8.4014c-0.0109 -0.1082 -0.0347 -0.2148 -0.0706 -0.3175v-0.1058c-0.0535 -0.1226 -0.1292 -0.2343 -0.2234 -0.3293L12.882 0.5928c-0.0973 -0.0915 -0.2084 -0.1669 -0.3293 -0.2234h-0.1058c-0.1156 -0.0677 -0.2436 -0.1116 -0.3763 -0.1294H4.944c-0.9357 0 -1.833 0.3717 -2.4947 1.0333 -0.6616 0.6617 -1.0333 1.559 -1.0333 2.4947v16.464c0 0.9356 0.3717 1.833 1.0333 2.4947 0.6617 0.6616 1.559 1.0333 2.4947 1.0333h5.88c0.3119 0 0.611 -0.1239 0.8315 -0.3444S12 22.8959 12 22.584c0 -0.3119 -0.124 -0.611 -0.3445 -0.8315s-0.5196 -0.3445 -0.8315 -0.3445Zm2.352 -17.1578 3.0458 3.0458H14.352c-0.3119 0 -0.6111 -0.1239 -0.8316 -0.3444 -0.2205 -0.2206 -0.3444 -0.5197 -0.3444 -0.8316V4.2502Zm8.232 10.1018c-0.2276 0.0015 -0.4497 0.0689 -0.6396 0.1942 -0.1901 0.1252 -0.3395 0.3029 -0.4306 0.5114 -0.7401 -0.4537 -1.5897 -0.6976 -2.4578 -0.7056 -0.7613 -0.0011 -1.5116 0.1826 -2.1864 0.5354 -0.6747 0.3528 -1.2538 0.8642 -1.6873 1.49 -0.4335 0.626 -0.7087 1.3477 -0.8017 2.1034 -0.0932 0.7557 -0.0014 1.5227 0.2673 2.2351 0.2687 0.7124 0.7063 1.349 1.2751 1.855 0.569 0.5061 1.2522 0.8664 1.9911 1.0501 0.739 0.1837 1.5114 0.1853 2.2511 0.0047 0.7396 -0.1806 1.4244 -0.5381 1.9954 -1.0417 0.2355 -0.2058 0.3796 -0.4969 0.4006 -0.8089 0.0209 -0.3121 -0.083 -0.6197 -0.2888 -0.8551 -0.2058 -0.2355 -0.4969 -0.3795 -0.8089 -0.4006 -0.3121 -0.0209 -0.6197 0.083 -0.8552 0.2888 -0.427 0.3825 -0.9791 0.5957 -1.5523 0.5998 -0.3573 -0.0058 -0.7085 -0.0929 -1.0271 -0.2546 -0.3186 -0.1618 -0.5961 -0.3941 -0.8116 -0.6793 -0.2154 -0.285 -0.363 -0.6155 -0.4317 -0.9662 -0.0685 -0.3506 -0.0563 -0.7124 0.0358 -1.0577 0.0919 -0.3452 0.2615 -0.665 0.4957 -0.9349 0.2341 -0.27 0.5266 -0.483 0.8554 -0.623 0.3288 -0.14 0.6851 -0.2032 1.0419 -0.1849 0.3569 0.0184 0.7049 0.1177 1.0176 0.2906h-0.2587c-0.3119 0 -0.6111 0.124 -0.8316 0.3445s-0.3444 0.5196 -0.3444 0.8315c0 0.3119 0.1239 0.611 0.3444 0.8316s0.5197 0.3444 0.8316 0.3444h2.6107c0.3119 0 0.611 -0.124 0.8315 -0.3444s0.3445 -0.5197 0.3445 -0.8316v-2.646c0 -0.3119 -0.1239 -0.611 -0.3444 -0.8315s-0.5197 -0.3445 -0.8316 -0.3445ZM7.296 9.648h1.176c0.3119 0 0.611 -0.1239 0.8316 -0.3444 0.2205 -0.2206 0.3444 -0.5197 0.3444 -0.8316s-0.1239 -0.611 -0.3444 -0.8316c-0.2206 -0.2205 -0.5197 -0.3444 -0.8316 -0.3444H7.296c-0.3119 0 -0.611 0.1239 -0.8316 0.3444 -0.2205 0.2206 -0.3444 0.5197 -0.3444 0.8316s0.1239 0.611 0.3444 0.8316c0.2206 0.2205 0.5197 0.3444 0.8316 0.3444Zm0 7.056c-0.3119 0 -0.611 0.124 -0.8316 0.3445 -0.2205 0.2205 -0.3444 0.5196 -0.3444 0.8315 0 0.3119 0.1239 0.6111 0.3444 0.8316 0.2206 0.2205 0.5197 0.3444 0.8316 0.3444h2.352c0.3119 0 0.611 -0.1239 0.8315 -0.3444s0.3445 -0.5197 0.3445 -0.8316c0 -0.3119 -0.124 -0.611 -0.3445 -0.8315s-0.5196 -0.3445 -0.8315 -0.3445H7.296Z" fill="#000000" stroke-width="1"></path>
</svg>