<svg viewBox="0 0 24 24" fill="none" xmlns="http://www.w3.org/2000/svg" id="File-Shield-Alt--Streamline-Unicons">
  <desc>
    File Shield Alt Streamline Icon: https://streamlinehq.com
  </desc>
  <path d="M10.236 21.408h-5.88c-0.3119 0 -0.611 -0.1239 -0.8316 -0.3444 -0.2205 -0.2205 -0.3444 -0.5197 -0.3444 -0.8316V3.768c0 -0.3119 0.1239 -0.611 0.3444 -0.8316 0.2206 -0.2205 0.5197 -0.3444 0.8316 -0.3444h5.88V6.12c0 0.9357 0.3717 1.833 1.0333 2.4947 0.6617 0.6616 1.5591 1.0333 2.4947 1.0333h3.528c0 0.3119 0.1239 0.6111 0.3444 0.8316s0.5197 0.3444 0.8316 0.3444c0.3119 0 0.611 -0.1239 0.8315 -0.3444s0.3445 -0.5197 0.3445 -0.8316V8.4014c-0.0122 -0.108 -0.0359 -0.2144 -0.0706 -0.3175v-0.1058c-0.0565 -0.1209 -0.1319 -0.2321 -0.2234 -0.3293L12.294 0.5928c-0.0973 -0.0915 -0.2084 -0.1669 -0.3293 -0.2234 -0.035 -0.005 -0.0707 -0.005 -0.1058 0L11.4826 0.24H4.356c-0.9357 0 -1.833 0.3717 -2.4947 1.0333C1.1997 1.935 0.828 2.8323 0.828 3.768v16.464c0 0.9356 0.3717 1.833 1.0333 2.4947 0.6617 0.6616 1.559 1.0333 2.4947 1.0333h5.88c0.3119 0 0.611 -0.1239 0.8315 -0.3444s0.3445 -0.5197 0.3445 -0.8316c0 -0.3119 -0.124 -0.611 -0.3445 -0.8315s-0.5196 -0.3445 -0.8315 -0.3445Zm2.352 -17.1578 3.0458 3.0458H13.764c-0.3119 0 -0.6111 -0.1239 -0.8316 -0.3444 -0.2205 -0.2206 -0.3444 -0.5197 -0.3444 -0.8316V4.2502ZM6.708 7.296c-0.3119 0 -0.611 0.1239 -0.8316 0.3444 -0.2205 0.2206 -0.3444 0.5197 -0.3444 0.8316s0.1239 0.611 0.3444 0.8316c0.2206 0.2205 0.5197 0.3444 0.8316 0.3444h1.176c0.3119 0 0.611 -0.1239 0.8316 -0.3444 0.2205 -0.2206 0.3444 -0.5197 0.3444 -0.8316s-0.1239 -0.611 -0.3444 -0.8316c-0.2206 -0.2205 -0.5197 -0.3444 -0.8316 -0.3444H6.708Zm16.0289 6.8914c-0.1367 -0.1106 -0.2963 -0.189 -0.4672 -0.2297 -0.171 -0.0407 -0.3488 -0.0426 -0.5207 -0.0055 -0.4459 0.0939 -0.9065 0.0933 -1.3522 -0.0019 -0.4456 -0.0953 -0.8664 -0.2828 -1.235 -0.5509 -0.2014 -0.1471 -0.4444 -0.2265 -0.6938 -0.2265 -0.2494 0 -0.4924 0.0794 -0.6938 0.2265 -0.369 0.2673 -0.7897 0.4546 -1.2352 0.5498 -0.4456 0.0952 -0.9061 0.0962 -1.352 0.003 -0.1737 -0.0374 -0.3536 -0.0348 -0.5262 0.0073 -0.1725 0.0421 -0.3334 0.1227 -0.4703 0.2359 -0.1369 0.1132 -0.2465 0.2559 -0.3203 0.4174 -0.0739 0.1616 -0.1102 0.3378 -0.1062 0.5154V17.88c-0.0019 0.8418 0.1929 1.6724 0.5685 2.4257 0.3756 0.7534 0.9219 1.4087 1.5953 1.9137l1.8346 1.3054c0.2036 0.1526 0.4511 0.2352 0.7056 0.2352s0.502 -0.0826 0.7056 -0.2352l1.8346 -1.3642c0.6655 -0.499 1.207 -1.1449 1.5823 -1.8873 0.3752 -0.7424 0.5742 -1.5614 0.5815 -2.3933v-2.7871c-0.0012 -0.1737 -0.0408 -0.3451 -0.1159 -0.5016 -0.0753 -0.1565 -0.1843 -0.2944 -0.3192 -0.4039ZM20.82 17.88c0.0055 0.4724 -0.0976 0.9397 -0.3015 1.3659 -0.204 0.4262 -0.5031 0.7998 -0.8745 1.0919l-1.176 0.8468 -1.176 -0.8468c-0.3714 -0.2921 -0.6706 -0.6657 -0.8745 -1.0919 -0.2039 -0.4262 -0.307 -0.8935 -0.3015 -1.3659v-1.5053c0.8225 -0.0369 1.6263 -0.258 2.352 -0.6468 0.7257 0.3888 1.5295 0.6099 2.352 0.6468V17.88Zm-10.584 -1.1172H6.708c-0.3119 0 -0.611 0.124 -0.8316 0.3445 -0.2205 0.2205 -0.3444 0.5196 -0.3444 0.8315 0 0.3119 0.1239 0.6111 0.3444 0.8316 0.2206 0.2205 0.5197 0.3444 0.8316 0.3444h3.528c0.3119 0 0.611 -0.124 0.8315 -0.3444s0.3445 -0.5197 0.3445 -0.8316c0 -0.3119 -0.124 -0.611 -0.3445 -0.8315s-0.5196 -0.3445 -0.8315 -0.3445Zm1.176 -4.704H6.708c-0.3119 0 -0.611 0.124 -0.8316 0.3445 -0.2205 0.2205 -0.3444 0.5196 -0.3444 0.8315 0 0.3119 0.1239 0.6111 0.3444 0.8316 0.2206 0.2205 0.5197 0.3444 0.8316 0.3444h4.704c0.3119 0 0.611 -0.1239 0.8315 -0.3444s0.3445 -0.5197 0.3445 -0.8316c0 -0.3119 -0.124 -0.611 -0.3445 -0.8315s-0.5196 -0.3445 -0.8315 -0.3445Z" fill="#000000" stroke-width="1"></path>
</svg>