<svg viewBox="0 0 24 24" fill="none" xmlns="http://www.w3.org/2000/svg" id="Filter-Slash--Streamline-Unicons">
  <desc>
    Filter Slash Streamline Icon: https://streamlinehq.com
  </desc>
  <path d="M20.4761 4.9394h-7.6992c-0.3112 0 -0.6098 0.1237 -0.8299 0.3438 -0.22 0.2201 -0.3438 0.5186 -0.3438 0.8299s0.1237 0.6098 0.3438 0.8299c0.2201 0.2201 0.5187 0.3438 0.8299 0.3438h7.6992c0.2429 0 0.4757 0.0964 0.6473 0.2681 0.1717 0.1717 0.2682 0.4045 0.2682 0.6473v0.9155h-4.4365c-0.3112 0 -0.6098 0.1236 -0.8299 0.3437 -0.22 0.2202 -0.3437 0.5186 -0.3437 0.8299 0 0.3114 0.1237 0.6098 0.3437 0.8299 0.2201 0.2202 0.5187 0.3438 0.8299 0.3438h2.7816l-0.8215 0.8098c-0.11 0.1091 -0.1973 0.2389 -0.2569 0.382 -0.0597 0.143 -0.0903 0.2964 -0.0903 0.4513 0 0.155 0.0306 0.3084 0.0903 0.4514 0.0596 0.143 0.1469 0.2729 0.2569 0.3819 0.1091 0.1101 0.2389 0.1974 0.3819 0.2569 0.143 0.0596 0.2964 0.0902 0.4514 0.0902s0.3083 -0.0306 0.4514 -0.0902c0.1429 -0.0595 0.2727 -0.1468 0.3819 -0.2569l2.2064 -2.2065c0.2701 -0.269 0.4854 -0.5879 0.6338 -0.9389v-0.1174c0.1946 -0.3909 0.3027 -0.8192 0.3169 -1.2558V8.2492c0.0047 -0.432 -0.0762 -0.8606 -0.238 -1.2612 -0.1617 -0.4006 -0.4012 -0.7652 -0.7044 -1.0729 -0.3033 -0.3076 -0.6644 -0.5522 -1.0627 -0.7197 -0.3982 -0.1674 -0.8256 -0.2544 -1.2577 -0.2559ZM2.2726 0.5852C2.1632 0.4757 2.0333 0.3889 1.8903 0.3297 1.7473 0.2705 1.5941 0.24 1.4393 0.24c-0.1547 0 -0.3079 0.0305 -0.4509 0.0897C0.8454 0.3889 0.7155 0.4757 0.606 0.5852c-0.221 0.221 -0.3451 0.5207 -0.3451 0.8333s0.1241 0.6123 0.3451 0.8333L3.951 5.585c-0.4157 0.2978 -0.7541 0.6908 -0.9868 1.1461 -0.2328 0.4553 -0.3532 0.9598 -0.3512 1.4711v1.1737c0.0003 0.4456 0.0964 0.8858 0.2817 1.291v0.0704c0.1498 0.3538 0.3648 0.6764 0.6338 0.9507l6.3495 6.3377v4.5186c-0.0004 0.1995 0.05 0.3958 0.1466 0.5703 0.0964 0.1746 0.2359 0.3217 0.405 0.4273 0.1867 0.1159 0.4023 0.1768 0.622 0.1761 0.1837 -0.0011 0.3647 -0.0453 0.5282 -0.1291l4.1782 -2.0891c0.1936 -0.0976 0.3563 -0.2467 0.4703 -0.4311 0.114 -0.1844 0.1745 -0.3967 0.1752 -0.6135v-2.3473l5.2932 5.3049c0.1092 0.1101 0.239 0.1974 0.382 0.2569 0.143 0.0597 0.2964 0.0903 0.4513 0.0903s0.3084 -0.0306 0.4514 -0.0903c0.143 -0.0595 0.2728 -0.1468 0.3819 -0.2569 0.11 -0.109 0.1973 -0.2388 0.257 -0.3819 0.0596 -0.1429 0.0902 -0.2963 0.0902 -0.4514 0 -0.1549 -0.0306 -0.3083 -0.0902 -0.4512 -0.0597 -0.1431 -0.147 -0.2729 -0.257 -0.3821L2.2726 0.5852Zm2.6877 7.617c-0.0014 -0.1842 0.0543 -0.3643 0.1593 -0.5156 0.1051 -0.1513 0.2544 -0.2664 0.4276 -0.3294l0.1056 -0.0704 1.8309 1.8309H4.9603v-0.9155Zm9.4715 8.556c-0.1088 0.1097 -0.1949 0.2398 -0.2533 0.3827 -0.0583 0.1431 -0.088 0.2961 -0.0871 0.4506v2.136l-1.8309 0.9155v-3.0515c0.0009 -0.1545 -0.0288 -0.3075 -0.0871 -0.4506 -0.0584 -0.1429 -0.1445 -0.273 -0.2533 -0.3827L6.6152 11.465H9.831l4.9529 4.9528 -0.3521 0.3404Z" fill="#000000" stroke-width="1"></path>
</svg>