<svg viewBox="0 0 24 24" fill="none" xmlns="http://www.w3.org/2000/svg" id="Folder-Network--Streamline-Unicons">
  <desc>
    Folder Network Streamline Icon: https://streamlinehq.com
  </desc>
  <path d="M22.584 19.0699h-7.2677c-0.1756 -0.4931 -0.4587 -0.9412 -0.8289 -1.3114 -0.3702 -0.3701 -0.8182 -0.6532 -1.3114 -0.8289v-2.5637h4.3159c0.7257 -0.0031 1.421 -0.2927 1.9342 -0.8059 0.5131 -0.5132 0.8029 -1.2084 0.8059 -1.9342V5.346c-0.0031 -0.7257 -0.2928 -1.4209 -0.8059 -1.9341 -0.5132 -0.5132 -1.2085 -0.8029 -1.9342 -0.8059h-4.704l-0.1529 -0.4822c-0.1813 -0.5363 -0.5236 -1.0037 -0.9804 -1.3383C11.198 0.4509 10.6491 0.2653 10.0831 0.254h-3.528c-0.3633 -0.0047 -0.724 0.0626 -1.0612 0.1981 -0.3372 0.1355 -0.6442 0.3364 -0.9033 0.5911 -0.2591 0.2548 -0.4652 0.5583 -0.6064 0.8932 -0.1412 0.3348 -0.2147 0.6943 -0.2162 1.0576v8.6318c0.0031 0.7259 0.2928 1.421 0.806 1.9342 0.5132 0.5132 1.2083 0.8029 1.9341 0.8059h4.3159v2.5637c-0.4932 0.1757 -0.9411 0.4589 -1.3114 0.8289 -0.3701 0.3702 -0.6533 0.8183 -0.8289 1.3114H1.416c-0.3119 0 -0.611 0.124 -0.8316 0.3445 -0.2205 0.2206 -0.3444 0.5196 -0.3444 0.8315 0 0.312 0.1239 0.6111 0.3444 0.8317 0.2206 0.2205 0.5197 0.3443 0.8316 0.3443h7.2677c0.2472 0.6811 0.6981 1.2696 1.2915 1.6854 0.5933 0.4159 1.3003 0.639 2.0248 0.639 0.7245 0 1.4315 -0.2231 2.0248 -0.639 0.5935 -0.4158 1.0443 -1.0043 1.2915 -1.6854h7.2677c0.3119 0 0.6111 -0.1238 0.8316 -0.3443 0.2205 -0.2206 0.3444 -0.5197 0.3444 -0.8317 0 -0.3119 -0.1239 -0.6109 -0.3444 -0.8315 -0.2205 -0.2205 -0.5197 -0.3445 -0.8316 -0.3445Zm-16.0759 -7.056c-0.1029 0 -0.2017 -0.0408 -0.2744 -0.1136 -0.0728 -0.0728 -0.1137 -0.1715 -0.1137 -0.2745V2.994c0 -0.1029 0.0409 -0.2016 0.1137 -0.2744 0.0727 -0.0728 0.1715 -0.1136 0.2744 -0.1136h3.528c0.0835 -0.0014 0.1652 0.0241 0.233 0.0729 0.0677 0.0487 0.118 0.118 0.1433 0.1975l0.4234 1.2819c0.0812 0.2414 0.2387 0.4499 0.4486 0.5941 0.21 0.1442 0.4611 0.2163 0.7156 0.2056h5.4919c0.1029 0 0.2017 0.0408 0.2744 0.1136 0.0728 0.0728 0.1137 0.1715 0.1137 0.2744v6.2798c0 0.103 -0.0409 0.2017 -0.1137 0.2745 -0.0727 0.0728 -0.1715 0.1136 -0.2744 0.1136H6.5081ZM12 21.4219c-0.2326 0 -0.4599 -0.0689 -0.6534 -0.1982 -0.1933 -0.1292 -0.3441 -0.3128 -0.4331 -0.5278 -0.089 -0.2148 -0.1123 -0.4513 -0.0669 -0.6793 0.0454 -0.2282 0.1573 -0.4377 0.3219 -0.6023 0.1644 -0.1644 0.3739 -0.2764 0.6021 -0.3217 0.2281 -0.0454 0.4646 -0.0221 0.6795 0.0669 0.2148 0.089 0.3985 0.2397 0.5277 0.4331 0.1293 0.1933 0.1982 0.4208 0.1982 0.6533 0 0.312 -0.1239 0.611 -0.3444 0.8317 -0.2205 0.2205 -0.5197 0.3443 -0.8316 0.3443Z" fill="#000000" stroke-width="1"></path>
</svg>