<svg viewBox="0 0 24 24" fill="none" xmlns="http://www.w3.org/2000/svg" id="Folder-Upload--Streamline-Unicons">
  <desc>
    Folder Upload Streamline Icon: https://streamlinehq.com
  </desc>
  <path d="M12.835 10.577c-0.1119 -0.107 -0.2437 -0.1909 -0.3881 -0.2469 -0.2864 -0.1176 -0.6074 -0.1176 -0.8938 0 -0.1444 0.056 -0.2762 0.1399 -0.3881 0.2469l-2.352 2.352c-0.2214 0.2215 -0.3458 0.5218 -0.3458 0.835s0.1244 0.6135 0.3458 0.835c0.2215 0.2214 0.5218 0.3458 0.835 0.3458s0.6135 -0.1244 0.835 -0.3458l0.341 -0.3528v3.0458c0 0.3119 0.124 0.6111 0.3445 0.8316 0.2205 0.2206 0.5196 0.3444 0.8315 0.3444 0.3119 0 0.6111 -0.1238 0.8316 -0.3444 0.2205 -0.2205 0.3444 -0.5197 0.3444 -0.8316v-3.0458l0.341 0.3528c0.1094 0.1103 0.2395 0.1977 0.3827 0.2574 0.1434 0.0597 0.2971 0.0904 0.4523 0.0904s0.3089 -0.0307 0.4523 -0.0904c0.1432 -0.0597 0.2733 -0.1471 0.3827 -0.2574 0.1102 -0.1093 0.1977 -0.2394 0.2574 -0.3827 0.0597 -0.1434 0.0904 -0.2971 0.0904 -0.4523s-0.0307 -0.3089 -0.0904 -0.4523c-0.0597 -0.1432 -0.1472 -0.2733 -0.2574 -0.3827l-2.352 -2.352Zm7.397 -6.221h-7.3853l-0.3763 -1.176c-0.2439 -0.69 -0.6965 -1.2871 -1.2949 -1.7085 -0.5983 -0.4214 -1.313 -0.6463 -2.0449 -0.6435H3.768c-0.9357 0 -1.833 0.3717 -2.4947 1.0334C0.6117 2.523 0.24 3.4203 0.24 4.356v15.288c0 0.9357 0.3717 1.833 1.0333 2.4947 0.6617 0.6617 1.559 1.0333 2.4947 1.0333h16.464c0.9356 0 1.833 -0.3716 2.4947 -1.0333 0.6616 -0.6617 1.0333 -1.559 1.0333 -2.4947V7.884c0 -0.9357 -0.3717 -1.833 -1.0333 -2.4946 -0.6617 -0.6617 -1.5591 -1.0334 -2.4947 -1.0334Zm1.176 15.288c0 0.3119 -0.1239 0.6111 -0.3444 0.8316 -0.2205 0.2206 -0.5197 0.3444 -0.8316 0.3444H3.768c-0.3119 0 -0.611 -0.1238 -0.8316 -0.3444 -0.2205 -0.2205 -0.3444 -0.5197 -0.3444 -0.8316V4.356c0 -0.3119 0.1239 -0.611 0.3444 -0.8315 0.2206 -0.2206 0.5197 -0.3445 0.8316 -0.3445h5.3626c0.2465 -0.0006 0.487 0.0763 0.6875 0.2197 0.2005 0.1436 0.3508 0.3464 0.4297 0.58l0.635 1.9286c0.0789 0.2336 0.2292 0.4365 0.4297 0.58 0.2004 0.1435 0.441 0.2204 0.6875 0.2197h8.232c0.3119 0 0.6111 0.1239 0.8316 0.3445 0.2205 0.2205 0.3444 0.5196 0.3444 0.8315v11.76Z" fill="#000000" stroke-width="1"></path>
</svg>