<svg viewBox="0 0 24 24" fill="none" xmlns="http://www.w3.org/2000/svg" id="Graph-Bar--Streamline-Unicons">
  <desc>
    Graph Bar Streamline Icon: https://streamlinehq.com
  </desc>
  <path d="M6 13H2c-0.26522 0 -0.51957 0.1054 -0.70711 0.2929C1.10536 13.4804 1 13.7348 1 14v8c0 0.2652 0.10536 0.5196 0.29289 0.7071C1.48043 22.8946 1.73478 23 2 23h4c0.26522 0 0.51957 -0.1054 0.70711 -0.2929C6.89464 22.5196 7 22.2652 7 22v-8c0 -0.2652 -0.10536 -0.5196 -0.29289 -0.7071C6.51957 13.1054 6.26522 13 6 13Zm-1 8H3v-6h2v6ZM22 9h-4c-0.2652 0 -0.5196 0.10536 -0.7071 0.29289C17.1054 9.48043 17 9.73478 17 10v12c0 0.2652 0.1054 0.5196 0.2929 0.7071S17.7348 23 18 23h4c0.2652 0 0.5196 -0.1054 0.7071 -0.2929S23 22.2652 23 22V10c0 -0.26522 -0.1054 -0.51957 -0.2929 -0.70711C22.5196 9.10536 22.2652 9 22 9Zm-1 12h-2V11h2v10ZM14 1h-4c-0.26522 0 -0.51957 0.10536 -0.70711 0.29289C9.10536 1.48043 9 1.73478 9 2v20c0 0.2652 0.10536 0.5196 0.29289 0.7071 0.18754 0.1875 0.44189 0.2929 0.70711 0.2929h4c0.2652 0 0.5196 -0.1054 0.7071 -0.2929S15 22.2652 15 22V2c0 -0.26522 -0.1054 -0.51957 -0.2929 -0.70711C14.5196 1.10536 14.2652 1 14 1Zm-1 20h-2V3h2v18Z" fill="#000000" stroke-width="1"></path>
</svg>