<svg viewBox="0 0 24 24" fill="none" xmlns="http://www.w3.org/2000/svg" id="Hdd--Streamline-Unicons">
  <desc>
    Hdd Streamline Icon: https://streamlinehq.com
  </desc>
  <path d="M23.7599 15.3635v-0.0588c-0.0143 -0.2271 -0.0537 -0.452 -0.1176 -0.6703L21.7136 3.192c-0.1378 -0.8326 -0.5695 -1.5883 -1.2168 -2.1299 -0.6472 -0.5415 -1.4672 -0.8331 -2.3111 -0.8218H5.7555c-0.8338 0.0027 -1.6397 0.3007 -2.2748 0.841 -0.635 0.5403 -1.0582 1.2881 -1.1943 2.1107L0.3813 14.6108c-0.064 0.2184 -0.1034 0.4433 -0.1176 0.6703v0.0588c-0.0236 0.0824 -0.0236 0.1882 -0.0236 0.1882v4.7039c0 0.9358 0.3717 1.8331 1.0334 2.4947 0.6616 0.6617 1.5589 1.0333 2.4946 1.0333h16.4638c0.9356 0 1.833 -0.3716 2.4946 -1.0333 0.6616 -0.6616 1.0334 -1.5589 1.0334 -2.4947v-4.8685ZM4.603 3.5684c0.0476 -0.2762 0.1923 -0.5262 0.4079 -0.7051 0.2156 -0.179 0.488 -0.2751 0.7681 -0.271h12.4655c0.2801 -0.0041 0.5526 0.092 0.7681 0.271 0.2156 0.1789 0.3602 0.4289 0.4079 0.7051l1.4111 8.4905c-0.1975 -0.039 -0.3984 -0.0586 -0.5997 -0.0588H3.7681c-0.1935 0.0016 -0.3864 0.0213 -0.5762 0.0588L4.603 3.5684ZM21.4079 20.232c0 0.3119 -0.124 0.6111 -0.3445 0.8316 -0.2205 0.2206 -0.5196 0.3444 -0.8315 0.3444H3.7681c-0.3119 0 -0.611 -0.1238 -0.8316 -0.3444 -0.2205 -0.2205 -0.3444 -0.5197 -0.3444 -0.8316v-4.6098l0.0941 -0.541c0.0882 -0.2147 0.238 -0.3985 0.4306 -0.5283 0.1925 -0.1297 0.4191 -0.1996 0.6513 -0.2008h16.4638c0.2321 0.0012 0.4587 0.0711 0.6514 0.2008 0.1925 0.1298 0.3423 0.3136 0.4305 0.5283l0.0941 0.541v4.6098Zm-3.528 -3.5279c-0.2326 0 -0.4599 0.069 -0.6534 0.1983 -0.1933 0.1291 -0.344 0.3128 -0.4331 0.5276 -0.089 0.215 -0.1123 0.4514 -0.0669 0.6795s0.1574 0.4377 0.3219 0.6021c0.1644 0.1645 0.3739 0.2765 0.6021 0.3219 0.2281 0.0454 0.4646 0.0221 0.6795 -0.0669 0.2148 -0.0891 0.3985 -0.2398 0.5277 -0.4332 0.1293 -0.1934 0.1982 -0.4207 0.1982 -0.6533 0 -0.3119 -0.124 -0.611 -0.3445 -0.8316 -0.2204 -0.2205 -0.5196 -0.3444 -0.8315 -0.3444Z" fill="#000000" stroke-width="1"></path>
</svg>