<svg viewBox="0 0 24 24" fill="none" xmlns="http://www.w3.org/2000/svg" id="Heart--Streamline-Unicons">
  <desc>
    Heart Streamline Icon: https://streamlinehq.com
  </desc>
  <path d="M21.6157 3.7779c-1.247 -1.2501 -2.8998 -2.0132 -4.6601 -2.1512 -1.7603 -0.1381 -3.512 0.3579 -4.9385 1.3984 -1.4967 -1.1132 -3.3595 -1.618 -5.2134 -1.4127 -1.854 0.2053 -3.5613 1.1054 -4.7781 2.5191S0.1727 7.3674 0.2456 9.2313c0.073 1.8638 0.8494 3.6308 2.1729 4.945l7.3048 7.3166c0.6117 0.6021 1.4356 0.9395 2.2938 0.9395s1.6821 -0.3374 2.2938 -0.9395l7.3048 -7.3166c1.3733 -1.3818 2.1443 -3.2509 2.1443 -5.1991 0 -1.9483 -0.771 -3.8174 -2.1443 -5.1993Zm-1.6586 8.7752 -7.3048 7.3048c-0.0831 0.084 -0.1821 0.1505 -0.2911 0.1961 -0.109 0.0454 -0.226 0.0689 -0.3441 0.0689 -0.1182 0 -0.2351 -0.0235 -0.3441 -0.0689 -0.1091 -0.0456 -0.208 -0.1121 -0.2911 -0.1961l-7.3048 -7.3401c-0.9225 -0.943 -1.4391 -2.2097 -1.4391 -3.5289S3.1546 6.403 4.0771 5.46c0.94 -0.9281 2.2079 -1.4485 3.5289 -1.4485s2.5888 0.5204 3.5289 1.4485c0.1093 0.1103 0.2394 0.1978 0.3828 0.2575 0.1434 0.0597 0.2971 0.0905 0.4524 0.0905s0.309 -0.0308 0.4523 -0.0905c0.1434 -0.0597 0.2735 -0.1472 0.3829 -0.2575 0.9399 -0.9281 2.2078 -1.4485 3.5289 -1.4485 1.3209 0 2.5888 0.5204 3.5289 1.4485 0.9351 0.9306 1.4687 2.1905 1.4862 3.5097 0.0177 1.3192 -0.4821 2.5929 -1.3921 3.5481v0.0352Z" fill="#000000" stroke-width="1"></path>
</svg>