<svg viewBox="0 0 24 24" fill="none" xmlns="http://www.w3.org/2000/svg" id="History-Alt--Streamline-Unicons">
  <desc>
    History Alt Streamline Icon: https://streamlinehq.com
  </desc>
  <path d="M11.3414 0.24C8.3266 0.2486 5.4303 1.4147 3.2506 3.4975V1.416c0 -0.3119 -0.1239 -0.611 -0.3445 -0.8316C2.6856 0.3639 2.3865 0.24 2.0746 0.24c-0.3119 0 -0.6111 0.1239 -0.8316 0.3444 -0.2205 0.2206 -0.3444 0.5197 -0.3444 0.8316v5.292c0 0.3119 0.1238 0.611 0.3444 0.8316 0.2205 0.2205 0.5197 0.3444 0.8316 0.3444h5.292c0.3119 0 0.611 -0.1239 0.8315 -0.3444 0.2206 -0.2206 0.3445 -0.5197 0.3445 -0.8316s-0.1239 -0.611 -0.3445 -0.8316c-0.2205 -0.2205 -0.5196 -0.3444 -0.8315 -0.3444H4.5442c1.0721 -1.1325 2.409 -1.9807 3.8903 -2.4683 1.4813 -0.4876 3.0606 -0.5993 4.5958 -0.325 1.5353 0.2742 2.9782 0.9257 4.1991 1.896 1.221 0.9703 2.1815 2.2288 2.7953 3.6625 0.6138 1.4336 0.8616 2.9973 0.7211 4.5505 -0.1406 1.5531 -0.6649 3.047 -1.5261 4.3472 -0.8611 1.3003 -2.0319 2.366 -3.4071 3.1014 -1.3752 0.7354 -2.9117 1.1175 -4.4712 1.1117 -0.3119 0 -0.611 0.1239 -0.8315 0.3444s-0.3445 0.5197 -0.3445 0.8316c0 0.3119 0.124 0.611 0.3445 0.8315s0.5197 0.3445 0.8315 0.3445c3.119 0 6.1102 -1.239 8.3156 -3.4444 2.2054 -2.2055 3.4444 -5.1966 3.4444 -8.3156 0 -3.1189 -1.239 -6.1101 -3.4444 -8.3156C17.4516 1.479 14.4604 0.24 11.3414 0.24Zm0 7.056c-0.3118 0 -0.611 0.1239 -0.8315 0.3444 -0.2205 0.2206 -0.3445 0.5197 -0.3445 0.8316V12c0 0.3119 0.124 0.6111 0.3445 0.8316s0.5197 0.3444 0.8315 0.3444h2.352c0.3119 0 0.6111 -0.1239 0.8316 -0.3444s0.3444 -0.5197 0.3444 -0.8316c0 -0.3119 -0.1239 -0.611 -0.3444 -0.8315s-0.5197 -0.3445 -0.8316 -0.3445h-1.176V8.472c0 -0.3119 -0.1239 -0.611 -0.3444 -0.8316 -0.2205 -0.2205 -0.5197 -0.3444 -0.8316 -0.3444Z" fill="#000000" stroke-width="1"></path>
</svg>