<svg viewBox="0 0 24 24" fill="none" xmlns="http://www.w3.org/2000/svg" id="History--Streamline-Unicons">
  <desc>
    History Streamline Icon: https://streamlinehq.com
  </desc>
  <path d="M12 0.24C8.9852 0.2486 6.0888 1.4147 3.9091 3.4975V1.416c0 -0.3119 -0.1239 -0.611 -0.3444 -0.8316C3.3441 0.3639 3.045 0.24 2.7331 0.24s-0.611 0.1239 -0.8315 0.3444c-0.2206 0.2206 -0.3445 0.5197 -0.3445 0.8316v5.292c0 0.3119 0.1239 0.611 0.3445 0.8316 0.2205 0.2205 0.5196 0.3444 0.8315 0.3444h5.292c0.3119 0 0.611 -0.1239 0.8316 -0.3444 0.2205 -0.2206 0.3444 -0.5197 0.3444 -0.8316s-0.1239 -0.611 -0.3444 -0.8316c-0.2206 -0.2205 -0.5197 -0.3444 -0.8316 -0.3444H5.2027c1.5121 -1.5801 3.5274 -2.5841 5.6995 -2.8393 2.1722 -0.2551 4.3653 0.2544 6.2024 1.4411 1.8371 1.1866 3.2033 2.9763 3.8639 5.0612 0.6606 2.0849 0.5741 4.3348 -0.2445 6.3628s-2.3181 3.7076 -4.2409 4.7498c-1.9227 1.0422 -4.1485 1.3819 -6.2946 0.9608 -2.1462 -0.4212 -4.0785 -1.5768 -5.4649 -3.2682C3.3373 16.3086 2.5835 14.187 2.592 12c0 -0.3119 -0.1239 -0.6111 -0.3444 -0.8316 -0.2206 -0.2205 -0.5197 -0.3444 -0.8316 -0.3444s-0.611 0.1239 -0.8316 0.3444C0.3639 11.3889 0.24 11.6881 0.24 12c0 2.3259 0.6897 4.5996 1.9819 6.5335 1.2922 1.9339 3.1289 3.4412 5.2777 4.3313 2.1489 0.8901 4.5134 1.123 6.7946 0.6693 2.2812 -0.4539 4.3766 -1.5739 6.0214 -3.2185 1.6446 -1.6448 2.7647 -3.7402 3.2185 -6.0214 0.4537 -2.2812 0.2208 -4.6457 -0.6693 -6.7946 -0.8901 -2.1488 -2.3974 -3.9855 -4.3313 -5.2777C16.5996 0.9297 14.3259 0.24 12 0.24Zm0 7.056c-0.3119 0 -0.6111 0.1239 -0.8316 0.3444 -0.2205 0.2206 -0.3444 0.5197 -0.3444 0.8316V12c0 0.3119 0.1239 0.611 0.3444 0.8315s0.5197 0.3445 0.8316 0.3445h2.352c0.3119 0 0.611 -0.124 0.8315 -0.3445s0.3445 -0.5196 0.3445 -0.8315c0 -0.3119 -0.124 -0.6111 -0.3445 -0.8316s-0.5196 -0.3444 -0.8315 -0.3444h-1.176V8.472c0 -0.3119 -0.124 -0.611 -0.3445 -0.8316 -0.2205 -0.2205 -0.5196 -0.3444 -0.8315 -0.3444Z" fill="#000000" stroke-width="1"></path>
</svg>