<svg viewBox="0 0 24 24" fill="none" xmlns="http://www.w3.org/2000/svg" id="Image-Redo--Streamline-Unicons">
  <desc>
    Image Redo Streamline Icon: https://streamlinehq.com
  </desc>
  <path d="M22.6385 0.2433c-0.297 0 -0.5819 0.1179 -0.7918 0.328 -0.21 0.21 -0.328 0.4948 -0.328 0.7918C20.6723 0.7271 19.663 0.344 18.6078 0.2583c-1.0553 -0.0856 -2.1132 0.1297 -3.0511 0.6209 -0.9378 0.4913 -1.7171 1.2383 -2.2476 2.1546 -0.5305 0.9162 -0.7903 1.9641 -0.7493 3.022 0.0409 1.0579 0.381 2.0826 0.9807 2.955 0.5996 0.8725 1.4345 1.5571 2.4074 1.9744 0.973 0.4173 2.0444 0.5501 3.0899 0.3832s2.0222 -0.6269 2.8168 -1.3265c0.2242 -0.1961 0.3614 -0.4731 0.3815 -0.7703 0.0199 -0.2971 -0.0791 -0.59 -0.2751 -0.8143 -0.1959 -0.2242 -0.4731 -0.3614 -0.7702 -0.3813 -0.2972 -0.02 -0.5902 0.0789 -0.8144 0.2749 -0.4974 0.4391 -1.1136 0.721 -1.7711 0.8103 -0.6573 0.0893 -1.3266 -0.0181 -1.923 -0.3085 -0.5965 -0.2905 -1.0936 -0.7511 -1.4287 -1.3237 -0.3351 -0.5727 -0.4931 -1.2317 -0.4541 -1.894 0.039 -0.6623 0.2731 -1.2983 0.673 -1.8277 0.3999 -0.5294 0.9476 -0.9285 1.5741 -1.1471s1.3035 -0.2467 1.9459 -0.0809c0.6425 0.1657 1.2214 0.518 1.6639 1.0123H19.279c-0.297 0 -0.5819 0.118 -0.7919 0.328 -0.2099 0.21 -0.328 0.4949 -0.328 0.7919 0 0.2969 0.1181 0.5818 0.328 0.7918 0.21 0.21 0.4949 0.328 0.7919 0.328h3.3595c0.297 0 0.5819 -0.118 0.7919 -0.328 0.2099 -0.21 0.328 -0.4949 0.328 -0.7918V1.3519c-0.003 -0.295 -0.1223 -0.577 -0.332 -0.7846s-0.4928 -0.324 -0.7879 -0.324ZM19.279 13.6814c-0.297 0 -0.5819 0.1179 -0.7919 0.328 -0.2099 0.21 -0.328 0.4949 -0.328 0.7918v0.4368l-1.6797 -1.6574c-0.2883 -0.2901 -0.6312 -0.5205 -1.0088 -0.6776 -0.3777 -0.1571 -0.7826 -0.2381 -1.1917 -0.2381s-0.814 0.081 -1.1918 0.2381c-0.3776 0.1571 -0.7205 0.3875 -1.0087 0.6776l-0.7839 0.7839 -2.7548 -2.7884c-0.5852 -0.5806 -1.3762 -0.9064 -2.2005 -0.9064 -0.8244 0 -1.6153 0.3258 -2.2005 0.9064l-1.6574 1.6574V6.9623c0 -0.297 0.118 -0.5818 0.328 -0.7918 0.21 -0.21 0.4949 -0.328 0.7919 -0.328h5.5992c0.297 0 0.5819 -0.118 0.7918 -0.328 0.21 -0.21 0.328 -0.4949 0.328 -0.7918 0 -0.297 -0.118 -0.5819 -0.328 -0.7919 -0.2099 -0.21 -0.4948 -0.328 -0.7918 -0.328H3.6012c-0.891 0 -1.7455 0.354 -2.3756 0.984 -0.63 0.63 -0.984 1.4845 -0.984 2.3755v13.4382c0 0.8909 0.354 1.7455 0.984 2.3755 0.6301 0.63 1.4846 0.984 2.3756 0.984h13.4381c0.891 0 1.7455 -0.354 2.3755 -0.984 0.63 -0.63 0.984 -1.4846 0.984 -2.3755v-5.5993c0 -0.2969 -0.118 -0.5818 -0.328 -0.7918 -0.2099 -0.2101 -0.4948 -0.328 -0.7918 -0.328ZM3.6012 21.5203c-0.297 0 -0.5819 -0.118 -0.7919 -0.328 -0.21 -0.21 -0.328 -0.4948 -0.328 -0.7918v-3.9979l3.2476 -3.2811c0.1645 -0.1568 0.383 -0.2443 0.6103 -0.2443 0.2272 0 0.4458 0.0875 0.6103 0.2443l3.5499 3.5499 4.8601 4.8489H3.6012Zm14.5579 -1.1198c-0.0092 0.213 -0.0792 0.4189 -0.2015 0.5935l-5.0505 -5.0505 0.7839 -0.7839c0.1637 -0.1628 0.3851 -0.2541 0.6159 -0.2541s0.4522 0.0913 0.6159 0.2541l3.2363 3.2476v1.9933Z" fill="#000000" stroke-width="1"></path>
</svg>