<svg viewBox="0 0 24 24" fill="none" xmlns="http://www.w3.org/2000/svg" id="Image-Check--Streamline-Unicons">
  <desc>
    Image Check Streamline Icon: https://streamlinehq.com
  </desc>
  <path d="M23.4238 0.585c-0.2204 -0.219 -0.5185 -0.342 -0.8293 -0.342 -0.3107 0 -0.6088 0.123 -0.8292 0.342l-3.9757 3.8816 -1.435 -1.4114c-0.2231 -0.2184 -0.5237 -0.3392 -0.8359 -0.3359 -0.3122 0.0033 -0.6101 0.1304 -0.8285 0.3535 -0.2185 0.223 -0.3393 0.5237 -0.336 0.8358 0.0034 0.3122 0.1306 0.6102 0.3536 0.8286l2.2584 2.2113c0.2198 0.2155 0.5154 0.3363 0.8234 0.3363s0.6035 -0.1208 0.8233 -0.3363l4.7991 -4.705c0.2207 -0.2188 0.3457 -0.516 0.348 -0.8268 0.0022 -0.3107 -0.1187 -0.6097 -0.3362 -0.8317Zm-3.1876 7.8809c-0.312 0 -0.6112 0.1239 -0.8318 0.3445 -0.2205 0.2206 -0.3445 0.5198 -0.3445 0.8317v5.1637l-1.7408 -1.7409c-0.3028 -0.3047 -0.6629 -0.5466 -1.0596 -0.7116 -0.3967 -0.1651 -0.8221 -0.2501 -1.2517 -0.2501 -0.4297 0 -0.855 0.085 -1.2518 0.2501 -0.3966 0.165 -0.7568 0.4069 -1.0596 0.7116l-0.8233 0.8234 -2.9171 -2.9288c-0.6147 -0.6098 -1.4455 -0.952 -2.3113 -0.952 -0.8659 0 -1.6967 0.3422 -2.3114 0.952l-1.7408 1.7408V6.1134c0 -0.312 0.1239 -0.6112 0.3445 -0.8317 0.2206 -0.2206 0.5198 -0.3446 0.8317 -0.3446h7.0575c0.3119 0 0.6112 -0.1239 0.8317 -0.3445 0.2206 -0.2206 0.3445 -0.5197 0.3445 -0.8317 0 -0.312 -0.1239 -0.6111 -0.3445 -0.8317 -0.2205 -0.2206 -0.5198 -0.3445 -0.8317 -0.3445H3.7687c-0.9358 0 -1.8334 0.3717 -2.4952 1.0335C0.6118 4.28 0.24 5.1775 0.24 6.1134v14.1149c0 0.9359 0.3718 1.8335 1.0335 2.4953s1.5593 1.0334 2.4952 1.0334h14.115c0.9358 0 1.8334 -0.3717 2.4951 -1.0334 0.6618 -0.6618 1.0336 -1.5594 1.0336 -2.4953V9.6421c0 -0.3119 -0.124 -0.6111 -0.3445 -0.8317 -0.2206 -0.2206 -0.5198 -0.3445 -0.8317 -0.3445ZM3.7687 21.4045c-0.3119 0 -0.6111 -0.1238 -0.8317 -0.3444 -0.2206 -0.2207 -0.3445 -0.5198 -0.3445 -0.8318v-4.1992l3.4111 -3.4111c0.1728 -0.1647 0.4023 -0.2565 0.641 -0.2565 0.2388 0 0.4683 0.0918 0.6411 0.2565l3.7287 3.7287 5.0461 5.0578H3.7687Zm15.2912 -1.1762c-0.0016 0.2252 -0.076 0.4438 -0.2117 0.6234l-5.3049 -5.3284 0.8234 -0.8234c0.172 -0.1709 0.4045 -0.2669 0.6469 -0.2669 0.2425 0 0.475 0.096 0.647 0.2669l3.3993 3.4347v2.0937Z" fill="#000000" stroke-width="1"></path>
</svg>