<svg viewBox="0 0 24 24" fill="none" xmlns="http://www.w3.org/2000/svg" id="Image-Plus--Streamline-Unicons">
  <desc>
    Image Plus Streamline Icon: https://streamlinehq.com
  </desc>
  <path d="M20.232 9.648c-0.3119 0 -0.611 0.124 -0.8315 0.3445s-0.3445 0.5196 -0.3445 0.8315v3.9749l-1.7405 -1.7405c-0.6146 -0.6098 -1.4452 -0.9518 -2.3108 -0.9518s-1.6963 0.3421 -2.3109 0.9518l-0.8232 0.835 -2.9164 -2.9283c-0.6146 -0.6097 -1.4452 -0.9518 -2.3109 -0.9518 -0.8657 0 -1.6963 0.3421 -2.3108 0.9518L2.592 12.7174V6.12c0 -0.3119 0.1239 -0.611 0.3444 -0.8316 0.2206 -0.2205 0.5197 -0.3444 0.8316 -0.3444h9.408c0.3119 0 0.6111 -0.1239 0.8316 -0.3444 0.2205 -0.2206 0.3444 -0.5197 0.3444 -0.8316s-0.1239 -0.611 -0.3444 -0.8316c-0.2205 -0.2205 -0.5197 -0.3444 -0.8316 -0.3444H3.768c-0.9357 0 -1.833 0.3717 -2.4947 1.0333C0.6117 4.287 0.24 5.1843 0.24 6.12v14.3707c0.0031 0.8661 0.3485 1.6959 0.961 2.3083 0.6124 0.6124 1.4422 0.9579 2.3083 0.961h14.6294c0.3187 -0.0026 0.6354 -0.0501 0.9408 -0.1411 0.679 -0.1905 1.2769 -0.5985 1.7018 -1.1614 0.4248 -0.563 0.6533 -1.2498 0.6502 -1.955V10.824c0 -0.1564 -0.0311 -0.3113 -0.0917 -0.4556 -0.0606 -0.1442 -0.1492 -0.2748 -0.261 -0.3844 -0.1117 -0.1095 -0.2441 -0.1956 -0.3896 -0.2533 -0.1453 -0.0578 -0.3008 -0.0858 -0.4572 -0.0827ZM3.768 21.408c-0.3119 0 -0.611 -0.1239 -0.8316 -0.3444 -0.2205 -0.2205 -0.3444 -0.5197 -0.3444 -0.8316v-4.1983l3.3986 -3.3987c0.1719 -0.1708 0.4045 -0.2668 0.6468 -0.2668 0.2424 0 0.475 0.096 0.6468 0.2668l8.7848 8.773H3.768Zm15.288 -1.176c-0.0075 0.2277 -0.0811 0.4483 -0.2117 0.635l-5.3155 -5.339 0.835 -0.8232c0.0843 -0.0861 0.1849 -0.1544 0.296 -0.2011 0.111 -0.0467 0.2303 -0.0707 0.3508 -0.0707 0.1204 0 0.2398 0.024 0.3508 0.0707 0.111 0.0467 0.2116 0.115 0.296 0.2011l3.3986 3.4222v2.105Zm3.528 -17.64h-1.176V1.416c0 -0.3119 -0.1239 -0.611 -0.3444 -0.8316C20.8431 0.3639 20.5439 0.24 20.232 0.24c-0.3119 0 -0.611 0.1239 -0.8315 0.3444 -0.2205 0.2206 -0.3445 0.5197 -0.3445 0.8316v1.176H17.88c-0.3119 0 -0.611 0.1239 -0.8315 0.3444 -0.2205 0.2206 -0.3445 0.5197 -0.3445 0.8316s0.124 0.611 0.3445 0.8316c0.2205 0.2205 0.5196 0.3444 0.8315 0.3444h1.176V6.12c0 0.3119 0.124 0.611 0.3445 0.8316 0.2205 0.2205 0.5196 0.3444 0.8315 0.3444 0.3119 0 0.6111 -0.1239 0.8316 -0.3444 0.2205 -0.2206 0.3444 -0.5197 0.3444 -0.8316V4.944h1.176c0.3119 0 0.611 -0.1239 0.8316 -0.3444 0.2205 -0.2206 0.3444 -0.5197 0.3444 -0.8316s-0.1239 -0.611 -0.3444 -0.8316c-0.2205 -0.2205 -0.5197 -0.3444 -0.8316 -0.3444Z" fill="#000000" stroke-width="1"></path>
</svg>