<svg viewBox="0 0 24 24" fill="none" xmlns="http://www.w3.org/2000/svg" id="Image-Question--Streamline-Unicons">
  <desc>
    Image Question Streamline Icon: https://streamlinehq.com
  </desc>
  <path d="M20.232 13.176c-0.3119 0 -0.611 0.124 -0.8315 0.3445s-0.3445 0.5196 -0.3445 0.8315v0.4586l-1.7405 -1.7404c-0.3027 -0.3047 -0.6628 -0.5466 -1.0593 -0.7116 -0.3967 -0.165 -0.8219 -0.2499 -1.2515 -0.2499 -0.4296 0 -0.8548 0.0849 -1.2515 0.2499 -0.3966 0.165 -0.7567 0.4069 -1.0594 0.7116l-0.8232 0.8232 -2.9164 -2.9283c-0.6245 -0.5904 -1.4514 -0.9195 -2.3109 -0.9195s-1.6863 0.3291 -2.3108 0.9195L2.592 12.7056V6.12c0 -0.3119 0.1239 -0.611 0.3444 -0.8316 0.2206 -0.2205 0.5197 -0.3444 0.8316 -0.3444h9.408c0.3119 0 0.6111 -0.1239 0.8316 -0.3444 0.2205 -0.2206 0.3444 -0.5197 0.3444 -0.8316s-0.1239 -0.611 -0.3444 -0.8316c-0.2205 -0.2205 -0.5197 -0.3444 -0.8316 -0.3444H3.768c-0.9357 0 -1.833 0.3717 -2.4947 1.0333C0.6117 4.287 0.24 5.1843 0.24 6.12v14.112c0 0.9356 0.3717 1.833 1.0333 2.4947 0.6617 0.6616 1.559 1.0333 2.4947 1.0333H17.88c0.9356 0 1.833 -0.3717 2.4947 -1.0333 0.6616 -0.6617 1.0333 -1.5591 1.0333 -2.4947v-5.88c0 -0.3119 -0.1239 -0.611 -0.3444 -0.8315s-0.5197 -0.3445 -0.8316 -0.3445ZM3.768 21.408c-0.3119 0 -0.611 -0.1239 -0.8316 -0.3444 -0.2205 -0.2205 -0.3444 -0.5197 -0.3444 -0.8316v-4.1983l3.4104 -3.4104c0.1728 -0.1647 0.4023 -0.2565 0.6409 -0.2565 0.2387 0 0.4682 0.0918 0.6409 0.2565l3.728 3.7279 5.045 5.0568H3.768Zm15.288 -1.176c-0.0098 0.2237 -0.0833 0.4399 -0.2117 0.6233l-5.3037 -5.3273 0.8232 -0.8232c0.1719 -0.1709 0.4044 -0.2668 0.6468 -0.2668 0.2423 0 0.4748 0.0959 0.6468 0.2668l3.3986 3.4339v2.0933ZM20.232 0.24c-0.6196 -0.0004 -1.2286 0.1624 -1.7653 0.4721 -0.5367 0.3097 -0.9824 0.7552 -1.2923 1.2919 -0.0777 0.1342 -0.1282 0.2825 -0.1484 0.4363 -0.0202 0.1538 -0.0098 0.3101 0.0307 0.4598s0.1101 0.2901 0.205 0.4128c0.0949 0.1227 0.2131 0.2254 0.3478 0.3022 0.27 0.1534 0.5898 0.1937 0.8894 0.1121 0.2997 -0.0815 0.5549 -0.2782 0.71 -0.5472 0.1284 -0.2265 0.3283 -0.4041 0.5685 -0.5047 0.2401 -0.1007 0.5068 -0.1189 0.7584 -0.0516 0.2515 0.0673 0.4737 0.2161 0.6315 0.4232 0.1579 0.2071 0.2425 0.4607 0.2407 0.7211 0 0.3119 -0.1239 0.611 -0.3444 0.8316 -0.2205 0.2205 -0.5197 0.3444 -0.8316 0.3444 -0.3119 0 -0.611 0.1239 -0.8315 0.3444 -0.2205 0.2206 -0.3445 0.5197 -0.3445 0.8316s0.124 0.611 0.3445 0.8316c0.2205 0.2205 0.5196 0.3444 0.8315 0.3444 0.9356 0 1.833 -0.3717 2.4947 -1.0333 0.6616 -0.6617 1.0333 -1.559 1.0333 -2.4947s-0.3717 -1.833 -1.0333 -2.4947C22.065 0.6117 21.1676 0.24 20.232 0.24Zm0.4469 8.3261c-0.2129 -0.0987 -0.4504 -0.1315 -0.6821 -0.0941l-0.2117 0.0706 -0.2117 0.1058 -0.1764 0.1529c-0.1104 0.1113 -0.1974 0.2435 -0.256 0.3889 -0.0585 0.1454 -0.0875 0.3011 -0.085 0.4578 -0.0009 0.1548 0.0288 0.3082 0.0873 0.4515 0.0585 0.1432 0.1447 0.2736 0.2537 0.3835 0.1094 0.1102 0.2395 0.1977 0.3827 0.2574 0.1434 0.0597 0.2971 0.0904 0.4523 0.0904s0.3089 -0.0307 0.4523 -0.0904c0.1432 -0.0597 0.2733 -0.1472 0.3827 -0.2574 0.109 -0.1099 0.1952 -0.2403 0.2537 -0.3835 0.0585 -0.1433 0.0882 -0.2967 0.0873 -0.4515 -0.0012 -0.2322 -0.071 -0.4588 -0.2007 -0.6513 -0.1299 -0.1926 -0.3137 -0.3424 -0.5284 -0.4306Z" fill="#000000" stroke-width="1"></path>
</svg>