<svg viewBox="0 0 24 24" fill="none" xmlns="http://www.w3.org/2000/svg" id="Image-Edit--Streamline-Unicons">
  <desc>
    Image Edit Streamline Icon: https://streamlinehq.com
  </desc>
  <path d="M22.9083 3.284 20.1931 0.5687c-0.1041 -0.1042 -0.2279 -0.1869 -0.364 -0.2433C19.693 0.269 19.5471 0.24 19.3998 0.24c-0.1474 0 -0.2933 0.029 -0.4294 0.0854 -0.1361 0.0564 -0.2597 0.1391 -0.364 0.2433l-5.1389 5.139c-0.2105 0.2104 -0.3288 0.4957 -0.3289 0.7933v2.7153c0.0001 0.2975 0.1183 0.5829 0.3288 0.7934 0.2104 0.2104 0.4957 0.3286 0.7933 0.3286h2.7159c0.2975 -0.0001 0.5829 -0.1183 0.7932 -0.3287l5.1385 -5.1391c0.1042 -0.1041 0.1869 -0.2278 0.2433 -0.3639 0.0564 -0.1361 0.0855 -0.282 0.0855 -0.4293 0 -0.1474 -0.0291 -0.2933 -0.0855 -0.4294 -0.0564 -0.1361 -0.1391 -0.2598 -0.2433 -0.3639Zm-6.3964 4.8102h-1.1291V6.9656l4.017 -4.0169 1.1286 1.1286 -4.0165 4.0169Zm3.3256 3.3234c-0.2975 0 -0.583 0.1183 -0.7934 0.3287s-0.3286 0.4958 -0.3286 0.7933v2.6835l-1.6612 -1.6612c-0.5848 -0.5836 -1.3774 -0.9115 -2.2038 -0.9115 -0.8262 0 -1.6188 0.3279 -2.2038 0.9115l-0.7831 0.7832 -2.7895 -2.7895c-0.5842 -0.5833 -1.376 -0.911 -2.2016 -0.911 -0.8256 0 -1.6174 0.3277 -2.2016 0.911l-1.6639 1.664V6.9295c0.0004 -0.2975 0.1187 -0.5827 0.3291 -0.793 0.2103 -0.2103 0.4955 -0.3287 0.7929 -0.3291h6.7322c0.2976 0 0.5831 -0.1182 0.7934 -0.3286 0.2104 -0.2104 0.3287 -0.4958 0.3287 -0.7934s-0.1183 -0.583 -0.3287 -0.7934c-0.2103 -0.2104 -0.4958 -0.3286 -0.7934 -0.3286H4.129c-0.8924 0.0009 -1.748 0.3559 -2.3791 0.987 -0.631 0.631 -0.986 1.4866 -0.987 2.3791v13.4644c0.001 0.8925 0.356 1.748 0.987 2.3792 0.6311 0.631 1.4867 0.9859 2.3791 0.9869h13.4645c0.8924 -0.001 1.748 -0.3559 2.3791 -0.9869 0.631 -0.6312 0.9859 -1.4867 0.987 -2.3792v-7.8543c0 -0.2975 -0.1183 -0.583 -0.3287 -0.7933s-0.4958 -0.3287 -0.7934 -0.3287ZM4.129 21.5159c-0.2974 -0.0003 -0.5826 -0.1187 -0.7929 -0.3291 -0.2104 -0.2102 -0.3287 -0.4955 -0.3291 -0.7929v-4.0011l3.2505 -3.2505c0.1664 -0.1568 0.3864 -0.2441 0.615 -0.2441 0.2286 0 0.4486 0.0873 0.615 0.2441l3.5546 3.5536c0.0096 0.0103 0.013 0.0244 0.0229 0.0343l4.786 4.7857H4.129Zm14.5865 -1.122c-0.0056 0.2163 -0.0754 0.4261 -0.2006 0.6026l-5.0647 -5.0647 0.7832 -0.7832c0.1639 -0.1631 0.3859 -0.2548 0.6171 -0.2548 0.2314 0 0.4532 0.0917 0.6173 0.2548l3.2477 3.2477v1.9976Z" fill="#000000" stroke-width="1"></path>
</svg>