<svg viewBox="0 0 24 24" fill="none" xmlns="http://www.w3.org/2000/svg" id="Image-Search--Streamline-Unicons">
  <desc>
    Image Search Streamline Icon: https://streamlinehq.com
  </desc>
  <path d="M20.216 13.1733c-0.3116 0 -0.6105 0.1238 -0.8309 0.3442 -0.2203 0.2203 -0.3441 0.5192 -0.3441 0.8309v0.4583l-1.7391 -1.7391c-0.6141 -0.6093 -1.4441 -0.9511 -2.309 -0.9511s-1.6949 0.3418 -2.309 0.9511l-0.8225 0.8225 -2.9142 -2.9259c-0.6253 -0.5874 -1.451 -0.9144 -2.309 -0.9144s-1.6836 0.327 -2.309 0.9144l-1.7391 1.7509V6.1229c0 -0.3116 0.1238 -0.6105 0.3442 -0.8309 0.2204 -0.2203 0.5192 -0.3441 0.8309 -0.3441h4.7002c0.3117 0 0.6106 -0.1238 0.8309 -0.3442 0.2204 -0.2204 0.3442 -0.5192 0.3442 -0.8309 0 -0.3116 -0.1238 -0.6105 -0.3442 -0.8309 -0.2203 -0.2203 -0.5192 -0.3442 -0.8309 -0.3442H3.7652c-0.935 0 -1.8316 0.3714 -2.4927 1.0325C0.6114 4.2913 0.24 5.188 0.24 6.1229v14.1008c0 0.9349 0.3714 1.8316 1.0325 2.4926 0.6611 0.6611 1.5577 1.0326 2.4927 1.0326h14.1007c0.9349 0 1.8316 -0.3715 2.4927 -1.0326 0.661 -0.661 1.0325 -1.5577 1.0325 -2.4926v-5.8753c0 -0.3117 -0.1239 -0.6106 -0.3442 -0.8309 -0.2203 -0.2204 -0.5193 -0.3442 -0.8309 -0.3442ZM3.7652 21.3988c-0.3117 0 -0.6105 -0.1239 -0.8309 -0.3442 -0.2204 -0.2205 -0.3442 -0.5193 -0.3442 -0.8309v-4.195l3.4077 -3.3959c0.1726 -0.1645 0.4019 -0.2563 0.6404 -0.2563s0.4678 0.0918 0.6404 0.2563l3.725 3.725 5.041 5.041H3.7652Zm15.2758 -1.1751c-0.0076 0.2275 -0.0811 0.4479 -0.2115 0.6345l-5.2996 -5.3347 0.8226 -0.8108c0.0842 -0.086 0.1848 -0.1543 0.2957 -0.201 0.111 -0.0466 0.2302 -0.0706 0.3506 -0.0706 0.1203 0 0.2395 0.024 0.3505 0.0706 0.1109 0.0467 0.2115 0.1149 0.2957 0.201l3.396 3.4194v2.0916Zm4.3594 -10.2348 -2.0093 -2.0211c0.4981 -0.8103 0.7579 -1.7445 0.7498 -2.6957 -0.0082 -0.9511 -0.284 -1.8807 -0.796 -2.6823S20.1056 1.1469 19.2461 0.7394c-0.8594 -0.4075 -1.8163 -0.5647 -2.7609 -0.4536 -0.9446 0.111 -1.839 0.4859 -2.5804 1.0815 -0.7416 0.5957 -1.3003 1.3882 -1.6124 2.2867 -0.3121 0.8985 -0.3648 1.8667 -0.1522 2.7938 0.2127 0.9271 0.682 1.7756 1.3545 2.4483 0.9336 0.9394 2.2008 1.4717 3.5252 1.4806 0.9472 0.0117 1.879 -0.2405 2.6909 -0.7286l2.0211 2.0329c0.1092 0.1101 0.2392 0.1975 0.3823 0.2572 0.1433 0.0596 0.2968 0.0904 0.4519 0.0904s0.3087 -0.0308 0.452 -0.0904c0.1431 -0.0597 0.2731 -0.1471 0.3823 -0.2572 0.1138 -0.1096 0.2043 -0.2411 0.266 -0.3865 0.0618 -0.1453 0.0936 -0.3016 0.0936 -0.4595 0 -0.1581 -0.0318 -0.3144 -0.0936 -0.4597 -0.0617 -0.1454 -0.1522 -0.2769 -0.266 -0.3864ZM19.041 7.298c-0.3805 0.3831 -0.8663 0.6445 -1.3957 0.7512 -0.5292 0.1066 -1.0783 0.0537 -1.5775 -0.1521 -0.4991 -0.2058 -0.926 -0.5552 -1.2264 -1.0039 -0.3003 -0.4487 -0.4607 -0.9765 -0.4607 -1.5164 0 -0.54 0.1604 -1.0678 0.4607 -1.5165s0.7273 -0.7981 1.2264 -1.0039c0.4992 -0.2058 1.0483 -0.2587 1.5775 -0.152 0.5294 0.1066 1.0152 0.3681 1.3957 0.7511 0.5072 0.5108 0.792 1.2014 0.792 1.9213 0 0.7198 -0.2848 1.4105 -0.792 1.9212Z" fill="#000000" stroke-width="1"></path>
</svg>