<svg viewBox="0 0 24 24" fill="none" xmlns="http://www.w3.org/2000/svg" id="Image-Share--Streamline-Unicons">
  <desc>
    Image Share Streamline Icon: https://streamlinehq.com
  </desc>
  <path d="M21.4048 6.1209c-0.4995 0.0016 -0.9854 0.1622 -1.3875 0.4586l-2.0576 -0.9407 2.2693 -1.0347c0.355 0.2155 0.7606 0.3331 1.1758 0.341 0.4652 0 0.9197 -0.138 1.3065 -0.3964 0.3867 -0.2584 0.6882 -0.6256 0.8662 -1.0553 0.1779 -0.4297 0.2245 -0.9026 0.1338 -1.3588 -0.0908 -0.4561 -0.3148 -0.8752 -0.6436 -1.204 -0.3289 -0.3289 -0.748 -0.5529 -1.2041 -0.6436 -0.4562 -0.0908 -0.929 -0.0442 -1.3588 0.1338 -0.4296 0.178 -0.7969 0.4794 -1.0553 0.8661 -0.2584 0.3867 -0.3963 0.8414 -0.3963 1.3065l-2.2223 1.023c-0.3036 -0.2157 -0.6541 -0.3561 -1.0228 -0.4098 -0.3685 -0.0537 -0.7445 -0.0191 -1.0971 0.101 -0.3525 0.12 -0.6715 0.3221 -0.9307 0.5896 -0.2591 0.2674 -0.4511 0.5926 -0.56 0.9488 -0.1089 0.3561 -0.1317 0.7331 -0.0665 1.0997 0.0653 0.3667 0.2167 0.7127 0.4419 1.0094 0.2251 0.2967 0.5175 0.5356 0.853 0.6973 0.3355 0.1616 0.7046 0.2412 1.077 0.2322 0.3789 0.0002 0.7514 -0.097 1.0818 -0.2822l2.4692 1.1758c0.0588 0.4484 0.2456 0.8704 0.5381 1.2152 0.2925 0.3449 0.6782 0.5982 1.1109 0.7295 0.4328 0.1312 0.8942 0.135 1.329 0.0107 0.4347 -0.1243 0.8245 -0.3713 1.1226 -0.7113 0.2979 -0.3402 0.4916 -0.7591 0.5575 -1.2065 0.066 -0.4473 0.0017 -0.9043 -0.1854 -1.316 -0.1869 -0.4117 -0.4888 -0.7607 -0.8692 -1.0053 -0.3803 -0.2446 -0.8232 -0.3743 -1.2754 -0.3736Zm-1.1758 7.0549c-0.3118 0 -0.611 0.124 -0.8314 0.3444s-0.3444 0.5196 -0.3444 0.8314v0.4586L17.313 13.07c-0.3027 -0.3047 -0.6627 -0.5465 -1.0592 -0.7115 -0.3966 -0.165 -0.8218 -0.2499 -1.2513 -0.2499 -0.4296 0 -0.8547 0.0849 -1.2513 0.2499 -0.3965 0.165 -0.7566 0.4068 -1.0592 0.7115l-0.8231 0.8231 -2.916 -2.9278c-0.6145 -0.6097 -1.445 -0.9517 -2.3105 -0.9517 -0.8656 0 -1.6961 0.342 -2.3105 0.9517l-1.7403 1.7402V6.1209c0 -0.3119 0.1239 -0.6109 0.3444 -0.8315 0.2205 -0.2205 0.5196 -0.3443 0.8315 -0.3443h5.8791c0.3118 0 0.611 -0.1239 0.8314 -0.3444 0.2205 -0.2205 0.3444 -0.5196 0.3444 -0.8315s-0.1239 -0.6109 -0.3444 -0.8314c-0.2205 -0.2205 -0.5196 -0.3444 -0.8314 -0.3444H3.7675c-0.9356 0 -1.8328 0.3717 -2.4943 1.0332C0.6116 4.2881 0.24 5.1853 0.24 6.1209v14.1099c0 0.9354 0.3716 1.8327 1.0332 2.4942 0.6615 0.6616 1.5587 1.0332 2.4943 1.0332h14.1099c0.9354 0 1.8327 -0.3716 2.4942 -1.0332 0.6615 -0.6615 1.0332 -1.5588 1.0332 -2.4942v-5.8792c0 -0.3118 -0.1239 -0.6109 -0.3444 -0.8314s-0.5196 -0.3444 -0.8314 -0.3444ZM3.7675 21.4066c-0.3119 0 -0.6109 -0.1239 -0.8315 -0.3444 -0.2205 -0.2205 -0.3444 -0.5196 -0.3444 -0.8314v-4.1977l3.4099 -3.4099c0.1728 -0.1646 0.4022 -0.2565 0.6409 -0.2565 0.2386 0 0.468 0.0919 0.6408 0.2565l3.7273 3.7273 5.0443 5.0561H3.7675Zm15.2857 -1.1758c-0.0017 0.225 -0.076 0.4436 -0.2117 0.6232l-5.3029 -5.3265 0.823 -0.8231c0.172 -0.1709 0.4044 -0.2668 0.6467 -0.2668 0.2424 0 0.4748 0.096 0.6467 0.2668l3.3982 3.4334v2.093Z" fill="#000000" stroke-width="1"></path>
</svg>