<svg viewBox="0 0 24 24" fill="none" xmlns="http://www.w3.org/2000/svg" id="Image-Download--Streamline-Unicons">
  <desc>
    Image Download Streamline Icon: https://streamlinehq.com
  </desc>
  <path d="M23.4288 6.1664c-0.1041 -0.1049 -0.228 -0.1882 -0.3644 -0.2451 -0.1364 -0.0568 -0.2828 -0.0861 -0.4306 -0.0861s-0.2941 0.0293 -0.4306 0.0861c-0.1364 0.0569 -0.2602 0.1402 -0.3644 0.2451L20.3944 7.622V1.3629c0 -0.2969 -0.118 -0.5817 -0.3279 -0.7917 -0.21 -0.21 -0.4948 -0.328 -0.7918 -0.328 -0.2969 0 -0.5818 0.118 -0.7917 0.328 -0.2099 0.21 -0.328 0.4948 -0.328 0.7917V7.622l-1.4444 -1.4556c-0.2108 -0.2108 -0.4968 -0.3293 -0.7949 -0.3293s-0.5842 0.1185 -0.795 0.3293c-0.2109 0.2108 -0.3293 0.4968 -0.3293 0.795s0.1184 0.5841 0.3293 0.795l3.3591 3.359c0.1064 0.1019 0.232 0.1819 0.3695 0.2352 0.134 0.0592 0.2789 0.0898 0.4254 0.0898 0.1466 0 0.2915 -0.0306 0.4255 -0.0898 0.1375 -0.0533 0.263 -0.1333 0.3695 -0.2352l3.3591 -3.359c0.1049 -0.1041 0.1882 -0.228 0.2451 -0.3644 0.0569 -0.1365 0.0861 -0.2828 0.0861 -0.4306s-0.0292 -0.2942 -0.0861 -0.4306c-0.0569 -0.1365 -0.1402 -0.2603 -0.2451 -0.3644Zm-4.1541 7.5131c-0.2969 0 -0.5818 0.1181 -0.7917 0.328s-0.328 0.4948 -0.328 0.7917v0.4255l-1.6571 -1.6571c-0.5851 -0.5806 -1.376 -0.9063 -2.2002 -0.9063s-1.615 0.3257 -2.2002 0.9063l-0.7838 0.7837 -2.7768 -2.7768c-0.5933 -0.5648 -1.381 -0.8797 -2.2002 -0.8797s-1.6069 0.3149 -2.2002 0.8797l-1.6571 1.6572V6.9614c0 -0.297 0.1179 -0.5818 0.3279 -0.7917 0.21 -0.21 0.4948 -0.328 0.7918 -0.328h8.9575c0.2969 0 0.5818 -0.118 0.7917 -0.328 0.21 -0.2099 0.328 -0.4947 0.328 -0.7917s-0.118 -0.5818 -0.328 -0.7917c-0.2099 -0.21 -0.4948 -0.328 -0.7917 -0.328H3.5991c-0.8909 0 -1.7453 0.3539 -2.3753 0.9839C0.5939 5.2161 0.24 6.0705 0.24 6.9614v13.4363c0 0.8908 0.3539 1.7452 0.9838 2.3752 0.63 0.6299 1.4844 0.9839 2.3753 0.9839h13.4363c0.8908 0 1.7452 -0.354 2.3752 -0.9839 0.6299 -0.63 0.9838 -1.4844 0.9838 -2.3752v-5.5985c0 -0.2969 -0.118 -0.5818 -0.3279 -0.7917s-0.4948 -0.328 -0.7918 -0.328ZM3.5991 21.5174c-0.297 0 -0.5818 -0.118 -0.7918 -0.328 -0.21 -0.2099 -0.3279 -0.4948 -0.3279 -0.7917v-3.9973l3.2471 -3.2471c0.1645 -0.1568 0.383 -0.2442 0.6102 -0.2442 0.2272 0 0.4457 0.0874 0.6102 0.2442l3.5495 3.5494 4.8146 4.8147H3.5991Zm14.5559 -1.1197c-0.0015 0.2143 -0.0723 0.4224 -0.2015 0.5934l-5.0498 -5.0722 0.7838 -0.7838c0.0803 -0.0819 0.1761 -0.147 0.2818 -0.1914 0.1057 -0.0445 0.2194 -0.0673 0.334 -0.0673 0.1147 0 0.2283 0.0228 0.334 0.0673 0.1057 0.0444 0.2015 0.1095 0.2818 0.1914l3.2359 3.2583v2.0043Z" fill="#000000" stroke-width="1"></path>
</svg>