<svg viewBox="0 0 24 24" fill="none" xmlns="http://www.w3.org/2000/svg" id="Image-Broken--Streamline-Unicons">
  <desc>
    Image Broken Streamline Icon: https://streamlinehq.com
  </desc>
  <path d="M23.4191 14.9859 20.4802 12c-0.1093 -0.1101 -0.2393 -0.1976 -0.3825 -0.2573 -0.1433 -0.0597 -0.2969 -0.0904 -0.4521 -0.0904s-0.3088 0.0307 -0.4521 0.0904c-0.1432 0.0597 -0.2732 0.1472 -0.3825 0.2573l-3.2798 3.3385L12.2515 12c-0.1094 -0.1101 -0.2394 -0.1976 -0.3826 -0.2573 -0.1433 -0.0597 -0.2969 -0.0904 -0.4521 -0.0904s-0.3088 0.0307 -0.4521 0.0904c-0.1432 0.0597 -0.2732 0.1472 -0.3825 0.2573l-2.692 2.7508L5.1982 12c-0.1093 -0.1101 -0.2393 -0.1976 -0.3825 -0.2573 -0.1433 -0.0597 -0.2969 -0.0904 -0.4521 -0.0904s-0.3089 0.0307 -0.4521 0.0904c-0.1432 0.0597 -0.2733 0.1472 -0.3826 0.2573L0.5901 14.9389c-0.107 0.1117 -0.1909 0.2435 -0.2469 0.3879 -0.0602 0.1413 -0.0922 0.293 -0.094 0.4467v4.4553c0 0.9352 0.3715 1.8323 1.0329 2.4937 0.6614 0.6613 1.5584 1.0329 2.4937 1.0329h16.4576c0.9354 0 1.8323 -0.3716 2.4936 -1.0329 0.6614 -0.6614 1.033 -1.5585 1.033 -2.4937v-4.4083c-0.0019 -0.1536 -0.0339 -0.3054 -0.094 -0.4467 -0.056 -0.1444 -0.1399 -0.2761 -0.2469 -0.3879Zm-2.0102 5.2429c0 0.3117 -0.1239 0.6108 -0.3443 0.8312s-0.5195 0.3443 -0.8312 0.3443H3.7758c-0.3118 0 -0.6108 -0.1239 -0.8312 -0.3443 -0.2205 -0.2204 -0.3443 -0.5195 -0.3443 -0.8312v-3.9263l1.7633 -1.7633 2.692 2.7037c0.1092 0.1102 0.2393 0.1976 0.3825 0.2573 0.1433 0.0598 0.2969 0.0904 0.4521 0.0904s0.3088 -0.0306 0.4521 -0.0904c0.1432 -0.0597 0.2733 -0.1471 0.3825 -0.2573l2.692 -2.7037 3.2798 3.3385c0.1093 0.1102 0.2393 0.1976 0.3825 0.2573 0.1433 0.0598 0.2969 0.0904 0.4521 0.0904s0.3088 -0.0306 0.4521 -0.0904c0.1432 -0.0597 0.2732 -0.1471 0.3825 -0.2573l3.2798 -3.2915 1.7633 1.7633v3.8793ZM20.2334 0.2446H3.7758c-0.9353 0 -1.8323 0.3715 -2.4937 1.0329S0.2492 2.8359 0.2492 3.7712v6.1834c-0.0123 0.1054 -0.0123 0.2119 0 0.3174v0.1175c0.0736 0.1839 0.1924 0.3461 0.3455 0.4717 0.153 0.1256 0.3354 0.2106 0.53 0.2469 0.1947 0.0363 0.3953 0.0229 0.5834 -0.0389 0.1881 -0.062 0.3575 -0.1705 0.4925 -0.3153l2.163 -2.0924 2.692 2.7037c0.1092 0.1102 0.2393 0.1976 0.3825 0.2573 0.1433 0.0598 0.2969 0.0904 0.4521 0.0904s0.3088 -0.0306 0.4521 -0.0904c0.1432 -0.0597 0.2733 -0.1471 0.3825 -0.2573l2.692 -2.7037L14.6966 12c0.1093 0.1102 0.2393 0.1976 0.3825 0.2573 0.1433 0.0598 0.2969 0.0904 0.4521 0.0904s0.3088 -0.0306 0.4521 -0.0904c0.1432 -0.0597 0.2732 -0.1471 0.3825 -0.2573l3.2798 -3.2915 2.0807 2.0925c0.135 0.1448 0.3044 0.2533 0.4924 0.3152 0.1881 0.0619 0.3888 0.0753 0.5835 0.0389 0.1946 -0.0363 0.377 -0.1213 0.53 -0.2468 0.1531 -0.1257 0.2719 -0.2879 0.3455 -0.4718 0.0058 -0.035 0.0058 -0.0707 0 -0.1058 0.0414 -0.105 0.0651 -0.2163 0.0705 -0.3291V3.7712c0 -0.9333 -0.3699 -1.8285 -1.0287 -2.4895 -0.6589 -0.6611 -1.5529 -1.034 -2.4861 -1.0371Zm1.1755 6.8652 -0.9287 -0.9875c-0.1093 -0.1102 -0.2393 -0.1976 -0.3825 -0.2573 -0.1433 -0.0597 -0.2969 -0.0904 -0.4521 -0.0904s-0.3088 0.0307 -0.4521 0.0904c-0.1432 0.0597 -0.2732 0.1471 -0.3825 0.2573l-3.2798 3.3385 -3.2797 -3.3385c-0.1094 -0.1102 -0.2394 -0.1976 -0.3826 -0.2573 -0.1433 -0.0597 -0.2969 -0.0904 -0.4521 -0.0904s-0.3088 0.0307 -0.4521 0.0904c-0.1432 0.0597 -0.2732 0.1471 -0.3825 0.2573l-2.692 2.7508 -2.692 -2.7508c-0.1093 -0.1102 -0.2393 -0.1976 -0.3825 -0.2573 -0.1433 -0.0597 -0.2969 -0.0904 -0.4521 -0.0904s-0.3089 0.0307 -0.4521 0.0904c-0.1432 0.0597 -0.2733 0.1471 -0.3826 0.2573l-0.9286 0.9875V3.7712c0 -0.3118 0.1238 -0.6108 0.3443 -0.8312 0.2204 -0.2205 0.5194 -0.3443 0.8312 -0.3443h16.4576c0.3117 0 0.6108 0.1238 0.8312 0.3443 0.2204 0.2204 0.3443 0.5194 0.3443 0.8312v3.3386Z" fill="#000000" stroke-width="1"></path>
</svg>