<svg viewBox="0 0 24 24" fill="none" xmlns="http://www.w3.org/2000/svg" id="Info-Circle--Streamline-Unicons">
  <desc>
    Info Circle Streamline Icon: https://streamlinehq.com
  </desc>
  <path d="M12 0.24c-2.3259 0 -4.5996 0.6897 -6.5335 1.9819 -1.9339 1.2922 -3.4412 3.1289 -4.3313 5.2777C0.2451 9.6485 0.0122 12.013 0.466 14.2942s1.5738 4.3766 3.2184 6.0214c1.6447 1.6446 3.7401 2.7647 6.0214 3.2185 2.2812 0.4537 4.6457 0.2208 6.7945 -0.6693 2.1489 -0.8901 3.9856 -2.3974 5.2778 -4.3313C23.0703 16.5996 23.76 14.3259 23.76 12c-0.0035 -3.1179 -1.2436 -6.1071 -3.4483 -8.3118C18.1071 1.4836 15.1179 0.2435 12 0.24Zm0 21.168c-1.8608 0 -3.6797 -0.5518 -5.2268 -1.5855 -1.5471 -1.0338 -2.753 -2.5031 -3.465 -4.2222 -0.7121 -1.7191 -0.8984 -3.6108 -0.5354 -5.4357 0.363 -1.825 1.259 -3.5013 2.5748 -4.8171 1.3157 -1.3157 2.992 -2.2117 4.817 -2.5747 1.8249 -0.363 3.7167 -0.1767 5.4357 0.5353 1.7191 0.7121 3.1884 1.9179 4.2222 3.4651C20.8562 8.3203 21.408 10.1392 21.408 12c-0.0028 2.4943 -0.995 4.8856 -2.7587 6.6493S14.4943 21.4052 12 21.408Zm0 -9.996c-0.3119 0 -0.611 0.1239 -0.8315 0.3444s-0.3445 0.5197 -0.3445 0.8316v3.528c0 0.3119 0.124 0.611 0.3445 0.8315s0.5196 0.3445 0.8315 0.3445c0.3119 0 0.6111 -0.124 0.8316 -0.3445s0.3444 -0.5196 0.3444 -0.8315v-3.528c0 -0.3119 -0.1239 -0.6111 -0.3444 -0.8316s-0.5197 -0.3444 -0.8316 -0.3444Zm0 -4.704c-0.2907 0 -0.5749 0.0862 -0.8167 0.2477 -0.2417 0.1616 -0.4301 0.3912 -0.5415 0.6598 -0.1112 0.2686 -0.1403 0.5641 -0.0836 0.8493 0.0567 0.2851 0.1968 0.5471 0.4023 0.7526 0.2056 0.2056 0.4676 0.3456 0.7527 0.4024 0.2852 0.0567 0.5807 0.0276 0.8494 -0.0837 0.2686 -0.1113 0.4982 -0.2997 0.6596 -0.5414 0.1616 -0.2418 0.2478 -0.526 0.2478 -0.8167 0 -0.3899 -0.1549 -0.7638 -0.4305 -1.0394 -0.2757 -0.2757 -0.6496 -0.4306 -1.0395 -0.4306Z" fill="#000000" stroke-width="1"></path>
</svg>