<svg viewBox="0 0 24 24" fill="none" xmlns="http://www.w3.org/2000/svg" id="Layer-Group-Slash--Streamline-Unicons">
  <desc>
    Layer Group Slash Streamline Icon: https://streamlinehq.com
  </desc>
  <path d="m9.993 3.9326 2.0053 -1.1525L20.0657 7.39l-3.6303 2.1091c-0.2636 0.152 -0.4564 0.4021 -0.5362 0.6957 -0.0799 0.2937 -0.0405 0.6071 0.1098 0.8717 0.0752 0.1321 0.176 0.2479 0.2962 0.3409 0.1203 0.093 0.2578 0.1612 0.4045 0.2009 0.1467 0.0396 0.2999 0.0499 0.4506 0.03 0.1508 -0.0198 0.2961 -0.0692 0.4276 -0.1454l5.3591 -3.1002c0.1773 -0.1005 0.3249 -0.2463 0.4275 -0.4224 0.1026 -0.1762 0.1568 -0.3764 0.1568 -0.5803 0 -0.2038 -0.0542 -0.4041 -0.1568 -0.5802 -0.1027 -0.1761 -0.2502 -0.3219 -0.4275 -0.4224L12.5746 0.3944C12.3994 0.2933 12.2006 0.24 11.9983 0.24s-0.4011 0.0533 -0.5762 0.1544L8.8405 1.8927c-0.1321 0.0753 -0.2479 0.1759 -0.3409 0.2962 -0.093 0.1202 -0.1613 0.2577 -0.2009 0.4045 -0.0397 0.1467 -0.0499 0.2999 -0.0301 0.4506s0.0692 0.296 0.1454 0.4276c0.0724 0.1349 0.1709 0.2541 0.2899 0.3506 0.1189 0.0964 0.2559 0.1682 0.4029 0.2112 0.147 0.0429 0.3011 0.0561 0.4532 0.0388 0.1522 -0.0173 0.2994 -0.0648 0.433 -0.1396ZM2.4442 0.8093C2.3367 0.7018 2.2091 0.6166 2.0688 0.5585 1.9284 0.5003 1.7779 0.4704 1.6259 0.4704c-0.152 0 -0.3024 0.0299 -0.4428 0.0881 -0.1404 0.0581 -0.268 0.1434 -0.3755 0.2508 -0.217 0.217 -0.3389 0.5114 -0.3389 0.8183 0 0.3069 0.1219 0.6012 0.3389 0.8183L3.4007 5.085 1.0958 6.4335c-0.1774 0.1005 -0.3249 0.2462 -0.4276 0.4224 -0.1026 0.1761 -0.1567 0.3763 -0.1567 0.5802 0 0.2039 0.0541 0.4041 0.1567 0.5802 0.1027 0.1762 0.2502 0.322 0.4276 0.4225l10.3724 5.9929c0.1752 0.1012 0.374 0.1545 0.5762 0.1545s0.4011 -0.0533 0.5763 -0.1545l0.1152 -0.0691 1.2332 1.2331 -1.9247 1.1525 -9.8422 -5.7509c-0.1317 -0.0757 -0.277 -0.1247 -0.4276 -0.1442 -0.1506 -0.0196 -0.3036 -0.0092 -0.4502 0.0304 -0.1466 0.0396 -0.284 0.1077 -0.4043 0.2003 -0.1203 0.0927 -0.2212 0.2082 -0.2969 0.3399 -0.0756 0.1316 -0.1246 0.277 -0.1441 0.4276 -0.0196 0.1506 -0.0092 0.3036 0.0304 0.4501 0.0395 0.1466 0.1076 0.284 0.2003 0.4043 0.0927 0.1204 0.2082 0.2212 0.3399 0.2969l10.3724 5.993c0.1756 0.0995 0.3743 0.1512 0.5762 0.1498 0.2019 0.0014 0.4006 -0.0503 0.5763 -0.1498l3.031 -1.7518 1.2332 1.2331 -4.8405 2.743 -9.7962 -5.6126c-0.2659 -0.1528 -0.5816 -0.1937 -0.8777 -0.1138 -0.2961 0.0799 -0.5483 0.2743 -0.7012 0.5402 -0.1528 0.2659 -0.1937 0.5817 -0.1138 0.8777 0.08 0.2961 0.2743 0.5484 0.5403 0.7012l10.3724 5.993c0.1751 0.1012 0.3739 0.1544 0.5762 0.1544s0.4011 -0.0532 0.5763 -0.1544l5.9583 -3.4575 3.0196 3.0311c0.1071 0.1079 0.2346 0.1937 0.375 0.2522 0.1405 0.0586 0.2911 0.0887 0.4432 0.0887s0.3028 -0.0301 0.4433 -0.0887c0.1404 -0.0585 0.2678 -0.1443 0.375 -0.2522 0.108 -0.1072 0.1937 -0.2347 0.2523 -0.3751 0.0585 -0.1405 0.0886 -0.2911 0.0886 -0.4432s-0.0301 -0.3028 -0.0886 -0.4433c-0.0586 -0.1403 -0.1443 -0.2678 -0.2523 -0.375L2.4442 0.8093ZM3.9309 7.39l1.1525 -0.6684 3.1693 3.1693L3.9309 7.39Zm17.8636 3.6073 -2.4433 1.4061c-0.2659 0.1528 -0.4602 0.4049 -0.5402 0.7011 -0.0799 0.2961 -0.039 0.6119 0.1138 0.8778s0.405 0.4602 0.7012 0.5401c0.296 0.08 0.6118 0.0391 0.8777 -0.1137l2.4433 -1.406c0.1317 -0.0758 0.2472 -0.1766 0.3399 -0.2969 0.0926 -0.1203 0.1607 -0.2577 0.2003 -0.4043 0.0396 -0.1466 0.05 -0.2995 0.0304 -0.4502 -0.0195 -0.1506 -0.0685 -0.2959 -0.1442 -0.4275 -0.0757 -0.1318 -0.1766 -0.2473 -0.2969 -0.3399 -0.1202 -0.0927 -0.2577 -0.1608 -0.4043 -0.2003 -0.1466 -0.0397 -0.2995 -0.05 -0.4501 -0.0304 -0.1507 0.0194 -0.2959 0.0684 -0.4276 0.1441Z" fill="#000000" stroke-width="1"></path>
</svg>