<svg viewBox="0 0 24 24" fill="none" xmlns="http://www.w3.org/2000/svg" id="Layer-Group--Streamline-Unicons">
  <desc>
    Layer Group Streamline Icon: https://streamlinehq.com
  </desc>
  <path d="m1.0406 8.3776 10.3825 5.9988c0.1754 0.1013 0.3744 0.1546 0.5769 0.1546 0.2025 0 0.4014 -0.0533 0.5768 -0.1546l10.3826 -5.9988c0.1744 -0.1006 0.3193 -0.2452 0.4206 -0.4192 0.1011 -0.1741 0.155 -0.3716 0.1562 -0.5729 0.0008 -0.2033 -0.0521 -0.4032 -0.1534 -0.5794 -0.1014 -0.1763 -0.2474 -0.3226 -0.4234 -0.4243L12.5768 0.3945C12.4014 0.2933 12.2025 0.24 12 0.24c-0.2025 0 -0.4015 0.0533 -0.5769 0.1545L1.0406 6.3818c-0.1761 0.1017 -0.3221 0.248 -0.4234 0.4243 -0.1013 0.1762 -0.1542 0.3761 -0.1534 0.5794 0.0012 0.2013 0.0551 0.3988 0.1563 0.5729 0.1011 0.174 0.2461 0.3186 0.4205 0.4192ZM12 2.771l8.0753 4.6145L12 12 3.9246 7.3855 12 2.771Zm9.8057 8.2715L12 16.6145l-9.8058 -5.6182c-0.1317 -0.0762 -0.2771 -0.1257 -0.428 -0.1456 -0.1509 -0.0198 -0.3041 -0.0095 -0.4511 0.0301s-0.2845 0.108 -0.4048 0.2011c-0.1204 0.0931 -0.2212 0.2091 -0.2966 0.3413 -0.1504 0.2648 -0.1899 0.5785 -0.1099 0.8724s0.2729 0.5443 0.5368 0.6965l10.3825 5.9988c0.1754 0.1013 0.3744 0.1546 0.5769 0.1546 0.2025 0 0.4014 -0.0533 0.5768 -0.1546l10.3826 -5.9988c0.2639 -0.1522 0.4568 -0.4025 0.5369 -0.6964 0.0799 -0.294 0.0403 -0.6077 -0.1101 -0.8725 -0.0753 -0.1322 -0.1762 -0.2482 -0.2965 -0.3413s-0.2579 -0.1614 -0.4049 -0.201c-0.1469 -0.0397 -0.3002 -0.05 -0.4511 -0.0302 -0.1508 0.0199 -0.2962 0.0694 -0.428 0.1456v0.0462Zm0 4.6145L12 21.229l-9.8058 -5.6182c-0.1317 -0.0762 -0.2771 -0.1257 -0.428 -0.1456 -0.1509 -0.0198 -0.3041 -0.0096 -0.4511 0.0301s-0.2845 0.108 -0.4048 0.2011c-0.1204 0.0931 -0.2212 0.2091 -0.2966 0.3413 -0.1504 0.2648 -0.1899 0.5785 -0.1099 0.8724s0.2729 0.5443 0.5368 0.6965l10.3825 5.9988c0.1754 0.1013 0.3744 0.1546 0.5769 0.1546 0.2025 0 0.4014 -0.0533 0.5768 -0.1546l10.3826 -5.9988c0.2639 -0.1522 0.4568 -0.4025 0.5369 -0.6965 0.0799 -0.2939 0.0403 -0.6076 -0.1101 -0.8724 -0.0753 -0.1322 -0.1762 -0.2482 -0.2965 -0.3413s-0.2579 -0.1614 -0.4049 -0.2011c-0.1469 -0.0396 -0.3002 -0.0499 -0.4511 -0.0301 -0.1508 0.0199 -0.2962 0.0694 -0.428 0.1456v0.0462Z" fill="#000000" stroke-width="1"></path>
</svg>