<svg viewBox="0 0 24 24" fill="none" xmlns="http://www.w3.org/2000/svg" id="Line-Spacing--Streamline-Unicons">
  <desc>
    Line Spacing Streamline Icon: https://streamlinehq.com
  </desc>
  <path d="M5.2888 9.3074c0.1093 0.1102 0.2394 0.1977 0.3826 0.2574 0.1433 0.0596 0.297 0.0904 0.4522 0.0904s0.3089 -0.0307 0.4522 -0.0904c0.1433 -0.0597 0.2733 -0.1472 0.3826 -0.2574 0.1102 -0.1093 0.1977 -0.2393 0.2574 -0.3826 0.0596 -0.1433 0.0904 -0.297 0.0904 -0.4522s-0.0307 -0.3089 -0.0904 -0.4522c-0.0597 -0.1432 -0.1472 -0.2733 -0.2574 -0.3826L4.6069 5.2863c-0.1118 -0.107 -0.2437 -0.191 -0.388 -0.2469 -0.2863 -0.1176 -0.6074 -0.1176 -0.8936 0 -0.1443 0.0559 -0.2762 0.1399 -0.388 0.2469L0.5858 7.6378C0.3644 7.8592 0.24 8.1595 0.24 8.4726s0.1244 0.6134 0.3458 0.8348c0.2214 0.2214 0.5217 0.3458 0.8348 0.3458s0.6134 -0.1244 0.8348 -0.3458l0.3409 -0.3527v6.0904l-0.3409 -0.3527c-0.2214 -0.2214 -0.5217 -0.3458 -0.8348 -0.3458s-0.6134 0.1244 -0.8348 0.3458c-0.2214 0.2214 -0.3458 0.5216 -0.3458 0.8348s0.1244 0.6133 0.3458 0.8347l2.3515 2.3516c0.1118 0.107 0.2437 0.1909 0.388 0.2469 0.1407 0.0622 0.2929 0.0943 0.4468 0.0943 0.1539 0 0.306 -0.0321 0.4468 -0.0943 0.1443 -0.056 0.2762 -0.1399 0.388 -0.2469l2.3515 -2.3516c0.1096 -0.1095 0.1966 -0.2397 0.2559 -0.383 0.0593 -0.1432 0.0899 -0.2967 0.0899 -0.4517 0 -0.1551 -0.0306 -0.3086 -0.0899 -0.4518 -0.0593 -0.1433 -0.1463 -0.2735 -0.2559 -0.383 -0.1096 -0.1096 -0.2398 -0.1966 -0.383 -0.256 -0.1432 -0.0593 -0.2968 -0.0898 -0.4518 -0.0898 -0.155 0 -0.3085 0.0305 -0.4518 0.0898 -0.1432 0.0594 -0.2734 0.1464 -0.383 0.256l-0.341 0.3527V8.9547l0.341 0.3527Zm5.5378 -2.0106h11.7576c0.3119 0 0.611 -0.1238 0.8314 -0.3443 0.2205 -0.2205 0.3444 -0.5196 0.3444 -0.8314s-0.1239 -0.6109 -0.3444 -0.8314c-0.2204 -0.2205 -0.5196 -0.3444 -0.8314 -0.3444H10.8266c-0.3118 0 -0.6109 0.1239 -0.8313 0.3444 -0.2205 0.2205 -0.3444 0.5195 -0.3444 0.8314s0.1239 0.6109 0.3444 0.8314c0.2204 0.2205 0.5195 0.3443 0.8313 0.3443Zm11.7576 3.5273H10.8266c-0.3118 0 -0.6109 0.124 -0.8313 0.3444s-0.3444 0.5196 -0.3444 0.8314c0 0.3118 0.1239 0.6109 0.3444 0.8314s0.5195 0.3443 0.8313 0.3443h11.7576c0.3119 0 0.611 -0.1239 0.8314 -0.3443s0.3444 -0.5196 0.3444 -0.8314c0 -0.3118 -0.1239 -0.6109 -0.3444 -0.8314s-0.5196 -0.3444 -0.8314 -0.3444Zm0 5.8788H10.8266c-0.3118 0 -0.6109 0.124 -0.8313 0.3444s-0.3444 0.5196 -0.3444 0.8314c0 0.3118 0.1239 0.6109 0.3444 0.8314s0.5195 0.3443 0.8313 0.3443h11.7576c0.3119 0 0.611 -0.1239 0.8314 -0.3443s0.3444 -0.5196 0.3444 -0.8314c0 -0.3118 -0.1239 -0.6109 -0.3444 -0.8314s-0.5196 -0.3444 -0.8314 -0.3444Z" fill="#000000" stroke-width="1"></path>
</svg>