<svg viewBox="0 0 24 24" fill="none" xmlns="http://www.w3.org/2000/svg" id="Link-Broken--Streamline-Unicons">
  <desc>
    Link Broken Streamline Icon: https://streamlinehq.com
  </desc>
  <path d="M3.4935 10.3492c0.309 0.0402 0.6212 -0.044 0.8681 -0.234 0.2468 -0.1901 0.408 -0.4704 0.4482 -0.7794 0.0402 -0.3089 -0.044 -0.6211 -0.2341 -0.868 -0.19 -0.2468 -0.4704 -0.4081 -0.7793 -0.4482L1.7463 7.507c-0.1495 -0.0458 -0.3067 -0.061 -0.4622 -0.0449 -0.1554 0.0162 -0.3061 0.0636 -0.4429 0.1392s-0.257 0.1781 -0.3534 0.3011c-0.0964 0.1231 -0.167 0.2643 -0.2077 0.4153 -0.0406 0.1509 -0.0505 0.3085 -0.029 0.4634 0.0215 0.1548 0.074 0.3037 0.1543 0.4379 0.0803 0.1341 0.1867 0.2507 0.313 0.3428 0.1263 0.0922 0.2699 0.1579 0.4221 0.1933l2.0502 0.5475c0.0976 0.0326 0.2 0.0484 0.3028 0.0466Zm4.4963 -6.5114c0.0683 0.2541 0.2206 0.4776 0.4321 0.6341 0.2115 0.1566 0.4698 0.2369 0.7328 0.2279 0.1003 0.0161 0.2025 0.0161 0.3028 0 0.2957 -0.0818 0.5471 -0.277 0.6999 -0.543 0.1526 -0.2661 0.1941 -0.5816 0.1155 -0.8782l-0.5475 -2.0501C9.69 1.0763 9.6242 0.9327 9.5321 0.8064 9.44 0.6801 9.3234 0.5736 9.1892 0.4933 9.0551 0.413 8.9062 0.3606 8.7513 0.3391c-0.1548 -0.0216 -0.3124 -0.0117 -0.4633 0.029 -0.151 0.0407 -0.2922 0.1113 -0.4153 0.2077 -0.1231 0.0964 -0.2255 0.2166 -0.3011 0.3534 -0.0757 0.1368 -0.123 0.2874 -0.1392 0.4429 -0.0162 0.1555 -0.0009 0.3127 0.0449 0.4621l0.5125 2.0036Zm5.6262 11.6484c-0.1088 -0.1145 -0.2398 -0.2057 -0.385 -0.2681 -0.1451 -0.0623 -0.3014 -0.0944 -0.4595 -0.0944 -0.1579 0 -0.3143 0.0321 -0.4595 0.0944 -0.1452 0.0624 -0.2762 0.1536 -0.385 0.2681L7.8501 19.633c-0.4794 0.4599 -1.118 0.7168 -1.7822 0.7168s-1.3029 -0.2569 -1.7823 -0.7168c-0.2359 -0.2329 -0.4233 -0.5104 -0.5512 -0.8163 -0.1278 -0.306 -0.1937 -0.6343 -0.1937 -0.9659 0 -0.3315 0.0659 -0.6599 0.1937 -0.9658 0.1279 -0.3058 0.3153 -0.5834 0.5512 -0.8164l4.1469 -4.077c0.1219 -0.1043 0.221 -0.2328 0.2909 -0.3774 0.0699 -0.1445 0.1092 -0.3019 0.1154 -0.4623 0.0062 -0.1604 -0.0208 -0.3204 -0.0794 -0.4699 -0.0586 -0.1494 -0.1474 -0.2853 -0.2609 -0.3987 -0.1135 -0.1136 -0.2493 -0.2024 -0.3988 -0.261 -0.1494 -0.0585 -0.3094 -0.0856 -0.4699 -0.0794 -0.1604 0.0063 -0.3178 0.0456 -0.4623 0.1154 -0.1445 0.0699 -0.273 0.1691 -0.3774 0.2909l-4.1818 4.0653c-0.4528 0.4528 -0.812 0.9904 -1.0571 1.582 -0.245 0.5916 -0.3711 1.2256 -0.3711 1.866 0 0.6404 0.1261 1.2744 0.3711 1.866s0.6043 1.1291 1.0571 1.5819c0.4527 0.4528 0.9903 0.812 1.5819 1.0571 0.5916 0.245 1.2256 0.3711 1.866 0.3711 0.6403 0 1.2744 -0.1261 1.866 -0.3711 0.5916 -0.2451 1.1291 -0.6043 1.5819 -1.0571l4.1119 -4.1119c0.1183 -0.109 0.2126 -0.2415 0.2771 -0.3888 0.0646 -0.1474 0.0979 -0.3065 0.0979 -0.4674s-0.0333 -0.3199 -0.0979 -0.4673c-0.0645 -0.1474 -0.1588 -0.2797 -0.2771 -0.3888ZM3.9828 5.6899c0.2169 0.2152 0.5098 0.3365 0.8154 0.3378 0.1533 0.0009 0.3052 -0.0285 0.4471 -0.0865 0.142 -0.058 0.2711 -0.1434 0.3799 -0.2513 0.217 -0.2183 0.3387 -0.5135 0.3387 -0.8213 0 -0.3077 -0.1217 -0.6029 -0.3387 -0.8212L4.1226 2.5448c-0.2229 -0.1909 -0.5095 -0.2906 -0.8027 -0.2793 -0.2932 0.0114 -0.5712 0.1329 -0.7787 0.3403 -0.2075 0.2075 -0.329 0.4856 -0.3403 0.7788 -0.0113 0.2931 0.0884 0.5798 0.2792 0.8026l1.5027 1.5027Zm18.7307 8.5382 -2.0502 -0.5474c-0.1519 -0.0525 -0.3131 -0.073 -0.4732 -0.0603 -0.1603 0.0129 -0.3162 0.0588 -0.4578 0.1347 -0.1417 0.076 -0.2661 0.1804 -0.3654 0.3068s-0.1714 0.272 -0.2117 0.4276c-0.0403 0.1557 -0.048 0.3179 -0.0225 0.4766 0.0254 0.1588 0.0834 0.3104 0.1705 0.4457 0.0869 0.1352 0.2009 0.2509 0.3347 0.3399s0.2847 0.1493 0.443 0.1771l2.0502 0.5475h0.3028c0.3089 0.0402 0.6212 -0.044 0.8681 -0.234 0.2468 -0.1901 0.408 -0.4704 0.4482 -0.7794 0.0402 -0.3089 -0.044 -0.6211 -0.2341 -0.8679 -0.19 -0.247 -0.4704 -0.4082 -0.7793 -0.4484l-0.0233 0.0815Zm-6.8493 5.9175c-0.0404 -0.1476 -0.1096 -0.2859 -0.2035 -0.4068 -0.0939 -0.121 -0.2107 -0.2222 -0.3439 -0.298 -0.133 -0.0757 -0.2797 -0.1244 -0.4317 -0.1434 -0.1519 -0.0189 -0.3061 -0.0079 -0.4537 0.0328 -0.2956 0.0817 -0.5471 0.2769 -0.6997 0.543 -0.1527 0.2661 -0.1943 0.5816 -0.1157 0.8781l0.5475 2.0501c0.0683 0.2542 0.2206 0.4777 0.432 0.6343 0.2116 0.1564 0.4699 0.2368 0.7328 0.2277 0.1007 0.0115 0.2023 0.0115 0.3029 0 0.1488 -0.0391 0.2882 -0.1074 0.4105 -0.2008 0.1222 -0.0933 0.2247 -0.21 0.3016 -0.3432 0.0769 -0.1332 0.1266 -0.2804 0.1464 -0.4328 0.0197 -0.1526 0.009 -0.3076 -0.0315 -0.456l-0.594 -2.085Zm4.007 -1.8288c-0.2228 -0.1908 -0.5095 -0.2906 -0.8025 -0.2793 -0.2932 0.0113 -0.5714 0.133 -0.7787 0.3404 -0.2075 0.2075 -0.3291 0.4855 -0.3404 0.7787 -0.0113 0.2932 0.0884 0.5798 0.2792 0.8026l1.5027 1.5026c0.2182 0.2171 0.5134 0.3388 0.8212 0.3388 0.3077 0 0.603 -0.1217 0.8212 -0.3388 0.217 -0.2181 0.3387 -0.5134 0.3387 -0.8212 0 -0.3077 -0.1217 -0.6029 -0.3387 -0.8212l-1.5027 -1.5026Zm2.7724 -12.1493c0.0182 -0.9687 -0.2545 -1.9205 -0.7828 -2.7327 -0.5283 -0.8121 -1.2877 -1.4473 -2.1806 -1.8234 -0.8927 -0.3762 -1.8778 -0.4761 -2.828 -0.2869 -0.9502 0.1892 -1.8217 0.6589 -2.5023 1.3484L10.238 6.8198c-0.1101 0.1109 -0.1973 0.2424 -0.2566 0.387 -0.0593 0.1446 -0.0896 0.2995 -0.0892 0.4558 0.0006 0.1563 0.032 0.3109 0.0923 0.4551 0.0603 0.1442 0.1484 0.2751 0.2593 0.3853 0.1109 0.1101 0.2424 0.1973 0.3871 0.2566 0.1445 0.0593 0.2995 0.0896 0.4558 0.0891 0.1562 -0.0006 0.3109 -0.0319 0.4551 -0.0922 0.1442 -0.0603 0.2751 -0.1484 0.3852 -0.2593l4.077 -4.1469c0.4793 -0.4599 1.1179 -0.7167 1.7822 -0.7167s1.3028 0.2568 1.7822 0.7167c0.236 0.233 0.4233 0.5105 0.5512 0.8164 0.1279 0.3059 0.1937 0.6342 0.1937 0.9658s-0.0658 0.6599 -0.1937 0.9658c-0.1279 0.306 -0.3152 0.5835 -0.5512 0.8164l-4.1469 4.0769c-0.2169 0.2183 -0.3387 0.5136 -0.3387 0.8213 0 0.3077 0.1218 0.603 0.3387 0.8212 0.2183 0.217 0.5135 0.3387 0.8213 0.3387 0.3077 0 0.603 -0.1217 0.8212 -0.3387l4.1818 -4.0653c0.8915 -0.9082 1.3931 -2.1287 1.3978 -3.4013Z" fill="#000000" stroke-width="1"></path>
</svg>