<svg viewBox="0 0 24 24" fill="none" xmlns="http://www.w3.org/2000/svg" id="Link-H--Streamline-Unicons">
  <desc>
    Link H Streamline Icon: https://streamlinehq.com
  </desc>
  <path d="M7.296 12c0 0.3119 0.1239 0.6111 0.3444 0.8316 0.2206 0.2205 0.5197 0.3444 0.8316 0.3444h7.056c0.3119 0 0.6111 -0.1239 0.8316 -0.3444s0.3444 -0.5197 0.3444 -0.8316c0 -0.3119 -0.1239 -0.611 -0.3444 -0.8315s-0.5197 -0.3445 -0.8316 -0.3445H8.472c-0.3119 0 -0.611 0.124 -0.8316 0.3445 -0.2205 0.2205 -0.3444 0.5196 -0.3444 0.8315Zm2.352 3.528H6.12c-0.9357 0 -1.833 -0.3717 -2.4947 -1.0333C2.9637 13.833 2.592 12.9356 2.592 12s0.3717 -1.833 1.0333 -2.4947C4.287 8.8437 5.1843 8.472 6.12 8.472h3.528c0.3119 0 0.6111 -0.1239 0.8316 -0.3444 0.2205 -0.2206 0.3444 -0.5197 0.3444 -0.8316s-0.1239 -0.611 -0.3444 -0.8316c-0.2205 -0.2205 -0.5197 -0.3444 -0.8316 -0.3444H6.12c-1.5595 0 -3.0551 0.6195 -4.1578 1.7222S0.24 10.4405 0.24 12c0 1.5595 0.6195 3.0551 1.7222 4.1578S4.5605 17.88 6.12 17.88h3.528c0.3119 0 0.6111 -0.1239 0.8316 -0.3444s0.3444 -0.5197 0.3444 -0.8316c0 -0.3119 -0.1239 -0.611 -0.3444 -0.8315s-0.5197 -0.3445 -0.8316 -0.3445ZM17.88 6.12h-3.528c-0.3119 0 -0.611 0.1239 -0.8315 0.3444 -0.2205 0.2206 -0.3445 0.5197 -0.3445 0.8316s0.124 0.611 0.3445 0.8316c0.2205 0.2205 0.5196 0.3444 0.8315 0.3444h3.528c0.9356 0 1.833 0.3717 2.4947 1.0333 0.6616 0.6617 1.0333 1.5591 1.0333 2.4947s-0.3717 1.833 -1.0333 2.4947c-0.6617 0.6616 -1.5591 1.0333 -2.4947 1.0333h-3.528c-0.3119 0 -0.611 0.124 -0.8315 0.3445s-0.3445 0.5196 -0.3445 0.8315c0 0.3119 0.124 0.6111 0.3445 0.8316s0.5196 0.3444 0.8315 0.3444h3.528c1.5595 0 3.0551 -0.6195 4.1578 -1.7222S23.76 13.5595 23.76 12c0 -1.5595 -0.6195 -3.0551 -1.7222 -4.1578S19.4395 6.12 17.88 6.12Z" fill="#000000" stroke-width="1"></path>
</svg>