<svg viewBox="0 0 24 24" fill="none" xmlns="http://www.w3.org/2000/svg" id="Link-Alt--Streamline-Unicons">
  <desc>
    Link Alt Streamline Icon: https://streamlinehq.com
  </desc>
  <path d="m12.0567 16.0871 -4.5936 4.5936c-0.5562 0.5367 -1.299 0.8367 -2.0719 0.8367s-1.5157 -0.3 -2.0719 -0.8367c-0.2728 -0.2717 -0.4892 -0.5946 -0.6369 -0.9501 -0.1477 -0.3556 -0.2237 -0.7367 -0.2237 -1.1218 0 -0.385 0.076 -0.7662 0.2237 -1.1217s0.3641 -0.6784 0.6369 -0.9501l4.5936 -4.5936c0.223 -0.223 0.3482 -0.5254 0.3482 -0.8406s-0.1252 -0.6177 -0.3482 -0.8406c-0.2229 -0.223 -0.5253 -0.3482 -0.8406 -0.3482s-0.6176 0.1252 -0.8405 0.3482l-4.5937 4.6054C0.7127 15.8749 0.2122 17.2007 0.2412 18.5682c0.0289 1.3676 0.5851 2.6711 1.5523 3.6382 0.9672 0.9673 2.2707 1.5234 3.6382 1.5524 1.3675 0.029 2.6934 -0.4716 3.7007 -1.3969l4.6054 -4.5936c0.223 -0.223 0.3482 -0.5253 0.3482 -0.8406s-0.1252 -0.6177 -0.3482 -0.8406c-0.2229 -0.2229 -0.5253 -0.3482 -0.8406 -0.3482s-0.6176 0.1253 -0.8405 0.3482Zm10.158 -14.3018C21.2188 0.7955 19.8717 0.24 18.4676 0.24s-2.7512 0.5555 -3.7471 1.5453L10.115 6.3789c-0.1103 0.1104 -0.1979 0.2414 -0.2576 0.3856 -0.0598 0.1443 -0.0906 0.2989 -0.0906 0.455 0 0.1561 0.0308 0.3107 0.0906 0.4549 0.0597 0.1442 0.1473 0.2753 0.2576 0.3856 0.1105 0.1104 0.2414 0.198 0.3857 0.2577 0.1442 0.0598 0.2989 0.0905 0.4549 0.0905 0.1562 0 0.3107 -0.0307 0.455 -0.0905 0.1442 -0.0597 0.2752 -0.1473 0.3856 -0.2577l4.5936 -4.5936c0.5562 -0.5367 1.299 -0.8367 2.0719 -0.8367 0.7729 0 1.5157 0.3 2.0718 0.8367 0.2728 0.2717 0.4892 0.5946 0.637 0.9501 0.1476 0.3556 0.2236 0.7368 0.2236 1.1218 0 0.385 -0.076 0.7662 -0.2236 1.1217 -0.1478 0.3556 -0.3642 0.6785 -0.637 0.9501l-4.5936 4.5937c-0.1109 0.11 -0.199 0.241 -0.2591 0.3853 -0.0601 0.1443 -0.0911 0.299 -0.0911 0.4553s0.031 0.311 0.0911 0.4552c0.0601 0.1444 0.1482 0.2753 0.2591 0.3854 0.1101 0.1109 0.2411 0.199 0.3853 0.2592 0.1443 0.06 0.299 0.091 0.4553 0.091s0.311 -0.031 0.4554 -0.091c0.1443 -0.0602 0.2752 -0.1483 0.3852 -0.2592l4.5936 -4.6055c0.9898 -0.9959 1.5453 -2.343 1.5453 -3.7471 0 -1.4041 -0.5555 -2.7512 -1.5453 -3.7471ZM8.1734 15.8266c0.1106 0.1098 0.2418 0.1966 0.3861 0.2554 0.1442 0.059 0.2987 0.0888 0.4545 0.088 0.1558 0.0008 0.3103 -0.029 0.4545 -0.088 0.1443 -0.0588 0.2755 -0.1456 0.3861 -0.2554l5.8249 -5.8249c0.2229 -0.2229 0.3482 -0.5253 0.3482 -0.8406s-0.1253 -0.6176 -0.3482 -0.8406c-0.223 -0.2229 -0.5253 -0.3482 -0.8406 -0.3482s-0.6177 0.1253 -0.8406 0.3482l-5.8249 5.825c-0.111 0.11 -0.199 0.2409 -0.2591 0.3852 -0.0601 0.1443 -0.0911 0.2991 -0.0911 0.4554s0.031 0.311 0.0911 0.4552c0.0601 0.1443 0.1481 0.2752 0.2591 0.3853Z" fill="#000000" stroke-width="1"></path>
</svg>