<svg viewBox="0 0 24 24" fill="none" xmlns="http://www.w3.org/2000/svg" id="Lock-Slash--Streamline-Unicons">
  <desc>
    Lock Slash Streamline Icon: https://streamlinehq.com
  </desc>
  <path d="M10.6355 4.2177c0.4517 -0.3218 1.0028 -0.4735 1.5556 -0.4283 0.5528 0.0451 1.0717 0.2843 1.4652 0.6752 0.4415 0.4388 0.6909 1.0348 0.6935 1.6573v3.5263c0 0.3118 0.1239 0.6107 0.3443 0.8311 0.2204 0.2205 0.5194 0.3443 0.8312 0.3443h1.1754c0.3117 0 0.6107 0.1238 0.8311 0.3442 0.2204 0.2205 0.3443 0.5195 0.3443 0.8312v0.3996c0 0.3119 0.1239 0.6108 0.3443 0.8312 0.2204 0.2205 0.5194 0.3442 0.8311 0.3442s0.6108 -0.1237 0.8312 -0.3442c0.2203 -0.2204 0.3442 -0.5193 0.3442 -0.8312v-0.3996c0 -0.9352 -0.3715 -1.8322 -1.0328 -2.4934 -0.6613 -0.6613 -1.5581 -1.0328 -2.4934 -1.0328V6.1219c0.0004 -0.6176 -0.1207 -1.2293 -0.3568 -1.8 -0.2359 -0.5708 -0.582 -1.0895 -1.0185 -1.5264 -0.8021 -0.7789 -1.8522 -1.2515 -2.9671 -1.3353 -1.1149 -0.0838 -2.2239 0.2266 -3.1333 0.8769 -0.1235 0.0926 -0.2275 0.2086 -0.3061 0.3414 -0.0787 0.1329 -0.1304 0.2799 -0.1522 0.4327 -0.0219 0.1528 -0.0134 0.3084 0.0249 0.4579 0.0383 0.1496 0.1057 0.2901 0.1983 0.4136 0.0927 0.1234 0.2087 0.2275 0.3415 0.3061 0.1328 0.0787 0.2798 0.1304 0.4327 0.1522 0.1528 0.0218 0.3084 0.0134 0.4579 -0.0249 0.1495 -0.0384 0.29 -0.1058 0.4135 -0.1984Zm12.7768 17.5255L2.2548 0.5857C2.0334 0.3644 1.7332 0.24 1.4202 0.24S0.807 0.3644 0.5857 0.5857C0.3643 0.807 0.24 1.1072 0.24 1.4203s0.1243 0.6132 0.3457 0.8345l6.2649 6.218c-0.8558 0.1092 -1.6419 0.5285 -2.2094 1.1783 -0.5675 0.6499 -0.8771 1.4852 -0.8701 2.3479v7.0525c0 0.9353 0.3715 1.8322 1.0328 2.4935s1.5582 1.0327 2.4934 1.0327h9.4034c0.5454 -0.0017 1.083 -0.1301 1.5704 -0.3748 0.4875 -0.2447 0.9116 -0.5992 1.2388 -1.0357l2.2333 2.2451c0.1093 0.1102 0.2393 0.1977 0.3825 0.2573 0.1433 0.0597 0.2969 0.0904 0.4521 0.0904s0.3087 -0.0307 0.452 -0.0904c0.1432 -0.0596 0.2732 -0.147 0.3825 -0.2573 0.1102 -0.1092 0.1976 -0.2392 0.2573 -0.3825 0.0597 -0.1432 0.0904 -0.2968 0.0904 -0.4521 0 -0.1551 -0.0307 -0.3087 -0.0904 -0.4519 -0.0597 -0.1433 -0.1471 -0.2733 -0.2573 -0.3826Zm-6.7116 -1.5163H7.2973c-0.3117 0 -0.6107 -0.1238 -0.8311 -0.3443 -0.2205 -0.2204 -0.3443 -0.5193 -0.3443 -0.8311V11.999c0 -0.3117 0.1238 -0.6107 0.3443 -0.8312 0.2204 -0.2204 0.5194 -0.3442 0.8311 -0.3442h1.8689l2.4332 2.4331c-0.2254 0.0814 -0.4204 0.2298 -0.5591 0.4251 -0.1386 0.1955 -0.2143 0.4285 -0.2167 0.668v2.3509c0 0.3118 0.1239 0.6107 0.3443 0.8311 0.2203 0.2205 0.5194 0.3443 0.8311 0.3443s0.6107 -0.1238 0.8311 -0.3443c0.2204 -0.2204 0.3443 -0.5193 0.3443 -0.8311v-1.869l4.6194 4.6194c-0.0814 0.2254 -0.2298 0.4204 -0.4251 0.5591 -0.1954 0.1387 -0.4285 0.2142 -0.668 0.2167Z" fill="#000000" stroke-width="1"></path>
</svg>