<svg viewBox="0 0 24 24" fill="none" xmlns="http://www.w3.org/2000/svg" id="Lock-Open-Alt--Streamline-Unicons">
  <desc>
    Lock Open Alt Streamline Icon: https://streamlinehq.com
  </desc>
  <path d="M12 13.1754c-0.3581 -0.0041 -0.7088 0.1015 -1.0051 0.3026 -0.2961 0.2012 -0.5237 0.4883 -0.6517 0.8227 -0.1281 0.3344 -0.1507 0.7 -0.0648 1.0476 0.0859 0.3477 0.2763 0.6606 0.5455 0.8966v1.6348c0 0.312 0.124 0.6111 0.3445 0.8316 0.2205 0.2206 0.5197 0.3444 0.8316 0.3444 0.3119 0 0.6111 -0.1238 0.8316 -0.3444 0.2205 -0.2205 0.3445 -0.5196 0.3445 -0.8316v-1.6348c0.2692 -0.236 0.4596 -0.5489 0.5456 -0.8966 0.0858 -0.3476 0.0632 -0.7132 -0.0648 -1.0476 -0.1281 -0.3344 -0.3557 -0.6215 -0.6518 -0.8227 -0.2963 -0.2011 -0.647 -0.3067 -1.0051 -0.3026Zm5.8803 -4.7042H8.4718V6.1191c-0.0017 -0.6984 0.2039 -1.3815 0.5907 -1.963 0.3868 -0.5814 0.9375 -1.035 1.5823 -1.3032 0.6447 -0.2683 1.3547 -0.3391 2.0398 -0.2036 0.685 0.1355 1.3146 0.4712 1.8087 0.9647 0.442 0.4517 0.7584 1.0113 0.9173 1.623 0.0386 0.1498 0.1063 0.2906 0.1993 0.4142 0.0931 0.1236 0.2095 0.2277 0.3427 0.3063 0.1333 0.0787 0.2806 0.1303 0.4339 0.152 0.1531 0.0216 0.3091 0.0129 0.4589 -0.0257s0.2906 -0.1064 0.4142 -0.1994c0.1236 -0.093 0.2277 -0.2094 0.3064 -0.3427 0.0785 -0.1332 0.1301 -0.2806 0.1518 -0.4338 0.0216 -0.1532 0.0129 -0.3091 -0.0257 -0.4589 -0.2679 -1.0176 -0.7993 -1.9465 -1.5406 -2.6932 -0.823 -0.8205 -1.8708 -1.3787 -3.0107 -1.6041 -1.1401 -0.2255 -2.3215 -0.108 -3.3947 0.3374 -1.0735 0.4455 -1.9908 1.199 -2.6362 2.1654 -0.6454 0.9664 -0.99 2.1024 -0.9902 3.2645v2.3522c-0.9358 0 -1.8332 0.3717 -2.4948 1.0333 -0.6617 0.6617 -1.0334 1.5592 -1.0334 2.4949v8.2324c0 0.9358 0.3717 1.8333 1.0334 2.4949S5.1839 23.76 6.1197 23.76h11.7606c0.9357 0 1.8332 -0.3716 2.4948 -1.0333 0.6617 -0.6616 1.0334 -1.5591 1.0334 -2.4949v-8.2324c0 -0.9357 -0.3717 -1.8332 -1.0334 -2.4948 -0.6616 -0.6617 -1.5591 -1.0334 -2.4948 -1.0334Zm1.1761 11.7606c0 0.312 -0.124 0.6111 -0.3445 0.8316 -0.2205 0.2206 -0.5197 0.3445 -0.8316 0.3445H6.1197c-0.3119 0 -0.6111 -0.1239 -0.8316 -0.3445 -0.2206 -0.2205 -0.3445 -0.5196 -0.3445 -0.8316v-8.2324c0 -0.3119 0.1239 -0.611 0.3445 -0.8316 0.2205 -0.2206 0.5197 -0.3445 0.8316 -0.3445h11.7606c0.3119 0 0.6111 0.1239 0.8316 0.3445 0.2205 0.2206 0.3445 0.5197 0.3445 0.8316v8.2324Z" fill="#000000" stroke-width="1"></path>
</svg>