<svg viewBox="0 0 24 24" fill="none" xmlns="http://www.w3.org/2000/svg" id="Lock-Access--Streamline-Unicons">
  <desc>
    Lock Access Streamline Icon: https://streamlinehq.com
  </desc>
  <path d="M22.584 0.24h-7.056c-0.3119 0 -0.611 0.1239 -0.8315 0.3444 -0.2205 0.2206 -0.3445 0.5197 -0.3445 0.8316s0.124 0.611 0.3445 0.8316c0.2205 0.2205 0.5196 0.3444 0.8315 0.3444h5.88v5.88c0 0.3119 0.124 0.611 0.3445 0.8316 0.2205 0.2205 0.5196 0.3444 0.8315 0.3444 0.3119 0 0.611 -0.1239 0.8316 -0.3444 0.2205 -0.2206 0.3444 -0.5197 0.3444 -0.8316V1.416c0 -0.3119 -0.1239 -0.611 -0.3444 -0.8316C23.1951 0.3639 22.8959 0.24 22.584 0.24Zm0 14.112c-0.3119 0 -0.611 0.124 -0.8315 0.3445s-0.3445 0.5196 -0.3445 0.8315v5.88h-5.88c-0.3119 0 -0.611 0.124 -0.8315 0.3445s-0.3445 0.5196 -0.3445 0.8315c0 0.3119 0.124 0.6111 0.3445 0.8316s0.5196 0.3444 0.8315 0.3444h7.056c0.3119 0 0.6111 -0.1239 0.8316 -0.3444s0.3444 -0.5197 0.3444 -0.8316v-7.056c0 -0.3119 -0.1239 -0.611 -0.3444 -0.8315s-0.5197 -0.3445 -0.8316 -0.3445ZM12 4.944c-0.9356 0 -1.833 0.3717 -2.4947 1.0333 -0.6616 0.6617 -1.0333 1.559 -1.0333 2.4947v1.176c-0.6238 0 -1.222 0.2478 -1.6631 0.6889C6.3678 10.778 6.12 11.3763 6.12 12v4.704c0 0.6238 0.2478 1.222 0.6889 1.6631 0.4411 0.4411 1.0393 0.6889 1.6631 0.6889h7.056c0.6238 0 1.222 -0.2478 1.6631 -0.6889s0.6889 -1.0393 0.6889 -1.6631V12c0 -0.6237 -0.2478 -1.222 -0.6889 -1.6631s-1.0393 -0.6889 -1.6631 -0.6889V8.472c0 -0.9357 -0.3717 -1.833 -1.0333 -2.4947C13.833 5.3157 12.9356 4.944 12 4.944Zm-1.176 3.528c0 -0.3119 0.124 -0.611 0.3445 -0.8316 0.2205 -0.2205 0.5196 -0.3444 0.8315 -0.3444 0.3119 0 0.6111 0.1239 0.8316 0.3444 0.2205 0.2206 0.3444 0.5197 0.3444 0.8316v1.176h-2.352V8.472Zm4.704 8.232H8.472V12h7.056v4.704ZM1.416 9.648c0.3119 0 0.611 -0.1239 0.8316 -0.3444 0.2205 -0.2206 0.3444 -0.5197 0.3444 -0.8316v-5.88h5.88c0.3119 0 0.611 -0.1239 0.8316 -0.3444 0.2205 -0.2206 0.3444 -0.5197 0.3444 -0.8316S9.5241 0.805 9.3036 0.5844C9.083 0.3639 8.7839 0.24 8.472 0.24H1.416C1.1041 0.24 0.805 0.3639 0.5844 0.5844 0.3639 0.805 0.24 1.1041 0.24 1.416v7.056c0 0.3119 0.1239 0.611 0.3444 0.8316 0.2206 0.2205 0.5197 0.3444 0.8316 0.3444Zm7.056 11.76h-5.88v-5.88c0 -0.3119 -0.1239 -0.611 -0.3444 -0.8315 -0.2206 -0.2205 -0.5197 -0.3445 -0.8316 -0.3445s-0.611 0.124 -0.8316 0.3445c-0.2205 0.2205 -0.3444 0.5196 -0.3444 0.8315v7.056c0 0.3119 0.1239 0.6111 0.3444 0.8316 0.2206 0.2205 0.5197 0.3444 0.8316 0.3444h7.056c0.3119 0 0.611 -0.1239 0.8316 -0.3444 0.2205 -0.2205 0.3444 -0.5197 0.3444 -0.8316 0 -0.3119 -0.1239 -0.611 -0.3444 -0.8315 -0.2206 -0.2205 -0.5197 -0.3445 -0.8316 -0.3445Z" fill="#000000" stroke-width="1"></path>
</svg>