<svg viewBox="0 0 24 24" fill="none" xmlns="http://www.w3.org/2000/svg" id="Map-Pin-Alt--Streamline-Unicons">
  <desc>
    Map Pin Alt Streamline Icon: https://streamlinehq.com
  </desc>
  <path d="M10.8239 11.8818v5.9979c0 0.3119 0.124 0.611 0.3445 0.8316 0.2205 0.2205 0.5197 0.3445 0.8316 0.3445 0.3119 0 0.6111 -0.124 0.8316 -0.3445 0.2205 -0.2206 0.3445 -0.5197 0.3445 -0.8316v-5.9979c1.4277 -0.2915 2.6964 -1.1026 3.5601 -2.2764 0.8637 -1.1737 1.2607 -2.6263 1.1143 -4.0761 -0.1465 -1.4499 -0.826 -2.7937 -1.907 -3.771C14.8625 0.7811 13.4572 0.24 12 0.24S9.1374 0.7811 8.0565 1.7583c-1.081 0.9773 -1.7606 2.3211 -1.907 3.771 -0.1465 1.4498 0.2506 2.9024 1.1143 4.0761 0.8637 1.1737 2.1324 1.9849 3.5601 2.2764ZM12 2.5909c0.6977 0 1.38 0.2069 1.9601 0.5946 0.5803 0.3877 1.0325 0.9387 1.2995 1.5834 0.267 0.6447 0.3369 1.3541 0.2008 2.0385 -0.1362 0.6844 -0.4722 1.3131 -0.9656 1.8065 -0.4934 0.4934 -1.1221 0.8294 -1.8064 0.9656 -0.6845 0.1361 -1.3939 0.0662 -2.0386 -0.2008 -0.6446 -0.267 -1.1957 -0.7193 -1.5834 -1.2995 -0.3876 -0.5802 -0.5946 -1.2623 -0.5946 -1.9601 0 -0.9357 0.3717 -1.8331 1.0334 -2.4948 0.6617 -0.6617 1.5591 -1.0334 2.4948 -1.0334Zm4.9512 12.2546c-0.1544 -0.0325 -0.3138 -0.0342 -0.4689 -0.0051 -0.155 0.0292 -0.3029 0.0886 -0.435 0.1749 -0.1322 0.0862 -0.246 0.1977 -0.3351 0.328 -0.089 0.1302 -0.1516 0.2767 -0.184 0.4313 -0.0325 0.1544 -0.0341 0.3136 -0.005 0.4687 0.0291 0.1552 0.0885 0.303 0.1748 0.4352 0.0863 0.1321 0.1977 0.2459 0.328 0.335 0.1303 0.0891 0.2768 0.1516 0.4313 0.1841 2.6696 0.5292 3.7751 1.4818 3.7751 1.8582 0 0.6821 -2.8813 2.3521 -8.2324 2.3521s-8.2324 -1.67 -8.2324 -2.3521c0 -0.3764 1.1055 -1.329 3.7751 -1.9052 0.1545 -0.0325 0.301 -0.0951 0.4313 -0.1841 0.1303 -0.0891 0.2417 -0.203 0.328 -0.335 0.0863 -0.1322 0.1457 -0.2801 0.1748 -0.4352 0.0291 -0.1551 0.0275 -0.3143 -0.005 -0.4688 -0.0324 -0.1545 -0.095 -0.301 -0.184 -0.4312 -0.0891 -0.1303 -0.2029 -0.2418 -0.3351 -0.328 -0.1321 -0.0863 -0.28 -0.1457 -0.4351 -0.1749 -0.1551 -0.0292 -0.3144 -0.0274 -0.4688 0.0051 -3.5752 0.8232 -5.6333 2.3638 -5.6333 4.2573C1.4155 22.1488 6.743 23.76 12 23.76s10.5845 -1.6112 10.5845 -4.7042c0 -1.8935 -2.0581 -3.4341 -5.6333 -4.2103Z" fill="#000000" stroke-width="1"></path>
</svg>