<svg viewBox="0 0 24 24" fill="none" xmlns="http://www.w3.org/2000/svg" id="Map-Marker--Streamline-Unicons">
  <desc>
    Map Marker Streamline Icon: https://streamlinehq.com
  </desc>
  <path d="M12 0.24c-2.4951 0 -4.8881 0.9912 -6.6524 2.7555C3.5832 4.7599 2.5921 7.1528 2.5921 9.648c0 6.3503 8.2907 13.5239 8.6435 13.8296 0.213 0.1822 0.4841 0.2824 0.7644 0.2824s0.5514 -0.1002 0.7644 -0.2824c0.4116 -0.3057 8.6436 -7.4793 8.6436 -13.8296 0 -2.4952 -0.9913 -4.8881 -2.7555 -6.6525C16.8881 1.2312 14.4951 0.24 12 0.24Zm0 20.7563c-2.5049 -2.352 -7.056 -7.4205 -7.056 -11.3483 0 -1.8714 0.7434 -3.6661 2.0667 -4.9894C8.3339 3.3354 10.1286 2.592 12 2.592s3.666 0.7434 4.9893 2.0666c1.3233 1.3233 2.0667 3.118 2.0667 4.9894 0 3.9278 -4.5511 9.0081 -7.056 11.3483ZM12 4.944c-0.9303 0 -1.8398 0.2759 -2.6134 0.7927 -0.7736 0.5169 -1.3765 1.2516 -1.7325 2.1111 -0.356 0.8596 -0.4492 1.8053 -0.2677 2.7179 0.1815 0.9125 0.6295 1.7506 1.2874 2.4084 0.6578 0.6579 1.496 1.1059 2.4085 1.2874 0.9125 0.1816 1.8583 0.0884 2.7178 -0.2677 0.8595 -0.3559 1.5943 -0.9589 2.1111 -1.7324s0.7928 -1.6831 0.7928 -2.6134c0 -1.2476 -0.4956 -2.4441 -1.3778 -3.3263C14.4441 5.4396 13.2476 4.944 12 4.944Zm0 7.0559c-0.4652 0 -0.9199 -0.1379 -1.3066 -0.3964 -0.3868 -0.2584 -0.6884 -0.6257 -0.8664 -1.0554 -0.1779 -0.4299 -0.2245 -0.9028 -0.1338 -1.359 0.0908 -0.4562 0.3148 -0.8753 0.6437 -1.2043 0.3289 -0.3289 0.7481 -0.5529 1.2042 -0.6436 0.4563 -0.0908 0.9292 -0.0442 1.359 0.1338 0.4297 0.178 0.7971 0.4795 1.0555 0.8663 0.2584 0.3867 0.3964 0.8415 0.3964 1.3067 0 0.6237 -0.2478 1.2219 -0.6889 1.663s-1.0393 0.6889 -1.6631 0.6889Z" fill="#000000" stroke-width="1"></path>
</svg>