<svg viewBox="0 0 24 24" fill="none" xmlns="http://www.w3.org/2000/svg" id="Map--Streamline-Unicons">
  <desc>
    Map Streamline Icon: https://streamlinehq.com
  </desc>
  <path d="m22.9603 3.8206 -7.056 -2.352h-0.0823c-0.0547 -0.0055 -0.1098 -0.0055 -0.1646 0h-0.5057L8.472 3.7618 1.7923 1.4686c-0.1768 -0.0583 -0.365 -0.0738 -0.549 -0.0452s-0.3586 0.1006 -0.5094 0.2098c-0.152 0.1083 -0.276 0.2511 -0.3619 0.4167 -0.0859 0.1656 -0.1311 0.3493 -0.132 0.5359v16.464c-0.0006 0.2465 0.0762 0.487 0.2197 0.6875 0.1435 0.2005 0.3464 0.3508 0.58 0.4297l7.056 2.352c0.2369 0.0772 0.4922 0.0772 0.7291 0l6.7032 -2.2344 6.6797 2.2932c0.1249 0.017 0.2514 0.017 0.3763 0 0.2459 0.0035 0.4859 -0.0752 0.6821 -0.2234 0.1519 -0.1083 0.276 -0.2511 0.362 -0.4168 0.0858 -0.1655 0.1311 -0.3492 0.1319 -0.5358V4.9378c0.0006 -0.2465 -0.0762 -0.487 -0.2197 -0.6875 -0.1436 -0.2005 -0.3464 -0.3508 -0.58 -0.4297ZM7.296 19.7672l-4.704 -1.5641V4.2204l4.704 1.5641v13.9827Zm7.056 -1.5641 -4.704 1.5641V5.7845l4.704 -1.5641v13.9827Zm7.056 1.5641 -4.704 -1.5641V4.2204l4.704 1.5641v13.9827Z" fill="#000000" stroke-width="1"></path>
</svg>