<svg viewBox="0 0 24 24" fill="none" xmlns="http://www.w3.org/2000/svg" id="Mouse-Alt-2--Streamline-Unicons">
  <desc>
    Mouse Alt 2 Streamline Icon: https://streamlinehq.com
  </desc>
  <path d="M12 0.24c-2.1832 0 -4.2771 0.8673 -5.8209 2.4111C4.6353 4.1949 3.768 6.2887 3.768 8.472v7.056c0 2.1832 0.8673 4.2771 2.4111 5.8209C7.7229 22.8927 9.8168 23.76 12 23.76s4.2771 -0.8673 5.8209 -2.4111c1.5438 -1.5438 2.4111 -3.6377 2.4111 -5.8209V8.472c0 -2.1833 -0.8673 -4.2771 -2.4111 -5.8209C16.2771 1.1073 14.1832 0.24 12 0.24Zm5.88 15.288c0 1.5595 -0.6195 3.0551 -1.7222 4.1578S13.5595 21.408 12 21.408c-1.5595 0 -3.0551 -0.6195 -4.1578 -1.7222S6.12 17.0875 6.12 15.528V8.472c-0.0003 -1.3555 0.4678 -2.6695 1.325 -3.7196 0.8572 -1.05 2.0509 -1.7717 3.379 -2.0428V12c0 0.3119 0.124 0.6111 0.3445 0.8316s0.5196 0.3444 0.8315 0.3444c0.3119 0 0.6111 -0.1239 0.8316 -0.3444s0.3444 -0.5197 0.3444 -0.8316V2.7096c1.3282 0.2711 2.5218 0.9928 3.379 2.0428 0.8572 1.0501 1.3252 2.3641 1.325 3.7196v7.056Z" fill="#000000" stroke-width="1"></path>
</svg>