<svg viewBox="0 0 24 24" fill="none" xmlns="http://www.w3.org/2000/svg" id="Music--Streamline-Unicons">
  <desc>
    Music Streamline Icon: https://streamlinehq.com
  </desc>
  <path d="M23.3478 0.5236c-0.1282 -0.1101 -0.2786 -0.1911 -0.4409 -0.2378 -0.1624 -0.0467 -0.3329 -0.0578 -0.4999 -0.0327L7.1199 2.605c-0.2784 0.0422 -0.5324 0.1829 -0.7158 0.3966 -0.1835 0.2136 -0.2841 0.486 -0.2838 0.7675V15.94c-0.5494 -0.2683 -1.1524 -0.409 -1.7639 -0.4116 -0.814 0 -1.6097 0.2415 -2.2866 0.6937 -0.6768 0.4523 -1.2043 1.095 -1.5158 1.8471 -0.3115 0.7521 -0.3931 1.5796 -0.2342 2.3779 0.1588 0.7985 0.5508 1.5318 1.1264 2.1074 0.5756 0.5756 1.3089 0.9676 2.1073 1.1264 0.7984 0.1588 1.6259 0.0773 2.378 -0.2342 0.752 -0.3115 1.3948 -0.839 1.8471 -1.5159 0.4522 -0.6767 0.6936 -1.4725 0.6936 -2.2866v-8.9841l12.9353 -1.9873v4.9153c-0.5494 -0.2683 -1.1524 -0.4089 -1.7639 -0.4115 -0.814 0 -1.6098 0.2414 -2.2866 0.6936 -0.6769 0.4523 -1.2044 1.0951 -1.5159 1.8471 -0.3115 0.7521 -0.393 1.5796 -0.2342 2.378 0.1588 0.7984 0.5507 1.5317 1.1264 2.1073 0.5756 0.5757 1.309 0.9676 2.1073 1.1265 0.7984 0.1587 1.626 0.0772 2.378 -0.2343 0.752 -0.3115 1.3949 -0.839 1.8471 -1.5159 0.4522 -0.6767 0.6936 -1.4725 0.6936 -2.2866V1.4173c0 -0.1699 -0.0368 -0.3377 -0.1078 -0.492 -0.071 -0.1543 -0.1746 -0.2914 -0.3037 -0.4017ZM4.3564 21.4081c-0.3488 0 -0.6899 -0.1034 -0.9799 -0.2973 -0.2901 -0.1938 -0.5162 -0.4693 -0.6497 -0.7915 -0.1335 -0.3223 -0.1684 -0.677 -0.1004 -1.0192 0.0681 -0.3422 0.2361 -0.6565 0.4828 -0.9031 0.2467 -0.2467 0.5609 -0.4147 0.9031 -0.4827 0.3422 -0.0681 0.6968 -0.0332 1.0192 0.1003 0.3223 0.1335 0.5977 0.3596 0.7916 0.6497 0.1938 0.29 0.2972 0.6311 0.2972 0.9799 0 0.4679 -0.1858 0.9165 -0.5166 1.2473 -0.3308 0.3308 -0.7794 0.5166 -1.2473 0.5166Zm15.2872 -2.3519c-0.3489 0 -0.6899 -0.1033 -0.98 -0.2972 -0.29 -0.1938 -0.5162 -0.4694 -0.6496 -0.7916 -0.1335 -0.3223 -0.1685 -0.677 -0.1005 -1.0191 0.0681 -0.3422 0.2362 -0.6566 0.4828 -0.9032 0.2467 -0.2467 0.561 -0.4147 0.9032 -0.4827 0.3421 -0.0681 0.6967 -0.0331 1.0191 0.1003s0.5978 0.3596 0.7916 0.6497c0.1938 0.29 0.2973 0.6311 0.2973 0.9799 0 0.4679 -0.1858 0.9166 -0.5166 1.2473s-0.7795 0.5166 -1.2473 0.5166Zm1.7639 -12.7706L8.4722 8.273V4.7452l12.9353 -1.9521v3.4925Z" fill="#000000" stroke-width="1"></path>
</svg>