<svg viewBox="0 0 24 24" fill="none" xmlns="http://www.w3.org/2000/svg" id="Music-Tune-Slash--Streamline-Unicons">
  <desc>
    Music Tune Slash Streamline Icon: https://streamlinehq.com
  </desc>
  <path d="M11.939 6.5315c0.3114 0 0.61 -0.1236 0.8301 -0.3438 0.2202 -0.2202 0.3439 -0.5188 0.3439 -0.8301v-0.6457l7.0436 -1.7609v3.4514l-5.0479 1.2679c-0.3114 0.0373 -0.5951 0.1968 -0.7888 0.4434 -0.1938 0.2466 -0.2816 0.56 -0.2443 0.8714 0.0373 0.3113 0.1969 0.5951 0.4435 0.7888 0.2465 0.1937 0.56 0.2816 0.8713 0.2442h0.2818l5.9401 -1.5261h0.0822l0.223 -0.1056 0.1761 -0.1174c0.0571 -0.0531 0.1083 -0.1121 0.1526 -0.1761 0.0458 -0.054 0.0853 -0.1131 0.1174 -0.1761 0.0356 -0.0658 0.0594 -0.1373 0.0705 -0.2113 0.0109 -0.074 0.0109 -0.1491 0 -0.2231 0.0407 -0.0456 0.0653 -0.1033 0.0704 -0.1643V1.4484c0.0053 -0.181 -0.0313 -0.3608 -0.1071 -0.5253 -0.0757 -0.1645 -0.1884 -0.3093 -0.3294 -0.423 -0.141 -0.1136 -0.3063 -0.1932 -0.4831 -0.2323 -0.1769 -0.0392 -0.3602 -0.0369 -0.5361 0.0067l-9.3915 2.3478c-0.2605 0.0643 -0.4911 0.2159 -0.6534 0.4295 -0.1623 0.2136 -0.2466 0.4763 -0.2388 0.7445v1.5613c0 0.3114 0.1237 0.61 0.3438 0.8301 0.2202 0.2202 0.5188 0.3439 0.8301 0.3439Zm11.399 15.2612L12.7725 11.2273 2.2071 0.6618c-0.2236 -0.173 -0.5022 -0.2595 -0.7845 -0.2436 -0.2822 0.016 -0.5493 0.1332 -0.7521 0.3303 -0.2027 0.197 -0.3275 0.4606 -0.3515 0.7423 -0.024 0.2817 0.0545 0.5626 0.2211 0.7911l10.225 10.2132v3.4514c-0.5485 -0.2679 -1.1505 -0.4083 -1.7609 -0.4109 -0.8127 0 -1.607 0.241 -2.2827 0.6925 -0.6757 0.4515 -1.2023 1.0932 -1.5133 1.8439 -0.311 0.7509 -0.3924 1.577 -0.2338 2.3741 0.1585 0.797 0.5498 1.529 1.1244 2.1037 0.5747 0.5746 1.3068 0.9659 2.1038 1.1245 0.797 0.1585 1.6232 0.0771 2.3739 -0.2338 0.7509 -0.311 1.3926 -0.8377 1.8441 -1.5134 0.4514 -0.6756 0.6924 -1.47 0.6924 -2.2827V14.843l8.558 8.5698c0.1092 0.1101 0.239 0.1974 0.382 0.2569 0.1431 0.0597 0.2965 0.0903 0.4515 0.0903s0.3084 -0.0306 0.4515 -0.0903c0.1431 -0.0595 0.2729 -0.1468 0.382 -0.2569 0.11 -0.1091 0.1973 -0.2389 0.257 -0.382 0.0596 -0.143 0.0902 -0.2966 0.0902 -0.4515s-0.0306 -0.3084 -0.0902 -0.4514c-0.0597 -0.1431 -0.147 -0.273 -0.257 -0.3821v0.0469Zm-14.3338 -0.3874c-0.3483 0 -0.6887 -0.1032 -0.9783 -0.2968 -0.2896 -0.1934 -0.5153 -0.4685 -0.6486 -0.7901 -0.1332 -0.3218 -0.1681 -0.6759 -0.1002 -1.0175 0.068 -0.3416 0.2357 -0.6553 0.482 -0.9016s0.56 -0.414 0.9016 -0.4819c0.3415 -0.0679 0.6956 -0.0331 1.0173 0.1002 0.3218 0.1333 0.5969 0.359 0.7903 0.6486 0.1935 0.2896 0.2968 0.63 0.2968 0.9782 0 0.4671 -0.1855 0.915 -0.5157 1.2452s-0.7782 0.5157 -1.2452 0.5157Z" fill="#000000" stroke-width="1"></path>
</svg>