<svg viewBox="0 0 24 24" fill="none" xmlns="http://www.w3.org/2000/svg" id="Palette--Streamline-Unicons">
  <desc>
    Palette Streamline Icon: https://streamlinehq.com
  </desc>
  <path d="M7.42002 15.5399c-0.18625 0.1874 -0.29079 0.4408 -0.29079 0.705 0 0.2642 0.10454 0.5176 0.29079 0.705 0.09296 0.0937 0.20356 0.1681 0.32542 0.2189 0.12186 0.0508 0.25257 0.0769 0.38458 0.0769 0.13201 0 0.26272 -0.0261 0.38458 -0.0769 0.12186 -0.0508 0.23246 -0.1252 0.32542 -0.2189 0.18625 -0.1874 0.29079 -0.4408 0.29079 -0.705 0 -0.2642 -0.10454 -0.5176 -0.29079 -0.705 -0.09296 -0.0937 -0.20356 -0.1681 -0.32542 -0.2189 -0.12186 -0.0508 -0.25257 -0.0769 -0.38458 -0.0769 -0.13201 0 -0.26272 0.0261 -0.38458 0.0769 -0.12186 0.0508 -0.23246 0.1252 -0.32542 0.2189Zm0 -8.49001c-0.18625 0.18737 -0.29079 0.44082 -0.29079 0.705 0 0.26419 0.10454 0.51764 0.29079 0.705 0.09296 0.09373 0.20356 0.16813 0.32542 0.2189 0.12186 0.05076 0.25257 0.0769 0.38458 0.0769 0.13201 0 0.26272 -0.02614 0.38458 -0.0769 0.12186 -0.05077 0.23246 -0.12517 0.32542 -0.2189 0.18625 -0.18736 0.29079 -0.44081 0.29079 -0.705 0 -0.26418 -0.10454 -0.51763 -0.29079 -0.705 -0.09296 -0.09372 -0.20356 -0.16812 -0.32542 -0.21889 -0.12186 -0.05077 -0.25257 -0.0769 -0.38458 -0.0769 -0.13201 0 -0.26272 0.02613 -0.38458 0.0769 -0.12186 0.05077 -0.23246 0.12517 -0.32542 0.21889ZM12.37 17.0499c-0.1978 0 -0.3911 0.0586 -0.5555 0.1685 -0.1645 0.1099 -0.2927 0.2661 -0.3684 0.4488 -0.0756 0.1827 -0.0955 0.3838 -0.0569 0.5778s0.1339 0.3721 0.2737 0.512c0.1399 0.1399 0.318 0.2351 0.512 0.2737 0.194 0.0386 0.3951 0.0188 0.5778 -0.0569 0.1827 -0.0757 0.3389 -0.2039 0.4488 -0.3683 0.1099 -0.1645 0.1685 -0.3578 0.1685 -0.5556 0.0068 -0.1355 -0.014 -0.2709 -0.0613 -0.3981 -0.0472 -0.1271 -0.1197 -0.2433 -0.2133 -0.3416 -0.0935 -0.0982 -0.2061 -0.1763 -0.3308 -0.2297 -0.1247 -0.0533 -0.2589 -0.0808 -0.3946 -0.0806v0.05Zm-5.99998 -6c-0.19778 0 -0.39112 0.0586 -0.55557 0.1685 -0.16445 0.1099 -0.29262 0.2661 -0.36831 0.4488 -0.07569 0.1827 -0.09549 0.3838 -0.0569 0.5778 0.03858 0.194 0.13382 0.3721 0.27367 0.512 0.13986 0.1399 0.31804 0.2351 0.51202 0.2737 0.19398 0.0386 0.39505 0.0188 0.57777 -0.0569 0.18273 -0.0757 0.33891 -0.2039 0.44879 -0.3683 0.10988 -0.1645 0.16853 -0.3578 0.16853 -0.5556 0.00678 -0.1355 -0.01407 -0.2709 -0.06127 -0.3981 -0.04721 -0.1271 -0.1198 -0.2433 -0.21334 -0.3416 -0.09354 -0.0982 -0.20609 -0.1763 -0.33079 -0.2297 -0.12471 -0.0533 -0.25896 -0.0808 -0.3946 -0.0806v0.05ZM12.37 5.04989c-0.1978 0 -0.3911 0.05865 -0.5555 0.16853 -0.1645 0.10989 -0.2927 0.26606 -0.3684 0.44879 -0.0756 0.18273 -0.0955 0.38379 -0.0569 0.57778 0.0386 0.19398 0.1339 0.37216 0.2737 0.51201 0.1399 0.13985 0.318 0.23509 0.512 0.27368 0.194 0.03858 0.3951 0.01878 0.5778 -0.05691 0.1827 -0.07568 0.3389 -0.20386 0.4488 -0.36831 0.1099 -0.16444 0.1685 -0.35778 0.1685 -0.55557 0.0068 -0.13546 -0.014 -0.27089 -0.0613 -0.39805 -0.0472 -0.12716 -0.1197 -0.24338 -0.2133 -0.3416 -0.0935 -0.09822 -0.2061 -0.17639 -0.3308 -0.22974 -0.1247 -0.05335 -0.2589 -0.08078 -0.3946 -0.08061v0.05Zm3.54 2.05c-0.1404 0.13962 -0.2363 0.31779 -0.2753 0.51193 -0.0391 0.19415 -0.0196 0.39552 0.0559 0.57859 0.0755 0.18307 0.2037 0.3396 0.3682 0.44975 0.1646 0.11014 0.3582 0.16894 0.5562 0.16894 0.1981 0 0.3916 -0.0588 0.5562 -0.16894 0.1646 -0.11015 0.2928 -0.26668 0.3683 -0.44975 0.0755 -0.18307 0.0949 -0.38444 0.0559 -0.57859 -0.0391 -0.19414 -0.1349 -0.37231 -0.2754 -0.51193 -0.1807 -0.19304 -0.4304 -0.30668 -0.6947 -0.31605 -0.2642 -0.00937 -0.5214 0.08629 -0.7153 0.26605v0.05Zm6.3 0c-0.9142 -1.8277 -2.3196 -3.36458 -4.0584 -4.43829 -1.7388 -1.07372 -3.7424 -1.64182 -5.786 -1.6406 -2.0436 0.00122 -4.04646 0.57171 -5.784 1.64751C4.84407 3.7443 3.44057 5.28286 2.5285 7.11166c-0.91207 1.82879 -1.29666 3.87554 -1.11063 5.91064 0.18602 2.0351 0.9353 3.9782 2.16382 5.6113 1.22851 1.6332 2.88769 2.8918 4.79147 3.6347 1.90374 0.743 3.97684 0.9409 5.98684 0.5716 0.5055 -0.0951 0.9869 -0.29 1.4161 -0.5733 0.4293 -0.2833 0.7978 -0.6494 1.0839 -1.0767 0.3084 -0.4646 0.5211 -0.986 0.6258 -1.5337 0.1048 -0.5476 0.0994 -1.1107 -0.0158 -1.6563 -0.063 -0.3297 -0.0964 -0.6644 -0.1 -1 0.0044 -0.969 0.2903 -1.9159 0.8229 -2.7255 0.5326 -0.8096 1.289 -1.4469 2.1771 -1.8345 0.4789 -0.2144 0.9087 -0.5247 1.263 -0.9117 0.3543 -0.3869 0.6256 -0.8424 0.797 -1.3383 0.1734 -0.50672 0.2433 -1.0431 0.2055 -1.57732 -0.0378 -0.53423 -0.1825 -1.05543 -0.4255 -1.53269v0.02Zm-1.7 2.44c-0.0853 0.23932 -0.2178 0.45909 -0.3895 0.64631 -0.1718 0.1872 -0.3794 0.3381 -0.6105 0.4437 -1.23 0.5506 -2.2749 1.4445 -3.0093 2.5745 -0.7344 1.1299 -1.127 2.4479 -1.1307 3.7955 0.0015 0.4701 0.0484 0.9389 0.14 1.4 0.0611 0.2818 0.0651 0.573 0.0119 0.8563 -0.0533 0.2834 -0.1627 0.5533 -0.3219 0.7937 -0.1347 0.2104 -0.3119 0.3903 -0.5203 0.5281 -0.2084 0.1377 -0.4433 0.2304 -0.6897 0.2719 -0.5341 0.1004 -1.0765 0.1506 -1.62 0.15 -1.2058 0.0006 -2.39946 -0.2412 -3.51006 -0.7109 -1.11059 -0.4697 -2.11546 -1.1577 -2.95496 -2.0234 -0.83949 -0.8656 -1.49648 -1.8911 -1.93194 -3.0155 -0.43547 -1.1245 -0.64053 -2.325 -0.60302 -3.5302 0.07761 -2.24721 0.98901 -4.38505 2.55663 -5.99704 1.56763 -1.612 3.6792 -2.58268 5.92335 -2.72297h0.51c1.6758 0.00042 3.3181 0.46869 4.7421 1.35207s2.5731 2.14678 3.3179 3.64793c0.2293 0.47499 0.2616 1.02129 0.09 1.52v0.02Zm-8.14 1.46001c-0.1978 0 -0.3911 0.0586 -0.5555 0.1685 -0.1645 0.1099 -0.2927 0.2661 -0.3684 0.4488 -0.0756 0.1827 -0.0955 0.3838 -0.0569 0.5778s0.1339 0.3721 0.2737 0.512c0.1399 0.1399 0.318 0.2351 0.512 0.2737 0.194 0.0386 0.3951 0.0188 0.5778 -0.0569 0.1827 -0.0757 0.3389 -0.2039 0.4488 -0.3683 0.1099 -0.1645 0.1685 -0.3578 0.1685 -0.5556 0 -0.2652 -0.1053 -0.5196 -0.2929 -0.7071 -0.1875 -0.1875 -0.4419 -0.2929 -0.7071 -0.2929Z" fill="#000000" stroke-width="1"></path>
</svg>