<svg viewBox="0 0 24 24" fill="none" xmlns="http://www.w3.org/2000/svg" id="Pen--Streamline-Unicons">
  <desc>
    Pen Streamline Icon: https://streamlinehq.com
  </desc>
  <path d="M23.7591 6.4018c0.001 -0.1548 -0.0288 -0.3082 -0.0872 -0.4514 -0.0586 -0.1433 -0.1448 -0.2736 -0.2538 -0.3835L18.4323 0.581c-0.1099 -0.1089 -0.2403 -0.1952 -0.3835 -0.2537 -0.1432 -0.0585 -0.2967 -0.0882 -0.4514 -0.0873 -0.1548 -0.0009 -0.3083 0.0288 -0.4515 0.0873s-0.2736 0.1447 -0.3834 0.2537l-3.3279 3.3279L0.5819 16.7616c-0.109 0.1099 -0.1952 0.2402 -0.2538 0.3834 -0.0585 0.1433 -0.0881 0.2967 -0.0872 0.4515v4.9859c0 0.3118 0.1238 0.611 0.3444 0.8314 0.2205 0.2206 0.5196 0.3445 0.8315 0.3445h4.9858c0.1646 0.0089 0.3292 -0.0169 0.4831 -0.0755 0.154 -0.0588 0.2939 -0.1492 0.4106 -0.2655l12.7822 -12.8528 3.3396 -3.269c0.1074 -0.114 0.1947 -0.2451 0.2587 -0.3881 0.0113 -0.0937 0.0113 -0.1884 0 -0.2822 0.0055 -0.0547 0.0055 -0.1099 0 -0.1646l0.0823 -0.0588ZM5.9205 21.4064H2.5927v-3.3278L14.2695 6.4018l3.3278 3.3278L5.9205 21.4064ZM19.2554 8.0716l-3.3279 -3.3278 1.6698 -1.6581 3.3161 3.3161 -1.658 1.6698Z" fill="#000000" stroke-width="1"></path>
</svg>