<svg viewBox="0 0 24 24" fill="none" xmlns="http://www.w3.org/2000/svg" id="Play-Circle--Streamline-Unicons">
  <desc>
    Play Circle Streamline Icon: https://streamlinehq.com
  </desc>
  <path d="m16.704 9.9655 -5.88 -3.3986c-0.3574 -0.2064 -0.7627 -0.315 -1.1754 -0.3151 -0.4126 -0.0001 -0.8181 0.1083 -1.1755 0.3145 -0.3575 0.2061 -0.6545 0.5027 -0.8611 0.8599 -0.2066 0.3572 -0.3156 0.7625 -0.316 1.1752v6.7972c0.0004 0.4124 0.1093 0.8176 0.3157 1.1746 0.2064 0.3572 0.5031 0.6536 0.8603 0.8599 0.3576 0.2064 0.7631 0.3151 1.176 0.3151 0.4129 0 0.8185 -0.1087 1.176 -0.3151l5.88 -3.3986c0.3564 -0.2068 0.6523 -0.5036 0.8579 -0.8606 0.2057 -0.3571 0.314 -0.7618 0.314 -1.1739 0 -0.4121 -0.1083 -0.8169 -0.314 -1.1739 -0.2056 -0.357 -0.5015 -0.6539 -0.8579 -0.8606ZM15.528 12l-5.88 3.3986V8.6014L15.528 12ZM12 0.24c-2.3259 0 -4.5996 0.6897 -6.5335 1.9819 -1.9339 1.2922 -3.4412 3.1289 -4.3313 5.2777C0.2451 9.6485 0.0122 12.013 0.466 14.2942s1.5738 4.3766 3.2184 6.0214c1.6447 1.6446 3.7401 2.7647 6.0213 3.2185 2.2812 0.4537 4.6458 0.2208 6.7946 -0.6693 2.1489 -0.8901 3.9856 -2.3974 5.2778 -4.3313C23.0703 16.5996 23.76 14.3259 23.76 12c0 -1.5443 -0.3042 -3.0736 -0.8952 -4.5004 -0.5909 -1.4268 -1.4572 -2.7232 -2.5492 -3.8152 -1.092 -1.092 -2.3884 -1.9582 -3.8153 -2.5492C15.0736 0.5442 13.5443 0.24 12 0.24Zm0 21.168c-1.8607 0 -3.6797 -0.5518 -5.2268 -1.5855 -1.5471 -1.0338 -2.753 -2.5031 -3.465 -4.2222 -0.7121 -1.7191 -0.8984 -3.6108 -0.5354 -5.4357 0.363 -1.825 1.259 -3.5013 2.5748 -4.8171 1.3157 -1.3157 2.992 -2.2117 4.817 -2.5747 1.8249 -0.363 3.7166 -0.1767 5.4357 0.5353 1.7191 0.7121 3.1884 1.9179 4.2222 3.4651C20.8562 8.3203 21.408 10.1392 21.408 12c0 2.4951 -0.9911 4.8881 -2.7555 6.6525C16.8882 20.4167 14.4951 21.408 12 21.408Z" fill="#000000" stroke-width="1"></path>
</svg>