<svg viewBox="0 0 24 24" fill="none" xmlns="http://www.w3.org/2000/svg" id="Rainbow--Streamline-Unicons">
  <desc>
    Rainbow Streamline Icon: https://streamlinehq.com
  </desc>
  <path d="M1.71 12c-0.3899 0 -0.7638 0.1549 -1.0395 0.4306C0.3949 12.7062 0.24 13.0802 0.24 13.47c0 0.3898 0.1549 0.7638 0.4305 1.0394 0.2757 0.2757 0.6496 0.4306 1.0395 0.4306 1.9493 0 3.8188 0.7744 5.1972 2.1528C8.2856 18.4711 9.06 20.3406 9.06 22.29c0 0.3898 0.1549 0.7638 0.4306 1.0394s0.6496 0.4306 1.0394 0.4306c0.3898 0 0.7638 -0.1549 1.0394 -0.4306S12 22.6798 12 22.29c0 -2.7291 -1.0841 -5.3464 -3.0139 -7.2761C7.0564 13.0841 4.4391 12 1.71 12Zm0 -11.76C1.3201 0.24 0.9462 0.3949 0.6705 0.6705 0.3949 0.9462 0.24 1.3201 0.24 1.71s0.1549 0.7638 0.4305 1.0394c0.2757 0.2757 0.6496 0.4306 1.0395 0.4306 5.0683 0 9.929 2.0134 13.5128 5.5972C18.8067 12.361 20.82 17.2217 20.82 22.29c0 0.3898 0.1549 0.7638 0.4306 1.0394s0.6496 0.4306 1.0394 0.4306c0.3898 0 0.7638 -0.1549 1.0394 -0.4306s0.4306 -0.6496 0.4306 -1.0394c0 -5.848 -2.3232 -11.4566 -6.4583 -15.5917C13.1666 2.5631 7.558 0.24 1.71 0.24Zm0 5.88c-0.3899 0 -0.7638 0.1549 -1.0395 0.4306C0.3949 6.8262 0.24 7.2001 0.24 7.59s0.1549 0.7638 0.4305 1.0395c0.2757 0.2756 0.6496 0.4305 1.0395 0.4305 3.5088 0 6.8739 1.3938 9.3551 3.8749 2.4811 2.4812 3.8749 5.8464 3.8749 9.3551 0 0.3898 0.1549 0.7638 0.4306 1.0394s0.6496 0.4306 1.0394 0.4306c0.3898 0 0.7638 -0.1549 1.0394 -0.4306s0.4306 -0.6496 0.4306 -1.0394c0 -4.2886 -1.7036 -8.4015 -4.736 -11.4339C10.1115 7.8236 5.9986 6.12 1.71 6.12Z" fill="#000000" stroke-width="1"></path>
</svg>