<svg viewBox="0 0 24 24" fill="none" xmlns="http://www.w3.org/2000/svg" id="Save--Streamline-Unicons">
  <desc>
    Save Streamline Icon: https://streamlinehq.com
  </desc>
  <path d="m23.381 8.4589 -7.8399 -7.84c-0.1205 -0.1175 -0.2624 -0.2107 -0.4182 -0.2744 -0.162 -0.0658 -0.3347 -0.1012 -0.5096 -0.1045H4.16c-1.0397 0 -2.0367 0.413 -2.7719 1.1482C0.653 2.1233 0.24 3.1204 0.24 4.16v15.68c0 1.0396 0.413 2.0367 1.1481 2.7718 0.7352 0.7352 1.7322 1.1482 2.7719 1.1482h15.68c1.0396 0 2.0367 -0.4131 2.7718 -1.1482 0.7351 -0.7351 1.1482 -1.7322 1.1482 -2.7718V9.3867c0.001 -0.172 -0.032 -0.3425 -0.097 -0.5017s-0.1608 -0.304 -0.282 -0.4261ZM8.08 2.8533h5.2267v2.6134H8.08V2.8533Zm7.84 18.2934H8.08v-3.92c0 -0.3466 0.1377 -0.679 0.3827 -0.924 0.2451 -0.245 0.5774 -0.3827 0.924 -0.3827h5.2266c0.3465 0 0.679 0.1377 0.924 0.3827s0.3827 0.5774 0.3827 0.924v3.92Zm5.2266 -1.3067c0 0.3465 -0.1377 0.6789 -0.3827 0.9239s-0.5774 0.3828 -0.9239 0.3828h-1.3067v-3.92c0 -1.0396 -0.413 -2.0367 -1.1482 -2.7719 -0.7351 -0.7351 -1.7322 -1.1481 -2.7718 -1.1481H9.3867c-1.0397 0 -2.0368 0.413 -2.7719 1.1481 -0.7351 0.7352 -1.1481 1.7323 -1.1481 2.7719v3.92H4.16c-0.3466 0 -0.6789 -0.1378 -0.924 -0.3828 -0.245 -0.245 -0.3827 -0.5774 -0.3827 -0.9239V4.16c0 -0.3465 0.1377 -0.6789 0.3827 -0.924 0.2451 -0.245 0.5774 -0.3827 0.924 -0.3827h1.3067v3.92c0 0.3466 0.1376 0.6789 0.3827 0.924 0.245 0.245 0.5774 0.3827 0.9239 0.3827h7.84c0.3465 0 0.679 -0.1377 0.924 -0.3827 0.245 -0.2451 0.3827 -0.5774 0.3827 -0.924V4.6957l5.2266 5.2267V19.84Z" fill="#000000" stroke-width="1"></path>
</svg>