<svg viewBox="0 0 24 24" fill="none" xmlns="http://www.w3.org/2000/svg" id="Server-Connection--Streamline-Unicons">
  <desc>
    Server Connection Streamline Icon: https://streamlinehq.com
  </desc>
  <path d="M11 13c-0.1978 0 -0.3911 0.0586 -0.5556 0.1685 -0.1644 0.1099 -0.2926 0.2661 -0.3683 0.4488 -0.0757 0.1827 -0.09547 0.3838 -0.0569 0.5778 0.0386 0.194 0.1338 0.3722 0.2737 0.512 0.1398 0.1399 0.318 0.2351 0.512 0.2737 0.194 0.0386 0.3951 0.0188 0.5778 -0.0569 0.1827 -0.0757 0.3389 -0.2039 0.4488 -0.3683 0.1099 -0.1645 0.1685 -0.3578 0.1685 -0.5556 0 -0.2652 -0.1054 -0.5196 -0.2929 -0.7071S11.2652 13 11 13Zm-4 0c-0.19778 0 -0.39112 0.0586 -0.55557 0.1685 -0.16445 0.1099 -0.29262 0.2661 -0.36831 0.4488 -0.07569 0.1827 -0.09549 0.3838 -0.05691 0.5778 0.03859 0.194 0.13383 0.3722 0.27368 0.512 0.13986 0.1399 0.31804 0.2351 0.51202 0.2737 0.19398 0.0386 0.39505 0.0188 0.57777 -0.0569 0.18273 -0.0757 0.33891 -0.2039 0.44879 -0.3683C7.94135 14.3911 8 14.1978 8 14c0 -0.2652 -0.10536 -0.5196 -0.29289 -0.7071C7.51957 13.1054 7.26522 13 7 13Zm15 -9c0 -0.79565 -0.3161 -1.55871 -0.8787 -2.12132C20.5587 1.31607 19.7956 1 19 1H5c-0.79565 0 -1.55871 0.31607 -2.12132 0.87868C2.31607 2.44129 2 3.20435 2 4v4c0.00441 0.74005 0.28221 1.45236 0.78 2 -0.49779 0.5476 -0.77559 1.2599 -0.78 2v4c0 0.7956 0.31607 1.5587 0.87868 2.1213C3.44129 18.6839 4.20435 19 5 19h6v2H3c-0.26522 0 -0.51957 0.1054 -0.70711 0.2929C2.10536 21.4804 2 21.7348 2 22c0 0.2652 0.10536 0.5196 0.29289 0.7071C2.48043 22.8946 2.73478 23 3 23h18c0.2652 0 0.5196 -0.1054 0.7071 -0.2929S22 22.2652 22 22c0 -0.2652 -0.1054 -0.5196 -0.2929 -0.7071S21.2652 21 21 21h-8v-2h6c0.7956 0 1.5587 -0.3161 2.1213 -0.8787C21.6839 17.5587 22 16.7956 22 16v-4c-0.0044 -0.7401 -0.2822 -1.4524 -0.78 -2 0.4978 -0.54764 0.7756 -1.25995 0.78 -2V4Zm-2 12c0 0.2652 -0.1054 0.5196 -0.2929 0.7071S19.2652 17 19 17H5c-0.26522 0 -0.51957 -0.1054 -0.70711 -0.2929C4.10536 16.5196 4 16.2652 4 16v-4c0 -0.2652 0.10536 -0.5196 0.29289 -0.7071C4.48043 11.1054 4.73478 11 5 11h14c0.2652 0 0.5196 0.1054 0.7071 0.2929S20 11.7348 20 12v4Zm0 -8c0 0.26522 -0.1054 0.51957 -0.2929 0.70711C19.5196 8.89464 19.2652 9 19 9H5c-0.26522 0 -0.51957 -0.10536 -0.70711 -0.29289C4.10536 8.51957 4 8.26522 4 8V4c0 -0.26522 0.10536 -0.51957 0.29289 -0.70711C4.48043 3.10536 4.73478 3 5 3h14c0.2652 0 0.5196 0.10536 0.7071 0.29289C19.8946 3.48043 20 3.73478 20 4v4Zm-9 -3c-0.1978 0 -0.3911 0.05865 -0.5556 0.16853 -0.1644 0.10988 -0.2926 0.26606 -0.3683 0.44879 -0.0757 0.18272 -0.09547 0.38379 -0.0569 0.57777 0.0386 0.19398 0.1338 0.37216 0.2737 0.51202 0.1398 0.13985 0.318 0.23509 0.512 0.27368 0.194 0.03858 0.3951 0.01878 0.5778 -0.05691 0.1827 -0.07569 0.3389 -0.20386 0.4488 -0.36831S12 6.19778 12 6c0 -0.26522 -0.1054 -0.51957 -0.2929 -0.70711C11.5196 5.10536 11.2652 5 11 5ZM7 5c-0.19778 0 -0.39112 0.05865 -0.55557 0.16853 -0.16445 0.10988 -0.29262 0.26606 -0.36831 0.44879 -0.07569 0.18272 -0.09549 0.38379 -0.05691 0.57777 0.03859 0.19398 0.13383 0.37216 0.27368 0.51202 0.13986 0.13985 0.31804 0.23509 0.51202 0.27368 0.19398 0.03858 0.39505 0.01878 0.57777 -0.05691 0.18273 -0.07569 0.33891 -0.20386 0.44879 -0.36831C7.94135 6.39112 8 6.19778 8 6c0 -0.26522 -0.10536 -0.51957 -0.29289 -0.70711C7.51957 5.10536 7.26522 5 7 5Z" fill="#000000" stroke-width="1"></path>
</svg>