<svg viewBox="0 0 24 24" fill="none" xmlns="http://www.w3.org/2000/svg" id="Share--Streamline-Unicons">
  <desc>
    Share Streamline Icon: https://streamlinehq.com
  </desc>
  <path d="m23.4157 11.1685 -9.4081 -9.408c-0.1645 -0.1645 -0.374 -0.2764 -0.6021 -0.3218 -0.2281 -0.0453 -0.4646 -0.022 -0.6794 0.0669 -0.2149 0.089 -0.3985 0.2397 -0.5277 0.4331s-0.1983 0.4206 -0.1983 0.6532v4.169c-3.2125 0.2972 -6.1985 1.7826 -8.3736 4.1655C1.4515 13.3091 0.2438 16.4179 0.24 19.644v1.7641c0.0002 0.2441 0.0763 0.4821 0.2179 0.681 0.1415 0.1988 0.3415 0.3488 0.5721 0.429 0.2305 0.0801 0.4803 0.0864 0.7147 0.0182 0.2344 -0.0682 0.4418 -0.2077 0.5933 -0.3991 1.1521 -1.3701 2.5658 -2.4968 4.1583 -3.3144 1.5925 -0.8175 3.3321 -1.3096 5.1169 -1.4473 0.0588 -0.007 0.2058 -0.0188 0.3869 -0.0306v4.0632c0 0.2326 0.069 0.4599 0.1983 0.6532s0.3128 0.344 0.5277 0.433c0.2148 0.0891 0.4513 0.1123 0.6794 0.067 0.2281 -0.0454 0.4375 -0.1574 0.6021 -0.3218l9.4081 -9.4081c0.2205 -0.2205 0.3443 -0.5196 0.3443 -0.8314 0 -0.3118 -0.1238 -0.6109 -0.3443 -0.8315Zm-9.0636 7.4007V16.116c0 -0.3119 -0.1239 -0.6109 -0.3444 -0.8316 -0.2205 -0.2205 -0.5197 -0.3444 -0.8316 -0.3444 -0.2999 0 -1.5241 0.0588 -1.8369 0.0999 -3.1695 0.2922 -6.1865 1.4963 -8.686 3.4669 0.2837 -2.5937 1.5141 -4.9917 3.4557 -6.7348 1.9417 -1.743 4.458 -2.7087 7.0672 -2.712 0.3119 0 0.6111 -0.1239 0.8316 -0.3445 0.2205 -0.2205 0.3444 -0.5196 0.3444 -0.8315V5.4308L20.9213 12l-6.5692 6.5692Z" fill="#000000" stroke-width="1"></path>
</svg>