<svg viewBox="0 0 24 24" fill="none" xmlns="http://www.w3.org/2000/svg" id="Shield-Exclamation--Streamline-Unicons">
  <desc>
    Shield Exclamation Streamline Icon: https://streamlinehq.com
  </desc>
  <path d="M13.0823 15.5309c-0.0236 -0.0723 -0.0593 -0.14 -0.1059 -0.2l-0.1412 -0.1764c-0.1094 -0.1104 -0.2395 -0.1979 -0.3828 -0.2575 -0.1434 -0.0598 -0.2971 -0.0905 -0.4524 -0.0905s-0.309 0.0307 -0.4524 0.0905c-0.1433 0.0596 -0.2734 0.1471 -0.3828 0.2575 -0.0561 0.0509 -0.1038 0.1104 -0.1412 0.1764 -0.0465 0.06 -0.0823 0.1277 -0.1058 0.2 -0.0341 0.0707 -0.0579 0.146 -0.0706 0.2235 -0.0058 0.0744 -0.0058 0.1491 0 0.2235 -0.0041 0.1581 0.0281 0.3151 0.0941 0.4588 0.1197 0.2861 0.3475 0.5133 0.6339 0.6323 0.2864 0.119 0.6082 0.12 0.8954 0.003 0.1429 -0.064 0.2742 -0.1516 0.3882 -0.2588 0.1059 -0.1085 0.1897 -0.2363 0.247 -0.3765 0.0618 -0.1451 0.0938 -0.3011 0.0941 -0.4588 0.0058 -0.0744 0.0058 -0.1491 0 -0.2235 -0.0275 -0.0801 -0.0671 -0.1555 -0.1176 -0.2235ZM12 6.5434c-0.312 0 -0.6112 0.1239 -0.8318 0.3446 -0.2206 0.2206 -0.3446 0.5198 -0.3446 0.8318v3.5291c0 0.312 0.124 0.6112 0.3446 0.8318 0.2206 0.2206 0.5198 0.3446 0.8318 0.3446 0.312 0 0.6112 -0.124 0.8318 -0.3446 0.2206 -0.2206 0.3446 -0.5198 0.3446 -0.8318V7.7198c0 -0.312 -0.124 -0.6112 -0.3446 -0.8318 -0.2206 -0.2207 -0.5198 -0.3446 -0.8318 -0.3446Zm8.9757 -4.3643c-0.1367 -0.1106 -0.2963 -0.1891 -0.4674 -0.2298 -0.171 -0.0407 -0.3489 -0.0426 -0.5207 -0.0055 -1.2571 0.2634 -2.5548 0.2668 -3.8131 0.0099 -1.2584 -0.257 -2.4509 -0.7688 -3.504 -1.5039C12.4736 0.3132 12.2396 0.24 12 0.24c-0.2396 0 -0.4736 0.0732 -0.6705 0.2098 -1.0531 0.7351 -2.2456 1.2469 -3.504 1.5039 -1.2584 0.2569 -2.556 0.2535 -3.813 -0.0099 -0.1719 -0.0371 -0.3498 -0.0352 -0.5208 0.0055 -0.171 0.0407 -0.3307 0.1192 -0.4674 0.2298 -0.1365 0.1107 -0.2464 0.2506 -0.3217 0.4094 -0.0754 0.1588 -0.1142 0.3324 -0.1136 0.5081v8.764c-0.001 1.6866 0.4009 3.3491 1.1723 4.8489s1.8901 2.7938 3.2627 3.7739l4.2937 3.0586c0.1993 0.1418 0.4377 0.218 0.6823 0.218 0.2446 0 0.483 -0.0762 0.6823 -0.218l4.2938 -3.0586c1.3725 -0.9801 2.4912 -2.274 3.2626 -3.7739 0.7714 -1.4998 1.1733 -3.1623 1.1723 -4.8489v-8.764c0.0006 -0.1757 -0.0383 -0.3493 -0.1135 -0.5081s-0.1853 -0.2987 -0.3218 -0.4094Zm-1.9175 9.6816c0.001 1.3113 -0.3114 2.6039 -0.9108 3.7702 -0.5996 1.1663 -1.469 2.1725 -2.5359 2.9351L12 21.1422 8.3886 18.566c-1.067 -0.7625 -1.9364 -1.7688 -2.5359 -2.9351 -0.5995 -1.1663 -0.9118 -2.4589 -0.9109 -3.7702V4.4495C7.408 4.6606 9.8778 4.0884 12 2.8143c2.1222 1.2741 4.5921 1.8463 7.0582 1.6352v7.4112Z" fill="#000000" stroke-width="1"></path>
</svg>