<svg viewBox="0 0 24 24" fill="none" xmlns="http://www.w3.org/2000/svg" id="Shield-Plus--Streamline-Unicons">
  <desc>
    Shield Plus Streamline Icon: https://streamlinehq.com
  </desc>
  <path d="M14.352 10.824h-1.176V9.6479c0 -0.3119 -0.1239 -0.611 -0.3444 -0.8315 -0.2205 -0.2206 -0.5197 -0.3445 -0.8316 -0.3445 -0.3119 0 -0.611 0.1239 -0.8315 0.3445 -0.2205 0.2205 -0.3445 0.5196 -0.3445 0.8315v1.1761H9.648c-0.3119 0 -0.611 0.1238 -0.8315 0.3444 -0.2206 0.2205 -0.3445 0.5196 -0.3445 0.8315 0 0.3119 0.1239 0.611 0.3445 0.8316 0.2205 0.2205 0.5196 0.3444 0.8315 0.3444h1.176v1.176c0 0.3119 0.124 0.611 0.3445 0.8316 0.2205 0.2205 0.5196 0.3444 0.8315 0.3444 0.3119 0 0.6111 -0.1239 0.8316 -0.3444 0.2205 -0.2206 0.3444 -0.5197 0.3444 -0.8316v-1.176h1.176c0.3119 0 0.6111 -0.1239 0.8316 -0.3444 0.2205 -0.2206 0.3444 -0.5197 0.3444 -0.8316 0 -0.3119 -0.1239 -0.611 -0.3444 -0.8315 -0.2206 -0.2206 -0.5197 -0.3444 -0.8316 -0.3444Zm6.6208 -8.6436c-0.1359 -0.1098 -0.2944 -0.1881 -0.4642 -0.2294 -0.1697 -0.0413 -0.3466 -0.0445 -0.5177 -0.0094 -1.2569 0.2658 -2.5549 0.2707 -3.8138 0.0144 -1.2587 -0.2563 -2.4515 -0.7683 -3.5044 -1.5043C12.4755 0.3139 12.2406 0.24 12 0.24c-0.2406 0 -0.4754 0.0739 -0.6727 0.2116 -1.0527 0.7363 -2.2455 1.2485 -3.5044 1.5048 -1.2589 0.2563 -2.5569 0.2513 -3.8138 -0.0148 -0.1713 -0.0358 -0.3484 -0.033 -0.5185 0.0082 -0.1701 0.0413 -0.3288 0.1201 -0.4646 0.2305 -0.1357 0.1104 -0.2452 0.2498 -0.3202 0.4079 -0.0751 0.158 -0.114 0.3309 -0.1138 0.5059v8.7683c0.0018 1.6843 0.4048 3.3441 1.1755 4.842 0.7708 1.4977 1.8872 2.7904 3.2569 3.7709l4.2923 3.0659c0.1995 0.1423 0.4383 0.2188 0.6833 0.2188s0.4838 -0.0766 0.6832 -0.2188l4.2924 -3.0659c1.3698 -0.9804 2.4863 -2.273 3.2572 -3.7708 0.7707 -1.4979 1.1736 -3.1577 1.1751 -4.8422V3.0929c-0.0002 -0.1749 -0.0392 -0.3475 -0.1146 -0.5054 -0.0753 -0.1578 -0.1848 -0.2969 -0.3205 -0.4071Zm-1.9168 9.682c-0.0014 1.3098 -0.3146 2.6005 -0.9138 3.7654 -0.5992 1.1647 -1.467 2.1702 -2.5319 2.933L12 21.1386 8.3897 18.562c-1.0649 -0.7631 -1.9328 -1.7687 -2.532 -2.9336 -0.5992 -1.1651 -0.9124 -2.456 -0.9137 -3.766V4.4536C7.4098 4.6679 9.88 4.0952 12 2.8177c2.12 1.2775 4.5901 1.8502 7.056 1.6359v7.4088Z" fill="#000000" stroke-width="1"></path>
</svg>