<svg viewBox="0 0 24 24" fill="none" xmlns="http://www.w3.org/2000/svg" id="Signout--Streamline-Unicons">
  <desc>
    Signout Streamline Icon: https://streamlinehq.com
  </desc>
  <path d="M2.592 12c0 0.3119 0.1239 0.6111 0.3444 0.8316 0.2206 0.2205 0.5197 0.3444 0.8316 0.3444h8.9258L9.989 15.869c-0.1101 0.1094 -0.1976 0.2395 -0.2574 0.3827 -0.0597 0.1434 -0.0904 0.2971 -0.0904 0.4523s0.0307 0.3089 0.0904 0.4523c0.0598 0.1432 0.1473 0.2733 0.2574 0.3827 0.1094 0.1102 0.2395 0.1977 0.3827 0.2574 0.1434 0.0597 0.2971 0.0904 0.4523 0.0904s0.3089 -0.0307 0.4523 -0.0904c0.1432 -0.0597 0.2733 -0.1472 0.3827 -0.2574l4.704 -4.704c0.107 -0.1119 0.1909 -0.2437 0.2469 -0.3881 0.1176 -0.2864 0.1176 -0.6074 0 -0.8938 -0.056 -0.1444 -0.1399 -0.2762 -0.2469 -0.3881l-4.704 -4.704c-0.1096 -0.1096 -0.2398 -0.1966 -0.3832 -0.2559 -0.1432 -0.0594 -0.2967 -0.0899 -0.4518 -0.0899 -0.1551 0 -0.3086 0.0305 -0.4518 0.0899 -0.1434 0.0593 -0.2736 0.1463 -0.3832 0.2559 -0.1096 0.1097 -0.1966 0.2399 -0.256 0.3831 -0.0592 0.1433 -0.0898 0.2968 -0.0898 0.4519 0 0.1551 0.0306 0.3086 0.0898 0.4519 0.0594 0.1432 0.1464 0.2734 0.256 0.3831l2.7048 2.693H3.768c-0.3119 0 -0.611 0.124 -0.8316 0.3445 -0.2205 0.2205 -0.3444 0.5196 -0.3444 0.8315ZM17.88 0.24H6.12c-0.9357 0 -1.833 0.3717 -2.4947 1.0333 -0.6616 0.6617 -1.0333 1.559 -1.0333 2.4947v3.528c0 0.3119 0.1239 0.611 0.3444 0.8316 0.2206 0.2205 0.5197 0.3444 0.8316 0.3444s0.611 -0.1239 0.8316 -0.3444c0.2205 -0.2206 0.3444 -0.5197 0.3444 -0.8316V3.768c0 -0.3119 0.1239 -0.611 0.3444 -0.8316 0.2206 -0.2205 0.5197 -0.3444 0.8316 -0.3444h11.76c0.3119 0 0.6111 0.1239 0.8316 0.3444 0.2205 0.2206 0.3444 0.5197 0.3444 0.8316v16.464c0 0.3119 -0.1239 0.611 -0.3444 0.8316s-0.5197 0.3444 -0.8316 0.3444H6.12c-0.3119 0 -0.611 -0.1239 -0.8316 -0.3444 -0.2205 -0.2205 -0.3444 -0.5197 -0.3444 -0.8316v-3.528c0 -0.3119 -0.1239 -0.611 -0.3444 -0.8315 -0.2206 -0.2205 -0.5197 -0.3445 -0.8316 -0.3445s-0.611 0.124 -0.8316 0.3445c-0.2205 0.2205 -0.3444 0.5196 -0.3444 0.8315v3.528c0 0.9356 0.3717 1.833 1.0333 2.4947 0.6617 0.6616 1.559 1.0333 2.4947 1.0333h11.76c0.9356 0 1.833 -0.3717 2.4947 -1.0333 0.6616 -0.6617 1.0333 -1.5591 1.0333 -2.4947V3.768c0 -0.9357 -0.3717 -1.833 -1.0333 -2.4947C19.713 0.6117 18.8156 0.24 17.88 0.24Z" fill="#000000" stroke-width="1"></path>
</svg>