<svg viewBox="0 0 24 24" fill="none" xmlns="http://www.w3.org/2000/svg" id="Skip-Forward-Alt--Streamline-Unicons">
  <desc>
    Skip Forward Alt Streamline Icon: https://streamlinehq.com
  </desc>
  <path d="M3.7677 1.4169c-0.9356 0 -1.8329 0.3717 -2.4945 1.0332C0.6117 3.1117 0.24 4.009 0.24 4.9446v14.1108c0 0.9355 0.3717 1.8329 1.0332 2.4944 0.6616 0.6616 1.5589 1.0333 2.4945 1.0333s1.8329 -0.3717 2.4945 -1.0333c0.6615 -0.6615 1.0332 -1.5589 1.0332 -2.4944V4.9446c0 -0.9356 -0.3717 -1.8329 -1.0332 -2.4945 -0.6616 -0.6615 -1.5589 -1.0332 -2.4945 -1.0332Zm1.1759 17.6385c0 0.3118 -0.1239 0.611 -0.3444 0.8315 -0.2205 0.2205 -0.5196 0.3444 -0.8315 0.3444s-0.611 -0.1239 -0.8315 -0.3444c-0.2205 -0.2205 -0.3444 -0.5197 -0.3444 -0.8315V4.9446c0 -0.3119 0.1239 -0.611 0.3444 -0.8315 0.2205 -0.2205 0.5196 -0.3444 0.8315 -0.3444s0.611 0.1239 0.8315 0.3444c0.2205 0.2205 0.3444 0.5196 0.3444 0.8315v14.1108Zm17.2622 -9.8188 -7.855 -4.6918c-0.4704 -0.2772 -1.0063 -0.4233 -1.5522 -0.4233 -0.5458 0 -1.0818 0.1461 -1.5522 0.4233 -0.482 0.2809 -0.8827 0.6822 -1.1631 1.1645 -0.2803 0.4824 -0.4306 1.0292 -0.4361 1.5871v9.4072c-0.0015 0.567 0.1467 1.1243 0.4296 1.6157 0.2829 0.4914 0.6903 0.8994 1.1814 1.1829 0.4691 0.2808 1.0055 0.4291 1.5522 0.4291s1.0831 -0.1482 1.5522 -0.4291l7.8432 -4.7036c0.4745 -0.2884 0.8668 -0.6941 1.139 -1.1781 0.2722 -0.484 0.4152 -1.03 0.4152 -1.5852 0 -0.5553 -0.143 -1.1012 -0.4152 -1.5852s-0.6645 -0.8898 -1.139 -1.1782v-0.0353Zm-1.1759 3.5277 -7.8315 4.7036c-0.1118 0.0674 -0.2399 0.103 -0.3704 0.103s-0.2586 -0.0356 -0.3704 -0.103c-0.1399 -0.0722 -0.2571 -0.1819 -0.3381 -0.3169 -0.081 -0.135 -0.1227 -0.29 -0.1205 -0.4474V7.2964c-0.0034 -0.1519 0.034 -0.3019 0.1085 -0.4343 0.0745 -0.1324 0.1832 -0.2424 0.3148 -0.3183 0.1116 -0.0617 0.2371 -0.0941 0.3646 -0.0941 0.1326 0.001 0.2625 0.0375 0.3762 0.1059l7.8315 4.7036c0.1263 0.0809 0.2302 0.1921 0.3021 0.3236 0.072 0.1316 0.1096 0.279 0.1096 0.429s-0.0376 0.2973 -0.1096 0.4289c-0.0719 0.1315 -0.1758 0.2427 -0.3021 0.3236h0.0353Z" fill="#000000" stroke-width="1"></path>
</svg>