<svg viewBox="0 0 24 24" fill="none" xmlns="http://www.w3.org/2000/svg" id="Sliders-V-Alt--Streamline-Unicons">
  <desc>
    Sliders V Alt Streamline Icon: https://streamlinehq.com
  </desc>
  <path d="M21.408 7.5077V1.416c0 -0.3119 -0.1239 -0.611 -0.3444 -0.8316C20.8429 0.3639 20.5439 0.24 20.232 0.24c-0.3119 0 -0.611 0.1239 -0.8315 0.3444 -0.2207 0.2206 -0.3445 0.5197 -0.3445 0.8316v6.0917c-0.6811 0.2472 -1.2696 0.6981 -1.6854 1.2914 -0.4159 0.5934 -0.639 1.3004 -0.639 2.0249 0 0.7245 0.2231 1.4315 0.639 2.0248 0.4158 0.5935 1.0043 1.0443 1.6854 1.2915v8.4437c0 0.3119 0.1238 0.6111 0.3445 0.8316 0.2205 0.2205 0.5196 0.3444 0.8315 0.3444 0.3119 0 0.6109 -0.1239 0.8316 -0.3444 0.2205 -0.2205 0.3444 -0.5197 0.3444 -0.8316v-8.4437c0.681 -0.2472 1.2695 -0.698 1.6853 -1.2915 0.416 -0.5932 0.6391 -1.3003 0.6391 -2.0248 0 -0.7245 -0.2231 -1.4315 -0.6391 -2.0249 -0.4158 -0.5933 -1.0043 -1.0442 -1.6853 -1.2914ZM20.232 12c-0.2326 0 -0.4599 -0.0689 -0.6534 -0.1982 -0.1933 -0.1292 -0.3441 -0.3129 -0.4331 -0.5277 -0.089 -0.2149 -0.1123 -0.4514 -0.0669 -0.6795s0.1573 -0.4377 0.3219 -0.6021c0.1644 -0.1646 0.3739 -0.2765 0.6021 -0.3219 0.2281 -0.0454 0.4645 -0.0221 0.6795 0.0669 0.2148 0.089 0.3985 0.2398 0.5276 0.4331 0.1293 0.1935 0.1983 0.4208 0.1983 0.6534 0 0.3119 -0.124 0.6111 -0.3445 0.8316 -0.2206 0.2205 -0.5196 0.3444 -0.8315 0.3444Zm-7.056 2.5637V1.416c0 -0.3119 -0.1239 -0.611 -0.3444 -0.8316C12.6109 0.3639 12.3119 0.24 12 0.24c-0.3119 0 -0.611 0.1239 -0.8315 0.3444 -0.2207 0.2206 -0.3445 0.5197 -0.3445 0.8316v13.1477c-0.6811 0.2472 -1.2696 0.6981 -1.6854 1.2915 -0.4159 0.5933 -0.639 1.3003 -0.639 2.0248 0 0.7245 0.2231 1.4315 0.639 2.0248 0.4158 0.5935 1.0043 1.0443 1.6854 1.2915v1.3877c0 0.3119 0.1238 0.6111 0.3445 0.8316 0.2205 0.2205 0.5196 0.3444 0.8315 0.3444 0.3119 0 0.6109 -0.1239 0.8316 -0.3444 0.2205 -0.2205 0.3444 -0.5197 0.3444 -0.8316v-1.3877c0.681 -0.2472 1.2695 -0.698 1.6853 -1.2915 0.416 -0.5932 0.6391 -1.3003 0.6391 -2.0248 0 -0.7245 -0.2231 -1.4315 -0.6391 -2.0248 -0.4158 -0.5934 -1.0043 -1.0443 -1.6853 -1.2915ZM12 19.056c-0.2326 0 -0.4599 -0.0689 -0.6534 -0.1982 -0.1933 -0.1292 -0.3441 -0.3129 -0.4331 -0.5277 -0.089 -0.2149 -0.1123 -0.4514 -0.0669 -0.6795s0.1573 -0.4377 0.3219 -0.6021c0.1644 -0.1646 0.3739 -0.2765 0.6021 -0.3219 0.2281 -0.0454 0.4645 -0.0221 0.6795 0.0669 0.2148 0.089 0.3985 0.2398 0.5276 0.4331 0.1293 0.1935 0.1983 0.4208 0.1983 0.6534 0 0.3119 -0.124 0.611 -0.3445 0.8316 -0.2206 0.2205 -0.5196 0.3444 -0.8315 0.3444ZM4.944 5.1557V1.416c0 -0.3119 -0.1239 -0.611 -0.3445 -0.8316C4.379 0.3639 4.0799 0.24 3.768 0.24c-0.3119 0 -0.611 0.1239 -0.8316 0.3444 -0.2205 0.2206 -0.3444 0.5197 -0.3444 0.8316v3.7397c-0.6811 0.2472 -1.2696 0.6981 -1.6854 1.2914 -0.4159 0.5934 -0.639 1.3003 -0.639 2.0249s0.2231 1.4315 0.639 2.0248c0.4158 0.5935 1.0043 1.0443 1.6854 1.2915V22.584c0 0.3119 0.1239 0.6111 0.3444 0.8316 0.2206 0.2205 0.5197 0.3444 0.8316 0.3444 0.3119 0 0.611 -0.1239 0.8315 -0.3444 0.2206 -0.2205 0.3445 -0.5197 0.3445 -0.8316V11.7883c0.6811 -0.2472 1.2695 -0.698 1.6854 -1.2915 0.4158 -0.5932 0.6389 -1.3002 0.6389 -2.0248s-0.2231 -1.4315 -0.6389 -2.0249c-0.4159 -0.5933 -1.0043 -1.0442 -1.6854 -1.2914ZM3.768 9.648c-0.2326 0 -0.46 -0.069 -0.6534 -0.1982 -0.1934 -0.1292 -0.3441 -0.3129 -0.4331 -0.5278 -0.089 -0.2148 -0.1123 -0.4513 -0.0669 -0.6794 0.0454 -0.2281 0.1574 -0.4377 0.3218 -0.6022 0.1645 -0.1644 0.374 -0.2764 0.6021 -0.3218 0.2282 -0.0454 0.4646 -0.0221 0.6795 0.0669 0.2149 0.089 0.3986 0.2398 0.5278 0.4331 0.1292 0.1934 0.1982 0.4208 0.1982 0.6534 0 0.3119 -0.1239 0.611 -0.3445 0.8316 -0.2205 0.2205 -0.5196 0.3444 -0.8315 0.3444Z" fill="#000000" stroke-width="1"></path>
</svg>