<svg viewBox="0 0 24 24" fill="none" xmlns="http://www.w3.org/2000/svg" id="Sync--Streamline-Unicons">
  <desc>
    Sync Streamline Icon: https://streamlinehq.com
  </desc>
  <path d="M21.3022 16.1278h-5.3273c-0.3119 0 -0.6111 0.1239 -0.8316 0.3444s-0.3444 0.5197 -0.3444 0.8316c0 0.3118 0.1239 0.611 0.3444 0.8315s0.5197 0.3445 0.8316 0.3445h2.8224c-1.2973 1.3555 -2.9701 2.2923 -4.8037 2.6899 -1.8338 0.3976 -3.7444 0.2378 -5.4866 -0.4588 -1.7421 -0.6966 -3.2362 -1.8982 -4.2902 -3.4504C3.1627 15.7082 2.5969 13.8763 2.592 12c0 -0.3119 -0.1239 -0.611 -0.3444 -0.8315 -0.2206 -0.2205 -0.5197 -0.3445 -0.8316 -0.3445s-0.611 0.124 -0.8316 0.3445C0.3639 11.389 0.24 11.6881 0.24 12c0.0062 2.2965 0.6847 4.5409 1.9517 6.4562 1.267 1.9154 3.0671 3.418 5.1781 4.3221 2.111 0.9042 4.4405 1.1705 6.7011 0.766 2.2607 -0.4044 4.3534 -1.4619 6.02 -3.0418v2.0815c0 0.3119 0.1239 0.6111 0.3444 0.8316s0.5197 0.3444 0.8316 0.3444c0.3119 0 0.611 -0.1239 0.8315 -0.3444s0.3445 -0.5197 0.3445 -0.8316v-5.292c-0.003 -0.3039 -0.1233 -0.5947 -0.336 -0.8118 -0.2126 -0.2171 -0.501 -0.3434 -0.8047 -0.3524ZM12 0.24C8.9852 0.2486 6.0888 1.4147 3.9091 3.4975V1.416c0 -0.3119 -0.1239 -0.611 -0.3444 -0.8316C3.3441 0.3639 3.045 0.24 2.7331 0.24s-0.611 0.1239 -0.8315 0.3444c-0.2206 0.2206 -0.3445 0.5197 -0.3445 0.8316v5.292c0 0.3119 0.1239 0.611 0.3445 0.8316 0.2205 0.2205 0.5196 0.3444 0.8315 0.3444h5.292c0.3119 0 0.611 -0.1239 0.8316 -0.3444 0.2205 -0.2206 0.3444 -0.5197 0.3444 -0.8316s-0.1239 -0.611 -0.3444 -0.8316c-0.2206 -0.2205 -0.5197 -0.3444 -0.8316 -0.3444H5.2027c1.2965 -1.3549 2.9684 -2.2914 4.8009 -2.6894 1.8326 -0.3979 3.7423 -0.2391 5.4839 0.456 1.7417 0.6952 3.2359 1.895 4.2908 3.4454 1.055 1.5504 1.6224 3.3808 1.6297 5.256 0 0.3119 0.124 0.6111 0.3445 0.8316s0.5196 0.3444 0.8315 0.3444c0.3119 0 0.6111 -0.1239 0.8316 -0.3444s0.3444 -0.5197 0.3444 -0.8316c0 -1.5443 -0.3042 -3.0736 -0.8952 -4.5003 -0.591 -1.4268 -1.4571 -2.7232 -2.5492 -3.8153 -1.092 -1.092 -2.3884 -1.9582 -3.8153 -2.5492C15.0736 0.5442 13.5443 0.24 12 0.24Z" fill="#000000" stroke-width="1"></path>
</svg>