<svg viewBox="0 0 24 24" fill="none" xmlns="http://www.w3.org/2000/svg" id="Th-Large--Streamline-Unicons">
  <desc>
    Th Large Streamline Icon: https://streamlinehq.com
  </desc>
  <path d="M22.4533 0.24H1.5467c-0.3466 0 -0.6789 0.1377 -0.924 0.3827 -0.245 0.2451 -0.3827 0.5774 -0.3827 0.924v20.9066c0 0.3466 0.1377 0.679 0.3827 0.924 0.2451 0.245 0.5774 0.3827 0.924 0.3827h20.9066c0.3466 0 0.679 -0.1377 0.924 -0.3827s0.3827 -0.5774 0.3827 -0.924V1.5467c0 -0.3466 -0.1377 -0.6789 -0.3827 -0.924 -0.245 -0.245 -0.5774 -0.3827 -0.924 -0.3827Zm-11.76 20.9067h-7.84v-7.84h7.84v7.84Zm0 -10.4534h-7.84v-7.84h7.84v7.84Zm10.4534 10.4534h-7.84v-7.84h7.84v7.84Zm0 -10.4534h-7.84v-7.84h7.84v7.84Z" fill="#000000" stroke-width="1"></path>
</svg>