<svg viewBox="0 0 24 24" fill="none" xmlns="http://www.w3.org/2000/svg" id="Times-Circle--Streamline-Unicons">
  <desc>
    Times Circle Streamline Icon: https://streamlinehq.com
  </desc>
  <path d="M16.31 7.69c-0.108 -0.1089 -0.2365 -0.1953 -0.378 -0.2543 -0.1416 -0.059 -0.2935 -0.0893 -0.4468 -0.0893s-0.3052 0.0303 -0.4468 0.0893c-0.1415 0.059 -0.27 0.1454 -0.378 0.2543L12 10.362 9.3397 7.69c-0.2188 -0.2187 -0.5155 -0.3416 -0.8249 -0.3416s-0.606 0.1229 -0.8248 0.3416c-0.2187 0.2188 -0.3416 0.5155 -0.3416 0.8248s0.1229 0.6061 0.3416 0.8248L10.362 12 7.69 14.6604c-0.1089 0.1079 -0.1953 0.2364 -0.2543 0.378 -0.059 0.1416 -0.0893 0.2934 -0.0893 0.4468s0.0303 0.3052 0.0893 0.4468c0.059 0.1415 0.1454 0.27 0.2543 0.378 0.108 0.1089 0.2365 0.1953 0.3781 0.2543 0.1415 0.0589 0.2934 0.0894 0.4467 0.0894 0.1534 0 0.3052 -0.0305 0.4468 -0.0894 0.1416 -0.059 0.27 -0.1454 0.3781 -0.2543L12 13.6381l2.6604 2.6719c0.108 0.1089 0.2365 0.1953 0.378 0.2543 0.1416 0.0589 0.2934 0.0894 0.4468 0.0894s0.3052 -0.0305 0.4468 -0.0894c0.1415 -0.059 0.27 -0.1454 0.378 -0.2543 0.1089 -0.108 0.1953 -0.2365 0.2543 -0.378 0.0589 -0.1416 0.0893 -0.2935 0.0893 -0.4468s-0.0304 -0.3052 -0.0893 -0.4468c-0.059 -0.1416 -0.1454 -0.2701 -0.2543 -0.378L13.638 12l2.672 -2.6603c0.1089 -0.108 0.1953 -0.2365 0.2543 -0.3781 0.0589 -0.1416 0.0893 -0.2934 0.0893 -0.4468 0 -0.1533 -0.0304 -0.3052 -0.0893 -0.4468 -0.059 -0.1415 -0.1454 -0.27 -0.2543 -0.378Zm3.9034 -3.9034c-1.0717 -1.1095 -2.3535 -1.9946 -3.7709 -2.6034 -1.4173 -0.6089 -2.9418 -0.9293 -4.4843 -0.9428 -1.5425 -0.0133 -3.0723 0.2806 -4.5 0.8647 -1.4277 0.5841 -2.7248 1.4467 -3.8156 2.5375 -1.0907 1.0908 -1.9534 2.3879 -2.5375 3.8156 -0.5841 1.4277 -0.878 2.9575 -0.8646 4.5 0.0134 1.5426 0.3338 3.067 0.9427 4.4843 0.6088 1.4174 1.4939 2.6992 2.6034 3.7709 1.0717 1.1096 2.3536 1.9946 3.7709 2.6034s2.9418 0.9293 4.4844 0.9428c1.5425 0.0133 3.0722 -0.2806 4.4999 -0.8647 1.4278 -0.5841 2.7248 -1.4467 3.8156 -2.5375 1.0908 -1.0908 1.9534 -2.3879 2.5375 -3.8156 0.5841 -1.4276 0.878 -2.9574 0.8647 -4.4999 -0.0134 -1.5426 -0.3339 -3.067 -0.9428 -4.4844s-1.4938 -2.6992 -2.6034 -3.7709Zm-1.638 14.7888c-1.5196 1.5211 -3.5195 2.4684 -5.659 2.6804 -2.1397 0.212 -4.2866 -0.3245 -6.075 -1.5178 -1.7885 -1.1934 -3.1078 -2.97 -3.7333 -5.0271 -0.6254 -2.0572 -0.5183 -4.2675 0.3032 -6.2544 0.8214 -1.987 2.3064 -3.6277 4.2019 -4.6425 1.8955 -1.0149 4.0842 -1.3412 6.1933 -0.9232 2.1091 0.4179 4.0079 1.5541 5.3732 3.2151 1.3653 1.661 2.1124 3.744 2.1141 5.8941 0.0042 1.2213 -0.234 2.4313 -0.7006 3.56 -0.4666 1.1286 -1.1525 2.1535 -2.0178 3.0154Z" fill="#000000" stroke-width="1"></path>
</svg>