<svg viewBox="0 0 24 24" fill="none" xmlns="http://www.w3.org/2000/svg" id="Unlock-Alt--Streamline-Unicons">
  <desc>
    Unlock Alt Streamline Icon: https://streamlinehq.com
  </desc>
  <path d="M12 13.1754c-0.3119 0 -0.6111 0.124 -0.8316 0.3445s-0.3445 0.5197 -0.3445 0.8316v3.5282c0 0.3119 0.124 0.6111 0.3445 0.8316 0.2205 0.2206 0.5197 0.3444 0.8316 0.3444 0.3119 0 0.6111 -0.1238 0.8316 -0.3444 0.2205 -0.2205 0.3445 -0.5197 0.3445 -0.8316v-3.5282c0 -0.3119 -0.124 -0.6111 -0.3445 -0.8316s-0.5197 -0.3445 -0.8316 -0.3445Zm5.8803 -4.7042H8.4718V6.1191c-0.0017 -0.6984 0.2039 -1.3816 0.5907 -1.963 0.3868 -0.5814 0.9375 -1.035 1.5823 -1.3032 0.6447 -0.2683 1.3547 -0.3391 2.0398 -0.2036 0.685 0.1355 1.3146 0.4712 1.8087 0.9647 0.442 0.4517 0.7584 1.0113 0.9173 1.623 0.0386 0.1498 0.1063 0.2906 0.1993 0.4142 0.0931 0.1236 0.2095 0.2277 0.3427 0.3063 0.1333 0.0787 0.2806 0.1303 0.4339 0.1519 0.1531 0.0217 0.309 0.013 0.4589 -0.0256s0.2906 -0.1064 0.4142 -0.1994c0.1236 -0.093 0.2277 -0.2094 0.3063 -0.3426 0.0786 -0.1333 0.1302 -0.2807 0.1519 -0.4339 0.0216 -0.1532 0.0129 -0.3091 -0.0257 -0.4589 -0.2679 -1.0176 -0.7993 -1.9465 -1.5406 -2.6932 -0.823 -0.8205 -1.8708 -1.3787 -3.0107 -1.6041 -1.1401 -0.2254 -2.3215 -0.108 -3.3947 0.3374 -1.0735 0.4455 -1.9908 1.199 -2.6362 2.1654 -0.6454 0.9664 -0.99 2.1024 -0.9902 3.2646v2.3521c-0.9358 0 -1.8332 0.3717 -2.4948 1.0334 -0.6617 0.6616 -1.0334 1.5591 -1.0334 2.4948v8.2324c0 0.9358 0.3717 1.8331 1.0334 2.4948 0.6616 0.6616 1.559 1.0334 2.4948 1.0334h11.7606c0.9357 0 1.8331 -0.3718 2.4948 -1.0334 0.6616 -0.6617 1.0334 -1.559 1.0334 -2.4948v-8.2324c0 -0.9357 -0.3717 -1.8332 -1.0334 -2.4948 -0.6617 -0.6617 -1.5591 -1.0334 -2.4948 -1.0334Zm1.1761 11.7606c0 0.3119 -0.124 0.6111 -0.3445 0.8316 -0.2205 0.2206 -0.5197 0.3445 -0.8316 0.3445H6.1197c-0.3119 0 -0.6111 -0.1239 -0.8316 -0.3445 -0.2206 -0.2205 -0.3445 -0.5197 -0.3445 -0.8316v-8.2324c0 -0.3119 0.1239 -0.6111 0.3445 -0.8316 0.2205 -0.2205 0.5197 -0.3445 0.8316 -0.3445h11.7606c0.3119 0 0.6111 0.124 0.8316 0.3445s0.3445 0.5197 0.3445 0.8316v8.2324Z" fill="#000000" stroke-width="1"></path>
</svg>