<svg viewBox="0 0 24 24" fill="none" xmlns="http://www.w3.org/2000/svg" id="User-Check--Streamline-Unicons">
  <desc>
    User Check Streamline Icon: https://streamlinehq.com
  </desc>
  <path d="M13.5276 12.2587c0.6275 -0.5432 1.1308 -1.2148 1.4756 -1.9696 0.3449 -0.7548 0.5234 -1.5749 0.5234 -2.4047 0 -1.5594 -0.6194 -3.0548 -1.7221 -4.1574 -1.1025 -1.1027 -2.598 -1.7221 -4.1573 -1.7221 -1.5594 0 -3.0548 0.6194 -4.1574 1.7221 -1.1027 1.1026 -1.7221 2.598 -1.7221 4.1574 0 0.8298 0.1785 1.6499 0.5234 2.4047 0.3449 0.7548 0.8482 1.4264 1.4756 1.9696 -1.6461 0.7454 -3.0427 1.949 -4.0228 3.4671C0.7639 17.244 0.2417 19.0122 0.24 20.8192c0 0.3119 0.1239 0.611 0.3444 0.8315 0.2205 0.2205 0.5196 0.3444 0.8315 0.3444s0.611 -0.1239 0.8315 -0.3444c0.2205 -0.2205 0.3444 -0.5196 0.3444 -0.8315 0 -1.8712 0.7433 -3.6657 2.0665 -4.9888 1.3231 -1.3233 3.1177 -2.0666 4.9889 -2.0666s3.6657 0.7433 4.9888 2.0666c1.3232 1.3231 2.0665 3.1176 2.0665 4.9888 0 0.3119 0.124 0.611 0.3444 0.8315s0.5197 0.3444 0.8315 0.3444c0.3119 0 0.611 -0.1239 0.8315 -0.3444s0.3444 -0.5196 0.3444 -0.8315c-0.0017 -1.807 -0.5238 -3.5752 -1.504 -5.0934 -0.9801 -1.5181 -2.3766 -2.7217 -4.0227 -3.4671Zm-3.8804 -0.8466c-0.6977 0 -1.3798 -0.2069 -1.9599 -0.5946 -0.5801 -0.3875 -1.0323 -0.9386 -1.2993 -1.5831 -0.267 -0.6446 -0.3369 -1.3539 -0.2007 -2.0382 0.1361 -0.6843 0.4721 -1.3129 0.9654 -1.8063 0.4934 -0.4933 1.1219 -0.8293 1.8062 -0.9654 0.6843 -0.1361 1.3937 -0.0663 2.0383 0.2007 0.6445 0.267 1.1955 0.7192 1.5831 1.2993 0.3877 0.5801 0.5945 1.2622 0.5945 1.9599 0 0.9356 -0.3717 1.8328 -1.0332 2.4944 -0.6616 0.6616 -1.5589 1.0333 -2.4944 1.0333Zm13.7697 -2.7869c-0.1094 -0.1102 -0.2394 -0.1977 -0.3826 -0.2574 -0.1434 -0.0597 -0.2971 -0.0904 -0.4523 -0.0904s-0.3089 0.0307 -0.4522 0.0904c-0.1433 0.0597 -0.2733 0.1472 -0.3827 0.2574l-2.3518 2.3518 -0.729 -0.7408c-0.1094 -0.1102 -0.2394 -0.1977 -0.3827 -0.2574 -0.1433 -0.0598 -0.297 -0.0905 -0.4522 -0.0905s-0.3089 0.0307 -0.4523 0.0905c-0.1432 0.0597 -0.2732 0.1472 -0.3826 0.2574 -0.2191 0.2203 -0.342 0.5183 -0.342 0.829 0 0.3106 0.1229 0.6086 0.342 0.829l1.5757 1.5757c0.2204 0.2191 0.5183 0.3419 0.829 0.3419s0.6086 -0.1228 0.829 -0.3419l3.1397 -3.1397c0.1187 -0.1066 0.2144 -0.2363 0.2815 -0.3811 0.067 -0.1448 0.1038 -0.3018 0.1081 -0.4613 0.0045 -0.1595 -0.0236 -0.3182 -0.0825 -0.4665 -0.0589 -0.1483 -0.1475 -0.2831 -0.2601 -0.3961Z" fill="#000000" stroke-width="1"></path>
</svg>