<svg viewBox="0 0 24 24" fill="none" xmlns="http://www.w3.org/2000/svg" id="User-Plus--Streamline-Unicons">
  <desc>
    User Plus Streamline Icon: https://streamlinehq.com
  </desc>
  <path d="M22.584 10.236h-1.176V9.06c0 -0.3119 -0.1239 -0.611 -0.3444 -0.8316 -0.2205 -0.2205 -0.5197 -0.3444 -0.8316 -0.3444 -0.3119 0 -0.611 0.1239 -0.8315 0.3444 -0.2205 0.2206 -0.3445 0.5197 -0.3445 0.8316v1.176H17.88c-0.3119 0 -0.611 0.124 -0.8315 0.3445s-0.3445 0.5196 -0.3445 0.8315c0 0.3119 0.124 0.6111 0.3445 0.8316s0.5196 0.3444 0.8315 0.3444h1.176v1.176c0 0.3119 0.1239 0.6111 0.3444 0.8316s0.5197 0.3444 0.8316 0.3444c0.3119 0 0.611 -0.124 0.8315 -0.3444s0.3445 -0.5197 0.3445 -0.8316v-1.176h1.176c0.3119 0 0.611 -0.1239 0.8316 -0.3444s0.3444 -0.5197 0.3444 -0.8316c0 -0.3119 -0.1239 -0.611 -0.3444 -0.8315s-0.5197 -0.3445 -0.8316 -0.3445Zm-9.0552 2.0227c0.6275 -0.5432 1.1308 -1.2149 1.4758 -1.9698 0.3449 -0.7548 0.5234 -1.575 0.5234 -2.4049 0 -1.5595 -0.6195 -3.0551 -1.7222 -4.1578S11.2075 2.004 9.648 2.004c-1.5595 0 -3.0551 0.6195 -4.1578 1.7222S3.768 6.3245 3.768 7.884c0 0.8299 0.1785 1.6501 0.5235 2.4049 0.3449 0.7549 0.8482 1.4266 1.4757 1.9698 -1.6462 0.7455 -3.0429 1.9492 -4.0231 3.4675C0.7639 17.2445 0.2417 19.0128 0.24 20.82c0 0.3119 0.1239 0.6111 0.3444 0.8316 0.2206 0.2205 0.5197 0.3444 0.8316 0.3444s0.611 -0.124 0.8316 -0.3444c0.2205 -0.2205 0.3444 -0.5197 0.3444 -0.8316 0 -1.8714 0.7434 -3.6661 2.0667 -4.9893 1.3232 -1.3233 3.1179 -2.0667 4.9893 -2.0667s3.6661 0.7434 4.9893 2.0667c1.3234 1.3232 2.0667 3.1179 2.0667 4.9893 0 0.3119 0.124 0.6111 0.3445 0.8316s0.5196 0.3444 0.8315 0.3444c0.3119 0 0.611 -0.124 0.8316 -0.3444s0.3444 -0.5197 0.3444 -0.8316c-0.0018 -1.8072 -0.5239 -3.5755 -1.5041 -5.0938s-2.3768 -2.722 -4.0231 -3.4675ZM9.648 11.412c-0.6978 0 -1.3799 -0.2069 -1.96 -0.5946 -0.5802 -0.3876 -1.0324 -0.9387 -1.2994 -1.5833 -0.2671 -0.6447 -0.3369 -1.354 -0.2008 -2.0384 0.1361 -0.6843 0.4721 -1.313 0.9655 -1.8064 0.4934 -0.4934 1.1221 -0.8294 1.8064 -0.9655 0.6844 -0.1361 1.3938 -0.0663 2.0385 0.2008 0.6445 0.267 1.1956 0.7192 1.5832 1.2994 0.3877 0.5801 0.5946 1.2622 0.5946 1.96 0 0.9357 -0.3717 1.833 -1.0333 2.4947 -0.6617 0.6616 -1.5591 1.0333 -2.4947 1.0333Z" fill="#000000" stroke-width="1"></path>
</svg>