<svg viewBox="0 0 24 24" fill="none" xmlns="http://www.w3.org/2000/svg" id="Vertical-Align-Bottom--Streamline-Unicons">
  <desc>
    Vertical Align Bottom Streamline Icon: https://streamlinehq.com
  </desc>
  <path d="M22.584 21.408h-3.528V8.472c0 -0.3119 -0.1239 -0.611 -0.3444 -0.8316 -0.2205 -0.2205 -0.5197 -0.3444 -0.8316 -0.3444h-3.528v-5.88c0 -0.3119 -0.1239 -0.611 -0.3444 -0.8316C13.7871 0.3639 13.4879 0.24 13.176 0.24H6.12c-0.3119 0 -0.611 0.1239 -0.8316 0.3444 -0.2205 0.2206 -0.3444 0.5197 -0.3444 0.8316v19.992H1.416c-0.3119 0 -0.611 0.124 -0.8316 0.3445 -0.2205 0.2205 -0.3444 0.5196 -0.3444 0.8315 0 0.3119 0.1239 0.6111 0.3444 0.8316 0.2206 0.2205 0.5197 0.3444 0.8316 0.3444h21.168c0.3119 0 0.611 -0.1239 0.8316 -0.3444s0.3444 -0.5197 0.3444 -0.8316c0 -0.3119 -0.1239 -0.611 -0.3444 -0.8315s-0.5197 -0.3445 -0.8316 -0.3445Zm-10.584 0H7.296V2.592H12v18.816Zm4.704 0h-2.352V9.648h2.352v11.76Z" fill="#000000" stroke-width="1"></path>
</svg>