<svg viewBox="0 0 24 24" fill="none" xmlns="http://www.w3.org/2000/svg" id="Volume-Up--Streamline-Unicons">
  <desc>
    Volume Up Streamline Icon: https://streamlinehq.com
  </desc>
  <path d="M12.5405 2.6727c-0.1915 -0.0829 -0.4016 -0.1134 -0.6088 -0.0886 -0.2072 0.0249 -0.404 0.1043 -0.5705 0.2301L5.7239 7.2721H1.4193c-0.3127 0 -0.6127 0.1243 -0.8339 0.3454 -0.2211 0.2212 -0.3454 0.5212 -0.3454 0.8339v7.076c0 0.3128 0.1243 0.6128 0.3454 0.8339 0.2212 0.2213 0.5212 0.3455 0.8339 0.3455h4.3046l5.5783 4.4579c0.2074 0.1665 0.4651 0.2579 0.7312 0.2594 0.1762 0.003 0.3502 -0.0375 0.5071 -0.1179 0.2007 -0.0955 0.3703 -0.2459 0.4892 -0.4337 0.119 -0.1878 0.1824 -0.4054 0.183 -0.6277V3.7341c-0.0006 -0.2223 -0.064 -0.4399 -0.183 -0.6277 -0.1189 -0.1878 -0.2885 -0.3381 -0.4892 -0.4337ZM10.854 17.7918l-3.9861 -3.1843c-0.2075 -0.1664 -0.4652 -0.2579 -0.7312 -0.2594h-3.538V9.6307h3.538c0.266 -0.0015 0.5237 -0.0929 0.7312 -0.2594l3.9861 -3.1842v11.6047Zm4.8825 -15.1309c-0.1549 -0.0217 -0.3125 -0.0127 -0.4638 0.0266 -0.1515 0.0392 -0.2937 0.1079 -0.4185 0.2021 -0.1249 0.0941 -0.2299 0.212 -0.3092 0.3468 -0.0792 0.1348 -0.1312 0.2838 -0.1529 0.4387 -0.0217 0.1549 -0.0127 0.3125 0.0265 0.4639 0.0393 0.1514 0.1079 0.2936 0.2021 0.4184 0.1903 0.2521 0.4728 0.4184 0.7856 0.4622 1.6702 0.2573 3.1932 1.104 4.2933 2.3867 1.1002 1.2827 1.705 2.9168 1.705 4.6067 0 1.69 -0.6048 3.3241 -1.705 4.6067 -1.1001 1.2828 -2.6231 2.1294 -4.2933 2.3868 -0.3128 0.0219 -0.6041 0.1672 -0.8097 0.4038 -0.2057 0.2367 -0.309 0.5453 -0.2871 0.8581 0.022 0.3127 0.1671 0.604 0.4038 0.8097s0.5454 0.309 0.8581 0.287h0.1651c2.2323 -0.3376 4.2695 -1.4646 5.7417 -3.1763s2.2818 -3.8945 2.2818 -6.1522c0 -2.2576 -0.8096 -4.4405 -2.2818 -6.1522 -1.4723 -1.7116 -3.5095 -2.8386 -5.7417 -3.1763v-0.0472Zm-0.5425 11.5339c-0.3128 0.0501 -0.5929 0.2223 -0.7786 0.4789 -0.1859 0.2565 -0.2621 0.5763 -0.212 0.8891 0.05 0.3128 0.2223 0.5929 0.4788 0.7787 0.2566 0.1858 0.5764 0.2621 0.8892 0.212 0.1279 -0.0015 0.2551 -0.0213 0.3774 -0.059 0.9187 -0.3257 1.7139 -0.9282 2.2763 -1.7243 0.5625 -0.7962 0.8645 -1.747 0.8645 -2.7218 0 -0.9747 -0.302 -1.9256 -0.8645 -2.7218 -0.5624 -0.7961 -1.3576 -1.3985 -2.2763 -1.7243 -0.2972 -0.1001 -0.6219 -0.078 -0.9028 0.0613 -0.2808 0.1393 -0.4949 0.3846 -0.595 0.6817 -0.1001 0.2971 -0.0781 0.6219 0.0613 0.9028 0.1393 0.2808 0.3845 0.4949 0.6817 0.5949 0.4476 0.1698 0.8329 0.4716 1.1047 0.8655 0.2718 0.3939 0.4175 0.8613 0.4175 1.3399 0 0.4787 -0.1457 0.9459 -0.4175 1.3398 -0.2718 0.3939 -0.6571 0.6958 -1.1047 0.8656v-0.059Z" fill="#000000" stroke-width="1"></path>
</svg>