<svg viewBox="0 0 24 24" fill="none" xmlns="http://www.w3.org/2000/svg" id="Volume--Streamline-Unicons">
  <desc>
    Volume Streamline Icon: https://streamlinehq.com
  </desc>
  <path d="M12.5037 2.7006c-0.191 -0.0826 -0.4004 -0.1131 -0.607 -0.0883 -0.2066 0.0248 -0.4028 0.104 -0.5688 0.2294L5.7075 7.2863H1.4158c-0.3118 0 -0.6109 0.1238 -0.8314 0.3443 -0.2205 0.2205 -0.3444 0.5196 -0.3444 0.8315v7.0548c0 0.3118 0.1239 0.6109 0.3444 0.8314 0.2205 0.2206 0.5196 0.3444 0.8314 0.3444h4.2917l5.5616 4.4445c0.2068 0.1661 0.4637 0.2572 0.729 0.2587 0.1756 0.003 0.3492 -0.0374 0.5056 -0.1176 0.2001 -0.0952 0.3692 -0.2451 0.4877 -0.4323 0.1186 -0.1873 0.1819 -0.4042 0.1825 -0.6259V3.7588c-0.0006 -0.2216 -0.0639 -0.4385 -0.1825 -0.6258 -0.1185 -0.1872 -0.2876 -0.3371 -0.4877 -0.4324Zm-1.6814 15.0738L6.848 14.5997c-0.2068 -0.1659 -0.4637 -0.2571 -0.729 -0.2586H2.5916V9.6378H6.119c0.2653 -0.0015 0.5222 -0.0926 0.729 -0.2586l3.9743 -3.1747v11.5699Zm10.1825 -12.44c-0.2214 -0.2214 -0.5217 -0.3458 -0.8348 -0.3458s-0.6135 0.1244 -0.8349 0.3458c-0.2214 0.2214 -0.3458 0.5217 -0.3458 0.8348s0.1244 0.6135 0.3458 0.8349c0.6925 0.6913 1.2335 1.519 1.5887 2.4306 0.3553 0.9117 0.5171 1.8872 0.475 2.8647 -0.042 0.9776 -0.2869 1.9356 -0.7191 2.8135 -0.4321 0.8777 -1.0423 1.656 -1.7914 2.2853 -0.1819 0.1555 -0.312 0.3629 -0.3729 0.5944 -0.0609 0.2316 -0.0498 0.4761 0.0321 0.7011 0.0817 0.225 0.2303 0.4196 0.4256 0.5579 0.1954 0.1383 0.4284 0.2136 0.6677 0.216 0.2748 0.0006 0.541 -0.0951 0.7526 -0.2705 1.0005 -0.838 1.8158 -1.875 2.3938 -3.0451 0.578 -1.1701 0.9062 -2.4478 0.9637 -3.7516 0.0575 -1.3039 -0.157 -2.6054 -0.6298 -3.8219 -0.4726 -1.2165 -1.1934 -2.3213 -2.1163 -3.2441ZM17.6772 8.662c-0.1096 -0.1097 -0.2397 -0.1966 -0.383 -0.256 -0.1433 -0.0593 -0.2967 -0.0898 -0.4518 -0.0898 -0.1551 0 -0.3085 0.0305 -0.4517 0.0898 -0.1434 0.0594 -0.2735 0.1463 -0.3831 0.256 -0.1096 0.1096 -0.1966 0.2397 -0.256 0.383 -0.0593 0.1432 -0.0898 0.2967 -0.0898 0.4518 0 0.155 0.0305 0.3086 0.0898 0.4518 0.0594 0.1432 0.1464 0.2734 0.256 0.383 0.4416 0.439 0.6911 1.0353 0.6937 1.6579 0.0002 0.3426 -0.0743 0.6811 -0.2185 0.9917 -0.1442 0.3108 -0.3546 0.5863 -0.6163 0.8072 -0.1191 0.0988 -0.2175 0.22 -0.2896 0.3568 -0.0722 0.1368 -0.1167 0.2865 -0.1308 0.4406 -0.0142 0.1539 0.0021 0.3092 0.048 0.4569 0.046 0.1477 0.1205 0.2849 0.2195 0.4036 0.0996 0.1183 0.2214 0.2157 0.3586 0.2868 0.1373 0.071 0.2872 0.1144 0.4411 0.1275 0.154 0.0131 0.309 -0.0043 0.4563 -0.0512 0.1472 -0.0468 0.2839 -0.1223 0.4019 -0.222 0.5257 -0.4408 0.9486 -0.9912 1.2391 -1.6127 0.2905 -0.6215 0.4414 -1.2992 0.4423 -1.9852 -0.0066 -1.2463 -0.5004 -2.4405 -1.3757 -3.3275Z" fill="#000000" stroke-width="1"></path>
</svg>