<svg viewBox="0 0 24 24" fill="none" xmlns="http://www.w3.org/2000/svg" id="Wrench--Streamline-Unicons">
  <desc>
    Wrench Streamline Icon: https://streamlinehq.com
  </desc>
  <path d="m23.3679 16.1966 -5.3043 -5.2926c0.111 -0.5405 0.166 -1.0911 0.1643 -1.643 -0.0004 -1.513 -0.3823 -3.0016 -1.1103 -4.3281 -0.728 -1.3264 -1.7786 -2.448 -3.0547 -3.2609S11.3262 0.3809 9.8164 0.2818C8.3066 0.1827 6.7961 0.4659 5.4247 1.105c-0.1738 0.0794 -0.3256 0.2 -0.4421 0.3513 -0.1166 0.1514 -0.1945 0.3289 -0.2269 0.5171 -0.0322 0.1859 -0.0192 0.3768 0.038 0.5566 0.0572 0.1798 0.1569 0.3431 0.2906 0.4761l5.1049 5.0932 -2.1124 2.1123 -5.0931 -5.1048c-0.1342 -0.1317 -0.298 -0.2292 -0.4777 -0.2844 -0.1797 -0.0551 -0.3701 -0.0662 -0.555 -0.0325 -0.1871 0.0312 -0.3638 0.1073 -0.515 0.2218 -0.1513 0.1144 -0.2725 0.2638 -0.3534 0.4354C0.4413 6.8231 0.1584 8.3389 0.2603 9.8535c0.1019 1.5146 0.5852 2.979 1.405 4.2567 0.8198 1.2776 1.9494 2.3272 3.2838 3.0511 1.3344 0.7239 2.8302 1.0985 4.3482 1.089 0.5518 0.0018 1.1024 -0.0533 1.643 -0.1643l5.2926 5.3044c0.1091 0.1099 0.2389 0.1972 0.3818 0.2569 0.1431 0.0595 0.2965 0.0902 0.4514 0.0902s0.3083 -0.0308 0.4513 -0.0902c0.143 -0.0597 0.2728 -0.147 0.3819 -0.2569 0.11 -0.1092 0.1973 -0.239 0.2569 -0.3819 0.0596 -0.1431 0.0902 -0.2964 0.0902 -0.4513s-0.0306 -0.3083 -0.0902 -0.4514c-0.0596 -0.143 -0.1469 -0.2728 -0.2569 -0.3819l-5.7503 -5.7503c-0.1438 -0.1428 -0.3219 -0.2458 -0.5173 -0.2993 -0.1953 -0.0534 -0.4012 -0.0554 -0.5976 -0.0058 -0.5665 0.1518 -1.1502 0.2306 -1.7368 0.2347 -0.8777 0.0078 -1.7483 -0.1583 -2.5616 -0.4884 -0.8133 -0.3302 -1.5533 -0.8181 -2.1772 -1.4354 -0.624 -0.6174 -1.1196 -1.3522 -1.4583 -2.162 -0.3388 -0.8098 -0.5139 -1.6785 -0.5155 -2.5564 -0.0015 -0.3931 0.0299 -0.7856 0.0939 -1.1735l4.6002 4.612c0.1091 0.11 0.2389 0.1973 0.3819 0.2569 0.143 0.0595 0.2964 0.0902 0.4513 0.0902 0.155 0 0.3084 -0.0307 0.4514 -0.0902 0.143 -0.0596 0.2728 -0.1469 0.3819 -0.2569l3.7318 -3.767c0.2114 -0.2189 0.3297 -0.5113 0.3297 -0.8156 0 -0.3044 -0.1183 -0.5968 -0.3297 -0.8156L8.112 2.701c0.388 -0.0633 0.7805 -0.0947 1.1736 -0.0939 1.7626 0.0032 3.4521 0.7056 4.6974 1.9531 1.2453 1.2475 1.9447 2.9382 1.9447 4.7008 -0.0041 0.5866 -0.0829 1.1703 -0.2347 1.7369 -0.0496 0.1963 -0.0476 0.4022 0.0058 0.5976 0.0535 0.1953 0.1567 0.3735 0.2994 0.5172l5.7503 5.7503c0.2209 0.221 0.5207 0.3452 0.8332 0.3452s0.6122 -0.1242 0.8332 -0.3452c0.221 -0.2209 0.3451 -0.5207 0.3451 -0.8332s-0.1241 -0.6122 -0.3451 -0.8332h-0.047Z" fill="#000000" stroke-width="1"></path>
</svg>