<svg width="484" height="252" viewBox="0 0 484 252" fill="none" xmlns="http://www.w3.org/2000/svg">
<path d="M30.6113 47.623L159.92 68.2897V63.2077L30.6113 42.541" stroke="#957E18" stroke-width="3"/>
<path d="M1.16162 140.792L17.4099 134.694M1.16162 148.585L17.4099 143.842M30.273 136.388L82.4028 140.192M30.273 144.519L160.259 152.989V145.874L125.393 143.33M1.16162 126.902L16.0558 120.465M84.0549 57.1093L82.4028 140.192M82.4028 140.192L125.393 143.33M125.393 143.33V132.322M125.393 112.333L125.353 63.2077" stroke="#957E18" stroke-width="3"/>
<path d="M413.122 236.333H409.06M413.122 236.333L474.391 234.978M413.122 236.333V172.978M409.06 236.333L173.799 239.044L169.737 240.06L160.597 240.621M409.06 236.333V171.623M15.0402 249.547H1.5V82.858M15.0402 249.547L160.597 240.621M15.0402 249.547L17.9928 74.388M15.0402 17.47L1.5 28.6503V37.7979M15.0402 17.47L67.847 1.54651M15.0402 17.47L18.7638 28.6503M67.847 1.54651L404.659 72.0165M67.847 1.54651L179.554 49.317L177.861 50.4131M404.659 72.0165L481.162 104.88M404.659 72.0165L409.737 93.3607M404.659 72.0165L414.476 93.3607M481.162 104.88L414.476 93.3607M481.162 104.88L475.745 109.284M481.162 104.88L478.792 109.962L480.484 234.978H474.391M169.737 53.0438H173.799L177.861 50.4131M169.737 53.0438L160.597 51.567M169.737 53.0438L171.429 54.7378L409.719 97.0875M169.737 53.0438V63.8853M169.737 239.044V154.006M18.7638 28.6503L1.5 37.7979M18.7638 28.6503L160.597 51.567M18.7638 28.6503L18.5753 39.8307M1.5 37.7979V49.317M160.597 51.567V238.366M160.597 240.621V238.366M409.737 93.3607H414.476M409.737 93.3607L177.861 50.4131M409.737 93.3607L409.719 97.0875M414.476 93.3607L413.122 98.1039M413.122 98.1039L475.745 109.284M413.122 98.1039V104.88M475.745 109.284L475.672 116.06M474.391 234.978L475.034 177.383M409.719 97.0875L409.682 104.88M169.737 154.006L409.06 171.623M169.737 154.006V69.3061M409.06 171.623L409.666 108.268M413.122 159.426L475.169 164.847M413.122 159.426V107.59M413.122 159.426V167.896M475.169 164.847L475.647 118.432M475.169 164.847L475.067 172.301M475.647 118.432L413.122 107.59M475.647 118.432L475.672 116.06M413.122 107.59V104.88M413.122 104.88L475.672 116.06M409.666 108.268L169.737 69.3061M409.666 108.268L409.682 104.88M169.737 69.3061V63.8853M169.737 63.8853L409.682 104.88M413.122 167.896L475.067 172.301M413.122 167.896V172.978M475.067 172.301L475.034 177.383M475.034 177.383L413.122 172.978M1.5 49.317L18.5753 39.8307M1.5 49.317V53.0438M18.5753 39.8307L18.4839 45.2514M18.4839 45.2514L1.5 53.0438M18.4839 45.2514L18.0784 69.3061M1.5 53.0438V78.4536M1.5 78.4536L18.0784 69.3061M1.5 78.4536V82.858M18.0784 69.3061L17.9928 74.388M1.5 82.858L17.9928 74.388M28.2419 32.7159V39.8307H29.5959V44.5738V47.9618H28.2419L27.2264 115.044L29.2574 115.721V121.142H27.2264V134.016H29.2574V144.519H27.2264V230.913H32.981V239.044L160.597 238.366" stroke="#957E18" stroke-width="3"/>
<path d="M196.14 136.391L175.83 134.651V87.7965C185.037 75.7682 193.207 83.7171 196.14 89.1951V136.391Z" stroke="#957E18" stroke-width="3"/>
<path d="M238.792 140.454L219.836 138.738V91.7001C228.429 79.9752 236.054 87.7236 238.792 93.0635V140.454Z" stroke="#957E18" stroke-width="3"/>
<path d="M276.028 99.0189V143.842L267.903 143.163L259.779 142.484V97.6816C267.145 86.1802 273.681 93.7809 276.028 99.0189Z" stroke="#957E18" stroke-width="3"/>
<path d="M311.909 147.23L297.015 145.928V103.466C303.767 92.5651 309.758 99.7689 311.909 104.733V147.23Z" stroke="#957E18" stroke-width="3"/>
<path d="M345.083 150.618L330.188 149.038V109.21C336.941 98.986 342.931 105.743 345.083 110.399V150.618Z" stroke="#957E18" stroke-width="3"/>
<path d="M373.517 153.328L360.654 151.973V113.5C366.485 103.725 371.659 110.185 373.517 114.637V153.328Z" stroke="#957E18" stroke-width="3"/>
<path d="M400.598 155.7L389.088 154.683V118.03C394.306 109.08 398.935 114.995 400.598 119.071V155.7Z" stroke="#957E18" stroke-width="3"/>
<path d="M451.373 158.071L441.218 157.363V125.728C445.822 117.607 449.907 122.974 451.373 126.672V158.071Z" stroke="#957E18" stroke-width="3"/>
<path d="M169.737 178.399C173.461 162.137 206.973 160.781 206.973 188.902M171.768 187.888C170.414 171.287 195.464 161.801 202.572 187.888V238.705L171.091 239.044L171.768 187.888Z" stroke="#957E18" stroke-width="3"/>
<path d="M209.003 188.902C209.003 160.782 253.009 162.137 250.64 191.612M214.419 188.295C213.742 172.979 240.484 165.186 245.223 188.295V238.027L214.419 238.437V188.295Z" stroke="#957E18" stroke-width="3"/>
<path d="M159.92 191.951V183.832C147.509 183.832 122.435 183.832 121.434 183.832C124.317 150.356 70.7706 148.817 70.7707 180.754L27.2265 180.064M14.7018 180.754L1.16162 182.803M15.3788 17.1312C16.1912 17.4022 124.265 38.0237 178.2 48.3006M408.722 165.863L170.414 147.23M77.361 180.064C76.5372 162.669 109.077 153.819 114.843 180.064V236.546L77.361 237.011V180.064Z" stroke="#957E18" stroke-width="3"/>
<path d="M250.64 192.29C250.64 166.111 282.411 167.312 281.421 192.86M254.938 191.348C254.443 177.09 273.996 169.836 277.461 191.348V237.689L254.938 238.027V191.348Z" stroke="#957E18" stroke-width="3"/>
<path d="M323.418 191.612V194.591H315.95C316.874 171.173 287.537 169.727 287.537 193.724H281.444V191.273M291.233 193.205C290.771 180.136 309.02 173.486 312.254 193.205V237.011H291.599L291.233 193.205Z" stroke="#957E18" stroke-width="3"/>
<path d="M323.418 193.243C323.418 168.974 355.55 170.436 354.537 194.121M327.466 192.719C326.96 179.501 346.947 172.775 350.489 192.719L350.837 237.011H327.466V192.719Z" stroke="#957E18" stroke-width="3"/>
<path d="M354.561 194.204C354.561 170.48 385.295 171.909 384.327 195.062M358.433 193.692C357.949 180.77 377.066 174.196 380.454 193.692V236.672H358.433V193.692Z" stroke="#957E18" stroke-width="3"/>
<path d="M434.448 196.71C434.448 175.142 459.594 176.442 458.802 197.489M437.616 196.244C437.22 184.497 452.862 178.521 455.634 196.244V235.317H437.616V196.244Z" stroke="#957E18" stroke-width="3"/>
<path d="M384.349 196.126C384.349 173.492 409.495 174.856 408.703 196.944M387.517 195.637C387.121 183.309 402.763 177.037 405.535 195.637V236.333H387.517V195.637Z" stroke="#957E18" stroke-width="3"/>
<path d="M108.129 61.3197C115.086 61.3197 120.847 67.2546 120.847 74.727C120.847 82.1992 115.086 88.1342 108.129 88.1342C101.172 88.134 95.4122 82.1991 95.4121 74.727C95.4121 67.2548 101.172 61.32 108.129 61.3197Z" stroke="#957E18" stroke-width="3"/>
<path d="M111.515 105.363C120.328 105.364 127.616 112.953 127.616 122.497C127.616 132.042 120.328 139.631 111.515 139.631C102.701 139.631 95.4121 132.042 95.4121 122.497C95.4122 112.953 102.701 105.363 111.515 105.363Z" stroke="#957E18" stroke-width="3"/>
<line y1="-1" x2="15.5994" y2="-1" transform="matrix(-0.0433997 -0.999058 0.999055 -0.0434747 110.16 105.219)" stroke="#957E18" stroke-width="2"/>
<path d="M113.884 121.981C115.29 121.981 116.43 123.122 116.43 124.53C116.43 125.938 115.29 127.079 113.884 127.08C112.478 127.08 111.337 125.938 111.337 124.53C111.338 123.122 112.478 121.981 113.884 121.981Z" stroke="#957E18"/>
<path d="M110.837 112.495C111.682 112.495 112.369 113.181 112.369 114.028C112.368 114.874 111.682 115.56 110.837 115.56C109.992 115.56 109.306 114.875 109.306 114.028C109.306 113.181 109.992 112.495 110.837 112.495Z" stroke="#957E18"/>
<path d="M169.737 134.355C171.904 134.626 329.737 149.375 408.383 156.716" stroke="#957E18" stroke-width="3"/>
</svg>
