<svg viewBox="0 0 24 24" fill="none" xmlns="http://www.w3.org/2000/svg" id="Bell-Slash--Streamline-Unicons">
  <desc>
    Bell Slash Streamline Icon: https://streamlinehq.com
  </desc>
  <path d="M10.9059 5.0875c0.3563 -0.0961 0.724 -0.1435 1.0931 -0.141 1.247 0 2.4429 0.4953 3.3245 1.3771 0.8818 0.8817 1.3772 2.0776 1.3772 3.3246v1.575c0 0.3117 0.1239 0.6108 0.3442 0.8312s0.5195 0.3442 0.8312 0.3442c0.3117 0 0.6107 -0.1239 0.8311 -0.3442s0.3443 -0.5195 0.3443 -0.8312v-1.575c-0.0016 -1.6655 -0.5926 -3.2766 -1.6684 -4.548 -1.0756 -1.2715 -2.5665 -2.1212 -4.2087 -2.3988V1.4202c0 -0.3117 -0.1239 -0.6107 -0.3443 -0.8311 -0.2204 -0.2205 -0.5194 -0.3443 -0.8311 -0.3443s-0.6108 0.1238 -0.8311 0.3443c-0.2204 0.2204 -0.3443 0.5194 -0.3443 0.8311v1.293l-0.529 0.094c-0.3024 0.0811 -0.5602 0.2789 -0.7167 0.5501 -0.1565 0.2711 -0.1989 0.5933 -0.1178 0.8957 0.081 0.3024 0.2789 0.5602 0.5501 0.7167 0.271 0.1565 0.5932 0.1989 0.8957 0.1178Zm12.5064 16.6557L2.2548 0.5857C2.0334 0.3643 1.7332 0.24 1.4202 0.24S0.807 0.3643 0.5857 0.5857C0.3643 0.807 0.24 1.1072 0.24 1.4202s0.1243 0.6132 0.3457 0.8346l4.8427 4.8309c-0.3185 0.8168 -0.4819 1.6858 -0.4819 2.5625v3.7378c-0.6859 0.2425 -1.2801 0.6912 -1.7009 1.2846 -0.4209 0.5935 -0.6479 1.3026 -0.65 2.0301v2.3508c0 0.3117 0.1239 0.6108 0.3443 0.8311 0.2205 0.2204 0.5194 0.3443 0.8312 0.3443h3.6908c0.2707 0.9961 0.8616 1.8753 1.6815 2.5021 0.82 0.627 1.8235 0.9666 2.8556 0.9666s2.0356 -0.3396 2.8555 -0.9666c0.82 -0.6268 1.4109 -1.506 1.6816 -2.5021h2.0335l3.1736 3.1854c0.1093 0.1101 0.2393 0.1976 0.3825 0.2573 0.1433 0.0597 0.2969 0.0904 0.452 0.0904s0.3088 -0.0307 0.4521 -0.0904c0.1432 -0.0597 0.2732 -0.1472 0.3825 -0.2573 0.1101 -0.1093 0.1976 -0.2393 0.2573 -0.3825 0.0597 -0.1433 0.0904 -0.2969 0.0904 -0.452s-0.0307 -0.3088 -0.0904 -0.4521c-0.0597 -0.1432 -0.1472 -0.2732 -0.2573 -0.3825ZM7.2973 9.6482c-0.0179 -0.2152 -0.0179 -0.4314 0 -0.6465l4.2198 4.1727H7.2973V9.6481Zm4.7017 11.7541c-0.4102 -0.0024 -0.8127 -0.1122 -1.1674 -0.3184 -0.3547 -0.2063 -0.6492 -0.5016 -0.8543 -0.857h4.0434c-0.2051 0.3554 -0.4997 0.6507 -0.8543 0.857 -0.3547 0.2062 -0.7572 0.316 -1.1674 0.3184Zm-7.0525 -3.5262v-1.1754c0 -0.3118 0.1238 -0.6108 0.3443 -0.8312 0.2204 -0.2204 0.5194 -0.3443 0.8311 -0.3443h7.746l2.3508 2.3509H4.9465Z" fill="#000000" stroke-width="1"></path>
</svg>