<svg viewBox="0 0 24 24" fill="none" xmlns="http://www.w3.org/2000/svg" id="Bookmark--Streamline-Unicons">
  <desc>
    Bookmark Streamline Icon: https://streamlinehq.com
  </desc>
  <path d="M16.7031 0.24H7.2969c-0.9355 0 -1.8326 0.3716 -2.4941 1.0331S3.7697 2.8318 3.7697 3.7673v18.8122c-0.0009 0.2072 0.0531 0.411 0.1563 0.5906 0.1032 0.1796 0.2521 0.3288 0.4315 0.4324 0.1788 0.1032 0.3815 0.1575 0.5879 0.1575 0.2064 0 0.4092 -0.0543 0.5879 -0.1575L12 19.8635l6.4667 3.7389c0.1792 0.1016 0.3819 0.1543 0.5879 0.1529 0.206 0.0014 0.4087 -0.0513 0.5879 -0.1529 0.1794 -0.1035 0.3282 -0.2527 0.4315 -0.4323 0.1032 -0.1796 0.1572 -0.3834 0.1564 -0.5906V3.7673c0 -0.9355 -0.3717 -1.8327 -1.0332 -2.4942C18.5357 0.6116 17.6386 0.24 16.7031 0.24Zm1.1757 20.3055 -5.2909 -3.057c-0.1787 -0.1033 -0.3816 -0.1576 -0.5879 -0.1576s-0.4092 0.0543 -0.5879 0.1576l-5.2909 3.057V3.7673c0 -0.3118 0.1239 -0.6109 0.3444 -0.8314 0.2205 -0.2205 0.5195 -0.3444 0.8313 -0.3444h9.4062c0.3118 0 0.6109 0.1239 0.8313 0.3444 0.2206 0.2205 0.3444 0.5196 0.3444 0.8314v16.7782Z" fill="#000000" stroke-width="1"></path>
</svg>