<svg viewBox="0 0 24 24" fill="none" xmlns="http://www.w3.org/2000/svg" id="Chart-Down--Streamline-Unicons">
  <desc>
    Chart Down Streamline Icon: https://streamlinehq.com
  </desc>
  <path d="M22.5842 10.8266c-0.3118 0 -0.6109 0.124 -0.8313 0.3444s-0.3444 0.5196 -0.3444 0.8314v3.0452l-7.3956 -7.4073c-0.1093 -0.1102 -0.2393 -0.1976 -0.3825 -0.2573 -0.1434 -0.0597 -0.297 -0.0905 -0.4522 -0.0905s-0.3089 0.0308 -0.4522 0.0905c-0.1433 0.0597 -0.2733 0.1471 -0.3826 0.2573l-3.8683 3.88 -6.2197 -6.2315c-0.2214 -0.2214 -0.5217 -0.3458 -0.8348 -0.3458s-0.6134 0.1244 -0.8348 0.3458C0.3644 5.5102 0.24 5.8105 0.24 6.1236s0.1244 0.6134 0.3458 0.8348l7.0545 7.0545c0.1093 0.1102 0.2394 0.1977 0.3827 0.2574 0.1432 0.0597 0.2969 0.0904 0.4521 0.0904s0.3089 -0.0307 0.4522 -0.0904c0.1433 -0.0597 0.2733 -0.1472 0.3826 -0.2574l3.8683 -3.88 6.5725 6.5725h-3.0453c-0.3118 0 -0.6109 0.124 -0.8313 0.3444s-0.3444 0.5196 -0.3444 0.8314c0 0.3118 0.1239 0.6109 0.3444 0.8314s0.5195 0.3444 0.8313 0.3444h5.8788c0.1537 -0.0019 0.3055 -0.0339 0.4468 -0.0941 0.2874 -0.1193 0.5156 -0.3476 0.6349 -0.6349 0.0602 -0.1413 0.0922 -0.2931 0.0941 -0.4468v-5.8788c0 -0.3118 -0.1239 -0.6109 -0.3444 -0.8314s-0.5196 -0.3444 -0.8314 -0.3444Z" fill="#000000" stroke-width="1"></path>
</svg>