<svg viewBox="0 0 24 24" fill="none" xmlns="http://www.w3.org/2000/svg" id="Closed-Captioning-Slash--Streamline-Unicons">
  <desc>
    Closed Captioning Slash Streamline Icon: https://streamlinehq.com
  </desc>
  <path d="M12 0.24c-2.3259 0 -4.5996 0.6897 -6.5335 1.9819 -1.9339 1.2922 -3.4412 3.1289 -4.3313 5.2777C0.2451 9.6485 0.0122 12.013 0.466 14.2942s1.5738 4.3766 3.2184 6.0214c1.6447 1.6446 3.7401 2.7647 6.0213 3.2185 2.2812 0.4537 4.6458 0.2208 6.7946 -0.6693 2.1489 -0.8901 3.9856 -2.3974 5.2778 -4.3313C23.0703 16.5996 23.76 14.3259 23.76 12c0 -1.5443 -0.3042 -3.0736 -0.8952 -4.5004 -0.5909 -1.4268 -1.4572 -2.7232 -2.5492 -3.8152 -1.092 -1.092 -2.3884 -1.9582 -3.8153 -2.5492C15.0736 0.5442 13.5443 0.24 12 0.24Zm0 21.168c-2.4952 0 -4.8881 -0.9913 -6.6525 -2.7555C3.5832 16.8881 2.592 14.4951 2.592 12c-0.0026 -2.0894 0.6974 -4.1189 1.9874 -5.7624l1.7758 1.7758c-0.4366 0.3274 -0.7912 0.7516 -1.0361 1.2393s-0.3733 1.0256 -0.3751 1.5713v2.352c0.0036 0.7736 0.2613 1.5246 0.7336 2.1374 0.4723 0.6127 1.1328 1.0533 1.88 1.2537 0.7472 0.2005 1.5396 0.1499 2.2552 -0.1441 0.7156 -0.2941 1.3146 -0.8152 1.705 -1.483 0.0968 -0.1331 0.1646 -0.2849 0.199 -0.4459 0.0344 -0.1609 0.0346 -0.3272 0.0007 -0.4883 -0.034 -0.161 -0.1012 -0.3131 -0.1977 -0.4464s-0.2198 -0.245 -0.3619 -0.3278c-0.1423 -0.0826 -0.3004 -0.1346 -0.464 -0.1524 -0.1635 -0.0177 -0.329 -0.001 -0.4858 0.0492 -0.1566 0.0501 -0.301 0.1326 -0.4239 0.2421 -0.1228 0.1095 -0.2213 0.2436 -0.2891 0.3935 -0.0917 0.1562 -0.2183 0.2891 -0.3698 0.3883 -0.1516 0.0993 -0.324 0.1622 -0.5039 0.1838 -0.1798 0.0217 -0.3622 0.0014 -0.533 -0.059 -0.1707 -0.0606 -0.3252 -0.1596 -0.4514 -0.2897 -0.1099 -0.1042 -0.197 -0.2302 -0.2557 -0.3698 -0.0587 -0.1397 -0.0878 -0.2901 -0.0853 -0.4416v-2.352c0.0058 -0.2391 0.0843 -0.4706 0.225 -0.664 0.1408 -0.1933 0.3372 -0.3391 0.5629 -0.4179L12 13.7169c0.1089 0.7536 0.4586 1.4517 0.997 1.9901s1.2364 0.8881 1.99 0.997l2.7754 2.7753c-1.6512 1.2691 -3.68 1.9481 -5.7624 1.9287Zm7.4205 -3.6456 -1.7875 -1.7875c0.3808 -0.2773 0.701 -0.6294 0.9408 -1.0349 0.0968 -0.1331 0.1645 -0.285 0.199 -0.446 0.0343 -0.1608 0.0346 -0.3271 0.0007 -0.4882 -0.034 -0.161 -0.1012 -0.3131 -0.1977 -0.4464s-0.2198 -0.245 -0.3619 -0.3278c-0.1423 -0.0827 -0.3004 -0.1346 -0.464 -0.1524 -0.1636 -0.0178 -0.329 -0.0011 -0.4858 0.0492 -0.1566 0.0501 -0.301 0.1326 -0.4239 0.2421 -0.1228 0.1095 -0.2214 0.2436 -0.2891 0.3935 -0.1521 0.2319 -0.3811 0.4028 -0.6468 0.4822l-1.5523 -1.5524V10.824c-0.0013 -0.2623 0.085 -0.5174 0.2454 -0.725s0.3855 -0.3555 0.6397 -0.4204c0.2541 -0.0649 0.5226 -0.0429 0.7628 0.0623 0.2403 0.1053 0.4384 0.2878 0.563 0.5186 0.161 0.2663 0.421 0.4578 0.723 0.5328 0.302 0.0749 0.6213 0.0271 0.8881 -0.1329 0.1333 -0.0798 0.2496 -0.1851 0.3421 -0.3101 0.0924 -0.1251 0.1591 -0.2671 0.1963 -0.418 0.0372 -0.1509 0.0441 -0.3077 0.0203 -0.4613s-0.0777 -0.3009 -0.1589 -0.4335c-0.1514 -0.2524 -0.3331 -0.4854 -0.5409 -0.6939 -0.4641 -0.4776 -1.0538 -0.8142 -1.7011 -0.9707 -0.6473 -0.1566 -1.3257 -0.1267 -1.9567 0.0861 -0.6311 0.2128 -1.189 0.5999 -1.6093 1.1164 -0.4203 0.5166 -0.6858 1.1416 -0.7658 1.8027l-0.4116 -0.4116c0.045 -0.1546 0.0579 -0.3169 0.0376 -0.4767 -0.0202 -0.1598 -0.073 -0.3138 -0.1552 -0.4523 -0.1515 -0.2524 -0.3332 -0.4854 -0.541 -0.6939 -0.5296 -0.5341 -1.2192 -0.881 -1.9639 -0.9878L6.2376 4.5794c1.6435 -1.29 3.673 -1.99 5.7624 -1.9874 2.4951 0 4.8882 0.9912 6.6525 2.7555C20.4169 7.1119 21.408 9.5048 21.408 12c0.0026 2.0894 -0.6974 4.1189 -1.9875 5.7624Z" fill="#000000" stroke-width="1"></path>
</svg>