<svg viewBox="0 0 24 24" fill="none" xmlns="http://www.w3.org/2000/svg" id="External-Link-Alt--Streamline-Unicons">
  <desc>
    External Link Alt Streamline Icon: https://streamlinehq.com
  </desc>
  <path d="M19.056 10.6123c-0.3119 0 -0.611 0.124 -0.8315 0.3445s-0.3445 0.5196 -0.3445 0.8315v8.4437c0 0.3119 -0.1239 0.611 -0.3444 0.8316s-0.5197 0.3444 -0.8316 0.3444H3.768c-0.3119 0 -0.611 -0.1239 -0.8316 -0.3444 -0.2205 -0.2206 -0.3444 -0.5197 -0.3444 -0.8316V7.296c0 -0.3119 0.1239 -0.611 0.3444 -0.8316 0.2206 -0.2205 0.5197 -0.3444 0.8316 -0.3444h8.4437c0.3119 0 0.611 -0.1239 0.8315 -0.3444 0.2205 -0.2206 0.3445 -0.5197 0.3445 -0.8316s-0.124 -0.611 -0.3445 -0.8316c-0.2205 -0.2205 -0.5196 -0.3444 -0.8315 -0.3444H3.768c-0.9357 0 -1.833 0.3717 -2.4947 1.0333C0.6117 5.463 0.24 6.3603 0.24 7.296v12.936c0 0.9356 0.3717 1.833 1.0333 2.4947 0.6617 0.6616 1.559 1.0333 2.4947 1.0333h12.936c0.9356 0 1.833 -0.3717 2.4947 -1.0333 0.6616 -0.6617 1.0333 -1.5591 1.0333 -2.4947v-8.4437c0 -0.3119 -0.1239 -0.611 -0.3444 -0.8315s-0.5197 -0.3445 -0.8316 -0.3445ZM23.6659 0.9691c-0.1193 -0.2873 -0.3477 -0.5157 -0.635 -0.635 -0.1414 -0.0603 -0.2932 -0.0922 -0.4469 -0.0941h-7.056c-0.3119 0 -0.611 0.1239 -0.8315 0.3444 -0.2205 0.2206 -0.3445 0.5197 -0.3445 0.8316s0.124 0.611 0.3445 0.8316c0.2205 0.2205 0.5196 0.3444 0.8315 0.3444h4.2218L7.637 14.693c-0.1102 0.1094 -0.1977 0.2395 -0.2574 0.3827 -0.0597 0.1434 -0.0904 0.2971 -0.0904 0.4523s0.0307 0.3089 0.0904 0.4523c0.0597 0.1432 0.1472 0.2733 0.2574 0.3827 0.1094 0.1102 0.2394 0.1977 0.3827 0.2574 0.1433 0.0597 0.2971 0.0904 0.4523 0.0904s0.309 -0.0307 0.4523 -0.0904c0.1433 -0.0597 0.2733 -0.1472 0.3827 -0.2574L21.408 4.2502V8.472c0 0.3119 0.124 0.611 0.3445 0.8316 0.2205 0.2205 0.5196 0.3444 0.8315 0.3444 0.3119 0 0.6111 -0.1239 0.8316 -0.3444 0.2205 -0.2206 0.3444 -0.5197 0.3444 -0.8316V1.416c-0.0019 -0.1537 -0.0339 -0.3055 -0.0941 -0.4469Z" fill="#000000" stroke-width="1"></path>
</svg>