<svg viewBox="0 0 24 24" fill="none" xmlns="http://www.w3.org/2000/svg" id="File-Check-Alt--Streamline-Unicons">
  <desc>
    File Check Alt Streamline Icon: https://streamlinehq.com
  </desc>
  <path d="M11.4088 21.4019h-7.054c-0.3118 0 -0.6108 -0.1239 -0.8313 -0.3444 -0.2205 -0.2204 -0.3443 -0.5195 -0.3443 -0.8313V3.767c0 -0.3118 0.1238 -0.6109 0.3443 -0.8313 0.2205 -0.2205 0.5195 -0.3444 0.8313 -0.3444h5.8783v3.527c0 0.9354 0.3716 1.8325 1.0331 2.494 0.6614 0.6614 1.5585 1.033 2.4939 1.033h3.527v5.8783c0 0.3118 0.1239 0.6108 0.3443 0.8313s0.5195 0.3443 0.8313 0.3443c0.3118 0 0.6109 -0.1239 0.8313 -0.3443s0.3444 -0.5195 0.3444 -0.8313V8.3991c-0.0123 -0.108 -0.0359 -0.2144 -0.0706 -0.3175v-0.1058c-0.0565 -0.1208 -0.1319 -0.232 -0.2233 -0.3291l-7.054 -7.054c-0.0972 -0.0914 -0.2083 -0.1668 -0.3292 -0.2234 -0.0389 -0.0068 -0.0786 -0.0068 -0.1175 0 -0.1143 -0.0611 -0.2372 -0.1047 -0.3645 -0.1293H4.3548c-0.9354 0 -1.8325 0.3716 -2.4939 1.033C1.1994 1.9345 0.8278 2.8316 0.8278 3.767v16.4592c0 0.9354 0.3716 1.8325 1.0331 2.4939 0.6614 0.6615 1.5585 1.0331 2.4939 1.0331h7.054c0.3117 0 0.6108 -0.1239 0.8313 -0.3444s0.3443 -0.5195 0.3443 -0.8313c0 -0.3118 -0.1239 -0.6108 -0.3443 -0.8313s-0.5196 -0.3443 -0.8313 -0.3443ZM12.5844 4.249l3.045 3.045h-1.8693c-0.3118 0 -0.6109 -0.1239 -0.8313 -0.3444 -0.2205 -0.2205 -0.3444 -0.5195 -0.3444 -0.8313V4.249ZM6.7061 14.3479h7.054c0.3118 0 0.6108 -0.1239 0.8313 -0.3443s0.3443 -0.5196 0.3443 -0.8313c0 -0.3118 -0.1239 -0.6109 -0.3443 -0.8314s-0.5195 -0.3443 -0.8313 -0.3443h-7.054c-0.3118 0 -0.6108 0.1239 -0.8313 0.3443 -0.2205 0.2205 -0.3443 0.5196 -0.3443 0.8314 0 0.3117 0.1238 0.6108 0.3443 0.8313 0.2205 0.2204 0.5195 0.3443 0.8313 0.3443Zm4.7027 2.3513H6.7061c-0.3118 0 -0.6108 0.1239 -0.8313 0.3444 -0.2205 0.2204 -0.3443 0.5195 -0.3443 0.8313 0 0.3118 0.1238 0.6109 0.3443 0.8313 0.2205 0.2204 0.5195 0.3443 0.8313 0.3443h4.7027c0.3117 0 0.6108 -0.1239 0.8313 -0.3443s0.3443 -0.5195 0.3443 -0.8313c0 -0.3118 -0.1239 -0.6109 -0.3443 -0.8313s-0.5196 -0.3444 -0.8313 -0.3444ZM6.7061 9.6453h1.1757c0.3118 0 0.6108 -0.1239 0.8313 -0.3444 0.2205 -0.2204 0.3443 -0.5195 0.3443 -0.8313s-0.1238 -0.6108 -0.3443 -0.8313c-0.2205 -0.2205 -0.5195 -0.3443 -0.8313 -0.3443H6.7061c-0.3118 0 -0.6108 0.1238 -0.8313 0.3443 -0.2205 0.2205 -0.3443 0.5195 -0.3443 0.8313s0.1238 0.6109 0.3443 0.8313c0.2205 0.2205 0.5195 0.3444 0.8313 0.3444Zm16.1183 7.3949c-0.1093 -0.1102 -0.2393 -0.1976 -0.3825 -0.2574 -0.1434 -0.0597 -0.297 -0.0904 -0.4522 -0.0904s-0.3089 0.0307 -0.4522 0.0904c-0.1432 0.0598 -0.2732 0.1472 -0.3825 0.2574l-3.8679 3.8797 -1.5166 -1.5284c-0.1096 -0.1096 -0.2398 -0.1966 -0.3831 -0.2559 -0.1432 -0.0593 -0.2966 -0.0899 -0.4517 -0.0899 -0.155 0 -0.3085 0.0306 -0.4517 0.0899 -0.1433 0.0593 -0.2734 0.1463 -0.383 0.2559 -0.1096 0.1096 -0.1966 0.2397 -0.2559 0.383 -0.0593 0.1432 -0.0898 0.2966 -0.0898 0.4517 0 0.1551 0.0305 0.3085 0.0898 0.4517 0.0593 0.1433 0.1463 0.2735 0.2559 0.383l2.3513 2.3514c0.1094 0.1101 0.2394 0.1976 0.3826 0.2573 0.1433 0.0597 0.297 0.0904 0.4522 0.0904s0.3088 -0.0307 0.4521 -0.0904c0.1432 -0.0597 0.2732 -0.1472 0.3826 -0.2573l4.7026 -4.7027c0.1102 -0.1093 0.1976 -0.2393 0.2574 -0.3825 0.0597 -0.1434 0.0904 -0.297 0.0904 -0.4522s-0.0307 -0.3089 -0.0904 -0.4522c-0.0598 -0.1432 -0.1472 -0.2732 -0.2574 -0.3825Z" fill="#000000" stroke-width="1"></path>
</svg>