<svg viewBox="0 0 24 24" fill="none" xmlns="http://www.w3.org/2000/svg" id="Filter--Streamline-Unicons">
  <desc>
    Filter Streamline Icon: https://streamlinehq.com
  </desc>
  <path d="M20.232 0.24H3.768c-0.9357 0 -1.833 0.3717 -2.4947 1.0333C0.6117 1.935 0.24 2.8323 0.24 3.768v1.3759c-0.0002 0.4856 0.0999 0.9661 0.294 1.4112v0.0706c0.1662 0.3774 0.4015 0.7205 0.6938 1.0113l7.2442 7.1972v7.7498c-0.0004 0.1998 0.0501 0.3965 0.1469 0.5714 0.0967 0.1749 0.2364 0.3222 0.4058 0.4282 0.1872 0.1159 0.4031 0.1771 0.6233 0.1764 0.184 -0.0011 0.3654 -0.0454 0.5292 -0.1294l4.704 -2.352c0.1939 -0.0977 0.357 -0.2472 0.4712 -0.4319 0.1142 -0.1848 0.1749 -0.3975 0.1756 -0.6147v-5.3978l7.1971 -7.1972c0.2924 -0.2908 0.5277 -0.6339 0.6939 -1.0113v-0.0706c0.2102 -0.4417 0.3264 -0.9222 0.341 -1.4112V3.768c0 -0.9357 -0.3717 -1.833 -1.0333 -2.4947C22.065 0.6117 21.1676 0.24 20.232 0.24Zm-6.715 13.277c-0.109 0.1099 -0.1952 0.2403 -0.2537 0.3835 -0.0585 0.1433 -0.0882 0.2967 -0.0873 0.4515v5.1509l-2.352 1.176V14.352c0.0009 -0.1548 -0.0288 -0.3082 -0.0873 -0.4515 -0.0585 -0.1432 -0.1447 -0.2736 -0.2537 -0.3835L4.2502 7.296h15.4996l-6.2328 6.221Zm7.891 -8.573H2.592V3.768c0 -0.3119 0.1239 -0.611 0.3444 -0.8316 0.2206 -0.2205 0.5197 -0.3444 0.8316 -0.3444h16.464c0.3119 0 0.6111 0.1239 0.8316 0.3444 0.2204 0.2206 0.3444 0.5197 0.3444 0.8316v1.176Z" fill="#000000" stroke-width="1"></path>
</svg>