<svg viewBox="0 0 24 24" fill="none" xmlns="http://www.w3.org/2000/svg" id="Focus-Add--Streamline-Unicons">
  <desc>
    Focus Add Streamline Icon: https://streamlinehq.com
  </desc>
  <path d="M7.296 21.408H3.768c-0.3119 0 -0.611 -0.1239 -0.8316 -0.3444 -0.2205 -0.2205 -0.3444 -0.5197 -0.3444 -0.8316v-3.528c0 -0.3119 -0.1239 -0.611 -0.3444 -0.8315 -0.2206 -0.2205 -0.5197 -0.3445 -0.8316 -0.3445s-0.611 0.124 -0.8316 0.3445c-0.2205 0.2205 -0.3444 0.5196 -0.3444 0.8315v3.528c0 0.9356 0.3717 1.833 1.0333 2.4947 0.6617 0.6616 1.559 1.0333 2.4947 1.0333h3.528c0.3119 0 0.611 -0.1239 0.8316 -0.3444 0.2205 -0.2205 0.3444 -0.5197 0.3444 -0.8316 0 -0.3119 -0.1239 -0.611 -0.3444 -0.8315 -0.2206 -0.2205 -0.5197 -0.3445 -0.8316 -0.3445ZM1.416 8.472c0.3119 0 0.611 -0.1239 0.8316 -0.3444 0.2205 -0.2206 0.3444 -0.5197 0.3444 -0.8316V3.768c0 -0.3119 0.1239 -0.611 0.3444 -0.8316 0.2206 -0.2205 0.5197 -0.3444 0.8316 -0.3444h3.528c0.3119 0 0.611 -0.1239 0.8316 -0.3444 0.2205 -0.2206 0.3444 -0.5197 0.3444 -0.8316S8.3481 0.805 8.1276 0.5844C7.907 0.3639 7.6079 0.24 7.296 0.24H3.768c-0.9357 0 -1.833 0.3717 -2.4947 1.0333C0.6117 1.935 0.24 2.8323 0.24 3.768v3.528c0 0.3119 0.1239 0.611 0.3444 0.8316 0.2206 0.2205 0.5197 0.3444 0.8316 0.3444ZM20.232 0.24h-3.528c-0.3119 0 -0.611 0.1239 -0.8315 0.3444 -0.2205 0.2206 -0.3445 0.5197 -0.3445 0.8316s0.124 0.611 0.3445 0.8316c0.2205 0.2205 0.5196 0.3444 0.8315 0.3444h3.528c0.3119 0 0.611 0.1239 0.8316 0.3444 0.2205 0.2206 0.3444 0.5197 0.3444 0.8316v3.528c0 0.3119 0.124 0.611 0.3445 0.8316 0.2205 0.2205 0.5196 0.3444 0.8315 0.3444 0.3119 0 0.6111 -0.1239 0.8316 -0.3444 0.2205 -0.2206 0.3444 -0.5197 0.3444 -0.8316V3.768c0 -0.9357 -0.3717 -1.833 -1.0333 -2.4947C22.065 0.6117 21.1676 0.24 20.232 0.24ZM16.704 12c0 -0.3119 -0.1239 -0.611 -0.3444 -0.8315s-0.5197 -0.3445 -0.8316 -0.3445h-2.352V8.472c0 -0.3119 -0.1239 -0.611 -0.3444 -0.8316 -0.2205 -0.2205 -0.5197 -0.3444 -0.8316 -0.3444 -0.3119 0 -0.611 0.1239 -0.8315 0.3444 -0.2205 0.2206 -0.3445 0.5197 -0.3445 0.8316v2.352H8.472c-0.3119 0 -0.611 0.124 -0.8316 0.3445 -0.2205 0.2205 -0.3444 0.5196 -0.3444 0.8315 0 0.3119 0.1239 0.6111 0.3444 0.8316 0.2206 0.2205 0.5197 0.3444 0.8316 0.3444h2.352v2.352c0 0.3119 0.124 0.6111 0.3445 0.8316s0.5196 0.3444 0.8315 0.3444c0.3119 0 0.6111 -0.1239 0.8316 -0.3444s0.3444 -0.5197 0.3444 -0.8316v-2.352h2.352c0.3119 0 0.6111 -0.1239 0.8316 -0.3444s0.3444 -0.5197 0.3444 -0.8316Zm5.88 3.528c-0.3119 0 -0.611 0.124 -0.8315 0.3445s-0.3445 0.5196 -0.3445 0.8315v3.528c0 0.3119 -0.1239 0.611 -0.3444 0.8316s-0.5197 0.3444 -0.8316 0.3444h-3.528c-0.3119 0 -0.611 0.124 -0.8315 0.3445s-0.3445 0.5196 -0.3445 0.8315c0 0.3119 0.124 0.6111 0.3445 0.8316s0.5196 0.3444 0.8315 0.3444h3.528c0.9356 0 1.833 -0.3717 2.4947 -1.0333 0.6616 -0.6617 1.0333 -1.5591 1.0333 -2.4947v-3.528c0 -0.3119 -0.1239 -0.611 -0.3444 -0.8315s-0.5197 -0.3445 -0.8316 -0.3445Z" fill="#000000" stroke-width="1"></path>
</svg>