<svg viewBox="0 0 24 24" fill="none" xmlns="http://www.w3.org/2000/svg" id="Image-Upload--Streamline-Unicons">
  <desc>
    Image Upload Streamline Icon: https://streamlinehq.com
  </desc>
  <path d="M19.2747 13.6767c-0.2969 0 -0.5818 0.1181 -0.7917 0.328s-0.328 0.4948 -0.328 0.7917v0.4255l-1.6571 -1.6571c-0.5851 -0.5805 -1.376 -0.9063 -2.2002 -0.9063s-1.615 0.3258 -2.2002 0.9063l-0.7838 0.7837 -2.7768 -2.7768c-0.5933 -0.5648 -1.381 -0.8797 -2.2002 -0.8797s-1.6069 0.3149 -2.2002 0.8797l-1.6571 1.6572V6.9586c0 -0.2969 0.1179 -0.5817 0.3279 -0.7917 0.21 -0.21 0.4948 -0.328 0.7918 -0.328h7.8378c0.2969 0 0.5818 -0.1179 0.7917 -0.3279 0.21 -0.21 0.328 -0.4948 0.328 -0.7918 0 -0.2969 -0.118 -0.5817 -0.328 -0.7917 -0.2099 -0.21 -0.4948 -0.328 -0.7917 -0.328H3.5991c-0.8909 0 -1.7453 0.3539 -2.3753 0.9839C0.5939 5.2133 0.24 6.0677 0.24 6.9586v13.4363c0 0.8909 0.3539 1.7452 0.9838 2.3752 0.63 0.6299 1.4844 0.9839 2.3753 0.9839h13.4363c0.8908 0 1.7452 -0.354 2.3752 -0.9839 0.6299 -0.63 0.9838 -1.4843 0.9838 -2.3752v-5.5985c0 -0.2969 -0.118 -0.5818 -0.3279 -0.7917s-0.4948 -0.328 -0.7918 -0.328ZM3.5991 21.5146c-0.297 0 -0.5818 -0.1179 -0.7918 -0.328 -0.21 -0.2099 -0.3279 -0.4948 -0.3279 -0.7917v-3.9973l3.2471 -3.2471c0.1645 -0.1568 0.383 -0.2442 0.6102 -0.2442 0.2272 0 0.4457 0.0874 0.6102 0.2442l3.5495 3.5494 4.8146 4.8147H3.5991Zm14.5559 -1.1197c-0.0015 0.2143 -0.0723 0.4224 -0.2015 0.5934l-5.0498 -5.0722 0.7838 -0.7838c0.0803 -0.0819 0.1761 -0.147 0.2818 -0.1914 0.1057 -0.0445 0.2194 -0.0673 0.334 -0.0673 0.1147 0 0.2283 0.0228 0.334 0.0673 0.1057 0.0444 0.2015 0.1095 0.2818 0.1914l3.2359 3.2583v2.0043Zm5.2738 -16.4706L20.0697 0.5652c-0.1065 -0.102 -0.232 -0.1819 -0.3695 -0.2352 -0.2726 -0.1119 -0.5783 -0.1119 -0.8509 0 -0.1375 0.0533 -0.2631 0.1332 -0.3695 0.2352l-3.3591 3.3591c-0.1044 0.1044 -0.1872 0.2283 -0.2438 0.3647 -0.0564 0.1364 -0.0855 0.2826 -0.0855 0.4302 0 0.2982 0.1184 0.5842 0.3293 0.795 0.2108 0.2109 0.4968 0.3293 0.795 0.3293s0.5841 -0.1184 0.7949 -0.3293l1.4444 -1.4556v6.2591c0 0.2969 0.1181 0.5818 0.328 0.7917 0.2099 0.21 0.4948 0.328 0.7917 0.328 0.297 0 0.5818 -0.1179 0.7918 -0.328 0.2099 -0.2099 0.3279 -0.4948 0.3279 -0.7917V4.0586l1.4444 1.4556c0.1042 0.105 0.228 0.1883 0.3644 0.2451 0.1365 0.0569 0.2828 0.0861 0.4306 0.0861s0.2941 -0.0292 0.4306 -0.0861c0.1364 -0.0568 0.2603 -0.1401 0.3644 -0.2451 0.1049 -0.1041 0.1882 -0.2279 0.2451 -0.3644 0.0569 -0.1364 0.0861 -0.2828 0.0861 -0.4306s-0.0292 -0.2941 -0.0861 -0.4306c-0.0569 -0.1364 -0.1402 -0.2603 -0.2451 -0.3643Z" fill="#000000" stroke-width="1"></path>
</svg>