<svg viewBox="0 0 24 24" fill="none" xmlns="http://www.w3.org/2000/svg" id="Image--Streamline-Unicons">
  <desc>
    Image Streamline Icon: https://streamlinehq.com
  </desc>
  <path d="M20.232 2.592H3.768c-0.9357 0 -1.833 0.3717 -2.4947 1.0333C0.6117 4.287 0.24 5.1843 0.24 6.12v11.76c0 0.9356 0.3717 1.833 1.0333 2.4947 0.6617 0.6616 1.559 1.0333 2.4947 1.0333h16.464c0.9356 0 1.833 -0.3717 2.4947 -1.0333 0.6616 -0.6617 1.0333 -1.5591 1.0333 -2.4947V6.12c0 -0.9357 -0.3717 -1.833 -1.0333 -2.4947 -0.6617 -0.6616 -1.5591 -1.0333 -2.4947 -1.0333ZM3.768 19.056c-0.3119 0 -0.611 -0.1239 -0.8316 -0.3444 -0.2205 -0.2205 -0.3444 -0.5197 -0.3444 -0.8316v-2.8459l3.8808 -3.8691c0.2198 -0.2154 0.5154 -0.3362 0.8232 -0.3362s0.6034 0.1208 0.8232 0.3362l7.891 7.891H3.768Zm17.64 -1.176c0 0.3119 -0.1239 0.6111 -0.3444 0.8316s-0.5197 0.3444 -0.8316 0.3444h-0.9055l-4.4806 -4.5041 1.0349 -1.0349c0.2198 -0.2154 0.5153 -0.3362 0.8232 -0.3362s0.6034 0.1208 0.8232 0.3362l3.8808 3.8691v0.4939Zm0 -3.8102 -2.2109 -2.1992c-0.6702 -0.6439 -1.5636 -1.0036 -2.4931 -1.0036s-1.8229 0.3597 -2.4931 1.0036l-1.0349 1.0349 -3.3869 -3.3869c-0.6702 -0.6439 -1.5636 -1.0035 -2.4931 -1.0035s-1.8229 0.3596 -2.4931 1.0035L2.592 11.7178V6.12c0 -0.3119 0.1239 -0.611 0.3444 -0.8316 0.2206 -0.2205 0.5197 -0.3444 0.8316 -0.3444h16.464c0.3119 0 0.611 0.1239 0.8316 0.3444 0.2205 0.2206 0.3444 0.5197 0.3444 0.8316v7.9498Z" fill="#000000" stroke-width="1"></path>
</svg>