<svg viewBox="0 0 24 24" fill="none" xmlns="http://www.w3.org/2000/svg" id="Layers--Streamline-Unicons">
  <desc>
    Layers Streamline Icon: https://streamlinehq.com
  </desc>
  <path d="m0.8333 10.3073 10.579 6.1123c0.1786 0.1032 0.3814 0.1575 0.5877 0.1575s0.409 -0.0543 0.5877 -0.1575l10.579 -6.1123c0.1782 -0.1033 0.326 -0.2515 0.4288 -0.43 0.1028 -0.1784 0.1568 -0.3808 0.1568 -0.5867 0 -0.2059 -0.054 -0.4082 -0.1568 -0.5867 -0.1028 -0.1784 -0.2506 -0.3267 -0.4288 -0.43l-10.579 -6.1124c-0.1787 -0.1031 -0.3814 -0.1575 -0.5877 -0.1575s-0.4091 0.0544 -0.5877 0.1575L0.8333 8.2739c-0.1782 0.1033 -0.326 0.2516 -0.4288 0.43 -0.1028 0.1785 -0.1569 0.3808 -0.1569 0.5867s0.0541 0.4083 0.1569 0.5867 0.2506 0.3267 0.4288 0.43ZM12 4.5359l8.2281 4.7018L12 13.9982 3.7719 9.2847 12 4.5359Zm9.9913 9.1567L12 19.464l-9.9913 -5.7714c-0.1335 -0.0782 -0.281 -0.1293 -0.4343 -0.1503 -0.1532 -0.0211 -0.3091 -0.0117 -0.4587 0.0277 -0.1496 0.0393 -0.29 0.1077 -0.4131 0.2014 -0.1231 0.0936 -0.2265 0.2107 -0.3043 0.3444 -0.0777 0.1342 -0.1281 0.2824 -0.1483 0.4361 -0.0202 0.1537 -0.0098 0.3099 0.0307 0.4597 0.0404 0.1496 0.11 0.2898 0.2049 0.4124 0.0948 0.1228 0.213 0.2254 0.3477 0.3021l10.579 6.1123c0.1786 0.1032 0.3814 0.1576 0.5877 0.1576s0.409 -0.0544 0.5877 -0.1576l10.579 -6.1123c0.1347 -0.0767 0.2529 -0.1793 0.3477 -0.3021 0.0949 -0.1226 0.1645 -0.2628 0.2049 -0.4124 0.0404 -0.1498 0.0509 -0.306 0.0307 -0.4597s-0.0707 -0.3019 -0.1484 -0.4361c-0.0778 -0.1337 -0.1811 -0.2508 -0.3042 -0.3444 -0.1232 -0.0937 -0.2635 -0.1621 -0.4131 -0.2014 -0.1496 -0.0394 -0.3055 -0.0488 -0.4587 -0.0277 -0.1533 0.021 -0.3009 0.0721 -0.4343 0.1503Z" fill="#000000" stroke-width="1"></path>
</svg>