<svg viewBox="0 0 24 24" fill="none" xmlns="http://www.w3.org/2000/svg" id="Link--Streamline-Unicons">
  <desc>
    Link Streamline Icon: https://streamlinehq.com
  </desc>
  <path d="m9.5703 18.6444 -2.0955 2.0363c-0.5495 0.5495 -1.2948 0.8581 -2.0719 0.8581s-1.5223 -0.3086 -2.0718 -0.8581c-0.5495 -0.5496 -0.8582 -1.2947 -0.8582 -2.0718 0 -0.7772 0.3087 -1.5225 0.8582 -2.0719l5.375 -5.3869c0.5275 -0.5293 1.2383 -0.8355 1.9854 -0.8553 0.747 -0.0199 1.4731 0.2482 2.028 0.7488l0.1421 0.1184c0.2245 0.2197 0.5272 0.3413 0.8413 0.338 0.3142 -0.0033 0.6142 -0.1313 0.834 -0.3558 0.2198 -0.2246 0.3414 -0.5272 0.3381 -0.8413 -0.0033 -0.3142 -0.1313 -0.6142 -0.3559 -0.834 -0.0668 -0.0864 -0.1379 -0.1693 -0.2131 -0.2486 -1.0106 -0.8793 -2.3176 -1.3416 -3.6564 -1.2932s-2.6091 0.6038 -3.5537 1.5537l-5.446 5.3869C0.7245 15.8749 0.224 17.2007 0.2529 18.5682c0.029 1.3676 0.5851 2.6711 1.5523 3.6382 0.9673 0.9673 2.2707 1.5234 3.6383 1.5524 1.3675 0.029 2.6933 -0.4716 3.7006 -1.3969l2.0482 -2.0008c0.2022 -0.2207 0.3134 -0.5097 0.3111 -0.809 -0.0022 -0.2993 -0.1178 -0.5866 -0.3233 -0.8041 -0.2055 -0.2176 -0.4858 -0.3492 -0.7845 -0.3685 -0.2987 -0.0191 -0.5935 0.0755 -0.8253 0.2649ZM22.2265 1.7853C21.2305 0.7955 19.8835 0.24 18.4793 0.24s-2.7512 0.5555 -3.7471 1.5453L12.684 3.7861c-0.2022 0.2206 -0.3134 0.5097 -0.3111 0.8089 0.0022 0.2993 0.1178 0.5866 0.3233 0.8042 0.2055 0.2175 0.4859 0.3491 0.7846 0.3684 0.2986 0.0192 0.5935 -0.0754 0.8252 -0.2648l2.0482 -2.0364c0.5494 -0.5495 1.2947 -0.8582 2.0719 -0.8582 0.7771 0 1.5224 0.3087 2.0718 0.8582 0.5495 0.5495 0.8583 1.2948 0.8583 2.0719 0 0.7771 -0.3088 1.5224 -0.8583 2.0719l-5.375 5.3869c-0.5275 0.5292 -1.2384 0.8354 -1.9854 0.8552 -0.7471 0.0199 -1.4732 -0.2481 -2.0281 -0.7487l-0.1421 -0.1184c-0.2244 -0.2198 -0.527 -0.3414 -0.8413 -0.3381 -0.3142 0.0033 -0.6141 0.1313 -0.8339 0.3559 -0.2198 0.2245 -0.3414 0.5271 -0.3381 0.8413 0.0034 0.3141 0.1314 0.6141 0.3559 0.8339 0.086 0.088 0.1769 0.171 0.2723 0.2487 1.0119 0.8765 2.3183 1.3371 3.6563 1.2888 1.3379 -0.0483 2.6078 -0.6019 3.5537 -1.5493l5.3869 -5.3869c0.996 -0.9897 1.5602 -2.3332 1.569 -3.7373 0.0089 -1.4041 -0.5382 -2.7547 -1.5217 -3.7569Z" fill="#000000" stroke-width="1"></path>
</svg>