<svg viewBox="0 0 24 24" fill="none" xmlns="http://www.w3.org/2000/svg" id="Lock-Alt--Streamline-Unicons">
  <desc>
    Lock Alt Streamline Icon: https://streamlinehq.com
  </desc>
  <path d="M12 13.176c-0.3119 0 -0.611 0.124 -0.8315 0.3445s-0.3445 0.5196 -0.3445 0.8315v3.528c0 0.3119 0.124 0.611 0.3445 0.8316s0.5196 0.3444 0.8315 0.3444c0.3119 0 0.6111 -0.1239 0.8316 -0.3444s0.3444 -0.5197 0.3444 -0.8316v-3.528c0 -0.3119 -0.1239 -0.611 -0.3444 -0.8315s-0.5197 -0.3445 -0.8316 -0.3445Zm5.88 -4.704V6.12c0 -1.5595 -0.6195 -3.0551 -1.7222 -4.1578S13.5595 0.24 12 0.24c-1.5595 0 -3.0551 0.6195 -4.1578 1.7222S6.12 4.5605 6.12 6.12v2.352c-0.9357 0 -1.833 0.3717 -2.4947 1.0333C2.9637 10.167 2.592 11.0644 2.592 12v8.232c0 0.9356 0.3717 1.833 1.0333 2.4947 0.6617 0.6616 1.559 1.0333 2.4947 1.0333h11.76c0.9356 0 1.833 -0.3717 2.4947 -1.0333 0.6616 -0.6617 1.0333 -1.5591 1.0333 -2.4947V12c0 -0.9356 -0.3717 -1.833 -1.0333 -2.4947 -0.6617 -0.6616 -1.5591 -1.0333 -2.4947 -1.0333ZM8.472 6.12c0 -0.9357 0.3717 -1.833 1.0333 -2.4947C10.167 2.9637 11.0644 2.592 12 2.592s1.833 0.3717 2.4947 1.0333c0.6616 0.6617 1.0333 1.559 1.0333 2.4947v2.352H8.472V6.12Zm10.584 14.112c0 0.3119 -0.1239 0.6111 -0.3444 0.8316s-0.5197 0.3444 -0.8316 0.3444H6.12c-0.3119 0 -0.611 -0.1239 -0.8316 -0.3444 -0.2205 -0.2205 -0.3444 -0.5197 -0.3444 -0.8316V12c0 -0.3119 0.1239 -0.611 0.3444 -0.8315 0.2206 -0.2205 0.5197 -0.3445 0.8316 -0.3445h11.76c0.3119 0 0.6111 0.124 0.8316 0.3445s0.3444 0.5196 0.3444 0.8315v8.232Z" fill="#000000" stroke-width="1"></path>
</svg>