<svg viewBox="0 0 24 24" fill="none" xmlns="http://www.w3.org/2000/svg" id="Pause-Circle--Streamline-Unicons">
  <desc>
    Pause Circle Streamline Icon: https://streamlinehq.com
  </desc>
  <path d="M9.648 6.12c-0.3119 0 -0.611 0.1239 -0.8315 0.3444 -0.2206 0.2206 -0.3445 0.5197 -0.3445 0.8316v9.408c0 0.3119 0.1239 0.611 0.3445 0.8315 0.2205 0.2205 0.5196 0.3445 0.8315 0.3445 0.3119 0 0.6111 -0.124 0.8316 -0.3445s0.3444 -0.5196 0.3444 -0.8315V7.296c0 -0.3119 -0.1239 -0.611 -0.3444 -0.8316 -0.2205 -0.2205 -0.5197 -0.3444 -0.8316 -0.3444ZM12 0.24c-2.3259 0 -4.5996 0.6897 -6.5335 1.9819 -1.9339 1.2922 -3.4412 3.1289 -4.3313 5.2777C0.2451 9.6485 0.0122 12.013 0.466 14.2942s1.5738 4.3766 3.2184 6.0214c1.6447 1.6446 3.7401 2.7647 6.0213 3.2185 2.2812 0.4537 4.6458 0.2208 6.7946 -0.6693 2.1489 -0.8901 3.9856 -2.3974 5.2778 -4.3313C23.0703 16.5996 23.76 14.3259 23.76 12c0 -1.5443 -0.3042 -3.0736 -0.8952 -4.5004 -0.5909 -1.4268 -1.4572 -2.7232 -2.5492 -3.8152 -1.092 -1.092 -2.3884 -1.9582 -3.8153 -2.5492C15.0736 0.5442 13.5443 0.24 12 0.24Zm0 21.168c-1.8607 0 -3.6796 -0.5518 -5.2268 -1.5855 -1.5471 -1.0338 -2.753 -2.5031 -3.465 -4.2222 -0.7121 -1.7191 -0.8984 -3.6108 -0.5354 -5.4357 0.363 -1.825 1.259 -3.5013 2.5748 -4.8171 1.3157 -1.3157 2.992 -2.2117 4.817 -2.5747 1.8249 -0.363 3.7166 -0.1767 5.4357 0.5353 1.7191 0.7121 3.1884 1.9179 4.2222 3.4651C20.8562 8.3203 21.408 10.1392 21.408 12c0 2.4951 -0.9911 4.8881 -2.7555 6.6525C16.8882 20.4167 14.4951 21.408 12 21.408ZM14.352 6.12c-0.3119 0 -0.611 0.1239 -0.8315 0.3444 -0.2206 0.2206 -0.3445 0.5197 -0.3445 0.8316v9.408c0 0.3119 0.1239 0.611 0.3444 0.8315s0.5197 0.3445 0.8316 0.3445c0.3119 0 0.611 -0.124 0.8315 -0.3445s0.3445 -0.5196 0.3445 -0.8315V7.296c0 -0.3119 -0.124 -0.611 -0.3445 -0.8316 -0.2205 -0.2205 -0.5196 -0.3444 -0.8315 -0.3444Z" fill="#000000" stroke-width="1"></path>
</svg>