<svg viewBox="0 0 24 24" fill="none" xmlns="http://www.w3.org/2000/svg" id="Qrcode-Scan--Streamline-Unicons">
  <desc>
    Qrcode Scan Streamline Icon: https://streamlinehq.com
  </desc>
  <path d="M8 21H4c-0.26522 0 -0.51957 -0.1054 -0.70711 -0.2929C3.10536 20.5196 3 20.2652 3 20v-4c0 -0.2652 -0.10536 -0.5196 -0.29289 -0.7071C2.51957 15.1054 2.26522 15 2 15s-0.51957 0.1054 -0.70711 0.2929C1.10536 15.4804 1 15.7348 1 16v4c0 0.7956 0.31607 1.5587 0.87868 2.1213C2.44129 22.6839 3.20435 23 4 23h4c0.26522 0 0.51957 -0.1054 0.70711 -0.2929C8.89464 22.5196 9 22.2652 9 22c0 -0.2652 -0.10536 -0.5196 -0.29289 -0.7071C8.51957 21.1054 8.26522 21 8 21Zm14 -6c-0.2652 0 -0.5196 0.1054 -0.7071 0.2929S21 15.7348 21 16v4c0 0.2652 -0.1054 0.5196 -0.2929 0.7071S20.2652 21 20 21h-4c-0.2652 0 -0.5196 0.1054 -0.7071 0.2929S15 21.7348 15 22c0 0.2652 0.1054 0.5196 0.2929 0.7071S15.7348 23 16 23h4c0.7956 0 1.5587 -0.3161 2.1213 -0.8787C22.6839 21.5587 23 20.7956 23 20v-4c0 -0.2652 -0.1054 -0.5196 -0.2929 -0.7071S22.2652 15 22 15ZM20 1h-4c-0.2652 0 -0.5196 0.10536 -0.7071 0.29289C15.1054 1.48043 15 1.73478 15 2s0.1054 0.51957 0.2929 0.70711C15.4804 2.89464 15.7348 3 16 3h4c0.2652 0 0.5196 0.10536 0.7071 0.29289C20.8946 3.48043 21 3.73478 21 4v4c0 0.26522 0.1054 0.51957 0.2929 0.70711C21.4804 8.89464 21.7348 9 22 9c0.2652 0 0.5196 -0.10536 0.7071 -0.29289C22.8946 8.51957 23 8.26522 23 8V4c0 -0.79565 -0.3161 -1.55871 -0.8787 -2.12132C21.5587 1.31607 20.7956 1 20 1ZM2 9c0.26522 0 0.51957 -0.10536 0.70711 -0.29289C2.89464 8.51957 3 8.26522 3 8V4c0 -0.26522 0.10536 -0.51957 0.29289 -0.70711C3.48043 3.10536 3.73478 3 4 3h4c0.26522 0 0.51957 -0.10536 0.70711 -0.29289C8.89464 2.51957 9 2.26522 9 2s-0.10536 -0.51957 -0.29289 -0.70711C8.51957 1.10536 8.26522 1 8 1H4c-0.79565 0 -1.55871 0.31607 -2.12132 0.87868C1.31607 2.44129 1 3.20435 1 4v4c0 0.26522 0.10536 0.51957 0.29289 0.70711C1.48043 8.89464 1.73478 9 2 9Zm8 -4H6c-0.26522 0 -0.51957 0.10536 -0.70711 0.29289C5.10536 5.48043 5 5.73478 5 6v4c0 0.2652 0.10536 0.5196 0.29289 0.7071C5.48043 10.8946 5.73478 11 6 11h4c0.2652 0 0.5196 -0.1054 0.7071 -0.2929S11 10.2652 11 10V6c0 -0.26522 -0.1054 -0.51957 -0.2929 -0.70711C10.5196 5.10536 10.2652 5 10 5ZM9 9H7V7h2v2Zm5 2h4c0.2652 0 0.5196 -0.1054 0.7071 -0.2929S19 10.2652 19 10V6c0 -0.26522 -0.1054 -0.51957 -0.2929 -0.70711C18.5196 5.10536 18.2652 5 18 5h-4c-0.2652 0 -0.5196 0.10536 -0.7071 0.29289C13.1054 5.48043 13 5.73478 13 6v4c0 0.2652 0.1054 0.5196 0.2929 0.7071S13.7348 11 14 11Zm1 -4h2v2h-2V7Zm-5 6H6c-0.26522 0 -0.51957 0.1054 -0.70711 0.2929C5.10536 13.4804 5 13.7348 5 14v4c0 0.2652 0.10536 0.5196 0.29289 0.7071C5.48043 18.8946 5.73478 19 6 19h4c0.2652 0 0.5196 -0.1054 0.7071 -0.2929S11 18.2652 11 18v-4c0 -0.2652 -0.1054 -0.5196 -0.2929 -0.7071S10.2652 13 10 13Zm-1 4H7v-2h2v2Zm5 -1c0.2652 0 0.5196 -0.1054 0.7071 -0.2929S15 15.2652 15 15c0.2652 0 0.5196 -0.1054 0.7071 -0.2929S16 14.2652 16 14c0 -0.2652 -0.1054 -0.5196 -0.2929 -0.7071S15.2652 13 15 13h-1c-0.2652 0 -0.5196 0.1054 -0.7071 0.2929S13 13.7348 13 14v1c0 0.2652 0.1054 0.5196 0.2929 0.7071S13.7348 16 14 16Zm4 -3c-0.2652 0 -0.5196 0.1054 -0.7071 0.2929S17 13.7348 17 14v3c-0.2652 0 -0.5196 0.1054 -0.7071 0.2929S16 17.7348 16 18c0 0.2652 0.1054 0.5196 0.2929 0.7071S16.7348 19 17 19h1c0.2652 0 0.5196 -0.1054 0.7071 -0.2929S19 18.2652 19 18v-4c0 -0.2652 -0.1054 -0.5196 -0.2929 -0.7071S18.2652 13 18 13Zm-4 4c-0.1978 0 -0.3911 0.0586 -0.5556 0.1685 -0.1644 0.1099 -0.2926 0.2661 -0.3683 0.4488 -0.0757 0.1827 -0.0955 0.3838 -0.0569 0.5778s0.1338 0.3722 0.2737 0.512c0.1398 0.1399 0.318 0.2351 0.512 0.2737 0.194 0.0386 0.3951 0.0188 0.5778 -0.0569 0.1827 -0.0757 0.3389 -0.2039 0.4488 -0.3683 0.1099 -0.1645 0.1685 -0.3578 0.1685 -0.5556 0 -0.2652 -0.1054 -0.5196 -0.2929 -0.7071S14.2652 17 14 17Z" fill="#000000" stroke-width="1"></path>
</svg>