<svg viewBox="0 0 24 24" fill="none" xmlns="http://www.w3.org/2000/svg" id="Search-Plus--Streamline-Unicons">
  <desc>
    Search Plus Streamline Icon: https://streamlinehq.com
  </desc>
  <path d="M15.5435 9.6759h-3.5259V6.15c0 -0.3117 -0.1239 -0.6106 -0.3443 -0.8311 -0.2203 -0.2204 -0.5193 -0.3442 -0.831 -0.3442s-0.6107 0.1238 -0.8311 0.3442c-0.2204 0.2204 -0.3442 0.5194 -0.3442 0.8311v3.5259H6.1411c-0.3117 0 -0.6107 0.1239 -0.8311 0.3443 -0.2204 0.2203 -0.3442 0.5193 -0.3442 0.831s0.1238 0.6107 0.3442 0.8311c0.2204 0.2203 0.5193 0.3442 0.8311 0.3442H9.667v3.5259c0 0.3117 0.1238 0.6107 0.3442 0.8311s0.5194 0.3442 0.8311 0.3442 0.6107 -0.1238 0.831 -0.3442 0.3443 -0.5194 0.3443 -0.8311v-3.5259h3.5259c0.3117 0 0.6107 -0.1239 0.831 -0.3442s0.3443 -0.5194 0.3443 -0.8311 -0.1239 -0.6107 -0.3443 -0.8311 -0.5193 -0.3442 -0.831 -0.3442Zm7.8862 12.0938 -4.3603 -4.3251c1.6925 -2.1103 2.5122 -4.789 2.2904 -7.4851 -0.2218 -2.6961 -1.4681 -5.2048 -3.4828 -7.0103C15.8625 1.1438 13.2326 0.1789 10.5284 0.2529 7.8241 0.3269 5.251 1.4342 3.3381 3.3471S0.318 7.8331 0.244 10.5373c-0.074 2.7042 0.8909 5.3341 2.6963 7.3487 1.8054 2.0147 4.3141 3.261 7.0103 3.4827 2.6961 0.2218 5.3747 -0.5978 7.4851 -2.2904l4.3251 4.3251c0.1093 0.1101 0.2393 0.1976 0.3825 0.2573 0.1432 0.0597 0.2968 0.0904 0.452 0.0904s0.3087 -0.0307 0.452 -0.0904c0.1432 -0.0597 0.2731 -0.1472 0.3824 -0.2573 0.2118 -0.2192 0.3303 -0.5121 0.3303 -0.8168s-0.1185 -0.5977 -0.3303 -0.8168Zm-12.5874 -2.6914c-1.6272 0 -3.2178 -0.4825 -4.5708 -1.3865 -1.3529 -0.904 -2.4074 -2.1889 -3.0301 -3.6922 -0.6227 -1.5033 -0.7856 -3.1576 -0.4681 -4.7534 0.3174 -1.5959 1.101 -3.0619 2.2515 -4.2124 1.1506 -1.1506 2.6165 -1.9342 4.2124 -2.2516 1.5959 -0.3175 3.2502 -0.1545 4.7535 0.4682 1.5033 0.6226 2.7881 1.6771 3.6922 3.0301 0.904 1.3529 1.3865 2.9435 1.3865 4.5707 0 2.182 -0.8668 4.2746 -2.4097 5.8175 -1.5429 1.5428 -3.6355 2.4096 -5.8174 2.4096Z" fill="#000000" stroke-width="1"></path>
</svg>