<svg viewBox="0 0 24 24" fill="none" xmlns="http://www.w3.org/2000/svg" id="Setting--Streamline-Unicons">
  <desc>
    Setting Streamline Icon: https://streamlinehq.com
  </desc>
  <path d="M21.6642 12.776c-0.1885 -0.2145 -0.2924 -0.4904 -0.2924 -0.776s0.1039 -0.5615 0.2924 -0.7761l1.5051 -1.6932c0.1659 -0.185 0.2688 -0.4177 0.2942 -0.6649 0.0254 -0.2472 -0.0282 -0.496 -0.1531 -0.7108l-2.3517 -4.0684c-0.1235 -0.2146 -0.3117 -0.3847 -0.5376 -0.486 -0.226 -0.1014 -0.4781 -0.1288 -0.7205 -0.0784L17.49 3.969c-0.2812 0.0581 -0.5741 0.0113 -0.8232 -0.1317 -0.2492 -0.1429 -0.4373 -0.3722 -0.529 -0.6443l-0.7173 -2.1518c-0.0789 -0.2336 -0.2291 -0.4364 -0.4296 -0.5799 -0.2004 -0.1435 -0.441 -0.2203 -0.6874 -0.2197H9.6001C9.3437 0.2282 9.09 0.2991 8.8777 0.4435c-0.2124 0.1444 -0.3716 0.3543 -0.4534 0.5977L7.7658 3.193c-0.0917 0.2721 -0.2799 0.5014 -0.529 0.6443 -0.2491 0.143 -0.5419 0.1898 -0.8232 0.1317l-2.2694 -0.4468c-0.2298 -0.0325 -0.4641 0.0038 -0.6733 0.1042 -0.2093 0.1004 -0.3841 0.2605 -0.5025 0.4602L0.6167 8.155c-0.128 0.2124 -0.1855 0.4598 -0.1644 0.7069 0.0211 0.2471 0.1198 0.4812 0.282 0.6688l1.4933 1.6932c0.1885 0.2146 0.2925 0.4905 0.2925 0.7761s-0.104 0.5614 -0.2925 0.776L0.7343 14.4692c-0.1622 0.1877 -0.2609 0.4217 -0.282 0.6689 -0.0211 0.247 0.0364 0.4944 0.1644 0.7069l2.3517 4.0684c0.1236 0.2146 0.3117 0.3846 0.5376 0.486 0.226 0.1013 0.4781 0.1287 0.7205 0.0784l2.2106 -0.4468c0.2813 -0.0581 0.5741 -0.0113 0.8232 0.1317 0.2491 0.1429 0.4373 0.3721 0.529 0.6443l0.7173 2.1518c0.0818 0.2434 0.241 0.4533 0.4534 0.5977 0.2123 0.1444 0.466 0.2153 0.7224 0.2019h4.7034c0.2464 0.0006 0.487 -0.0762 0.6874 -0.2197 0.2005 -0.1435 0.3507 -0.3464 0.4296 -0.5799l0.7173 -2.1518c0.0917 -0.2722 0.2798 -0.5014 0.529 -0.6443 0.249 -0.143 0.5419 -0.1898 0.8232 -0.1317l2.2106 0.4468c0.2425 0.0503 0.4946 0.0229 0.7205 -0.0784 0.2259 -0.1014 0.4141 -0.2714 0.5376 -0.486l2.3517 -4.0684c0.1249 -0.2149 0.1785 -0.4637 0.1531 -0.7108 -0.0254 -0.2472 -0.1283 -0.48 -0.2942 -0.665l-1.5874 -1.6932Zm-1.752 1.5757 0.9407 1.0582 -1.5051 2.6104 -1.3875 -0.2822c-0.8468 -0.1731 -1.7277 -0.0293 -2.4756 0.4042 -0.7478 0.4336 -1.3104 1.1265 -1.581 1.9475l-0.4468 1.3169h-3.0102l-0.4233 -1.3404c-0.2706 -0.821 -0.8332 -1.5139 -1.581 -1.9475 -0.7478 -0.4335 -1.6287 -0.5773 -2.4756 -0.4042l-1.3875 0.2822 -1.5286 -2.5986 0.9407 -1.0583c0.5785 -0.6467 0.8983 -1.484 0.8983 -2.3517s-0.3198 -1.7049 -0.8983 -2.3517l-0.9407 -1.0582 1.5051 -2.5869 1.3875 0.2822c0.8468 0.1732 1.7278 0.0293 2.4756 -0.4042s1.3104 -1.1265 1.581 -1.9474l0.4468 -1.3287h3.0102l0.4468 1.3404c0.2706 0.8209 0.8332 1.5139 1.581 1.9474 0.7479 0.4336 1.6288 0.5774 2.4756 0.4043l1.3875 -0.2822 1.5051 2.6104 -0.9407 1.0582c-0.5719 0.6453 -0.8877 1.4777 -0.8877 2.3399 0 0.8623 0.3158 1.6947 0.8877 2.34Zm-7.9604 -7.0551c-0.9302 0 -1.8396 0.2759 -2.6131 0.7927 -0.7734 0.5168 -1.3763 1.2514 -1.7322 2.1108 -0.356 0.8595 -0.4492 1.8051 -0.2677 2.7175 0.1815 0.9123 0.6295 1.7504 1.2872 2.4081 0.6578 0.6578 1.4958 1.1058 2.4082 1.2872 0.9124 0.1816 1.858 0.0884 2.7175 -0.2676 0.8594 -0.3559 1.594 -0.9588 2.1108 -1.7322s0.7927 -1.6829 0.7927 -2.6131c0 -1.2475 -0.4955 -2.4438 -1.3777 -3.3258 -0.882 -0.8821 -2.0783 -1.3776 -3.3257 -1.3776Zm0 7.0551c-0.4652 0 -0.9197 -0.138 -1.3065 -0.3964 -0.3867 -0.2583 -0.6882 -0.6257 -0.8662 -1.0553 -0.178 -0.4298 -0.2245 -0.9026 -0.1338 -1.3588 0.0907 -0.4561 0.3147 -0.8752 0.6436 -1.2041 0.3289 -0.3289 0.748 -0.5529 1.2041 -0.6436 0.4562 -0.0908 0.929 -0.0441 1.3588 0.1338 0.4296 0.178 0.797 0.4795 1.0553 0.8662 0.2585 0.3867 0.3964 0.8413 0.3964 1.3065 0 0.6237 -0.2478 1.2218 -0.6888 1.6629s-1.0392 0.6888 -1.6629 0.6888Z" fill="#000000" stroke-width="1"></path>
</svg>