<svg viewBox="0 0 24 24" fill="none" xmlns="http://www.w3.org/2000/svg" id="Share-Alt--Streamline-Unicons">
  <desc>
    Share Alt Streamline Icon: https://streamlinehq.com
  </desc>
  <path d="M19.0484 14.3672c-0.6936 0.0045 -1.3778 0.1628 -2.003 0.4633s-1.1762 0.7356 -1.6132 1.2743l-5.9879 -2.7591c0.2815 -0.862 0.2815 -1.7913 0 -2.6535l5.9879 -2.7591c0.7063 0.8524 1.691 1.4278 2.7804 1.6248 1.0894 0.1969 2.2133 0.0028 3.1733 -0.5483 0.9602 -0.551 1.6948 -1.4235 2.0742 -2.4634 0.3795 -1.04 0.3794 -2.1805 -0.0002 -3.2204 -0.3796 -1.0398 -1.1145 -1.9122 -2.0747 -2.463 -0.9601 -0.5509 -2.0841 -0.7449 -3.1734 -0.5477 -1.0893 0.1972 -2.074 0.7728 -2.7802 1.6253 -0.7062 0.8525 -1.0885 1.927 -1.0796 3.034 0.0035 0.2797 0.031 0.5586 0.0822 0.8336L8.235 8.661c-0.661 -0.6462 -1.4979 -1.083 -2.406 -1.2557 -0.9081 -0.1727 -1.847 -0.0736 -2.699 0.2849 -0.852 0.3585 -1.5792 0.9605 -2.0906 1.7306 -0.5114 0.77 -0.7842 1.6738 -0.7842 2.5982 0 0.9243 0.2728 1.8281 0.7842 2.5982 0.5114 0.77 1.2386 1.372 2.0906 1.7305 0.852 0.3585 1.7909 0.4577 2.699 0.285 0.9081 -0.1727 1.745 -0.6096 2.406 -1.2558l6.1992 2.853c-0.0512 0.275 -0.0787 0.554 -0.0822 0.8336 0 0.9289 0.2755 1.8369 0.7915 2.6092 0.516 0.7724 1.2496 1.3743 2.1077 1.7297 0.8582 0.3555 1.8024 0.4485 2.7135 0.2674 0.911 -0.1813 1.7478 -0.6285 2.4045 -1.2854 0.6568 -0.6568 1.1042 -1.4936 1.2853 -2.4046 0.1813 -0.911 0.0883 -1.8553 -0.2672 -2.7135 -0.3554 -0.8581 -0.9574 -1.5916 -1.7297 -2.1077 -0.7723 -0.516 -1.6803 -0.7915 -2.6092 -0.7915Zm0 -11.741c0.4645 0 0.9184 0.1377 1.3046 0.3957 0.3861 0.258 0.6872 0.6248 0.8649 1.0539 0.1777 0.429 0.2242 0.9012 0.1336 1.3567 -0.0906 0.4555 -0.3143 0.8739 -0.6427 1.2023 -0.3284 0.3284 -0.7468 0.552 -1.2023 0.6427 -0.4555 0.0906 -0.9276 0.0441 -1.3567 -0.1337 -0.4291 -0.1777 -0.7959 -0.4787 -1.0538 -0.8649 -0.2581 -0.3861 -0.3958 -0.8401 -0.3958 -1.3045 0 -0.6228 0.2474 -1.2201 0.6878 -1.6605s1.0377 -0.6877 1.6604 -0.6877ZM4.9592 14.3672c-0.4644 0 -0.9184 -0.1378 -1.3046 -0.3957 -0.3861 -0.2581 -0.6871 -0.6249 -0.8649 -1.0539 -0.1777 -0.4291 -0.2242 -0.9012 -0.1336 -1.3568 0.0906 -0.4554 0.3143 -0.8739 0.6427 -1.2023 0.3284 -0.3284 0.7468 -0.552 1.2023 -0.6427 0.4555 -0.0905 0.9276 -0.044 1.3567 0.1338 0.4291 0.1776 0.7958 0.4787 1.0539 0.8648 0.258 0.3862 0.3957 0.8402 0.3957 1.3046 0 0.6227 -0.2474 1.2201 -0.6878 1.6604 -0.4403 0.4404 -1.0376 0.6878 -1.6604 0.6878Zm14.0892 7.0446c-0.4645 0 -0.9184 -0.1378 -1.3045 -0.3957 -0.3862 -0.2581 -0.6872 -0.6249 -0.865 -1.0539 -0.1776 -0.4291 -0.2241 -0.9012 -0.1336 -1.3568 0.0906 -0.4554 0.3143 -0.8739 0.6427 -1.2023 0.3284 -0.3284 0.7468 -0.552 1.2023 -0.6427 0.4555 -0.0905 0.9276 -0.044 1.3568 0.1338 0.429 0.1776 0.7958 0.4787 1.0537 0.8648 0.2581 0.3862 0.3958 0.8402 0.3958 1.3046 0 0.6227 -0.2474 1.2201 -0.6878 1.6604 -0.4404 0.4404 -1.0376 0.6878 -1.6604 0.6878Z" fill="#000000" stroke-width="1"></path>
</svg>