<svg viewBox="0 0 24 24" fill="none" xmlns="http://www.w3.org/2000/svg" id="Shield-Question--Streamline-Unicons">
  <desc>
    Shield Question Streamline Icon: https://streamlinehq.com
  </desc>
  <path d="M11.1644 15.1266c-0.2174 0.2191 -0.3401 0.515 -0.3414 0.8238 0.0004 0.1577 0.0324 0.3139 0.0942 0.459 0.1063 0.2494 0.2953 0.4545 0.5353 0.5806s0.5161 0.1655 0.7818 0.1115c0.2657 -0.0539 0.5046 -0.198 0.6763 -0.4077 0.1717 -0.2097 0.2659 -0.4723 0.2664 -0.7434 -0.0013 -0.3088 -0.124 -0.6047 -0.3414 -0.8238 -0.1094 -0.1104 -0.2396 -0.1979 -0.3829 -0.2577 -0.1435 -0.0598 -0.2973 -0.0905 -0.4527 -0.0905s-0.3092 0.0307 -0.4527 0.0905c-0.1433 0.0598 -0.2735 0.1473 -0.3829 0.2577ZM20.9802 2.18c-0.1368 -0.1106 -0.2965 -0.1891 -0.4676 -0.2299 -0.1712 -0.0407 -0.3491 -0.0426 -0.5211 -0.0055 -1.2577 0.2636 -2.556 0.267 -3.815 0.0099 -1.2589 -0.2571 -2.452 -0.7691 -3.5056 -1.5046C12.4738 0.3132 12.2397 0.24 12 0.24c-0.2397 0 -0.4738 0.0732 -0.6709 0.2099 -1.0545 0.7335 -2.248 1.2434 -3.5069 1.4985 -1.259 0.255 -2.5568 0.2497 -3.8137 -0.0155 -0.1719 -0.0372 -0.35 -0.0353 -0.521 0.0055 -0.1711 0.0407 -0.3309 0.1193 -0.4676 0.2299 -0.1366 0.1107 -0.2466 0.2507 -0.3219 0.4096 -0.0754 0.1588 -0.1142 0.3326 -0.1136 0.5084v8.7683c-0.0011 1.6874 0.4011 3.3507 1.1729 4.8513s1.8909 2.7952 3.2642 3.7758l4.2959 3.0601c0.1994 0.1419 0.4379 0.2182 0.6826 0.2182 0.2447 0 0.4833 -0.0763 0.6826 -0.2182l4.2959 -3.0601c1.3733 -0.9806 2.4925 -2.2752 3.2643 -3.7758 0.7717 -1.5006 1.1739 -3.1639 1.1728 -4.8513V3.0863c0.0006 -0.1758 -0.0382 -0.3496 -0.1135 -0.5084s-0.1854 -0.2989 -0.3219 -0.4096V2.18Zm-1.9185 9.6746c0.001 1.312 -0.3115 2.6053 -0.9113 3.7722 -0.5999 1.1668 -1.4697 2.1736 -2.5372 2.9365L12 21.1408l-3.6132 -2.5775c-1.0675 -0.7629 -1.9373 -1.7697 -2.5372 -2.9365 -0.5998 -1.1669 -0.9122 -2.4602 -0.9113 -3.7722V4.4398C7.4057 4.651 9.8768 4.0785 12 2.8038c2.1232 1.2747 4.5944 1.8472 7.0617 1.636v7.4148ZM12 6.5348c-0.6201 -0.0004 -1.2296 0.1625 -1.7667 0.4725 -0.5372 0.3099 -0.9833 0.7558 -1.2934 1.2929 -0.1407 0.269 -0.172 0.5819 -0.0874 0.8735 0.0845 0.2915 0.2785 0.5391 0.5413 0.6911 0.2628 0.1518 0.5742 0.1963 0.869 0.1241 0.2948 -0.0722 0.5503 -0.2556 0.7132 -0.5118 0.1033 -0.1787 0.2517 -0.3272 0.4303 -0.4304s0.3815 -0.1578 0.5878 -0.158c0.2064 -0.0002 0.4092 0.0539 0.5881 0.1568 0.1789 0.1029 0.3277 0.2511 0.4313 0.4296 0.1034 0.1786 0.1583 0.3812 0.1587 0.5876 0.0006 0.2065 -0.0532 0.4094 -0.1559 0.5884 -0.1027 0.179 -0.2506 0.328 -0.429 0.4318 -0.1783 0.1038 -0.3809 0.1589 -0.5873 0.1597 -0.3122 0 -0.6116 0.1239 -0.8322 0.3447 -0.2207 0.2207 -0.3448 0.5201 -0.3448 0.8323 0 0.3121 0.1241 0.6114 0.3448 0.8322 0.2206 0.2207 0.5201 0.3447 0.8322 0.3447 0.9365 0 1.8345 -0.372 2.4966 -1.0342 0.6622 -0.6621 1.0342 -1.5603 1.0342 -2.4966 0 -0.9365 -0.372 -1.8346 -1.0342 -2.4968 -0.6621 -0.6621 -1.5601 -1.0341 -2.4966 -1.0341Z" fill="#000000" stroke-width="1"></path>
</svg>