<svg viewBox="0 0 24 24" fill="none" xmlns="http://www.w3.org/2000/svg" id="Shield-Slash--Streamline-Unicons">
  <desc>
    Shield Slash Streamline Icon: https://streamlinehq.com
  </desc>
  <path d="M23.4123 21.7432 4.6056 2.9365 2.2548 0.5857C2.0334 0.3644 1.7332 0.24 1.4202 0.24S0.807 0.3644 0.5857 0.5857C0.3643 0.807 0.24 1.1072 0.24 1.4203s0.1243 0.6132 0.3457 0.8345L2.5956 4.253v7.6049c0.0009 1.6833 0.4034 3.3421 1.1741 4.8385 0.7707 1.4966 1.8874 2.7875 3.2573 3.7656l4.2902 3.0678c0.1992 0.1418 0.4374 0.2179 0.6818 0.2179 0.2444 0 0.4826 -0.0761 0.6817 -0.2179l4.2903 -3.0678c0.3551 -0.2511 0.6928 -0.526 1.0109 -0.8228l3.7613 3.7731c0.1093 0.1102 0.2393 0.1977 0.3825 0.2573 0.1433 0.0597 0.2969 0.0904 0.4521 0.0904s0.3087 -0.0307 0.452 -0.0904c0.1432 -0.0596 0.2732 -0.1471 0.3825 -0.2573 0.1101 -0.1092 0.1976 -0.2392 0.2573 -0.3825 0.0597 -0.1432 0.0904 -0.2968 0.0904 -0.4521 0 -0.1551 -0.0307 -0.3087 -0.0904 -0.4519 -0.0597 -0.1433 -0.1472 -0.2733 -0.2573 -0.3826Zm-7.8048 -3.1854L11.999 21.132l-3.6086 -2.5742c-1.066 -0.7618 -1.9347 -1.7672 -2.5337 -2.9325 -0.5991 -1.1655 -0.9111 -2.457 -0.9102 -3.7674V6.6038l11.3663 11.3781c-0.2234 0.1998 -0.4584 0.3878 -0.7053 0.5759ZM9.7304 3.8534c0.7903 -0.2646 1.5506 -0.6113 2.2686 -1.0344 2.1148 1.2868 4.5873 1.8596 7.0525 1.6338v7.4051c0.0007 0.4649 -0.0385 0.929 -0.1175 1.387 -0.0252 0.1529 -0.0199 0.3093 0.0156 0.4601 0.0355 0.1508 0.1004 0.2931 0.1911 0.4187 0.0906 0.1256 0.2052 0.2321 0.3372 0.3132 0.1319 0.0812 0.2786 0.1355 0.4317 0.1597h0.188c0.2818 0.0037 0.5554 -0.094 0.7712 -0.2752 0.2157 -0.1813 0.3592 -0.4339 0.4042 -0.7121 0.0923 -0.5831 0.1394 -1.1726 0.1411 -1.7631V3.1011c-0.0012 -0.1736 -0.0408 -0.3448 -0.1159 -0.5013 -0.0752 -0.1565 -0.1842 -0.2944 -0.319 -0.4038 -0.1342 -0.1108 -0.2914 -0.1904 -0.4601 -0.2331 -0.1686 -0.0427 -0.3447 -0.0474 -0.5155 -0.0137 -1.2574 0.2727 -2.5577 0.2809 -3.8185 0.0239 -1.2606 -0.257 -2.4541 -0.7735 -3.5044 -1.5167 -0.1967 -0.1365 -0.4305 -0.2096 -0.67 -0.2096 -0.2394 0 -0.4732 0.0731 -0.67 0.2096 -0.7247 0.4999 -1.516 0.8956 -2.3508 1.1754 -0.1466 0.0494 -0.2821 0.1272 -0.3987 0.229 -0.1166 0.1017 -0.2119 0.2254 -0.2807 0.364 -0.0688 0.1387 -0.1096 0.2895 -0.12 0.4438 -0.0105 0.1544 0.0095 0.3094 0.0589 0.456 0.0494 0.1467 0.1272 0.2821 0.2289 0.3987 0.1018 0.1166 0.2255 0.212 0.3641 0.2807 0.28 0.1389 0.6036 0.1609 0.8998 0.0611l-0.0118 -0.0117Z" fill="#000000" stroke-width="1"></path>
</svg>