<svg viewBox="0 0 24 24" fill="none" xmlns="http://www.w3.org/2000/svg" id="Shield-Check--Streamline-Unicons">
  <desc>
    Shield Check Streamline Icon: https://streamlinehq.com
  </desc>
  <path d="M20.9757 2.1791c-0.1367 -0.1106 -0.2963 -0.1891 -0.4674 -0.2298 -0.171 -0.0407 -0.3489 -0.0426 -0.5207 -0.0055 -1.2571 0.2635 -2.5548 0.2668 -3.8131 0.0099 -1.2584 -0.257 -2.4509 -0.7687 -3.504 -1.5039C12.4736 0.3132 12.2396 0.24 12 0.24c-0.2396 0 -0.4736 0.0732 -0.6705 0.2098 -1.0531 0.7352 -2.2456 1.2469 -3.504 1.5039 -1.2584 0.2569 -2.556 0.2536 -3.813 -0.0099 -0.1719 -0.0371 -0.3498 -0.0352 -0.5208 0.0055 -0.171 0.0407 -0.3307 0.1192 -0.4674 0.2298 -0.1365 0.1107 -0.2464 0.2506 -0.3217 0.4094 -0.0754 0.1588 -0.1141 0.3324 -0.1135 0.5081v8.7641c-0.0011 1.6865 0.4008 3.349 1.1722 4.8488s1.8901 2.7938 3.2627 3.774l4.2937 3.0585c0.1993 0.1418 0.4377 0.218 0.6823 0.218 0.2446 0 0.483 -0.0762 0.6823 -0.218l4.2938 -3.0585c1.3726 -0.9802 2.4912 -2.2741 3.2626 -3.774 0.7714 -1.4998 1.1733 -3.1623 1.1723 -4.8488V3.0966c0.0006 -0.1757 -0.0382 -0.3493 -0.1135 -0.5081s-0.1853 -0.2987 -0.3218 -0.4094Zm-1.9175 9.6816c0.001 1.3113 -0.3114 2.6039 -0.9108 3.7702 -0.5996 1.1663 -1.469 2.1725 -2.5359 2.9351L12 21.1422 8.3886 18.566c-1.067 -0.7625 -1.9364 -1.7688 -2.5359 -2.9351 -0.5995 -1.1663 -0.9118 -2.4589 -0.9109 -3.7702V4.4495C7.408 4.6606 9.8778 4.0884 12 2.8143c2.1222 1.2741 4.5921 1.8463 7.0582 1.6352v7.4112Zm-5.2466 -2.694 -3.1644 3.1763 -1.047 -1.0588c-0.2215 -0.2215 -0.522 -0.3459 -0.8352 -0.3459 -0.3133 0 -0.6137 0.1244 -0.8352 0.3459 -0.2216 0.2215 -0.346 0.522 -0.346 0.8353s0.1244 0.6137 0.346 0.8352l1.8821 1.8822c0.1094 0.1102 0.2396 0.1977 0.3828 0.2575 0.1434 0.0596 0.2972 0.0904 0.4525 0.0904s0.309 -0.0308 0.4524 -0.0904c0.1433 -0.0598 0.2734 -0.1473 0.3828 -0.2575l4.0467 -4.0115c0.2215 -0.2215 0.346 -0.5219 0.346 -0.8352s-0.1245 -0.6137 -0.346 -0.8353c-0.2215 -0.2215 -0.522 -0.3459 -0.8352 -0.3459s-0.6137 0.1244 -0.8352 0.3459l-0.0471 0.0118Z" fill="#000000" stroke-width="1"></path>
</svg>