<svg viewBox="0 0 24 24" fill="none" xmlns="http://www.w3.org/2000/svg" id="Skip-Forward--Streamline-Unicons">
  <desc>
    Skip Forward Streamline Icon: https://streamlinehq.com
  </desc>
  <path d="M20.2321 1.4162c-0.9356 0 -1.833 0.3717 -2.4946 1.0333 -0.6616 0.6616 -1.0333 1.559 -1.0333 2.4946v3.3398L6.1204 1.9689c-0.5849 -0.349 -1.2533 -0.5333 -1.9345 -0.5333s-1.3496 0.1843 -1.9345 0.5333c-0.6125 0.3482 -1.1216 0.8529 -1.4749 1.4624 -0.3534 0.6096 -0.5383 1.3022 -0.536 2.0068v13.1238c-0.0117 0.7157 0.17 1.4213 0.526 2.0422 0.3561 0.621 0.8731 1.1342 1.4967 1.4857 0.5774 0.3267 1.23 0.4969 1.8933 0.4939 0.6924 -0.0045 1.3708 -0.1955 1.9639 -0.5527l10.5838 -6.3149v3.3397c0 0.9356 0.3717 1.833 1.0333 2.4946 0.6616 0.6616 1.559 1.0333 2.4946 1.0333 0.9357 0 1.833 -0.3717 2.4946 -1.0333 0.6616 -0.6616 1.0333 -1.559 1.0333 -2.4946V4.9441c0 -0.9356 -0.3717 -1.833 -1.0333 -2.4946 -0.6616 -0.6616 -1.5589 -1.0333 -2.4946 -1.0333Zm-4.3276 12.0302 -10.9601 6.562c-0.2267 0.1381 -0.4871 0.2112 -0.7526 0.2112 -0.2655 0 -0.5259 -0.0731 -0.7526 -0.2112 -0.2577 -0.1433 -0.4723 -0.3531 -0.6212 -0.6074 -0.1489 -0.2545 -0.2268 -0.5443 -0.2255 -0.8391V5.4381c-0.0067 -0.2977 0.0673 -0.5915 0.2144 -0.8504 0.147 -0.2588 0.3615 -0.473 0.6205 -0.6196 0.2223 -0.1271 0.4731 -0.1959 0.7291 -0.1999 0.2787 -0.003 0.5523 0.0746 0.7879 0.2234l10.9719 6.5619c0.2454 0.1533 0.4479 0.3665 0.5882 0.6195 0.1403 0.253 0.2139 0.5376 0.2139 0.827s-0.0736 0.574 -0.2139 0.8269c-0.1403 0.2531 -0.3428 0.4663 -0.5882 0.6195h-0.0118Zm5.5035 5.6094c0 0.3119 -0.1239 0.6111 -0.3444 0.8316s-0.5197 0.3444 -0.8315 0.3444c-0.3119 0 -0.6111 -0.124 -0.8316 -0.3444s-0.3444 -0.5197 -0.3444 -0.8316V4.9441c0 -0.3118 0.124 -0.611 0.3444 -0.8315 0.2205 -0.2205 0.5197 -0.3444 0.8316 -0.3444 0.3118 0 0.611 0.1239 0.8315 0.3444 0.2205 0.2205 0.3444 0.5197 0.3444 0.8315v14.1117Z" fill="#000000" stroke-width="1"></path>
</svg>