<svg viewBox="0 0 24 24" fill="none" xmlns="http://www.w3.org/2000/svg" id="Upload--Streamline-Unicons">
  <desc>
    Upload Streamline Icon: https://streamlinehq.com
  </desc>
  <path d="m8.131 6.952 2.693 -2.7048v11.2779c0 0.3118 0.124 0.611 0.3445 0.8315s0.5196 0.3445 0.8315 0.3445c0.3119 0 0.6111 -0.124 0.8316 -0.3445s0.3444 -0.5197 0.3444 -0.8315V4.2472l2.693 2.7048c0.1094 0.1102 0.2395 0.1977 0.3827 0.2574 0.1434 0.0597 0.2971 0.0905 0.4523 0.0905s0.3089 -0.0308 0.4523 -0.0905c0.1432 -0.0597 0.2733 -0.1472 0.3827 -0.2574 0.1102 -0.1093 0.1977 -0.2394 0.2574 -0.3827 0.0597 -0.1433 0.0904 -0.297 0.0904 -0.4522 0 -0.1553 -0.0307 -0.309 -0.0904 -0.4523 -0.0597 -0.1433 -0.1472 -0.2734 -0.2574 -0.3827L12.835 0.5781c-0.1119 -0.1071 -0.2437 -0.191 -0.3881 -0.247 -0.2864 -0.1176 -0.6074 -0.1176 -0.8938 0 -0.1444 0.056 -0.2762 0.1399 -0.3881 0.247l-4.704 4.704c-0.1096 0.1097 -0.1966 0.2398 -0.2559 0.3831 -0.0594 0.1432 -0.0899 0.2968 -0.0899 0.4519 0 0.155 0.0305 0.3086 0.0899 0.4518 0.0593 0.1433 0.1463 0.2735 0.2559 0.3831 0.1097 0.1097 0.2399 0.1967 0.3831 0.256 0.1433 0.0593 0.2968 0.0899 0.4519 0.0899 0.1551 0 0.3086 -0.0306 0.4519 -0.0899 0.1432 -0.0593 0.2734 -0.1463 0.3831 -0.256Zm14.453 5.0451c-0.3119 0 -0.611 0.1239 -0.8315 0.3444s-0.3445 0.5197 -0.3445 0.8316v7.056c0 0.3118 -0.1239 0.611 -0.3444 0.8315s-0.5197 0.3445 -0.8316 0.3445H3.768c-0.3119 0 -0.611 -0.124 -0.8316 -0.3445 -0.2205 -0.2205 -0.3444 -0.5197 -0.3444 -0.8315v-7.056c0 -0.3119 -0.1239 -0.6111 -0.3444 -0.8316 -0.2206 -0.2205 -0.5197 -0.3444 -0.8316 -0.3444s-0.611 0.1239 -0.8316 0.3444c-0.2205 0.2205 -0.3444 0.5197 -0.3444 0.8316v7.056c0 0.9356 0.3717 1.833 1.0333 2.4946 0.6617 0.6616 1.559 1.0334 2.4947 1.0334h16.464c0.9356 0 1.833 -0.3718 2.4947 -1.0334 0.6616 -0.6616 1.0333 -1.559 1.0333 -2.4946v-7.056c0 -0.3119 -0.124 -0.6111 -0.3444 -0.8316s-0.5197 -0.3444 -0.8316 -0.3444Z" fill="#000000" stroke-width="1"></path>
</svg>