<svg viewBox="0 0 24 24" fill="none" xmlns="http://www.w3.org/2000/svg" id="User--Streamline-Unicons">
  <path d="M16.343 12.8342c1.1523 -0.9067 1.9933 -2.1498 2.4061 -3.5566 0.4129 -1.4069 0.377 -2.9074 -0.1027 -4.2929 -0.4796 -1.3854 -1.3792 -2.5869 -2.5736 -3.4373S13.4487 0.24 11.9826 0.24c-1.4662 0 -2.8959 0.457 -4.0902 1.3074 -1.1944 0.8504 -2.094 2.0519 -2.5736 3.4373 -0.4797 1.3855 -0.5157 2.886 -0.1028 4.2929 0.4128 1.4068 1.2538 2.6499 2.4061 3.5566 -1.9744 0.791 -3.6972 2.103 -4.9846 3.7961C1.35 18.3235 0.5462 20.3342 0.3116 22.4483c-0.0169 0.1543 -0.0034 0.3105 0.04 0.4595 0.0434 0.1492 0.1157 0.2882 0.2129 0.4094 0.1961 0.2447 0.4815 0.4014 0.7932 0.4357 0.3117 0.0343 0.6243 -0.0567 0.8689 -0.2528 0.2447 -0.1962 0.4014 -0.4815 0.4357 -0.7932 0.2581 -2.2976 1.3536 -4.4195 3.0772 -5.9603 1.7237 -1.5409 3.9546 -2.3927 6.2666 -2.3927 2.312 0 4.5428 0.8518 6.2666 2.3927 1.7236 1.5408 2.8191 3.6627 3.0772 5.9603 0.0319 0.2887 0.1697 0.5554 0.3868 0.7486s0.498 0.2992 0.7885 0.2974h0.1293c0.308 -0.0355 0.5896 -0.1912 0.7835 -0.4335 0.1936 -0.2421 0.2838 -0.5511 0.2508 -0.8593 -0.2357 -2.1201 -1.0438 -4.136 -2.338 -5.8318 -1.294 -1.6957 -3.0251 -3.0072 -5.0078 -3.7941Zm-4.3604 -0.8345c-0.9298 0 -1.8388 -0.2757 -2.6119 -0.7923 -0.7732 -0.5167 -1.3757 -1.2509 -1.7316 -2.1099 -0.3558 -0.859 -0.4489 -1.8043 -0.2675 -2.7163 0.1814 -0.9119 0.6292 -1.7496 1.2867 -2.4071 0.6574 -0.6575 1.4951 -1.1053 2.407 -1.2867 0.9121 -0.1814 1.8573 -0.0883 2.7163 0.2676 0.8591 0.3558 1.5933 0.9584 2.11 1.7315 0.5165 0.7731 0.7922 1.6821 0.7922 2.6119 0 1.2469 -0.4952 2.4427 -1.377 3.3243 -0.8816 0.8817 -2.0773 1.377 -3.3242 1.377Z" fill="#000000" stroke-width="1"></path>
</svg>