<svg viewBox="0 0 24 24" fill="none" xmlns="http://www.w3.org/2000/svg" id="Vertical-Align-Top--Streamline-Unicons">
  <desc>
    Vertical Align Top Streamline Icon: https://streamlinehq.com
  </desc>
  <path d="M22.584 0.24H1.416C1.1041 0.24 0.805 0.3639 0.5844 0.5844 0.3639 0.805 0.24 1.1041 0.24 1.416s0.1239 0.611 0.3444 0.8316c0.2206 0.2205 0.5197 0.3444 0.8316 0.3444h3.528v19.992c0 0.3119 0.1239 0.6111 0.3444 0.8316 0.2206 0.2205 0.5197 0.3444 0.8316 0.3444h7.056c0.3119 0 0.6111 -0.1239 0.8316 -0.3444s0.3444 -0.5197 0.3444 -0.8316v-5.88h3.528c0.3119 0 0.611 -0.1239 0.8316 -0.3444s0.3444 -0.5197 0.3444 -0.8316V2.592h3.528c0.3119 0 0.611 -0.1239 0.8316 -0.3444 0.2205 -0.2206 0.3444 -0.5197 0.3444 -0.8316s-0.1239 -0.611 -0.3444 -0.8316C23.1951 0.3639 22.8959 0.24 22.584 0.24ZM12 21.408H7.296V2.592H12v18.816Zm4.704 -7.056h-2.352V2.592h2.352v11.76Z" fill="#000000" stroke-width="1"></path>
</svg>