<svg viewBox="0 0 24 24" fill="none" xmlns="http://www.w3.org/2000/svg" id="Volume-Mute--Streamline-Unicons">
  <desc>
    Volume Mute Streamline Icon: https://streamlinehq.com
  </desc>
  <path d="M12.5021 2.7018c-0.1909 -0.0826 -0.4003 -0.1131 -0.6069 -0.0883 -0.2065 0.0248 -0.4027 0.1039 -0.5687 0.2294L5.7068 7.2868H1.4157c-0.3118 0 -0.6109 0.1239 -0.8314 0.3444 -0.2204 0.2205 -0.3443 0.5195 -0.3443 0.8313v7.0539c0 0.3118 0.1239 0.6109 0.3443 0.8313 0.2205 0.2206 0.5196 0.3444 0.8314 0.3444h4.2911l5.5609 4.444c0.2068 0.166 0.4637 0.2571 0.7289 0.2586 0.1756 0.0029 0.3492 -0.0374 0.5055 -0.1176 0.2001 -0.0952 0.3692 -0.2451 0.4877 -0.4323 0.1186 -0.1872 0.1819 -0.4041 0.1825 -0.6258V3.7599c-0.0006 -0.2216 -0.0639 -0.4385 -0.1825 -0.6257 -0.1185 -0.1873 -0.2876 -0.3371 -0.4877 -0.4324Zm-1.6812 15.0719 -3.9737 -3.1743c-0.2068 -0.1659 -0.4637 -0.2571 -0.7289 -0.2586h-3.527V9.6381h3.527c0.2652 -0.0015 0.5221 -0.0926 0.7289 -0.2586l3.9737 -3.1743v11.5685Zm10.4752 -5.7843 2.1161 -2.1044c0.1096 -0.1096 0.1966 -0.2397 0.256 -0.3829 0.0592 -0.1432 0.0898 -0.2967 0.0898 -0.4518 0 -0.155 -0.0306 -0.3085 -0.0898 -0.4517 -0.0594 -0.1432 -0.1464 -0.2734 -0.256 -0.383 -0.1095 -0.1096 -0.2397 -0.1966 -0.383 -0.2559 -0.1432 -0.0593 -0.2966 -0.0898 -0.4517 -0.0898 -0.155 0 -0.3085 0.0305 -0.4517 0.0898 -0.1433 0.0593 -0.2734 0.1463 -0.383 0.2559l-2.1044 2.1162 -2.1045 -2.1162c-0.2213 -0.2214 -0.5216 -0.3457 -0.8347 -0.3457s-0.6133 0.1243 -0.8347 0.3457c-0.2214 0.2214 -0.3458 0.5217 -0.3458 0.8347s0.1244 0.6133 0.3458 0.8347l2.1162 2.1044 -2.1162 2.1045c-0.1102 0.1093 -0.1976 0.2393 -0.2573 0.3827 -0.0598 0.1432 -0.0905 0.2968 -0.0905 0.452s0.0307 0.3088 0.0905 0.4522c0.0597 0.1433 0.1471 0.2733 0.2573 0.3825 0.1093 0.1103 0.2394 0.1978 0.3826 0.2574 0.1433 0.0597 0.2969 0.0904 0.4521 0.0904s0.3089 -0.0307 0.4522 -0.0904c0.1432 -0.0596 0.2732 -0.1471 0.3825 -0.2574l2.1045 -2.1162 2.1044 2.1162c0.1093 0.1103 0.2394 0.1978 0.3826 0.2574 0.1433 0.0597 0.2969 0.0904 0.4521 0.0904s0.3089 -0.0307 0.4522 -0.0904c0.1432 -0.0596 0.2732 -0.1471 0.3825 -0.2574 0.1102 -0.1092 0.1977 -0.2392 0.2574 -0.3825 0.0597 -0.1434 0.0904 -0.297 0.0904 -0.4522s-0.0307 -0.3089 -0.0904 -0.452c-0.0597 -0.1434 -0.1472 -0.2734 -0.2574 -0.3827l-2.1161 -2.1045Z" fill="#000000" stroke-width="1"></path>
</svg>