<svg viewBox="0 0 24 24" fill="none" xmlns="http://www.w3.org/2000/svg" id="Assistive-Listening-Systems--Streamline-Unicons">
  <desc>
    Assistive Listening Systems Streamline Icon: https://streamlinehq.com
  </desc>
  <path d="M10.3964 2.3782c-1.9848 0 -3.8883 0.7884 -5.2918 2.1919C3.7012 5.9735 2.9127 7.877 2.9127 9.8618c0 0.2835 0.1127 0.5555 0.3132 0.756 0.2005 0.2004 0.4724 0.3131 0.7559 0.3131s0.5555 -0.1127 0.756 -0.3131c0.2005 -0.2005 0.3131 -0.4725 0.3131 -0.756 0 -1.4177 0.5632 -2.7773 1.5657 -3.7798 1.0024 -1.0025 2.3621 -1.5656 3.7798 -1.5656s2.7774 0.5631 3.7797 1.5656c1.0025 1.0025 1.5657 2.3621 1.5657 3.7798 -0.0033 0.9672 -0.2654 1.9158 -0.759 2.7476l-3.806 7.9433c-0.1875 0.3247 -0.457 0.5944 -0.7817 0.7821 -0.3246 0.1877 -0.6929 0.2866 -1.0678 0.287 -0.5671 0 -1.111 -0.2252 -1.5119 -0.6263 -0.401 -0.401 -0.6263 -0.9448 -0.6263 -1.5119 0 -0.2835 -0.1126 -0.5555 -0.3131 -0.7559 -0.2005 -0.2005 -0.4725 -0.3132 -0.756 -0.3132s-0.5555 0.1127 -0.756 0.3132c-0.2005 0.2004 -0.3131 0.4724 -0.3131 0.7559 0 1.1342 0.4506 2.2219 1.2525 3.0239 0.802 0.802 1.8897 1.2525 3.0239 1.2525 0.7646 -0.0006 1.515 -0.2063 2.1731 -0.5956 0.658 -0.3891 1.1997 -0.9477 1.5687 -1.6174l3.806 -7.9434c0.6609 -1.136 1.0078 -2.4275 1.0049 -3.7418 0 -1.9848 -0.7884 -3.8883 -2.192 -5.2917 -1.4034 -1.4035 -3.3069 -2.1919 -5.2916 -2.1919ZM2.9127 15.2073c-0.2114 0 -0.4181 0.0626 -0.5939 0.1801 -0.1758 0.1175 -0.3129 0.2845 -0.3938 0.4798 -0.0809 0.1953 -0.1021 0.4103 -0.0608 0.6177 0.0412 0.2074 0.1431 0.398 0.2926 0.5474 0.1495 0.1496 0.34 0.2513 0.5474 0.2926 0.2073 0.0413 0.4223 0.0201 0.6177 -0.0608 0.1953 -0.0809 0.3623 -0.218 0.4798 -0.3938 0.1174 -0.1758 0.1801 -0.3825 0.1801 -0.5939 0 -0.2836 -0.1126 -0.5555 -0.3131 -0.756 -0.2005 -0.2004 -0.4724 -0.3131 -0.756 -0.3131ZM17.4417 0.4538c-0.1124 -0.0842 -0.2401 -0.1455 -0.3761 -0.1804 -0.136 -0.0348 -0.2776 -0.0425 -0.4166 -0.0227 -0.1389 0.0199 -0.2727 0.0669 -0.3935 0.1385 -0.1208 0.0715 -0.2263 0.1661 -0.3106 0.2784 -0.0842 0.1124 -0.1455 0.2402 -0.1803 0.3762 -0.0349 0.136 -0.0426 0.2775 -0.0227 0.4165 0.0198 0.139 0.0668 0.2727 0.1384 0.3935 0.0715 0.1208 0.1661 0.2263 0.2785 0.3106 1.1969 0.8951 2.1689 2.0568 2.8388 3.3929 0.6699 1.3361 1.0193 2.8099 1.0206 4.3045 0 0.2835 0.1127 0.5555 0.3131 0.756s0.4725 0.3131 0.756 0.3131c0.2835 0 0.5555 -0.1127 0.7559 -0.3131s0.3132 -0.4725 0.3132 -0.756c-0.0062 -1.8257 -0.4352 -3.6252 -1.2531 -5.2574 -0.818 -1.6322 -2.0027 -3.0529 -3.4616 -4.1506Zm-7.0453 8.3389c0.2835 0 0.5555 0.1127 0.7559 0.3132 0.2005 0.2005 0.3132 0.4724 0.3132 0.7559 0 0.2835 0.1126 0.5555 0.3131 0.756s0.4724 0.3131 0.7559 0.3131c0.2836 0 0.5555 -0.1127 0.756 -0.3131s0.3131 -0.4725 0.3131 -0.756c0 -0.8506 -0.3379 -1.6664 -0.9394 -2.2679 -0.6014 -0.6015 -1.4172 -0.9394 -2.2678 -0.9394 -0.8506 0 -1.6664 0.338 -2.2679 0.9394 -0.6015 0.6015 -0.9394 1.4173 -0.9394 2.2679 -0.0014 0.6397 0.1884 1.2652 0.5452 1.7961 0.1474 0.2091 0.3157 0.4025 0.5025 0.5773l0.2138 0.2352c0.1172 0.1756 0.1798 0.3822 0.1798 0.5933 0 0.2112 -0.0626 0.4177 -0.1798 0.5934 -0.1612 0.2326 -0.2236 0.5197 -0.1735 0.7983 0.0501 0.2785 0.2086 0.5259 0.4408 0.6877 0.1788 0.1248 0.3914 0.1919 0.6094 0.1925 0.1723 -0.0003 0.3421 -0.0423 0.4948 -0.1223 0.1525 -0.0801 0.2836 -0.1958 0.3818 -0.3374 0.3655 -0.5337 0.561 -1.1653 0.561 -1.8121s-0.1956 -1.2785 -0.561 -1.8122c-0.1124 -0.1595 -0.2375 -0.3097 -0.3741 -0.449l-0.1497 -0.1496c-0.0626 -0.0591 -0.1199 -0.1234 -0.1711 -0.1925 -0.1188 -0.1769 -0.1822 -0.3855 -0.1817 -0.5987 0 -0.2835 0.1127 -0.5554 0.3131 -0.7559 0.2005 -0.2005 0.4724 -0.3132 0.756 -0.3132ZM6.12 15.2073c0.2114 0 0.4181 -0.0627 0.594 -0.1802 0.1758 -0.1175 0.3128 -0.2845 0.3937 -0.4798 0.0809 -0.1953 0.1021 -0.4103 0.0609 -0.6177 -0.0413 -0.2074 -0.1431 -0.3979 -0.2926 -0.5474 -0.1496 -0.1495 -0.34 -0.2513 -0.5474 -0.2926 -0.2074 -0.0412 -0.4224 -0.0201 -0.6177 0.0609 -0.1954 0.0809 -0.3624 0.2179 -0.4798 0.3937 -0.1175 0.1759 -0.1802 0.3825 -0.1802 0.594 0 0.2835 0.1127 0.5555 0.3131 0.7559 0.2005 0.2005 0.4725 0.3132 0.756 0.3132Z" fill="#000000" stroke-width="1"></path>
</svg>