<svg viewBox="0 0 24 24" fill="none" xmlns="http://www.w3.org/2000/svg" id="Bell--Streamline-Unicons">
  <desc>
    Bell Streamline Icon: https://streamlinehq.com
  </desc>
  <path d="M19.0733 13.42V9.6711c-0.0016 -1.6703 -0.5944 -3.2862 -1.6733 -4.5614 -1.0788 -1.2752 -2.5741 -2.1274 -4.2211 -2.4058v-1.285c0 -0.3127 -0.1243 -0.6125 -0.3453 -0.8336C12.6126 0.3642 12.3126 0.24 12 0.24s-0.6125 0.1242 -0.8336 0.3453c-0.221 0.2211 -0.3453 0.5209 -0.3453 0.8336v1.285C9.1741 2.9823 7.6788 3.8345 6.6 5.1097 5.5211 6.3849 4.9284 8.0008 4.9267 9.6711V13.42c-0.688 0.2432 -1.2838 0.6933 -1.7059 1.2884 -0.4222 0.5952 -0.6499 1.3064 -0.6519 2.036v2.3578c0 0.3127 0.1242 0.6126 0.3453 0.8336 0.2211 0.221 0.5209 0.3453 0.8336 0.3453h3.7017c0.2715 0.999 0.8641 1.8808 1.6865 2.5095 0.8224 0.6288 1.8288 0.9694 2.864 0.9694s2.0416 -0.3406 2.864 -0.9694c0.8224 -0.6287 1.415 -1.5105 1.6865 -2.5095h3.7017c0.3127 0 0.6126 -0.1242 0.8336 -0.3453s0.3453 -0.5209 0.3453 -0.8336v-2.3578c-0.002 -0.7296 -0.2298 -1.4408 -0.6518 -2.036 -0.4222 -0.5951 -1.0181 -1.0452 -1.706 -1.2884ZM7.2845 9.6711c0 -1.2506 0.4968 -2.4501 1.3811 -3.3344 0.8843 -0.8843 2.0837 -1.3811 3.3344 -1.3811s2.4501 0.4968 3.3344 1.3811c0.8844 0.8843 1.3812 2.0838 1.3812 3.3344v3.5367H7.2845V9.6711ZM12 21.46c-0.4114 -0.0025 -0.8151 -0.1126 -1.1709 -0.3194 -0.3556 -0.2069 -0.6511 -0.5031 -0.8568 -0.8595h4.0554c-0.2057 0.3564 -0.5012 0.6526 -0.8568 0.8595 -0.3558 0.2068 -0.7595 0.3169 -1.1709 0.3194Zm7.0733 -3.5367H4.9267v-1.1789c0 -0.3126 0.1242 -0.6125 0.3453 -0.8336 0.221 -0.221 0.5209 -0.3453 0.8336 -0.3453h11.7888c0.3127 0 0.6126 0.1243 0.8336 0.3453s0.3453 0.521 0.3453 0.8336v1.1789Z" fill="#000000" stroke-width="1"></path>
</svg>