<svg viewBox="0 0 24 24" fill="none" xmlns="http://www.w3.org/2000/svg" id="Calender--Streamline-Unicons">
  <desc>
    Calender Streamline Icon: https://streamlinehq.com
  </desc>
  <path d="M20.232 2.592H17.88V1.416c0 -0.3119 -0.1239 -0.611 -0.3444 -0.8316C17.3151 0.3639 17.0159 0.24 16.704 0.24c-0.3119 0 -0.611 0.1239 -0.8315 0.3444 -0.2205 0.2206 -0.3445 0.5197 -0.3445 0.8316v1.176H8.472V1.416c0 -0.3119 -0.1239 -0.611 -0.3444 -0.8316C7.907 0.3639 7.6079 0.24 7.296 0.24s-0.611 0.1239 -0.8316 0.3444c-0.2205 0.2206 -0.3444 0.5197 -0.3444 0.8316v1.176H3.768c-0.9357 0 -1.833 0.3717 -2.4947 1.0333C0.6117 4.287 0.24 5.1843 0.24 6.12v14.112c0 0.9356 0.3717 1.833 1.0333 2.4947 0.6617 0.6616 1.559 1.0333 2.4947 1.0333h16.464c0.9356 0 1.833 -0.3717 2.4947 -1.0333 0.6616 -0.6617 1.0333 -1.5591 1.0333 -2.4947V6.12c0 -0.9357 -0.3717 -1.833 -1.0333 -2.4947 -0.6617 -0.6616 -1.5591 -1.0333 -2.4947 -1.0333Zm1.176 17.64c0 0.3119 -0.1239 0.6111 -0.3444 0.8316s-0.5197 0.3444 -0.8316 0.3444H3.768c-0.3119 0 -0.611 -0.1239 -0.8316 -0.3444 -0.2205 -0.2205 -0.3444 -0.5197 -0.3444 -0.8316V12h18.816v8.232Zm0 -10.584H2.592V6.12c0 -0.3119 0.1239 -0.611 0.3444 -0.8316 0.2206 -0.2205 0.5197 -0.3444 0.8316 -0.3444H6.12V6.12c0 0.3119 0.1239 0.611 0.3444 0.8316 0.2206 0.2205 0.5197 0.3444 0.8316 0.3444s0.611 -0.1239 0.8316 -0.3444c0.2205 -0.2206 0.3444 -0.5197 0.3444 -0.8316V4.944h7.056V6.12c0 0.3119 0.124 0.611 0.3445 0.8316 0.2205 0.2205 0.5196 0.3444 0.8315 0.3444 0.3119 0 0.6111 -0.1239 0.8316 -0.3444 0.2205 -0.2206 0.3444 -0.5197 0.3444 -0.8316V4.944h2.352c0.3119 0 0.6111 0.1239 0.8316 0.3444 0.2205 0.2206 0.3444 0.5197 0.3444 0.8316v3.528Z" fill="#000000" stroke-width="1"></path>
</svg>