<svg viewBox="0 0 24 24" fill="none" xmlns="http://www.w3.org/2000/svg" id="Chart-Line--Streamline-Unicons">
  <desc>
    Chart Line Streamline Icon: https://streamlinehq.com
  </desc>
  <path d="M6.708 16.704c0.4678 0 0.9165 -0.1858 1.2473 -0.5166 0.3308 -0.3308 0.5167 -0.7796 0.5167 -1.2474 0.0057 -0.0587 0.0057 -0.1177 0 -0.1764l3.281 -3.281h0.541l1.8934 1.8933v0.0941c0 0.4678 0.1858 0.9166 0.5166 1.2474s0.7795 0.5166 1.2474 0.5166c0.4678 0 0.9165 -0.1858 1.2473 -0.5166s0.5167 -0.7796 0.5167 -1.2474v-0.0941L21.996 9.06c0.3489 0 0.6899 -0.1034 0.9801 -0.2973 0.29 -0.1938 0.5161 -0.4693 0.6496 -0.7916 0.1335 -0.3224 0.1685 -0.677 0.1004 -1.0192 -0.0681 -0.3422 -0.2361 -0.6565 -0.4827 -0.9032 -0.2468 -0.2467 -0.5611 -0.4147 -0.9033 -0.4828 -0.3421 -0.0681 -0.6968 -0.0331 -1.0191 0.1004s-0.5979 0.3596 -0.7917 0.6497c-0.1938 0.2901 -0.2973 0.6311 -0.2973 0.98 -0.0058 0.0587 -0.0058 0.1177 0 0.1764l-4.2454 4.2454h-0.1881L13.764 9.648c0 -0.4678 -0.1858 -0.9165 -0.5166 -1.2473 -0.3308 -0.3308 -0.7796 -0.5167 -1.2474 -0.5167 -0.4678 0 -0.9166 0.1859 -1.2474 0.5167s-0.5166 0.7795 -0.5166 1.2473l-3.528 3.528c-0.4678 0 -0.9165 0.1858 -1.2473 0.5166 -0.3309 0.3308 -0.5167 0.7796 -0.5167 1.2474 0 0.4678 0.1858 0.9166 0.5167 1.2474s0.7795 0.5166 1.2473 0.5166Zm15.876 4.704H2.592V1.416c0 -0.3119 -0.1239 -0.611 -0.3444 -0.8315C2.027 0.3639 1.7279 0.24 1.416 0.24S0.805 0.3639 0.5844 0.5845C0.3639 0.805 0.24 1.1041 0.24 1.416v21.168c0 0.3119 0.1239 0.611 0.3444 0.8315 0.2206 0.2205 0.5197 0.3445 0.8316 0.3445h21.168c0.3119 0 0.611 -0.124 0.8315 -0.3445s0.3445 -0.5196 0.3445 -0.8315c0 -0.3119 -0.124 -0.6111 -0.3445 -0.8316s-0.5196 -0.3444 -0.8315 -0.3444Z" fill="#000000" stroke-width="1"></path>
</svg>