<svg viewBox="0 0 24 24" fill="none" xmlns="http://www.w3.org/2000/svg" id="Comment-Info-Alt--Streamline-Unicons">
  <desc>
    Comment Info Alt Streamline Icon: https://streamlinehq.com
  </desc>
  <path d="M12 8.4719c-0.3119 0 -0.611 0.1239 -0.8315 0.3444 -0.2205 0.2206 -0.3445 0.5197 -0.3445 0.8316v3.5279c0 0.3119 0.124 0.6111 0.3445 0.8316s0.5196 0.3444 0.8315 0.3444c0.3119 0 0.611 -0.1239 0.8315 -0.3444s0.3445 -0.5197 0.3445 -0.8316V9.6479c0 -0.3119 -0.124 -0.611 -0.3445 -0.8316 -0.2205 -0.2205 -0.5196 -0.3444 -0.8315 -0.3444ZM20.2319 0.24H3.7681c-0.9357 0 -1.833 0.3717 -2.4946 1.0333C0.6119 1.9349 0.2402 2.8323 0.2402 3.768v11.7598c0 0.9356 0.3717 1.833 1.0333 2.4946 0.6616 0.6616 1.5589 1.0333 2.4946 1.0333h13.6297l4.3511 4.3629c0.1098 0.109 0.2403 0.1952 0.3835 0.2538 0.1432 0.0585 0.2967 0.0882 0.4515 0.0873 0.1542 0.004 0.3072 -0.0282 0.4468 -0.0941 0.2148 -0.0882 0.3986 -0.238 0.5284 -0.4305 0.1297 -0.1927 0.1996 -0.4193 0.2007 -0.6514V3.768c0 -0.9357 -0.3717 -1.8331 -1.0333 -2.4947C22.0649 0.6117 21.1675 0.24 20.2319 0.24Zm1.176 19.5096 -2.693 -2.7048c-0.1099 -0.109 -0.2403 -0.1952 -0.3835 -0.2538 -0.1433 -0.0584 -0.2967 -0.0882 -0.4515 -0.0872H3.7681c-0.3119 0 -0.611 -0.124 -0.8315 -0.3445 -0.2206 -0.2205 -0.3445 -0.5196 -0.3445 -0.8315V3.768c0 -0.3119 0.1239 -0.6111 0.3445 -0.8316 0.2205 -0.2205 0.5196 -0.3444 0.8315 -0.3444h16.4638c0.3119 0 0.611 0.1239 0.8315 0.3444 0.2205 0.2205 0.3445 0.5197 0.3445 0.8316v15.9816ZM12 4.9439c-0.2326 0 -0.4599 0.069 -0.6534 0.1982 -0.1933 0.1292 -0.3441 0.3129 -0.4331 0.5278 -0.089 0.2149 -0.1123 0.4513 -0.0669 0.6794 0.0454 0.2282 0.1573 0.4377 0.3219 0.6022 0.1644 0.1644 0.3739 0.2764 0.6021 0.3218 0.2281 0.0454 0.4646 0.0221 0.6794 -0.0669 0.2149 -0.089 0.3986 -0.2398 0.5278 -0.4331s0.1982 -0.4208 0.1982 -0.6534c0 -0.3119 -0.124 -0.611 -0.3445 -0.8315 -0.2205 -0.2206 -0.5196 -0.3445 -0.8315 -0.3445Z" fill="#000000" stroke-width="1"></path>
</svg>