<svg viewBox="0 0 24 24" fill="none" xmlns="http://www.w3.org/2000/svg" id="Comparison--Streamline-Unicons">
  <desc>
    Comparison Streamline Icon: https://streamlinehq.com
  </desc>
  <path d="M22.5775 21.4053H2.5913v-0.6349l5.8783 -5.8783 4.4675 4.4675c0.2203 0.219 0.5183 0.3419 0.8289 0.3419s0.6085 -0.1229 0.8288 -0.3419l8.8174 -8.8174c0.1102 -0.1094 0.1977 -0.2394 0.2574 -0.3826 0.0597 -0.1433 0.0904 -0.297 0.0904 -0.4521 0 -0.1552 -0.0307 -0.3089 -0.0904 -0.4522 -0.0597 -0.1432 -0.1472 -0.2733 -0.2574 -0.3826 -0.2203 -0.2189 -0.5182 -0.3418 -0.8288 -0.3418s-0.6085 0.1229 -0.8288 0.3418l-7.9945 7.9945 -4.4558 -4.4675c-0.2202 -0.219 -0.5182 -0.3419 -0.8288 -0.3419s-0.6086 0.1229 -0.8288 0.3419l-5.0554 5.0436v-6.0782l5.8783 -5.8783 3.2919 3.2919c0.2203 0.219 0.5182 0.3419 0.8288 0.3419s0.6085 -0.1229 0.8289 -0.3419l5.6313 -5.6314 2.5747 2.5747c0.2214 0.2198 0.5211 0.3427 0.833 0.3416 0.312 -0.0011 0.6107 -0.1261 0.8306 -0.3475 0.2198 -0.2214 0.3427 -0.521 0.3416 -0.833 -0.0011 -0.312 -0.1261 -0.6107 -0.3475 -0.8306L19.8617 0.6549c-0.2203 -0.219 -0.5182 -0.3419 -0.8288 -0.3419s-0.6085 0.1229 -0.8288 0.3419l-5.6432 5.6432 -3.2801 -3.2919c-0.2203 -0.219 -0.5182 -0.3419 -0.8288 -0.3419s-0.6086 0.1229 -0.8289 0.3419L2.5913 8.038V1.4191c0 -0.3118 -0.1238 -0.6109 -0.3443 -0.8313 -0.2205 -0.2205 -0.5195 -0.3444 -0.8313 -0.3444S0.8048 0.3673 0.5843 0.5878C0.3639 0.8082 0.24 1.1073 0.24 1.4191v21.1618c0 0.3118 0.1239 0.6109 0.3443 0.8313 0.2205 0.2205 0.5196 0.3444 0.8314 0.3444h21.1618c0.3118 0 0.6109 -0.1239 0.8313 -0.3444s0.3444 -0.5195 0.3444 -0.8313c0 -0.3117 -0.1239 -0.6108 -0.3444 -0.8313s-0.5195 -0.3443 -0.8313 -0.3443Z" fill="#000000" stroke-width="1"></path>
</svg>