<svg viewBox="0 0 24 24" fill="none" xmlns="http://www.w3.org/2000/svg" id="File-Question-Alt--Streamline-Unicons">
  <desc>
    File Question Alt Streamline Icon: https://streamlinehq.com
  </desc>
  <path d="M13.2289 12h-5.88c-0.3119 0 -0.611 0.1239 -0.8315 0.3444 -0.2206 0.2205 -0.3445 0.5197 -0.3445 0.8316 0 0.3119 0.1239 0.611 0.3445 0.8315 0.2205 0.2205 0.5196 0.3445 0.8315 0.3445h5.88c0.3119 0 0.6111 -0.124 0.8316 -0.3445s0.3444 -0.5196 0.3444 -0.8315c0 -0.3119 -0.1239 -0.6111 -0.3444 -0.8316S13.5408 12 13.2289 12Zm1.176 9.408h-9.408c-0.3119 0 -0.611 -0.124 -0.8315 -0.3445 -0.2206 -0.2205 -0.3445 -0.5196 -0.3445 -0.8315V3.768c0 -0.3119 0.1239 -0.611 0.3445 -0.8316 0.2205 -0.2205 0.5196 -0.3444 0.8315 -0.3444h5.88V6.12c0 0.9357 0.3718 1.833 1.0334 2.4947 0.6616 0.6616 1.5589 1.0333 2.4946 1.0333h3.528v1.176c0 0.3119 0.124 0.611 0.3445 0.8315s0.5196 0.3445 0.8315 0.3445c0.3119 0 0.6111 -0.124 0.8316 -0.3445s0.3444 -0.5196 0.3444 -0.8315V8.472c0.0051 -0.0232 0.0051 -0.0473 0 -0.0706 -0.01 -0.1096 -0.0377 -0.2168 -0.0823 -0.3175v-0.1058c-0.0566 -0.1209 -0.132 -0.2321 -0.2234 -0.3293l-7.056 -7.056c-0.0999 -0.0938 -0.2153 -0.1694 -0.3411 -0.2234h-0.0941c-0.1159 -0.0671 -0.2436 -0.111 -0.3763 -0.1294h-7.056C4.12 0.24 3.2227 0.6117 2.561 1.2733c-0.6616 0.6617 -1.0333 1.559 -1.0333 2.4947v16.464c0 0.9356 0.3717 1.833 1.0333 2.4946 0.6617 0.6617 1.559 1.0334 2.4947 1.0334h9.408c0.3119 0 0.6111 -0.124 0.8316 -0.3445s0.3444 -0.5196 0.3444 -0.8315c0 -0.3119 -0.1239 -0.6111 -0.3444 -0.8316s-0.5197 -0.3444 -0.8316 -0.3444h-0.0588Zm-1.176 -17.1578L16.263 7.296h-1.8581c-0.3119 0 -0.611 -0.1239 -0.8315 -0.3444 -0.2205 -0.2206 -0.3445 -0.5197 -0.3445 -0.8316V4.2502Zm6.5503 17.4988c-0.0558 -0.0505 -0.1147 -0.0977 -0.1764 -0.1411 -0.1292 -0.084 -0.2727 -0.1438 -0.4233 -0.1764 -0.189 -0.0379 -0.3843 -0.0287 -0.5689 0.0267 -0.1845 0.0554 -0.3526 0.1552 -0.4895 0.2908 -0.1102 0.1094 -0.1977 0.2395 -0.2575 0.3827 -0.0597 0.1433 -0.0904 0.2971 -0.0904 0.4523s0.0307 0.3089 0.0904 0.4523c0.0598 0.1432 0.1473 0.2733 0.2575 0.3826 0.2191 0.2173 0.5147 0.3398 0.8232 0.3411 0.1935 0.0009 0.3844 -0.0459 0.5555 -0.1364 0.1712 -0.0905 0.3174 -0.2218 0.4256 -0.3824 0.1082 -0.1606 0.1751 -0.3453 0.1948 -0.538 0.0196 -0.1925 -0.0086 -0.387 -0.0822 -0.5661 -0.064 -0.1429 -0.1514 -0.2741 -0.2588 -0.3881Zm-6.5503 -5.045h-5.88c-0.3119 0 -0.611 0.1239 -0.8315 0.3444 -0.2206 0.2205 -0.3445 0.5197 -0.3445 0.8316 0 0.3119 0.1239 0.611 0.3445 0.8315 0.2205 0.2205 0.5196 0.3445 0.8315 0.3445h5.88c0.3119 0 0.6111 -0.124 0.8316 -0.3445s0.3444 -0.5196 0.3444 -0.8315c0 -0.3119 -0.1239 -0.6111 -0.3444 -0.8316s-0.5197 -0.3444 -0.8316 -0.3444Zm5.7154 -3.528c-0.6197 -0.0004 -1.2286 0.1624 -1.7653 0.472 -0.5367 0.3098 -0.9824 0.7554 -1.2923 1.292 -0.0773 0.1344 -0.1273 0.2826 -0.1471 0.4363 -0.02 0.1537 -0.0095 0.3098 0.031 0.4593 0.0403 0.1496 0.1098 0.2898 0.2044 0.4126 0.0945 0.1228 0.2124 0.2257 0.3468 0.3029 0.1343 0.0773 0.2826 0.1273 0.4363 0.1471 0.1537 0.02 0.3098 0.0095 0.4593 -0.031 0.1496 -0.0403 0.2898 -0.1098 0.4126 -0.2044 0.1228 -0.0947 0.2257 -0.2124 0.3029 -0.3468 0.1034 -0.179 0.2522 -0.3276 0.4313 -0.4309 0.1791 -0.1032 0.3822 -0.1573 0.5889 -0.1571 0.2067 0.0004 0.4097 0.0552 0.5886 0.1589 0.1787 0.1038 0.327 0.2528 0.4298 0.4322 0.1029 0.1793 0.1567 0.3826 0.1558 0.5894 -0.0008 0.2067 -0.0559 0.4096 -0.1601 0.5881 -0.1042 0.1786 -0.2537 0.3266 -0.4333 0.429 -0.1795 0.1024 -0.3829 0.1557 -0.5896 0.1544 -0.3119 0 -0.6111 0.124 -0.8316 0.3445s-0.3444 0.5196 -0.3444 0.8315c0 0.3119 0.1239 0.6111 0.3444 0.8316s0.5197 0.3444 0.8316 0.3444c0.9356 0 1.833 -0.3717 2.4946 -1.0334 0.6616 -0.6616 1.0334 -1.559 1.0334 -2.4946 0 -0.9356 -0.3718 -1.833 -1.0334 -2.4947 -0.6616 -0.6616 -1.559 -1.0333 -2.4946 -1.0333ZM7.3489 9.648h1.176c0.3119 0 0.611 -0.1239 0.8316 -0.3444 0.2205 -0.2206 0.3444 -0.5197 0.3444 -0.8316s-0.1239 -0.611 -0.3444 -0.8316c-0.2206 -0.2205 -0.5197 -0.3444 -0.8316 -0.3444h-1.176c-0.3119 0 -0.611 0.1239 -0.8315 0.3444 -0.2206 0.2206 -0.3445 0.5197 -0.3445 0.8316s0.1239 0.611 0.3445 0.8316c0.2205 0.2205 0.5196 0.3444 0.8315 0.3444Z" fill="#000000" stroke-width="1"></path>
</svg>