<svg viewBox="0 0 24 24" fill="none" xmlns="http://www.w3.org/2000/svg" id="File-Search-Alt--Streamline-Unicons">
  <desc>
    File Search Alt Streamline Icon: https://streamlinehq.com
  </desc>
  <path d="M11.9966 21.4019H3.767c-0.3118 0 -0.6109 -0.1239 -0.8313 -0.3444 -0.2205 -0.2204 -0.3444 -0.5195 -0.3444 -0.8313V3.767c0 -0.3118 0.1239 -0.6109 0.3444 -0.8313 0.2204 -0.2205 0.5195 -0.3444 0.8313 -0.3444h5.8783v3.527c0 0.9354 0.3716 1.8325 1.033 2.494 0.6615 0.6614 1.5586 1.033 2.494 1.033h3.5269v1.1756c0 0.3118 0.1239 0.6109 0.3444 0.8313s0.5195 0.3444 0.8313 0.3444c0.3118 0 0.6109 -0.1239 0.8313 -0.3444s0.3443 -0.5195 0.3443 -0.8313V8.3991c-0.0122 -0.108 -0.0358 -0.2144 -0.0705 -0.3175v-0.1058c-0.0565 -0.1208 -0.1319 -0.232 -0.2234 -0.3291L11.7027 0.5927c-0.0973 -0.0914 -0.2084 -0.1668 -0.3292 -0.2234 -0.035 -0.005 -0.0707 -0.005 -0.1058 0 -0.1195 -0.0685 -0.2514 -0.1124 -0.388 -0.1293H3.767c-0.9354 0 -1.8325 0.3716 -2.494 1.033C0.6116 1.9345 0.24 2.8316 0.24 3.767v16.4592c0 0.9354 0.3716 1.8325 1.033 2.4939 0.6615 0.6615 1.5586 1.0331 2.494 1.0331h8.2296c0.3118 0 0.6109 -0.1239 0.8313 -0.3444s0.3444 -0.5195 0.3444 -0.8313c0 -0.3118 -0.124 -0.6108 -0.3444 -0.8313s-0.5195 -0.3443 -0.8313 -0.3443Zm0 -17.1529 3.045 3.045h-1.8693c-0.3118 0 -0.6109 -0.1239 -0.8314 -0.3444 -0.2204 -0.2205 -0.3443 -0.5195 -0.3443 -0.8313V4.249ZM6.1183 7.294c-0.3118 0 -0.6108 0.1238 -0.8313 0.3443 -0.2205 0.2205 -0.3444 0.5195 -0.3444 0.8313s0.1239 0.6109 0.3444 0.8313c0.2205 0.2205 0.5195 0.3444 0.8313 0.3444H7.294c0.3118 0 0.6108 -0.1239 0.8313 -0.3444 0.2204 -0.2204 0.3443 -0.5195 0.3443 -0.8313s-0.1239 -0.6108 -0.3443 -0.8313c-0.2205 -0.2205 -0.5195 -0.3443 -0.8313 -0.3443H6.1183Zm17.2939 14.4488 -1.3755 -1.3638c0.4397 -0.7673 0.6156 -1.6578 0.501 -2.5347 -0.1147 -0.8769 -0.5137 -1.6921 -1.1358 -2.3207 -0.5726 -0.5929 -1.3104 -0.9997 -2.1174 -1.1673 -0.807 -0.1676 -1.6457 -0.0882 -2.4069 0.2277 -0.7614 0.3159 -1.4098 0.8538 -1.861 1.5435 -0.4512 0.6898 -0.6842 1.4995 -0.6687 2.3235 -0.004 0.7091 0.1774 1.407 0.5262 2.0243 0.349 0.6175 0.8532 1.1329 1.4627 1.4954 0.6096 0.3624 1.3033 0.5591 2.0124 0.5707 0.709 0.0116 1.4087 -0.1624 2.0298 -0.5047l1.3638 1.3755c0.1093 0.1102 0.2394 0.1977 0.3826 0.2574 0.1433 0.0597 0.2969 0.0904 0.4521 0.0904s0.3089 -0.0307 0.4522 -0.0904c0.1432 -0.0597 0.2732 -0.1472 0.3825 -0.2574 0.1102 -0.1093 0.1977 -0.2393 0.2574 -0.3825 0.0597 -0.1433 0.0904 -0.297 0.0904 -0.4522s-0.0307 -0.3088 -0.0904 -0.4521c-0.0597 -0.1432 -0.1472 -0.2733 -0.2574 -0.3826Zm-3.7268 -2.0574c-0.3358 0.3158 -0.7793 0.4915 -1.2403 0.4915 -0.461 0 -0.9046 -0.1757 -1.2403 -0.4915 -0.3237 -0.3294 -0.5052 -0.7726 -0.5056 -1.2344 -0.0024 -0.2319 0.0422 -0.462 0.1311 -0.676 0.0889 -0.2142 0.2203 -0.4082 0.3862 -0.5702 0.3134 -0.3118 0.7337 -0.4925 1.1757 -0.5056 0.2377 -0.0145 0.4758 0.0201 0.6995 0.1019 0.2236 0.0818 0.4279 0.2089 0.6002 0.3733 0.1722 0.1645 0.3086 0.3629 0.4005 0.5825 0.092 0.2197 0.1374 0.456 0.1338 0.6941 -0.0098 0.4668 -0.2042 0.9108 -0.5408 1.2344Zm-6.5131 -7.6888h-7.054c-0.3118 0 -0.6108 0.1239 -0.8313 0.3443 -0.2205 0.2205 -0.3444 0.5196 -0.3444 0.8314 0 0.3117 0.1239 0.6108 0.3444 0.8313 0.2205 0.2204 0.5195 0.3443 0.8313 0.3443h7.0539c0.3118 0 0.6109 -0.1239 0.8314 -0.3443s0.3443 -0.5196 0.3443 -0.8313c0 -0.3118 -0.1239 -0.6109 -0.3443 -0.8314s-0.5196 -0.3443 -0.8313 -0.3443Zm-2.3514 7.0539c0.3118 0 0.6109 -0.1239 0.8313 -0.3443s0.3444 -0.5195 0.3444 -0.8313c0 -0.3118 -0.1239 -0.6109 -0.3444 -0.8313s-0.5195 -0.3444 -0.8313 -0.3444H6.1183c-0.3118 0 -0.6108 0.1239 -0.8313 0.3444 -0.2205 0.2204 -0.3444 0.5195 -0.3444 0.8313 0 0.3118 0.1239 0.6109 0.3444 0.8313 0.2205 0.2204 0.5195 0.3443 0.8313 0.3443h4.7026Z" fill="#000000" stroke-width="1"></path>
</svg>