<svg viewBox="0 0 24 24" fill="none" xmlns="http://www.w3.org/2000/svg" id="File-Slash--Streamline-Unicons">
  <desc>
    File Slash Streamline Icon: https://streamlinehq.com
  </desc>
  <path d="M23.4123 21.7432 2.2548 0.5857C2.0334 0.3644 1.7332 0.24 1.4202 0.24S0.807 0.3644 0.5857 0.5857C0.3643 0.807 0.24 1.1072 0.24 1.4203s0.1243 0.6132 0.3457 0.8345L2.5956 4.253v15.9739c0 0.9353 0.3715 1.8322 1.0329 2.4935s1.5582 1.0328 2.4934 1.0328h11.7542c0.5454 -0.0018 1.083 -0.1302 1.5705 -0.3749 0.4874 -0.2447 0.9115 -0.5992 1.2387 -1.0356l1.0579 1.0696c0.1093 0.1102 0.2393 0.1977 0.3825 0.2573 0.1433 0.0597 0.2969 0.0904 0.4521 0.0904s0.3087 -0.0307 0.452 -0.0904c0.1432 -0.0596 0.2732 -0.1471 0.3825 -0.2573 0.1102 -0.1092 0.1976 -0.2392 0.2573 -0.3825 0.0597 -0.1432 0.0904 -0.2968 0.0904 -0.4521 0 -0.1551 -0.0307 -0.3087 -0.0904 -0.4519 -0.0597 -0.1433 -0.1471 -0.2733 -0.2573 -0.3826Zm-5.5362 -0.3409H6.1219c-0.3117 0 -0.6107 -0.1237 -0.8311 -0.3443 -0.2205 -0.2203 -0.3443 -0.5193 -0.3443 -0.8311V6.6038l14.0227 14.0227c-0.0814 0.2254 -0.2298 0.4204 -0.4251 0.5591 -0.1954 0.1387 -0.4285 0.2143 -0.668 0.2167ZM8.0731 2.5957h3.9259v3.5262c0 0.9352 0.3715 1.8322 1.0328 2.4935s1.5583 1.0328 2.4935 1.0328h3.5262v3.9258c0 0.3119 0.1239 0.6108 0.3443 0.8312 0.2204 0.2205 0.5194 0.3443 0.8311 0.3443 0.3118 0 0.6108 -0.1238 0.8312 -0.3443 0.2204 -0.2204 0.3443 -0.5193 0.3443 -0.8312V8.4022c-0.0123 -0.1079 -0.0359 -0.2143 -0.0706 -0.3173v-0.1058c-0.0565 -0.1209 -0.1319 -0.232 -0.2233 -0.3291L14.056 0.5975c-0.0972 -0.0915 -0.2083 -0.1669 -0.3291 -0.2234h-0.1058l-0.3762 -0.1293H8.0731c-0.3117 0 -0.6107 0.1239 -0.8311 0.3443 -0.2205 0.2204 -0.3443 0.5194 -0.3443 0.8311s0.1238 0.6108 0.3443 0.8312c0.2204 0.2204 0.5194 0.3443 0.8311 0.3443Zm6.2767 1.6573 3.0444 3.0443h-1.869c-0.3117 0 -0.6107 -0.1238 -0.8311 -0.3442 -0.2204 -0.2205 -0.3443 -0.5194 -0.3443 -0.8312V4.253Z" fill="#000000" stroke-width="1"></path>
</svg>