<svg viewBox="0 0 24 24" fill="none" xmlns="http://www.w3.org/2000/svg" id="File-Edit-Alt--Streamline-Unicons">
  <desc>
    File Edit Alt Streamline Icon: https://streamlinehq.com
  </desc>
  <path d="m22.2395 17.5389 -2.8459 -2.8459c-0.1093 -0.1102 -0.2394 -0.1977 -0.3826 -0.2574 -0.1434 -0.0597 -0.2971 -0.0904 -0.4523 -0.0904s-0.309 0.0307 -0.4523 0.0904c-0.1433 0.0597 -0.2733 0.1472 -0.3827 0.2574l-4.2101 4.2101c-0.109 0.1098 -0.1952 0.2403 -0.2538 0.3835 -0.0584 0.1432 -0.0882 0.2967 -0.0872 0.4515v2.8459c0 0.3119 0.1239 0.611 0.3444 0.8315s0.5197 0.3445 0.8316 0.3445h2.8459c0.1548 0.0009 0.3082 -0.0288 0.4515 -0.0873 0.1432 -0.0585 0.2736 -0.1447 0.3835 -0.2538l4.21 -4.21c0.1102 -0.1094 0.1977 -0.2395 0.2575 -0.3827 0.0597 -0.1434 0.0904 -0.2971 0.0904 -0.4523s-0.0307 -0.3089 -0.0904 -0.4523c-0.0598 -0.1432 -0.1473 -0.2733 -0.2575 -0.3827Zm-5.5389 3.8691h-1.176v-1.176l3.0341 -3.0341 1.176 1.176 -3.0341 3.0341Zm-7.056 0h-4.704c-0.3119 0 -0.611 -0.124 -0.8316 -0.3445 -0.2205 -0.2205 -0.3444 -0.5196 -0.3444 -0.8315V3.768c0 -0.3119 0.1239 -0.611 0.3444 -0.8316 0.2206 -0.2205 0.5197 -0.3444 0.8316 -0.3444h5.88V6.12c0 0.9357 0.3717 1.833 1.0333 2.4947 0.6617 0.6616 1.5591 1.0333 2.4947 1.0333h3.528v1.176c0 0.3119 0.1239 0.611 0.3444 0.8315s0.5197 0.3445 0.8316 0.3445c0.3119 0 0.611 -0.124 0.8315 -0.3445s0.3445 -0.5196 0.3445 -0.8315V8.4014c-0.0122 -0.108 -0.0359 -0.2144 -0.0706 -0.3175v-0.1058c-0.0565 -0.1209 -0.1319 -0.2321 -0.2234 -0.3293l-7.056 -7.056c-0.0973 -0.0915 -0.2084 -0.1669 -0.3293 -0.2234 -0.035 -0.005 -0.0707 -0.005 -0.1058 0L12.0672 0.24H4.9406c-0.9357 0 -1.833 0.3717 -2.4947 1.0333 -0.6616 0.6617 -1.0333 1.559 -1.0333 2.4947v16.464c0 0.9356 0.3717 1.833 1.0333 2.4946 0.6617 0.6616 1.559 1.0334 2.4947 1.0334h4.704c0.3119 0 0.611 -0.124 0.8315 -0.3445s0.3445 -0.5196 0.3445 -0.8315c0 -0.3119 -0.124 -0.6111 -0.3445 -0.8316s-0.5196 -0.3444 -0.8315 -0.3444Zm3.528 -17.1578 3.0458 3.0458h-1.8698c-0.3119 0 -0.6111 -0.1239 -0.8316 -0.3444 -0.2205 -0.2206 -0.3444 -0.5197 -0.3444 -0.8316V4.2502Zm-5.88 10.1018h7.056c0.3119 0 0.611 -0.124 0.8315 -0.3445s0.3445 -0.5196 0.3445 -0.8315c0 -0.3119 -0.124 -0.6111 -0.3445 -0.8316S14.6605 12 14.3486 12h-7.056c-0.3119 0 -0.611 0.1239 -0.8316 0.3444 -0.2205 0.2205 -0.3444 0.5197 -0.3444 0.8316 0 0.3119 0.1239 0.611 0.3444 0.8315 0.2206 0.2205 0.5197 0.3445 0.8316 0.3445Zm0 -4.704h1.176c0.3119 0 0.611 -0.1239 0.8316 -0.3445 0.2205 -0.2205 0.3444 -0.5196 0.3444 -0.8315s-0.1239 -0.611 -0.3444 -0.8316c-0.2206 -0.2205 -0.5197 -0.3444 -0.8316 -0.3444h-1.176c-0.3119 0 -0.611 0.1239 -0.8316 0.3444 -0.2205 0.2206 -0.3444 0.5197 -0.3444 0.8316s0.1239 0.611 0.3444 0.8316c0.2206 0.2205 0.5197 0.3444 0.8316 0.3444Zm2.352 7.056h-2.352c-0.3119 0 -0.611 0.1239 -0.8316 0.3444 -0.2205 0.2205 -0.3444 0.5197 -0.3444 0.8316 0 0.3119 0.1239 0.611 0.3444 0.8315 0.2206 0.2205 0.5197 0.3445 0.8316 0.3445h2.352c0.3119 0 0.611 -0.124 0.8315 -0.3445s0.3445 -0.5196 0.3445 -0.8315c0 -0.3119 -0.124 -0.6111 -0.3445 -0.8316s-0.5196 -0.3444 -0.8315 -0.3444Z" fill="#000000" stroke-width="1"></path>
</svg>