<svg viewBox="0 0 24 24" fill="none" xmlns="http://www.w3.org/2000/svg" id="Focus--Streamline-Unicons">
  <desc>
    Focus Streamline Icon: https://streamlinehq.com
  </desc>
  <path d="M7.296 0.24h-5.88C1.1041 0.24 0.805 0.3639 0.5844 0.5844 0.3639 0.805 0.24 1.1041 0.24 1.416v5.88c0 0.3119 0.1239 0.611 0.3444 0.8316 0.2206 0.2205 0.5197 0.3444 0.8316 0.3444s0.611 -0.1239 0.8316 -0.3444c0.2205 -0.2206 0.3444 -0.5197 0.3444 -0.8316V2.592h4.704c0.3119 0 0.611 -0.1239 0.8316 -0.3444 0.2205 -0.2206 0.3444 -0.5197 0.3444 -0.8316S8.3481 0.805 8.1276 0.5844C7.907 0.3639 7.6079 0.24 7.296 0.24Zm0 21.168H2.592v-4.704c0 -0.3119 -0.1239 -0.611 -0.3444 -0.8315 -0.2206 -0.2205 -0.5197 -0.3445 -0.8316 -0.3445s-0.611 0.124 -0.8316 0.3445c-0.2205 0.2205 -0.3444 0.5196 -0.3444 0.8315v5.88c0 0.3119 0.1239 0.611 0.3444 0.8316 0.2206 0.2205 0.5197 0.3444 0.8316 0.3444h5.88c0.3119 0 0.611 -0.1239 0.8316 -0.3444 0.2205 -0.2205 0.3444 -0.5197 0.3444 -0.8316 0 -0.3119 -0.1239 -0.611 -0.3444 -0.8315 -0.2206 -0.2205 -0.5197 -0.3445 -0.8316 -0.3445ZM22.584 0.24h-5.88c-0.3119 0 -0.611 0.1239 -0.8315 0.3444 -0.2205 0.2206 -0.3445 0.5197 -0.3445 0.8316s0.124 0.611 0.3445 0.8316c0.2205 0.2205 0.5196 0.3444 0.8315 0.3444h4.704v4.704c0 0.3119 0.124 0.611 0.3445 0.8316 0.2205 0.2205 0.5196 0.3444 0.8315 0.3444 0.3119 0 0.6111 -0.1239 0.8316 -0.3444 0.2205 -0.2206 0.3444 -0.5197 0.3444 -0.8316v-5.88c0 -0.3119 -0.1239 -0.611 -0.3444 -0.8316C23.1951 0.3639 22.8959 0.24 22.584 0.24Zm0 15.288c-0.3119 0 -0.611 0.124 -0.8315 0.3445s-0.3445 0.5196 -0.3445 0.8315v4.704h-4.704c-0.3119 0 -0.611 0.124 -0.8315 0.3445s-0.3445 0.5196 -0.3445 0.8315c0 0.3119 0.124 0.6111 0.3445 0.8316s0.5196 0.3444 0.8315 0.3444h5.88c0.3119 0 0.611 -0.1239 0.8316 -0.3444s0.3444 -0.5197 0.3444 -0.8316v-5.88c0 -0.3119 -0.1239 -0.611 -0.3444 -0.8315s-0.5197 -0.3445 -0.8316 -0.3445Z" fill="#000000" stroke-width="1"></path>
</svg>