<svg viewBox="0 0 24 24" fill="none" xmlns="http://www.w3.org/2000/svg" id="Image-Minus--Streamline-Unicons">
  <desc>
    Image Minus Streamline Icon: https://streamlinehq.com
  </desc>
  <path d="M22.584 1.4252H17.88c-0.3119 0 -0.611 0.1239 -0.8315 0.3444 -0.2205 0.2206 -0.3445 0.5197 -0.3445 0.8316s0.124 0.611 0.3445 0.8315c0.2205 0.2206 0.5196 0.3445 0.8315 0.3445h4.704c0.3119 0 0.6111 -0.1239 0.8316 -0.3445 0.2205 -0.2205 0.3444 -0.5196 0.3444 -0.8315s-0.1239 -0.611 -0.3444 -0.8316c-0.2205 -0.2205 -0.5197 -0.3444 -0.8316 -0.3444ZM20.232 6.12c-0.3119 0 -0.611 0.1239 -0.8315 0.3444 -0.2205 0.2206 -0.3445 0.5197 -0.3445 0.8316v6.3405l-1.7411 -1.741c-0.6129 -0.6118 -1.4436 -0.9554 -2.3097 -0.9554 -0.8661 0 -1.6968 0.3436 -2.3098 0.9554l-0.8209 0.8208 -2.9236 -2.9236c-0.6123 -0.6114 -1.4422 -0.9548 -2.3075 -0.9548 -0.8653 0 -1.6952 0.3434 -2.3075 0.9548l-1.7439 1.744V4.944c0.0004 -0.3118 0.1244 -0.6107 0.3449 -0.8311 0.2204 -0.2205 0.5193 -0.3445 0.8311 -0.3449h9.408c0.3119 0 0.6111 -0.1239 0.8316 -0.3444 0.2205 -0.2206 0.3444 -0.5197 0.3444 -0.8316s-0.1239 -0.611 -0.3444 -0.8316c-0.2205 -0.2205 -0.5197 -0.3444 -0.8316 -0.3444H3.768c-0.9354 0.001 -1.8321 0.3731 -2.4935 1.0345S0.241 4.0086 0.24 4.944v14.112c0.001 0.9354 0.3731 1.8321 1.0345 2.4936 0.6614 0.6614 1.5581 1.0333 2.4935 1.0344H17.88c0.9354 -0.0011 1.8321 -0.373 2.4936 -1.0344 0.6614 -0.6615 1.0333 -1.5582 1.0344 -2.4936V7.296c0 -0.3119 -0.1239 -0.611 -0.3444 -0.8316 -0.2205 -0.2205 -0.5197 -0.3444 -0.8316 -0.3444ZM3.768 20.232c-0.3118 -0.0003 -0.6107 -0.1244 -0.8311 -0.3449 -0.2205 -0.2204 -0.3445 -0.5193 -0.3449 -0.8311v-4.1935l3.4069 -3.4069c0.1744 -0.1643 0.4049 -0.2559 0.6445 -0.2559 0.2396 0 0.4702 0.0916 0.6446 0.2559l3.7256 3.7245c0.01 0.0109 0.0136 0.0257 0.024 0.036l5.0162 5.0159H3.768Zm15.288 -1.176c-0.0059 0.2267 -0.079 0.4465 -0.2103 0.6316l-5.3082 -5.3083 0.8208 -0.8209c0.1719 -0.171 0.4045 -0.267 0.6468 -0.267 0.2425 0 0.475 0.096 0.647 0.267l3.4039 3.404v2.0936Z" fill="#000000" stroke-width="1"></path>
</svg>