<svg viewBox="0 0 24 24" fill="none" xmlns="http://www.w3.org/2000/svg" id="Image-Lock--Streamline-Unicons">
  <desc>
    Image Lock Streamline Icon: https://streamlinehq.com
  </desc>
  <path d="M20.96 4.9216V3.6c0 -0.8911 -0.354 -1.7458 -0.9841 -2.3759C19.3457 0.594 18.4911 0.24 17.6 0.24c-0.8911 0 -1.7457 0.354 -2.3759 0.9841 -0.6301 0.6301 -0.9841 1.4848 -0.9841 2.3759v1.3216c-0.6535 0.2311 -1.2197 0.6586 -1.6207 1.2241 -0.401 0.5654 -0.6174 1.2411 -0.6193 1.9343v2.24c0 0.8911 0.354 1.7457 0.9841 2.3759 0.6302 0.6301 1.4848 0.9841 2.3759 0.9841h4.48c0.8911 0 1.7457 -0.354 2.3759 -0.9841 0.6301 -0.6302 0.9841 -1.4848 0.9841 -2.3759V8.08c-0.0019 -0.6932 -0.2183 -1.3689 -0.6192 -1.9343 -0.4011 -0.5655 -0.9673 -0.993 -1.6208 -1.2241ZM16.48 3.6c0 -0.297 0.1181 -0.5819 0.3281 -0.792 0.21 -0.21 0.4949 -0.328 0.7919 -0.328 0.297 0 0.582 0.118 0.792 0.328 0.21 0.2101 0.328 0.495 0.328 0.792v1.12h-2.24V3.6Zm4.48 6.72c0 0.297 -0.118 0.582 -0.328 0.792s-0.495 0.328 -0.792 0.328h-4.48c-0.297 0 -0.5819 -0.118 -0.7919 -0.328s-0.3281 -0.495 -0.3281 -0.792V8.08c0 -0.297 0.1181 -0.5819 0.3281 -0.792 0.21 -0.21 0.4949 -0.328 0.7919 -0.328h4.48c0.297 0 0.582 0.118 0.792 0.328 0.21 0.2101 0.328 0.495 0.328 0.792v2.24Zm-1.12 5.6c-0.297 0 -0.5819 0.118 -0.7919 0.3281s-0.3281 0.4949 -0.3281 0.7919v3.36c-0.0016 0.2144 -0.0723 0.4226 -0.2016 0.5936l-9.4192 -9.4192c-0.5947 -0.5623 -1.3822 -0.8757 -2.2008 -0.8757s-1.606 0.3134 -2.2008 0.8757L3.04 13.232V6.96c0 -0.297 0.118 -0.5819 0.328 -0.792 0.2101 -0.21 0.495 -0.328 0.792 -0.328h5.6c0.297 0 0.582 -0.118 0.792 -0.328 0.21 -0.2101 0.328 -0.4949 0.328 -0.792s-0.118 -0.5819 -0.328 -0.792c-0.21 -0.21 -0.495 -0.328 -0.792 -0.328h-5.6c-0.8911 0 -1.7458 0.354 -2.3759 0.9841C1.154 5.2142 0.8 6.0689 0.8 6.96V20.4c0 0.8911 0.354 1.7457 0.9841 2.3759 0.6301 0.6301 1.4848 0.9841 2.3759 0.9841H17.6c0.8911 0 1.7457 -0.354 2.3759 -0.9841 0.6301 -0.6302 0.9841 -1.4848 0.9841 -2.3759v-3.36c0 -0.297 -0.118 -0.5819 -0.328 -0.7919s-0.495 -0.3281 -0.792 -0.3281Zm-15.68 5.6c-0.297 0 -0.5819 -0.118 -0.792 -0.3281 -0.21 -0.2099 -0.328 -0.4949 -0.328 -0.7919v-3.9984l3.248 -3.248c0.1645 -0.1568 0.3831 -0.2443 0.6104 -0.2443 0.2273 0 0.4459 0.0875 0.6104 0.2443l8.3664 8.3664H4.16Z" fill="#000000" stroke-width="1"></path>
</svg>