<svg viewBox="0 0 24 24" fill="none" xmlns="http://www.w3.org/2000/svg" id="Import--Streamline-Unicons">
  <desc>
    Import Streamline Icon: https://streamlinehq.com
  </desc>
  <path d="M22.584 14.352c-0.3119 0 -0.611 0.124 -0.8315 0.3445s-0.3445 0.5196 -0.3445 0.8315v4.704c0 0.3119 -0.1239 0.6111 -0.3444 0.8316s-0.5197 0.3444 -0.8316 0.3444H3.768c-0.3119 0 -0.611 -0.1239 -0.8316 -0.3444 -0.2205 -0.2205 -0.3444 -0.5197 -0.3444 -0.8316v-4.704c0 -0.3119 -0.1239 -0.611 -0.3444 -0.8315 -0.2206 -0.2205 -0.5197 -0.3445 -0.8316 -0.3445s-0.611 0.124 -0.8316 0.3445c-0.2205 0.2205 -0.3444 0.5196 -0.3444 0.8315v4.704c0 0.9356 0.3717 1.833 1.0333 2.4947 0.6617 0.6616 1.559 1.0333 2.4947 1.0333h16.464c0.9356 0 1.833 -0.3717 2.4947 -1.0333 0.6616 -0.6617 1.0333 -1.5591 1.0333 -2.4947v-4.704c0 -0.3119 -0.1239 -0.611 -0.3444 -0.8315s-0.5197 -0.3445 -0.8316 -0.3445Zm-11.419 2.011c0.1119 0.107 0.2437 0.1909 0.3881 0.2469 0.1408 0.0622 0.293 0.0943 0.4469 0.0943 0.1539 0 0.3061 -0.0321 0.4469 -0.0943 0.1444 -0.056 0.2762 -0.1399 0.3881 -0.2469l4.704 -4.704c0.2214 -0.2215 0.3458 -0.5218 0.3458 -0.835s-0.1244 -0.6135 -0.3458 -0.835c-0.2215 -0.2214 -0.5218 -0.3458 -0.835 -0.3458s-0.6135 0.1244 -0.835 0.3458l-2.693 2.7048V1.416c0 -0.3119 -0.1239 -0.611 -0.3444 -0.8316C12.6111 0.3639 12.3119 0.24 12 0.24c-0.3119 0 -0.611 0.1239 -0.8315 0.3444 -0.2205 0.2206 -0.3445 0.5197 -0.3445 0.8316v11.2778L8.131 9.989c-0.1097 -0.1096 -0.2399 -0.1966 -0.3831 -0.256 -0.1433 -0.0592 -0.2968 -0.0898 -0.4519 -0.0898 -0.1551 0 -0.3086 0.0306 -0.4519 0.0898 -0.1432 0.0594 -0.2734 0.1464 -0.3831 0.256 -0.1096 0.1096 -0.1966 0.2398 -0.2559 0.3832 -0.0594 0.1432 -0.0899 0.2967 -0.0899 0.4518 0 0.1551 0.0305 0.3086 0.0899 0.4518 0.0593 0.1434 0.1463 0.2736 0.2559 0.3832l4.704 4.704Z" fill="#000000" stroke-width="1"></path>
</svg>