<svg viewBox="0 0 24 24" fill="none" xmlns="http://www.w3.org/2000/svg" id="Label-Alt--Streamline-Unicons">
  <desc>
    Label Alt Streamline Icon: https://streamlinehq.com
  </desc>
  <path d="M15.5236 12c0 0.2325 0.0689 0.4598 0.1981 0.6532 0.1292 0.1933 0.3128 0.344 0.5276 0.433 0.2148 0.089 0.4512 0.1123 0.6793 0.0669s0.4376 -0.1573 0.602 -0.3218c0.1644 -0.1644 0.2764 -0.3739 0.3217 -0.6019 0.0454 -0.2281 0.0221 -0.4644 -0.0669 -0.6793 -0.089 -0.2148 -0.2397 -0.3985 -0.433 -0.5277 -0.1934 -0.1291 -0.4206 -0.1981 -0.6532 -0.1981 -0.3118 0 -0.6108 0.1239 -0.8313 0.3444s-0.3443 0.5195 -0.3443 0.8313Zm7.8886 -0.8347L17.5339 5.287c-0.1098 -0.109 -0.2401 -0.1952 -0.3833 -0.2537 -0.1432 -0.0585 -0.2967 -0.0881 -0.4514 -0.0872H3.767c-0.9354 0 -1.8325 0.3715 -2.494 1.033C0.6116 6.6405 0.24 7.5376 0.24 8.473v7.054c0 0.9354 0.3716 1.8325 1.033 2.4939 0.6615 0.6614 1.5586 1.033 2.494 1.033h12.9322c0.1548 0.001 0.3082 -0.0287 0.4514 -0.0872 0.1432 -0.0585 0.2736 -0.1447 0.3834 -0.2537l5.8783 -5.8783c0.1101 -0.1092 0.1976 -0.2393 0.2573 -0.3826 0.0597 -0.1433 0.0904 -0.2969 0.0904 -0.4521s-0.0307 -0.3089 -0.0904 -0.4522c-0.0597 -0.1432 -0.1472 -0.2732 -0.2573 -0.3825Zm-7.195 5.5373H3.767c-0.3118 0 -0.6109 -0.1238 -0.8313 -0.3443 -0.2205 -0.2205 -0.3444 -0.5196 -0.3444 -0.8313V8.473c0 -0.3118 0.1239 -0.6108 0.3444 -0.8313 0.2204 -0.2205 0.5195 -0.3443 0.8313 -0.3443h12.4502L20.9198 12l-4.7026 4.7026Z" fill="#000000" stroke-width="1"></path>
</svg>