<svg viewBox="0 0 24 24" fill="none" xmlns="http://www.w3.org/2000/svg" id="Left-Arrow-To-Left--Streamline-Unicons">
  <desc>
    Left Arrow To Left Streamline Icon: https://streamlinehq.com
  </desc>
  <path d="M22.584 10.824H8.9542l2.7048 -2.693c0.1096 -0.1097 0.1966 -0.2399 0.256 -0.3831 0.0593 -0.1433 0.0898 -0.2968 0.0898 -0.4519 0 -0.1551 -0.0305 -0.3086 -0.0898 -0.4519 -0.0594 -0.1432 -0.1464 -0.2734 -0.256 -0.3831 -0.1096 -0.1096 -0.2398 -0.1966 -0.3832 -0.2559 -0.1432 -0.0594 -0.2967 -0.0899 -0.4518 -0.0899 -0.1551 0 -0.3086 0.0305 -0.4518 0.0899 -0.1434 0.0593 -0.2736 0.1463 -0.3832 0.2559l-4.704 4.704c-0.107 0.1119 -0.1909 0.2437 -0.2469 0.3881 -0.1176 0.2864 -0.1176 0.6074 0 0.8938 0.056 0.1444 0.1399 0.2762 0.2469 0.3881l4.704 4.704c0.1094 0.1102 0.2395 0.1977 0.3827 0.2574 0.1434 0.0597 0.2971 0.0904 0.4523 0.0904s0.3089 -0.0307 0.4523 -0.0904c0.1432 -0.0597 0.2733 -0.1472 0.3827 -0.2574 0.1102 -0.1094 0.1977 -0.2395 0.2574 -0.3827 0.0597 -0.1434 0.0904 -0.2971 0.0904 -0.4523s-0.0307 -0.3089 -0.0904 -0.4523c-0.0597 -0.1432 -0.1472 -0.2733 -0.2574 -0.3827l-2.7048 -2.693H22.584c0.3119 0 0.6111 -0.124 0.8316 -0.3445s0.3444 -0.5196 0.3444 -0.8315c0 -0.3119 -0.1239 -0.6111 -0.3444 -0.8316s-0.5197 -0.3444 -0.8316 -0.3444ZM1.416 1.416c-0.3119 0 -0.611 0.1239 -0.8316 0.3444C0.3639 1.981 0.24 2.2801 0.24 2.592v18.816c0 0.3119 0.1239 0.611 0.3444 0.8315 0.2206 0.2206 0.5197 0.3445 0.8316 0.3445s0.611 -0.1239 0.8316 -0.3444c0.2205 -0.2206 0.3444 -0.5197 0.3444 -0.8316V2.592c0 -0.3119 -0.1239 -0.611 -0.3444 -0.8316 -0.2206 -0.2205 -0.5197 -0.3444 -0.8316 -0.3444Z" fill="#000000" stroke-width="1"></path>
</svg>