<svg viewBox="0 0 24 24" fill="none" xmlns="http://www.w3.org/2000/svg" id="Link-Add--Streamline-Unicons">
  <desc>
    Link Add Streamline Icon: https://streamlinehq.com
  </desc>
  <path d="m12.0538 15.9362 -4.5925 4.5925c-0.2716 0.2727 -0.5944 0.4891 -0.9499 0.6367 -0.3554 0.1476 -0.7365 0.2237 -1.1215 0.2237s-0.766 -0.0761 -1.1214 -0.2237c-0.3555 -0.1476 -0.6783 -0.364 -0.9499 -0.6367 -0.2741 -0.2708 -0.4918 -0.5935 -0.6403 -0.9491s-0.2251 -0.737 -0.2251 -1.1223c0 -0.3854 0.0765 -0.7669 0.2251 -1.1224s0.3662 -0.6781 0.6403 -0.9489l4.5925 -4.5926c0.2229 -0.2228 0.3481 -0.5251 0.3481 -0.8403s-0.1252 -0.6175 -0.3481 -0.8404c-0.2229 -0.2229 -0.5252 -0.3481 -0.8404 -0.3481s-0.6175 0.1252 -0.8404 0.3481L1.6378 14.717C0.7126 15.7241 0.2123 17.0495 0.2412 18.4167c0.029 1.3672 0.585 2.6704 1.552 3.6373 0.9669 0.9671 2.2701 1.523 3.6373 1.552 1.3672 0.0289 2.6927 -0.4714 3.6997 -1.3966l4.6044 -4.5925c0.1103 -0.1104 0.1979 -0.2414 0.2575 -0.3856 0.0598 -0.1442 0.0906 -0.2988 0.0906 -0.4548 0 -0.1561 -0.0308 -0.3107 -0.0906 -0.4548 -0.0596 -0.1442 -0.1472 -0.2752 -0.2575 -0.3855 -0.1103 -0.1105 -0.2414 -0.1979 -0.3856 -0.2577 -0.1442 -0.0598 -0.2988 -0.0904 -0.4548 -0.0904 -0.1561 0 -0.3106 0.0306 -0.4549 0.0904 -0.1441 0.0598 -0.2752 0.1472 -0.3855 0.2577Zm-3.8823 -0.2604c0.1106 0.1096 0.2418 0.1964 0.386 0.2553 0.1442 0.0589 0.2986 0.0887 0.4544 0.0879 0.1557 0.0008 0.3102 -0.029 0.4544 -0.0879 0.1441 -0.0589 0.2753 -0.1457 0.386 -0.2553l5.8234 -5.8235c0.2229 -0.2229 0.3482 -0.5253 0.3482 -0.8405s-0.1253 -0.6175 -0.3482 -0.8403c-0.2228 -0.2229 -0.5251 -0.3481 -0.8403 -0.3481s-0.6175 0.1252 -0.8404 0.3481L8.1715 13.995c-0.111 0.11 -0.199 0.2409 -0.2591 0.3852 -0.0601 0.1441 -0.091 0.2988 -0.091 0.4552 0 0.1562 0.0309 0.3109 0.091 0.4551 0.0601 0.1443 0.1481 0.2752 0.2591 0.3853Zm14.4049 3.3497h-1.1837v-1.1837c0 -0.314 -0.1247 -0.615 -0.3467 -0.8369 -0.2219 -0.2221 -0.523 -0.3467 -0.8369 -0.3467 -0.3139 0 -0.615 0.1246 -0.837 0.3467 -0.222 0.2219 -0.3467 0.5229 -0.3467 0.8369v1.1837h-1.1836c-0.3139 0 -0.615 0.1246 -0.837 0.3467 -0.222 0.2219 -0.3466 0.5229 -0.3466 0.8369 0 0.3139 0.1246 0.6149 0.3466 0.837 0.222 0.2219 0.5231 0.3466 0.837 0.3466h1.1836v1.1837c0 0.3139 0.1247 0.6149 0.3467 0.8369 0.222 0.222 0.5231 0.3467 0.837 0.3467 0.3139 0 0.615 -0.1247 0.8369 -0.3467 0.222 -0.222 0.3467 -0.523 0.3467 -0.8369v-1.1837h1.1837c0.3139 0 0.615 -0.1247 0.8369 -0.3466 0.2219 -0.2221 0.3467 -0.5231 0.3467 -0.837 0 -0.314 -0.1248 -0.615 -0.3467 -0.8369 -0.2219 -0.2221 -0.523 -0.3467 -0.8369 -0.3467Zm-4.9595 -5.2909 4.5925 -4.6044c0.9252 -1.007 1.4256 -2.3325 1.3966 -3.6997 -0.0289 -1.3672 -0.5849 -2.6704 -1.5519 -3.6374 -0.967 -0.9669 -2.2702 -1.523 -3.6374 -1.5519 -1.3671 -0.029 -2.6926 0.4714 -3.6997 1.3966l-4.6043 4.5925c-0.1103 0.1104 -0.1979 0.2414 -0.2577 0.3856 -0.0597 0.1442 -0.0904 0.2987 -0.0904 0.4548 0 0.1561 0.0307 0.3106 0.0904 0.4548 0.0598 0.1442 0.1474 0.2752 0.2577 0.3856 0.1103 0.1103 0.2413 0.1979 0.3855 0.2576 0.1443 0.0597 0.2987 0.0905 0.4549 0.0905 0.156 0 0.3105 -0.0308 0.4547 -0.0905 0.1443 -0.0597 0.2753 -0.1473 0.3856 -0.2576l4.5925 -4.5925c0.2717 -0.2728 0.5945 -0.4891 0.9499 -0.6368 0.3555 -0.1476 0.7366 -0.2236 1.1215 -0.2236 0.3849 0 0.7661 0.076 1.1215 0.2236s0.6782 0.364 0.9499 0.6368c0.2741 0.2708 0.4918 0.5933 0.6403 0.9489 0.1486 0.3555 0.225 0.7371 0.225 1.1224 0 0.3854 -0.0764 0.7669 -0.225 1.1224s-0.3662 0.6782 -0.6403 0.949l-4.5925 4.5925c-0.111 0.11 -0.199 0.2409 -0.2591 0.3852 -0.0602 0.1442 -0.0911 0.2989 -0.0911 0.4552s0.0309 0.311 0.0911 0.4551c0.0601 0.1443 0.1481 0.2752 0.2591 0.3853 0.11 0.1109 0.2409 0.199 0.3851 0.2591 0.1443 0.06 0.299 0.091 0.4552 0.091s0.311 -0.031 0.4553 -0.091c0.1441 -0.0601 0.2751 -0.1482 0.3851 -0.2591Z" fill="#000000" stroke-width="1"></path>
</svg>