<svg viewBox="0 0 24 24" fill="none" xmlns="http://www.w3.org/2000/svg" id="Music-Note--Streamline-Unicons">
  <desc>
    Music Note Streamline Icon: https://streamlinehq.com
  </desc>
  <path d="M20.3938 0.5147c-0.1381 -0.1159 -0.3012 -0.1984 -0.4763 -0.2412 -0.1751 -0.0427 -0.3578 -0.0446 -0.5339 -0.0054L9.9869 2.6173c-0.2607 0.0643 -0.4914 0.2159 -0.6538 0.4296 -0.1624 0.2137 -0.2467 0.4766 -0.2389 0.745V15.949c-0.5488 -0.2682 -1.1511 -0.4087 -1.7619 -0.4112 -0.8131 0 -1.6079 0.2411 -2.284 0.6928 -0.6761 0.4518 -1.203 1.0938 -1.5142 1.8451 -0.3111 0.7511 -0.3925 1.5777 -0.2339 2.3752 0.1586 0.7975 0.5502 1.5301 1.1251 2.1049 0.575 0.575 1.3075 0.9666 2.105 1.1252 0.7974 0.1587 1.624 0.0773 2.3752 -0.234 0.7512 -0.3112 1.3934 -0.8381 1.845 -1.5141 0.4517 -0.6761 0.6929 -1.4709 0.6929 -2.284v-9.0678l8.504 -2.0909h0.0823l0.2231 -0.1761 0.1762 -0.1175c0.0571 -0.0531 0.1082 -0.1122 0.1527 -0.1762 0.0458 -0.054 0.0853 -0.1131 0.1175 -0.1762 0.0356 -0.0658 0.0594 -0.1374 0.0705 -0.2114 0.0122 -0.0739 0.0122 -0.1493 0 -0.2232 0.0053 -0.0311 0.0053 -0.0628 0 -0.094V1.4427c0.0096 -0.1729 -0.0192 -0.3456 -0.0841 -0.5061 -0.065 -0.1604 -0.1647 -0.3044 -0.2918 -0.4219ZM7.3323 21.4108c-0.3485 0 -0.6891 -0.1033 -0.9789 -0.2969 -0.2897 -0.1937 -0.5156 -0.4688 -0.6489 -0.7908 -0.1334 -0.3219 -0.1682 -0.6762 -0.1003 -1.018 0.068 -0.3417 0.2358 -0.6556 0.4822 -0.9021s0.5604 -0.4141 0.9021 -0.4821c0.3418 -0.068 0.6961 -0.0332 1.018 0.1002 0.322 0.1334 0.5971 0.3591 0.7907 0.6489 0.1936 0.2898 0.297 0.6304 0.297 0.9789 0 0.4673 -0.1857 0.9154 -0.5161 1.2458s-0.7785 0.5161 -1.2458 0.5161ZM18.4909 6.3995l-7.0475 1.7618V4.708l7.0475 -1.7619v3.4534Z" fill="#000000" stroke-width="1"></path>
</svg>