<svg viewBox="0 0 24 24" fill="none" xmlns="http://www.w3.org/2000/svg" id="Panel-Add--Streamline-Unicons">
  <desc>
    Panel Add Streamline Icon: https://streamlinehq.com
  </desc>
  <path d="M19.056 9.648h-4.704V1.416c0 -0.3119 -0.1239 -0.611 -0.3444 -0.8316C13.7871 0.3639 13.4879 0.24 13.176 0.24h-5.88c-0.3119 0 -0.611 0.1239 -0.8316 0.3444 -0.2205 0.2206 -0.3444 0.5197 -0.3444 0.8316v5.88H1.416c-0.3119 0 -0.611 0.1239 -0.8316 0.3444C0.3639 7.861 0.24 8.1601 0.24 8.472v14.112c0 0.3119 0.1239 0.611 0.3444 0.8316 0.2206 0.2205 0.5197 0.3444 0.8316 0.3444h17.64c0.3119 0 0.6111 -0.1239 0.8316 -0.3444s0.3444 -0.5197 0.3444 -0.8316v-11.76c0 -0.3119 -0.1239 -0.611 -0.3444 -0.8315s-0.5197 -0.3445 -0.8316 -0.3445ZM6.12 21.408H2.592V9.648H6.12v11.76Zm5.88 0H8.472V2.592H12v18.816Zm5.88 0h-3.528V12h3.528v9.408Zm4.704 -18.816h-1.176V1.416c0 -0.3119 -0.1239 -0.611 -0.3444 -0.8316C20.8431 0.3639 20.5439 0.24 20.232 0.24c-0.3119 0 -0.611 0.1239 -0.8315 0.3444 -0.2205 0.2206 -0.3445 0.5197 -0.3445 0.8316v1.176H17.88c-0.3119 0 -0.611 0.1239 -0.8315 0.3444 -0.2205 0.2206 -0.3445 0.5197 -0.3445 0.8316s0.124 0.611 0.3445 0.8316c0.2205 0.2205 0.5196 0.3444 0.8315 0.3444h1.176V6.12c0 0.3119 0.124 0.611 0.3445 0.8316 0.2205 0.2205 0.5196 0.3444 0.8315 0.3444 0.3119 0 0.6111 -0.1239 0.8316 -0.3444 0.2205 -0.2206 0.3444 -0.5197 0.3444 -0.8316V4.944h1.176c0.3119 0 0.611 -0.1239 0.8316 -0.3444 0.2205 -0.2206 0.3444 -0.5197 0.3444 -0.8316s-0.1239 -0.611 -0.3444 -0.8316c-0.2205 -0.2205 -0.5197 -0.3444 -0.8316 -0.3444Z" fill="#000000" stroke-width="1"></path>
</svg>