<svg viewBox="0 0 24 24" fill="none" xmlns="http://www.w3.org/2000/svg" id="Scenery--Streamline-Unicons">
  <desc>
    Scenery Streamline Icon: https://streamlinehq.com
  </desc>
  <path d="M20.232 0.24H3.768c-0.9357 0 -1.833 0.3717 -2.4947 1.0333C0.6117 1.935 0.24 2.8323 0.24 3.768v16.464c0 0.9356 0.3717 1.833 1.0333 2.4947 0.6617 0.6616 1.559 1.0333 2.4947 1.0333h16.464c0.1934 -0.0027 0.3862 -0.0223 0.5762 -0.0588l0.3528 -0.0823h0.1412l0.4351 -0.1647 0.1529 -0.0823c0.1176 -0.0705 0.2469 -0.1293 0.3645 -0.2117 0.157 -0.1154 0.3064 -0.2412 0.4469 -0.3763l0.0823 -0.1058c0.1155 -0.117 0.2217 -0.2429 0.3175 -0.3763l0.1059 -0.1529c0.0821 -0.1309 0.153 -0.2686 0.2117 -0.4116 0.0322 -0.0565 0.0598 -0.1155 0.0823 -0.1764 0.0588 -0.1411 0.0941 -0.294 0.1411 -0.4469v-0.1764c0.0667 -0.2298 0.1062 -0.4666 0.1176 -0.7056V3.768c0 -0.9357 -0.3717 -1.833 -1.0333 -2.4947C22.065 0.6117 21.1676 0.24 20.232 0.24ZM3.768 21.408c-0.3119 0 -0.611 -0.1239 -0.8316 -0.3444 -0.2205 -0.2205 -0.3444 -0.5197 -0.3444 -0.8316v-5.0686l3.869 -3.8808c0.1094 -0.1101 0.2394 -0.1976 0.3827 -0.2574 0.1433 -0.0597 0.2971 -0.0904 0.4523 -0.0904s0.309 0.0307 0.4523 0.0904c0.1433 0.0598 0.2733 0.1473 0.3827 0.2574L18.2446 21.408H3.768Zm17.64 -1.176c-0.0011 0.145 -0.029 0.2885 -0.0823 0.4234 -0.0269 0.0572 -0.0583 0.1124 -0.0941 0.1646 -0.0315 0.0497 -0.0669 0.097 -0.1058 0.1411l-6.2916 -6.2916 1.0348 -1.0349c0.1094 -0.1101 0.2395 -0.1976 0.3827 -0.2574 0.1434 -0.0597 0.2971 -0.0904 0.4523 -0.0904s0.3089 0.0307 0.4523 0.0904c0.1432 0.0598 0.2733 0.1473 0.3827 0.2574l3.869 3.8808v2.7166Zm0 -6.0446L19.1971 12c-0.673 -0.6386 -1.5653 -0.9945 -2.4931 -0.9945 -0.9277 0 -1.8201 0.3559 -2.4931 0.9945l-1.0349 1.0349L9.7891 9.648c-0.673 -0.6386 -1.5653 -0.9946 -2.4931 -0.9946 -0.9277 0 -1.8201 0.356 -2.4931 0.9946L2.592 11.8354V3.768c0 -0.3119 0.1239 -0.611 0.3444 -0.8316 0.2206 -0.2205 0.5197 -0.3444 0.8316 -0.3444h16.464c0.3119 0 0.611 0.1239 0.8316 0.3444 0.2205 0.2206 0.3444 0.5197 0.3444 0.8316v10.4194ZM13.764 4.944c-0.3489 0 -0.69 0.1035 -0.9801 0.2973 -0.29 0.1938 -0.5161 0.4693 -0.6496 0.7916 -0.1336 0.3224 -0.1685 0.6771 -0.1004 1.0192 0.0681 0.3422 0.2361 0.6565 0.4827 0.9032 0.2467 0.2467 0.5611 0.4147 0.9033 0.4828 0.3421 0.0681 0.6968 0.0331 1.0191 -0.1004s0.5979 -0.3596 0.7917 -0.6497c0.1938 -0.2901 0.2973 -0.6311 0.2973 -0.98 0 -0.4678 -0.1858 -0.9165 -0.5166 -1.2473 -0.3308 -0.3308 -0.7796 -0.5167 -1.2474 -0.5167Z" fill="#000000" stroke-width="1"></path>
</svg>