<svg viewBox="0 0 24 24" fill="none" xmlns="http://www.w3.org/2000/svg" id="Search-Minus--Streamline-Unicons">
  <desc>
    Search Minus Streamline Icon: https://streamlinehq.com
  </desc>
  <path d="m23.4297 21.7698 -4.3603 -4.3251c1.6925 -2.1104 2.5122 -4.789 2.2904 -7.4852 -0.2218 -2.6961 -1.4681 -5.2048 -3.4828 -7.0103C15.8624 1.1438 13.2326 0.1789 10.5283 0.2529c-2.7041 0.074 -5.2772 1.1813 -7.1901 3.0942S0.318 7.8331 0.244 10.5373c-0.074 2.7042 0.8909 5.3341 2.6963 7.3487 1.8054 2.0147 4.3141 3.261 7.0102 3.4828 2.6962 0.2217 5.3748 -0.5979 7.4852 -2.2905l4.3251 4.3251c0.1093 0.1102 0.2393 0.1976 0.3824 0.2573 0.1433 0.0597 0.2969 0.0904 0.4521 0.0904s0.3087 -0.0307 0.452 -0.0904c0.1433 -0.0597 0.2732 -0.1471 0.3824 -0.2573 0.2119 -0.2192 0.3303 -0.512 0.3303 -0.8168s-0.1184 -0.5976 -0.3303 -0.8168Zm-12.5874 -2.6915c-1.6272 0 -3.2178 -0.4824 -4.5708 -1.3865 -1.3529 -0.904 -2.4074 -2.1889 -3.0301 -3.6922 -0.6227 -1.5033 -0.7856 -3.1576 -0.4682 -4.7534 0.3175 -1.5959 1.101 -3.0619 2.2516 -4.2124 1.1506 -1.1506 2.6166 -1.9342 4.2124 -2.2516 1.596 -0.3175 3.2501 -0.1545 4.7534 0.4682 1.5034 0.6226 2.7882 1.6771 3.6923 3.0301 0.904 1.3529 1.3865 2.9435 1.3865 4.5707 0 2.182 -0.8668 4.2746 -2.4096 5.8175 -1.543 1.5428 -3.6356 2.4096 -5.8175 2.4096Zm4.7012 -9.4024H6.1411c-0.3117 0 -0.6107 0.1239 -0.8311 0.3443 -0.2204 0.2203 -0.3442 0.5193 -0.3442 0.831s0.1238 0.6107 0.3442 0.8311c0.2204 0.2203 0.5194 0.3442 0.8311 0.3442h9.4024c0.3117 0 0.6107 -0.1239 0.831 -0.3442 0.2205 -0.2204 0.3443 -0.5194 0.3443 -0.8311s-0.1238 -0.6107 -0.3443 -0.831c-0.2203 -0.2204 -0.5193 -0.3443 -0.831 -0.3443Z" fill="#000000" stroke-width="1"></path>
</svg>