<svg viewBox="0 0 24 24" fill="none" xmlns="http://www.w3.org/2000/svg" id="Step-Backward--Streamline-Unicons">
  <desc>
    Step Backward Streamline Icon: https://streamlinehq.com
  </desc>
  <path d="M21.726 1.9389c-0.5854 -0.3465 -1.2532 -0.5293 -1.9335 -0.5293s-1.348 0.1828 -1.9335 0.5293L7.2923 8.2977V4.9596c0 -0.9352 -0.3715 -1.8321 -1.0328 -2.4934 -0.6613 -0.6612 -1.5582 -1.0327 -2.4933 -1.0327s-1.8321 0.3715 -2.4934 1.0327C0.6115 3.1275 0.24 4.0244 0.24 4.9596v14.1046c0 0.9353 0.3715 1.8321 1.0328 2.4934 0.6613 0.6612 1.5582 1.0328 2.4934 1.0328s1.832 -0.3716 2.4933 -1.0328c0.6613 -0.6613 1.0328 -1.5581 1.0328 -2.4934v-3.3381l10.5785 6.3119c0.5962 0.359 1.2786 0.5499 1.9746 0.5524 0.6641 -0.0006 1.3165 -0.1748 1.8924 -0.5054 0.6233 -0.3512 1.1401 -0.8643 1.4959 -1.485 0.3559 -0.6206 0.5375 -1.3258 0.5258 -2.0412V5.4533c0.0084 -0.7145 -0.176 -1.4181 -0.5339 -2.0366 -0.3578 -0.6185 -0.8759 -1.129 -1.4996 -1.4778ZM4.9415 19.0642c0 0.3117 -0.1238 0.6108 -0.3442 0.8311 -0.2205 0.2205 -0.5194 0.3443 -0.8311 0.3443s-0.6107 -0.1238 -0.8312 -0.3443c-0.2204 -0.2203 -0.3442 -0.5194 -0.3442 -0.8311V4.9596c0 -0.3117 0.1238 -0.6107 0.3442 -0.8311 0.2205 -0.2204 0.5194 -0.3443 0.8312 -0.3443s0.6107 0.1239 0.8311 0.3443c0.2204 0.2204 0.3442 0.5194 0.3442 0.8311v14.1046Zm16.4554 -0.4936c0.0067 0.2975 -0.0673 0.5912 -0.2142 0.8499 -0.147 0.2587 -0.3613 0.4727 -0.6203 0.6193 -0.2266 0.1381 -0.4868 0.2111 -0.7522 0.2111s-0.5257 -0.073 -0.7523 -0.2111L8.0916 13.4576c-0.2454 -0.1531 -0.4477 -0.3662 -0.588 -0.619 -0.1402 -0.253 -0.2138 -0.5374 -0.2138 -0.8267 0 -0.2891 0.0736 -0.5737 0.2138 -0.8265 0.1403 -0.253 0.3426 -0.4661 0.588 -0.6192l10.9546 -6.5587c0.2355 -0.1487 0.5089 -0.2263 0.7875 -0.2233 0.2559 0.0041 0.5066 0.0728 0.7287 0.1998 0.259 0.1466 0.4733 0.3607 0.6203 0.6194 0.1469 0.2587 0.2209 0.5524 0.2142 0.8499v13.1173Z" fill="#000000" stroke-width="1"></path>
</svg>