<svg viewBox="0 0 24 24" fill="none" xmlns="http://www.w3.org/2000/svg" id="Step-Backward-Alt--Streamline-Unicons">
  <desc>
    Step Backward Alt Streamline Icon: https://streamlinehq.com
  </desc>
  <path d="M20.2323 1.4169c-0.9355 0 -1.8329 0.3717 -2.4944 1.0332 -0.6616 0.6616 -1.0333 1.5589 -1.0333 2.4945v14.1108c0 0.9355 0.3717 1.8329 1.0333 2.4944 0.6615 0.6616 1.5589 1.0333 2.4944 1.0333 0.9356 0 1.8329 -0.3717 2.4944 -1.0333 0.6616 -0.6615 1.0333 -1.5589 1.0333 -2.4944V4.9446c0 -0.9356 -0.3717 -1.8329 -1.0333 -2.4945 -0.6615 -0.6615 -1.5588 -1.0332 -2.4944 -1.0332Zm1.1759 17.6385c0 0.3118 -0.1239 0.611 -0.3444 0.8315s-0.5196 0.3444 -0.8315 0.3444c-0.3118 0 -0.611 -0.1239 -0.8315 -0.3444s-0.3444 -0.5197 -0.3444 -0.8315V4.9446c0 -0.3119 0.1239 -0.611 0.3444 -0.8315 0.2205 -0.2205 0.5197 -0.3444 0.8315 -0.3444 0.3119 0 0.611 0.1239 0.8315 0.3444 0.2205 0.2205 0.3444 0.5196 0.3444 0.8315v14.1108ZM12.7418 4.5095c-0.4703 -0.2771 -1.0063 -0.4233 -1.5522 -0.4233 -0.5458 0 -1.0818 0.1462 -1.5522 0.4233L1.7942 9.2131c-0.4745 0.2884 -0.8668 0.6941 -1.139 1.1781 -0.2722 0.484 -0.4152 1.03 -0.4152 1.5853 0 0.5552 0.143 1.1012 0.4152 1.5852s0.6645 0.8897 1.139 1.1781l7.8432 4.7036c0.4691 0.2808 1.0056 0.4291 1.5522 0.4291 0.5467 0 1.0832 -0.1483 1.5522 -0.4291 0.4825 -0.2784 0.8845 -0.6772 1.1669 -1.1574 0.2823 -0.4802 0.4353 -1.0254 0.4441 -1.5824V7.2964c-0.0006 -0.565 -0.1498 -1.1199 -0.4325 -1.609 -0.2828 -0.4892 -0.6892 -0.8954 -1.1785 -1.1779Zm-0.7408 12.1941c0.0034 0.1519 -0.034 0.3018 -0.1085 0.4343 -0.0745 0.1324 -0.1832 0.2423 -0.3148 0.3183 -0.1119 0.0674 -0.2399 0.103 -0.3704 0.103 -0.1306 0 -0.2586 -0.0356 -0.3704 -0.103l-7.8315 -4.7036c-0.1263 -0.0809 -0.2301 -0.1922 -0.3021 -0.3236 -0.0719 -0.1316 -0.1096 -0.2791 -0.1096 -0.429s0.0377 -0.2974 0.1096 -0.429c0.072 -0.1314 0.1758 -0.2427 0.3021 -0.3236l7.8315 -4.7036c0.1137 -0.0683 0.2436 -0.1049 0.3762 -0.1058 0.1275 -0.0001 0.253 0.0323 0.3646 0.0941 0.1333 0.0768 0.2433 0.1886 0.3178 0.3233 0.0747 0.1347 0.1111 0.2871 0.1055 0.441v9.4072Z" fill="#000000" stroke-width="1"></path>
</svg>