<svg viewBox="0 0 24 24" fill="none" xmlns="http://www.w3.org/2000/svg" id="Users-Alt--Streamline-Unicons">
  <desc>
    Users Alt Streamline Icon: https://streamlinehq.com
  </desc>
  <path d="M12.3 12.22c0.5336 -0.4619 0.9616 -1.0331 1.2549 -1.675C13.8482 9.90316 14 9.20571 14 8.5c0 -1.32608 -0.5268 -2.59785 -1.4645 -3.53553C11.5979 4.02678 10.3261 3.5 9 3.5c-1.32608 0 -2.59785 0.52678 -3.53553 1.46447C4.52678 5.90215 4 7.17392 4 8.5c-0.00001 0.70571 0.1518 1.40316 0.44513 2.045 0.29332 0.6419 0.72129 1.2131 1.25487 1.675 -1.39986 0.6339 -2.58753 1.6575 -3.42102 2.9485C1.4455 16.4596 1.00147 17.9633 1 19.5c0 0.2652 0.10536 0.5196 0.29289 0.7071 0.18754 0.1875 0.44189 0.2929 0.70711 0.2929s0.51957 -0.1054 0.70711 -0.2929C2.89464 20.0196 3 19.7652 3 19.5c0 -1.5913 0.63214 -3.1174 1.75736 -4.2426C5.88258 14.1321 7.4087 13.5 9 13.5s3.1174 0.6321 4.2426 1.7574C14.3679 16.3826 15 17.9087 15 19.5c0 0.2652 0.1054 0.5196 0.2929 0.7071s0.4419 0.2929 0.7071 0.2929c0.2652 0 0.5196 -0.1054 0.7071 -0.2929S17 19.7652 17 19.5c-0.0015 -1.5367 -0.4455 -3.0404 -1.279 -4.3315 -0.8335 -1.291 -2.0211 -2.3146 -3.421 -2.9485ZM9 11.5c-0.59334 0 -1.17336 -0.1759 -1.66671 -0.5056 -0.49335 -0.3296 -0.87787 -0.7982 -1.10493 -1.34635 -0.22706 -0.54818 -0.28647 -1.15138 -0.17072 -1.73332 0.11576 -0.58194 0.40148 -1.11649 0.82104 -1.53605 0.41956 -0.41956 0.95411 -0.70528 1.53605 -0.82104 0.58194 -0.11575 1.18514 -0.05634 1.73337 0.17072 0.5481 0.22706 1.0167 0.61158 1.3463 1.10493C11.8241 7.32664 12 7.90666 12 8.5c0 0.79565 -0.3161 1.5587 -0.8787 2.1213 -0.5626 0.5626 -1.32565 0.8787 -2.1213 0.8787Zm9.74 0.32c0.64 -0.7207 1.058 -1.6109 1.2038 -2.56366 0.1458 -0.95272 0.0131 -1.92727 -0.382 -2.80634 -0.3952 -0.87907 -1.036 -1.6252 -1.8453 -2.14858C16.9071 3.77805 15.9638 3.49974 15 3.5c-0.2652 0 -0.5196 0.10536 -0.7071 0.29289C14.1054 3.98043 14 4.23478 14 4.5s0.1054 0.51957 0.2929 0.70711c0.1875 0.18753 0.4419 0.29289 0.7071 0.29289 0.7956 0 1.5587 0.31607 2.1213 0.87868C17.6839 6.94129 18 7.70435 18 8.5c-0.0014 0.52524 -0.1407 1.0409 -0.4039 1.49542 -0.2633 0.45448 -0.6412 0.83198 -1.0961 1.09458 -0.1483 0.0855 -0.2721 0.2077 -0.3596 0.3547 -0.0876 0.1471 -0.1359 0.3142 -0.1404 0.4853 -0.0042 0.1698 0.0349 0.3378 0.1137 0.4883 0.0787 0.1504 0.1944 0.2784 0.3363 0.3717l0.39 0.26 0.13 0.07c1.2054 0.5717 2.2223 1.476 2.931 2.6063 0.7086 1.1303 1.0795 2.4396 1.069 3.7737 0 0.2652 0.1054 0.5196 0.2929 0.7071s0.4419 0.2929 0.7071 0.2929c0.2652 0 0.5196 -0.1054 0.7071 -0.2929s0.2929 -0.4419 0.2929 -0.7071c0.0082 -1.5346 -0.3762 -3.0457 -1.1165 -4.3899 -0.7404 -1.3442 -1.8122 -2.4768 -3.1135 -3.2901Z" fill="#000000" stroke-width="1"></path>
</svg>