<?xml version="1.0" standalone="no"?>
<!DOCTYPE svg PUBLIC "-//W3C//DTD SVG 20010904//EN"
 "http://www.w3.org/TR/2001/REC-SVG-20010904/DTD/svg10.dtd">
<svg version="1.0" xmlns="http://www.w3.org/2000/svg"
 width="512.000000pt" height="512.000000pt" viewBox="0 0 512.000000 512.000000"
 preserveAspectRatio="xMidYMid meet">

<g transform="translate(0.000000,512.000000) scale(0.100000,-0.100000)"
fill="#000000" stroke="none">
<path d="M3760 4464 c-42 -18 -86 -58 -108 -99 -16 -28 -17 -173 -22 -1770
l-5 -1740 -212 -3 -213 -2 0 1304 0 1304 -28 53 c-20 39 -41 62 -77 84 l-48
30 -487 0 -487 0 -48 -30 c-36 -22 -57 -45 -77 -84 l-28 -53 0 -1304 0 -1304
-212 2 -213 3 -5 891 -5 891 -27 39 c-15 21 -44 50 -65 64 l-37 25 -480 3
c-324 2 -493 0 -518 -8 -49 -14 -94 -53 -121 -104 l-22 -41 -3 -883 -2 -882
-65 0 c-78 0 -108 -12 -130 -55 -23 -41 -14 -93 21 -126 l26 -24 2498 0 2498
0 26 24 c35 33 44 85 21 126 -22 43 -52 55 -130 55 l-65 0 -2 1738 -3 1739
-30 48 c-22 36 -45 57 -84 77 l-53 28 -472 0 c-398 -1 -476 -3 -506 -16z m930
-1899 l0 -1705 -425 0 -425 0 0 1705 0 1705 425 0 425 0 0 -1705z m-1700 -430
l0 -1275 -430 0 -430 0 0 1275 0 1275 430 0 430 0 0 -1275z m-1710 -425 l0
-850 -425 0 -425 0 0 850 0 850 425 0 425 0 0 -850z"/>
</g>
</svg>
