<?xml version="1.0" standalone="no"?>
<!DOCTYPE svg PUBLIC "-//W3C//DTD SVG 20010904//EN"
 "http://www.w3.org/TR/2001/REC-SVG-20010904/DTD/svg10.dtd">
<svg version="1.0" xmlns="http://www.w3.org/2000/svg"
 width="512.000000pt" height="512.000000pt" viewBox="0 0 512.000000 512.000000"
 preserveAspectRatio="xMidYMid meet">

<g transform="translate(0.000000,512.000000) scale(0.100000,-0.100000)"
fill="#000000" stroke="none">
<path d="M2510 4389 c-32 -13 -87 -66 -108 -104 -15 -27 -17 -122 -22 -1038
l-5 -1007 -345 346 c-226 227 -359 353 -385 365 -72 33 -163 17 -224 -41 -33
-32 -61 -98 -61 -145 0 -87 13 -102 563 -653 287 -288 540 -534 562 -547 56
-32 102 -38 160 -20 46 13 89 54 601 567 536 537 552 554 563 604 30 128 -68
254 -198 254 -80 0 -92 -9 -463 -379 l-358 -355 0 1002 c0 1086 2 1041 -53
1100 -51 55 -157 79 -227 51z"/>
<path d="M870 1724 c-46 -20 -77 -50 -103 -99 -19 -36 -22 -60 -25 -242 -7
-333 17 -459 110 -599 78 -117 202 -208 343 -251 57 -17 131 -18 1390 -18
l1330 0 75 23 c105 33 196 89 271 169 77 82 122 164 149 269 17 67 20 111 20
344 0 260 -1 268 -23 311 -66 125 -235 145 -331 39 -19 -21 -39 -56 -45 -77
-6 -22 -11 -139 -11 -273 0 -206 -3 -240 -19 -275 -23 -51 -79 -101 -128 -114
-56 -16 -2528 -15 -2574 0 -51 18 -97 55 -122 102 -21 40 -22 57 -27 307 -5
284 -8 296 -62 347 -54 51 -149 67 -218 37z"/>
</g>
</svg>
