<?xml version="1.0" standalone="no"?>
<!DOCTYPE svg PUBLIC "-//W3C//DTD SVG 20010904//EN"
 "http://www.w3.org/TR/2001/REC-SVG-20010904/DTD/svg10.dtd">
<svg version="1.0" xmlns="http://www.w3.org/2000/svg"
 width="512.000000pt" height="512.000000pt" viewBox="0 0 512.000000 512.000000"
 preserveAspectRatio="xMidYMid meet">

<g transform="translate(0.000000,512.000000) scale(0.100000,-0.100000)"
fill="#000000" stroke="none">
<path d="M1105 4852 c-93 -10 -229 -62 -313 -119 -122 -83 -229 -224 -278
-364 l-29 -84 -3 -1485 c-3 -1648 -7 -1545 63 -1695 86 -187 251 -327 460
-392 55 -17 104 -18 615 -18 542 0 556 0 590 21 100 58 108 201 16 267 -31 22
-34 22 -556 28 -456 5 -533 8 -585 23 -161 47 -247 151 -275 334 -7 44 -10
532 -8 1452 l3 1385 23 67 c39 116 108 186 227 230 60 23 64 23 703 26 l642 3
0 -333 c0 -367 4 -402 65 -533 66 -144 189 -270 328 -338 145 -70 145 -70 534
-75 l352 -3 3 -159 c3 -142 5 -161 24 -187 73 -98 195 -98 268 0 20 27 21 43
24 270 2 133 0 258 -3 277 -5 30 -104 132 -678 707 -369 370 -683 677 -697
682 -23 9 -1436 21 -1515 13z m2213 -1280 c-290 -6 -422 34 -515 156 -60 79
-75 151 -80 377 l-5 200 366 -365 366 -365 -132 -3z"/>
<path d="M1409 2907 c-49 -32 -83 -105 -74 -158 9 -53 64 -115 113 -129 49
-13 1534 -14 1581 0 47 13 99 66 112 112 18 68 -19 151 -81 183 -25 13 -142
15 -823 15 l-794 0 -34 -23z"/>
<path d="M3990 2494 c-30 -8 -77 -30 -105 -49 -27 -19 -321 -308 -652 -643
-528 -535 -603 -614 -613 -651 -7 -28 -10 -129 -8 -299 3 -245 4 -259 25 -292
12 -20 40 -46 61 -58 38 -21 50 -22 311 -22 249 0 275 2 309 19 20 11 313 296
654 638 696 697 661 655 662 808 1 135 -21 173 -203 355 -153 153 -196 182
-291 200 -67 13 -82 12 -150 -6z m213 -422 c64 -64 117 -122 117 -127 0 -6
-33 -43 -73 -83 l-72 -72 -125 125 -125 125 75 75 c41 41 77 75 80 75 3 0 58
-53 123 -118z m-376 -384 l123 -123 -382 -382 -383 -383 -127 0 -128 0 0 122
0 123 382 382 c211 211 385 383 388 383 3 0 60 -55 127 -122z"/>
<path d="M1416 2057 c-109 -61 -106 -221 5 -277 36 -19 60 -20 499 -20 439 0
463 1 499 20 113 57 113 223 0 280 -36 19 -60 20 -501 20 -461 0 -463 0 -502
-23z"/>
</g>
</svg>
