<?xml version="1.0" standalone="no"?>
<!DOCTYPE svg PUBLIC "-//W3C//DTD SVG 20010904//EN"
 "http://www.w3.org/TR/2001/REC-SVG-20010904/DTD/svg10.dtd">
<svg version="1.0" xmlns="http://www.w3.org/2000/svg"
 width="512.000000pt" height="512.000000pt" viewBox="0 0 512.000000 512.000000"
 preserveAspectRatio="xMidYMid meet">

<g transform="translate(0.000000,512.000000) scale(0.100000,-0.100000)"
fill="#000000" stroke="none">
<path d="M395 5106 c-181 -44 -346 -213 -384 -394 -7 -36 -11 -288 -11 -790 0
-804 -1 -793 58 -912 41 -83 144 -183 233 -225 41 -19 98 -39 128 -45 73 -14
1479 -14 1552 0 196 37 372 213 409 409 14 73 14 1479 0 1552 -36 189 -193
353 -385 403 -51 14 -161 16 -805 15 -549 0 -758 -4 -795 -13z m1621 -189 c76
-35 135 -94 171 -172 l28 -60 0 -760 0 -760 -26 -56 c-37 -79 -90 -133 -167
-171 l-67 -33 -760 0 -760 0 -61 28 c-76 35 -135 94 -171 172 l-28 60 0 760 0
760 28 60 c46 99 131 169 234 194 21 5 367 9 778 8 l740 -2 61 -28z"/>
<path d="M3120 5104 c-90 -24 -160 -65 -232 -135 -75 -73 -130 -173 -148 -268
-14 -73 -14 -1479 0 -1552 37 -196 213 -372 409 -409 73 -14 1479 -14 1552 0
189 36 353 193 403 385 14 51 16 163 16 797 0 502 -4 754 -11 790 -39 186
-211 358 -397 397 -36 7 -287 11 -795 10 -620 0 -751 -3 -797 -15z m1626 -187
c76 -35 135 -94 171 -172 l28 -60 0 -760 0 -760 -28 -60 c-36 -78 -95 -137
-171 -172 l-61 -28 -760 0 -760 0 -67 33 c-77 38 -130 92 -167 171 l-26 56 0
760 0 760 28 60 c46 99 131 169 234 194 21 5 367 9 778 8 l740 -2 61 -28z"/>
<path d="M411 2379 c-25 -5 -78 -25 -119 -44 -90 -43 -193 -142 -234 -225 -59
-119 -58 -108 -58 -912 0 -502 4 -754 11 -790 39 -186 211 -358 397 -397 36
-7 288 -11 790 -11 804 0 793 -1 912 58 83 41 183 144 225 233 19 41 39 98 45
128 14 73 14 1479 0 1552 -37 196 -213 372 -409 409 -66 12 -1496 12 -1560 -1z
m1611 -197 c77 -38 130 -92 167 -171 l26 -56 0 -760 0 -760 -28 -60 c-36 -78
-95 -137 -171 -172 l-61 -28 -760 0 -760 0 -61 28 c-76 35 -135 94 -171 172
l-28 60 0 760 0 760 28 60 c46 99 131 169 234 194 21 5 367 9 778 8 l740 -2
67 -33z"/>
<path d="M3141 2379 c-189 -37 -365 -216 -401 -408 -14 -73 -14 -1479 0 -1552
36 -189 193 -353 385 -403 51 -14 163 -16 797 -16 502 0 754 4 790 11 186 39
358 211 397 397 7 36 11 288 11 790 0 804 1 793 -58 912 -41 83 -144 183 -233
225 -41 19 -98 39 -128 45 -66 12 -1496 12 -1560 -1z m1605 -192 c76 -35 135
-94 171 -172 l28 -60 0 -760 0 -760 -28 -60 c-36 -78 -95 -137 -171 -172 l-61
-28 -760 0 -760 0 -61 28 c-76 35 -135 94 -171 172 l-28 60 0 760 0 760 26 56
c49 103 140 178 241 199 24 4 374 7 778 7 l735 -2 61 -28z"/>
</g>
</svg>
