<svg width="58" height="25" viewBox="0 0 58 25" fill="none" xmlns="http://www.w3.org/2000/svg">
<path d="M8.6 6.66V8.9H4.12V11.88H8.32V14.12H4.12V20H1.52V6.66H8.6ZM10.0467 20V11.34H12.4867V12.64C12.8667 11.9 13.3867 11.54 13.5667 11.44C13.9467 11.2 14.4267 11.06 15.0067 11.06C15.4267 11.06 15.7667 11.16 16.0467 11.26L15.7267 13.54C15.4067 13.32 15.0867 13.22 14.5867 13.22C14.1267 13.22 13.4467 13.32 12.9667 13.92C12.5067 14.5 12.4867 15.24 12.4867 15.84V20H10.0467ZM20.3617 23.4L30.8617 4.82L32.6217 5.62L22.1217 24.2L20.3617 23.4ZM47.4161 6.66V8.9H42.6161V11.88H47.2161V14.12H42.6161V17.76H47.4161V20H40.0161V6.66H47.4161ZM49.578 20V11.34H52.018V12.46C52.478 11.82 53.298 11.06 54.698 11.06C55.458 11.06 56.578 11.28 57.258 12.12C57.858 12.86 57.938 13.72 57.938 14.56V20H55.498V15.28C55.498 14.8 55.478 14.04 55.038 13.58C54.658 13.18 54.138 13.14 53.898 13.14C53.258 13.14 52.758 13.36 52.398 13.9C52.038 14.46 52.018 15.08 52.018 15.58V20H49.578Z" fill="#191919"/>
</svg>
