<svg width="527" height="282" viewBox="0 0 527 282" fill="none" xmlns="http://www.w3.org/2000/svg">
<path d="M33.2192 53.1997L174.112 76.3663V70.6696L33.2192 47.5029" stroke="#957E18" stroke-width="3"/>
<path d="M1.1311 157.64L18.8349 150.803M1.1311 166.374L18.8349 161.058M32.8504 152.702L89.6501 156.967M32.8504 161.817L174.481 171.312V163.336L136.491 160.484M1.1311 142.068L17.3596 134.853M91.4502 63.8335L89.6501 156.967M89.6501 156.967L136.491 160.484M136.491 160.484V148.145M136.491 125.738L136.447 70.6696" stroke="#957E18" stroke-width="3"/>
<path d="M449.996 264.738H445.571M449.996 264.738L516.755 263.219M449.996 264.738V193.719M445.571 264.738L189.234 267.776L184.808 268.915L174.85 269.544M445.571 264.738V192.2M16.2532 279.549H1.5V92.6969M16.2532 279.549L174.85 269.544M16.2532 279.549L19.4702 83.2023M16.2532 19.399L1.5 31.9318V42.1859M16.2532 19.399L73.7906 1.54932M16.2532 19.399L20.3103 31.9318M73.7906 1.54932L440.776 80.5439M73.7906 1.54932L195.504 55.0985L193.66 56.3272M440.776 80.5439L524.131 117.383M440.776 80.5439L446.308 104.47M440.776 80.5439L451.472 104.47M524.131 117.383L451.472 104.47M524.131 117.383L518.23 122.32M524.131 117.383L521.549 123.079L523.394 263.219H516.755M184.808 59.2761H189.234L193.66 56.3272M184.808 59.2761L174.85 57.6207M184.808 59.2761L186.652 61.175L446.289 108.648M184.808 59.2761V71.4291M184.808 267.776V172.451M20.3103 31.9318L1.5 42.1859M20.3103 31.9318L174.85 57.6207M20.3103 31.9318L20.105 44.4646M1.5 42.1859V55.0985M174.85 57.6207V267.017M174.85 269.544V267.017M446.308 104.47H451.472M446.308 104.47L193.66 56.3272M446.308 104.47L446.289 108.648M451.472 104.47L449.996 109.787M449.996 109.787L518.23 122.32M449.996 109.787V117.383M518.23 122.32L518.15 129.915M516.755 263.219L517.454 198.656M446.289 108.648L446.249 117.383M184.808 172.451L445.571 192.2M184.808 172.451V77.5056M445.571 192.2L446.231 121.18M449.996 178.527L517.602 184.604M449.996 178.527V120.421M449.996 178.527V188.022M517.602 184.604L518.123 132.574M517.602 184.604L517.49 192.959M518.123 132.574L449.996 120.421M518.123 132.574L518.15 129.915M449.996 120.421V117.383M449.996 117.383L518.15 129.915M446.231 121.18L184.808 77.5056M446.231 121.18L446.249 117.383M184.808 77.5056V71.4291M184.808 71.4291L446.249 117.383M449.996 188.022L517.49 192.959M449.996 188.022V193.719M517.49 192.959L517.454 198.656M517.454 198.656L449.996 193.719M1.5 55.0985L20.105 44.4646M1.5 55.0985V59.2761M20.105 44.4646L20.0054 50.5411M20.0054 50.5411L1.5 59.2761M20.0054 50.5411L19.5636 77.5056M1.5 59.2761V87.7597M1.5 87.7597L19.5636 77.5056M1.5 87.7597V92.6969M19.5636 77.5056L19.4702 83.2023M1.5 92.6969L19.4702 83.2023M30.6375 36.4892V44.4646H32.1128V49.7816V53.5794H30.6375L29.531 128.776L31.744 129.536V135.612H29.531V150.044H31.744V161.817H29.531V258.661H35.8011V267.776L174.85 267.017" stroke="#957E18" stroke-width="3"/>
<path d="M213.577 152.706L191.447 150.755V98.233C201.479 84.7496 210.38 93.6601 213.577 99.8008V152.706Z" stroke="#957E18" stroke-width="3"/>
<path d="M260.049 157.259L239.395 155.337V102.608C248.758 89.4651 257.066 98.1509 260.049 104.137V157.259Z" stroke="#957E18" stroke-width="3"/>
<path d="M300.621 110.813V161.058L291.769 160.297L282.917 159.535V109.314C290.942 96.421 298.063 104.941 300.621 110.813Z" stroke="#957E18" stroke-width="3"/>
<path d="M339.717 164.855L323.488 163.396V115.798C330.845 103.578 337.372 111.653 339.717 117.218V164.855Z" stroke="#957E18" stroke-width="3"/>
<path d="M375.862 168.653L359.633 166.883V122.237C366.99 110.776 373.518 118.35 375.862 123.57V168.653Z" stroke="#957E18" stroke-width="3"/>
<path d="M406.843 171.692L392.828 170.172V127.046C399.182 116.088 404.819 123.33 406.843 128.32V171.692Z" stroke="#957E18" stroke-width="3"/>
<path d="M436.35 174.35L423.81 173.21V132.124C429.494 122.091 434.538 128.721 436.35 133.29V174.35Z" stroke="#957E18" stroke-width="3"/>
<path d="M491.674 177.008L480.609 176.214V140.753C485.625 131.649 490.076 137.665 491.674 141.811V177.008Z" stroke="#957E18" stroke-width="3"/>
<path d="M184.808 199.795C188.865 181.566 225.379 180.046 225.379 211.568M187.021 210.432C185.546 191.823 212.839 181.189 220.585 210.432V267.396L186.283 267.776L187.021 210.432Z" stroke="#957E18" stroke-width="3"/>
<path d="M227.592 211.569C227.592 180.047 275.54 181.566 272.958 214.607M233.493 210.888C232.756 193.72 261.893 184.984 267.057 210.888V266.637L233.493 267.096V210.888Z" stroke="#957E18" stroke-width="3"/>
<path d="M174.112 214.986V205.885C160.588 205.885 133.268 205.885 132.178 205.885C135.319 168.359 76.9759 166.634 76.976 202.435L29.531 201.661M15.8843 202.435L1.1311 204.732M16.6219 19.019C17.5071 19.3229 135.262 42.4389 194.029 53.9589M445.202 185.743L185.546 164.855M84.1567 201.661C83.2591 182.163 118.714 172.242 124.997 201.661V264.976L84.1567 265.497V201.661Z" stroke="#957E18" stroke-width="3"/>
<path d="M272.958 215.366C272.958 186.021 307.576 187.368 306.497 216.005M277.642 214.311C277.102 198.328 298.406 190.196 302.182 214.311V266.257L277.642 266.637V214.311Z" stroke="#957E18" stroke-width="3"/>
<path d="M352.257 214.607V217.946H344.119C345.126 191.695 313.161 190.074 313.161 216.974H306.522V214.227M317.188 216.393C316.684 201.742 336.568 194.288 340.092 216.393V265.497H317.587L317.188 216.393Z" stroke="#957E18" stroke-width="3"/>
<path d="M352.257 216.435C352.257 189.23 387.266 190.869 386.163 217.418M356.667 215.848C356.116 201.03 377.893 193.491 381.753 215.848L382.132 265.497H356.667V215.848Z" stroke="#957E18" stroke-width="3"/>
<path d="M386.189 217.512C386.189 190.918 419.676 192.52 418.622 218.473M390.408 216.938C389.88 202.453 410.711 195.084 414.403 216.938V265.117H390.408V216.938Z" stroke="#957E18" stroke-width="3"/>
<path d="M473.233 220.321C473.233 196.145 500.631 197.601 499.768 221.195M476.684 219.799C476.253 206.631 493.296 199.932 496.317 219.799V263.599H476.684V219.799Z" stroke="#957E18" stroke-width="3"/>
<path d="M418.646 219.666C418.646 194.295 446.045 195.824 445.182 220.583M422.098 219.118C421.666 205.3 438.71 198.269 441.73 219.118V264.738H422.098V219.118Z" stroke="#957E18" stroke-width="3"/>
<path d="M117.682 68.3716C125.303 68.3718 131.672 75.0724 131.672 83.5815C131.672 92.0909 125.303 98.7923 117.682 98.7925C110.06 98.7925 103.69 92.0911 103.69 83.5815C103.691 75.0722 110.06 68.3716 117.682 68.3716Z" stroke="#957E18" stroke-width="3"/>
<path d="M121.369 117.743C131.015 117.743 139.049 126.3 139.049 137.131C139.049 147.962 131.015 156.52 121.369 156.52C111.723 156.519 103.69 147.961 103.69 137.131C103.691 126.3 111.723 117.743 121.369 117.743Z" stroke="#957E18" stroke-width="3"/>
<line y1="-1" x2="17.4855" y2="-1" transform="matrix(-0.0421868 -0.99911 0.998999 -0.0447245 119.894 117.762)" stroke="#957E18" stroke-width="2"/>
<path d="M123.951 136.492C125.495 136.492 126.77 137.784 126.771 139.41C126.771 141.035 125.495 142.328 123.951 142.328C122.408 142.328 121.132 141.035 121.132 139.41C121.132 137.784 122.408 136.492 123.951 136.492Z" stroke="#957E18"/>
<path d="M120.632 125.858C121.564 125.858 122.345 126.64 122.345 127.636C122.345 128.632 121.564 129.416 120.632 129.416C119.7 129.415 118.919 128.632 118.919 127.636C118.919 126.64 119.7 125.858 120.632 125.858Z" stroke="#957E18"/>
<path d="M184.808 150.424C187.169 150.728 359.141 167.261 444.833 175.489" stroke="#957E18" stroke-width="3"/>
</svg>
