<?xml version="1.0" standalone="no"?>
<!DOCTYPE svg PUBLIC "-//W3C//DTD SVG 20010904//EN"
 "http://www.w3.org/TR/2001/REC-SVG-20010904/DTD/svg10.dtd">
<svg version="1.0" xmlns="http://www.w3.org/2000/svg"
 width="512.000000pt" height="512.000000pt" viewBox="0 0 512.000000 512.000000"
 preserveAspectRatio="xMidYMid meet">

<g transform="translate(0.000000,512.000000) scale(0.100000,-0.100000)"
fill="#000000" stroke="none">
<path d="M132 5109 c-46 -14 -109 -80 -122 -128 -7 -28 -10 -186 -8 -484 l3
-442 24 -38 c13 -21 42 -50 64 -65 34 -23 52 -27 107 -27 55 0 73 4 107 27 22
15 51 44 64 65 24 38 24 40 27 370 l3 332 332 3 c330 3 332 3 370 27 21 13 50
42 65 64 23 34 27 52 27 107 0 55 -4 73 -27 107 -15 22 -44 51 -65 64 l-38 24
-450 2 c-267 1 -463 -2 -483 -8z"/>
<path d="M4052 5109 c-47 -14 -109 -80 -123 -131 -23 -89 12 -182 88 -229 38
-24 40 -24 370 -27 l332 -3 3 -332 c3 -330 3 -332 27 -370 13 -21 42 -50 64
-65 34 -23 52 -27 107 -27 55 0 73 4 107 27 22 15 51 44 64 65 l24 38 0 466 0
465 -27 41 c-15 22 -44 51 -65 64 l-38 24 -450 2 c-267 1 -463 -2 -483 -8z"/>
<path d="M892 4349 c-46 -14 -109 -80 -122 -128 -7 -28 -10 -186 -8 -484 l3
-442 24 -38 c13 -21 42 -50 64 -65 l41 -27 466 0 466 0 41 27 c22 15 51 44 64
65 l24 38 0 466 0 465 -27 41 c-15 22 -44 51 -65 64 l-38 24 -450 2 c-267 1
-463 -2 -483 -8z m668 -589 l0 -200 -200 0 -200 0 0 200 0 200 200 0 200 0 0
-200z"/>
<path d="M2492 4349 c-47 -14 -109 -80 -122 -129 -7 -27 -10 -127 -8 -284 l3
-243 27 -40 c41 -62 90 -88 168 -88 78 0 127 26 168 88 l27 41 0 265 c0 263 0
266 -24 304 -47 76 -151 113 -239 86z"/>
<path d="M3292 4349 c-46 -14 -109 -80 -122 -128 -7 -28 -10 -186 -8 -484 l3
-442 24 -38 c13 -21 42 -50 64 -65 l41 -27 466 0 466 0 41 27 c22 15 51 44 64
65 l24 38 0 466 0 465 -27 41 c-15 22 -44 51 -65 64 l-38 24 -450 2 c-267 1
-463 -2 -483 -8z m668 -589 l0 -200 -200 0 -200 0 0 200 0 200 200 0 200 0 0
-200z"/>
<path d="M2492 3149 c-45 -13 -108 -80 -121 -126 -6 -21 -11 -88 -11 -150 l0
-111 -133 -4 c-125 -3 -136 -5 -174 -30 -63 -41 -88 -90 -88 -169 0 -54 5 -72
27 -106 15 -22 44 -51 65 -64 l38 -24 532 -3 532 -3 3 -333 3 -333 27 -40 c41
-62 90 -88 168 -88 78 0 127 26 168 88 l27 41 0 466 0 466 -27 41 c-15 22 -44
51 -65 64 -38 24 -40 24 -370 27 l-331 3 -4 132 c-3 118 -5 136 -27 170 -47
76 -151 113 -239 86z"/>
<path d="M892 2749 c-47 -14 -109 -80 -123 -131 -23 -89 12 -182 88 -229 38
-24 41 -24 304 -24 l265 0 41 27 c62 41 88 90 88 168 0 78 -26 127 -88 168
l-40 27 -251 2 c-141 1 -265 -2 -284 -8z"/>
<path d="M4092 2749 c-47 -14 -109 -80 -122 -129 -7 -27 -10 -127 -8 -284 l3
-243 27 -40 c41 -62 90 -88 168 -88 78 0 127 26 168 88 l27 41 0 265 c0 263 0
266 -24 304 -47 76 -151 113 -239 86z"/>
<path d="M892 1949 c-46 -14 -109 -80 -122 -128 -7 -28 -10 -186 -8 -484 l3
-442 24 -38 c13 -21 42 -50 64 -65 l41 -27 466 0 466 0 41 27 c22 15 51 44 64
65 l24 38 0 466 0 465 -27 41 c-15 22 -44 51 -65 64 l-38 24 -450 2 c-267 1
-463 -2 -483 -8z m668 -589 l0 -200 -200 0 -200 0 0 200 0 200 200 0 200 0 0
-200z"/>
<path d="M2492 1949 c-46 -14 -109 -80 -122 -128 -7 -28 -10 -186 -8 -484 l3
-442 24 -38 c13 -21 42 -50 64 -65 34 -23 52 -27 107 -27 55 0 73 4 107 27 22
15 51 44 64 65 l24 38 0 465 0 465 -24 38 c-47 76 -151 113 -239 86z"/>
<path d="M4092 1549 c-45 -13 -108 -80 -121 -126 -6 -21 -11 -88 -11 -150 l0
-112 -332 -3 c-331 -3 -333 -3 -371 -27 -21 -13 -50 -42 -65 -64 -23 -34 -27
-52 -27 -107 0 -55 4 -73 27 -107 15 -22 44 -51 65 -64 l38 -24 465 0 465 0
38 24 c21 13 50 42 65 64 l27 41 0 265 c0 263 0 266 -24 304 -47 76 -151 113
-239 86z"/>
<path d="M132 1189 c-46 -14 -109 -80 -122 -128 -7 -28 -10 -186 -8 -484 l3
-442 24 -38 c13 -21 42 -50 64 -65 l41 -27 466 0 466 0 41 27 c63 41 88 90 88
169 0 54 -5 72 -27 106 -15 22 -44 51 -65 64 -38 24 -40 24 -370 27 l-332 3
-3 332 c-3 330 -3 332 -27 370 -47 76 -151 113 -239 86z"/>
<path d="M4852 1189 c-45 -13 -108 -80 -121 -126 -7 -23 -11 -161 -11 -350 l0
-312 -332 -3 c-331 -3 -333 -3 -371 -27 -21 -13 -50 -42 -65 -64 -23 -34 -27
-52 -27 -107 0 -55 4 -73 27 -107 15 -22 44 -51 65 -64 l38 -24 466 0 465 0
41 27 c22 15 51 44 64 65 l24 38 0 465 0 465 -24 38 c-47 76 -151 113 -239 86z"/>
</g>
</svg>
