<svg width="16" height="13" viewBox="0 0 16 13" fill="none" xmlns="http://www.w3.org/2000/svg">
<path d="M1.51842 12.2066C1.04608 12.4928 0.431159 12.3419 0.144965 11.8695C-0.141229 11.3972 0.00967749 10.7822 0.482024 10.4961L1.00022 11.3513L1.51842 12.2066ZM14.7823 2.17402C15.3187 2.30565 15.6468 2.84717 15.5151 3.38354L13.3701 12.1242C13.2385 12.6606 12.6969 12.9887 12.1606 12.857C11.6242 12.7254 11.2961 12.1839 11.4277 11.6475L13.3344 3.87805L5.56497 1.97135C5.0286 1.83972 4.70049 1.2982 4.83212 0.761831C4.96375 0.225461 5.50527 -0.102644 6.04164 0.0289853L14.7823 2.17402ZM1.00022 11.3513L0.482024 10.4961L14.0257 2.28994L14.5439 3.1452L15.0621 4.00046L1.51842 12.2066L1.00022 11.3513Z" fill="#191919"/>
</svg>
