<svg width="34" height="34" viewBox="0 0 34 34" fill="none" xmlns="http://www.w3.org/2000/svg">
<path d="M25.1231 0.0535631C24.9712 0.114345 2.94454 12.8329 2.81546 12.9393C2.75472 12.9849 2.64083 13.1596 2.55731 13.3268C2.04859 14.3297 3.17992 15.4389 4.18976 14.9147C4.40995 14.8007 7.70522 12.9089 14.4932 8.98088C22.3517 4.43745 25.0623 2.87992 25.0775 2.90271C25.0851 2.9179 25.3812 3.41935 25.7305 4.01957C26.3455 5.09845 26.3607 5.12124 26.2392 5.31118C26.1709 5.42515 26.0038 5.72146 25.8748 5.98738C24.6751 8.41105 26.6265 11.3134 29.3599 11.1538C29.6396 11.1398 29.9037 11.2834 30.0441 11.5257L30.8101 12.8481C32.0022 14.9071 32.1312 15.0439 32.8146 15.0439C33.6422 15.0439 34.2572 14.0866 33.8928 13.3648C33.384 12.3619 31.296 8.85932 31.1138 8.70737C30.8329 8.46424 30.4153 8.38826 30.0432 8.49463C29.8838 8.54781 29.6256 8.62379 29.4662 8.67697C28.4867 8.97329 27.6135 7.94759 28.0615 7.01307C28.1298 6.86872 28.3348 6.64079 28.5095 6.51162C29.0789 6.09375 29.2915 5.44035 29.0258 4.9161C28.6917 4.2627 26.5202 0.547416 26.3835 0.387863C26.1026 0.068759 25.5027 -0.0907936 25.1231 0.0535631Z" fill="#191919"/>
<path d="M0.712242 17.1256C0.400938 17.2623 0.0820406 17.6498 0.028891 17.9537C0.00611266 18.0905 -0.00907292 19.3973 0.00611266 20.8713C0.028891 23.4317 0.0364838 23.5533 0.18834 23.7508C0.446494 24.1003 0.697057 24.2447 1.20577 24.313C2.00302 24.427 2.38266 24.8145 2.38266 25.5287C2.38266 26.2429 2.00302 26.6303 1.20577 26.7443C0.697057 26.8127 0.446494 26.957 0.18834 27.3065C0.0364838 27.5117 0.028891 27.6028 0.028891 30.3912C0.028891 33.1796 0.0364838 33.2707 0.18834 33.4759C0.27186 33.5898 0.438902 33.757 0.552794 33.8406C0.685658 33.944 0.849213 34.0001 1.01758 34.0001H16.9988H32.98C33.1483 34.0001 33.3119 33.944 33.4448 33.8406C33.5587 33.757 33.7257 33.5898 33.8092 33.4759C33.9611 33.2707 33.9687 33.1796 33.9687 30.3912C33.9687 27.6028 33.9611 27.5117 33.8092 27.3065C33.5511 26.957 33.3005 26.8127 32.7918 26.7443C31.9945 26.6303 31.6149 26.2429 31.6149 25.5287C31.6149 24.8145 31.9945 24.427 32.7918 24.313C33.3005 24.2447 33.5511 24.1003 33.8092 23.7508C33.9611 23.5457 33.9687 23.4545 33.9687 20.6661C33.9687 17.8778 33.9611 17.7866 33.8092 17.5815C33.7257 17.4675 33.5587 17.3003 33.4448 17.2168C33.3119 17.1133 33.1484 17.0571 32.98 17.057L17.0899 17.042C3.77973 17.0268 0.902062 17.042 0.712242 17.1256ZM8.51004 20.2786C8.52522 20.9776 8.55559 21.1448 8.69226 21.3195C8.98838 21.7222 9.23135 21.8438 9.7097 21.8438C10.188 21.8438 10.431 21.7222 10.7271 21.3195C10.8638 21.1448 10.8942 20.9776 10.9094 20.2786C10.9263 19.8164 11.3059 19.4505 11.7684 19.4505H21.2583H30.2701C30.9919 19.4505 31.5769 20.0356 31.5769 20.7573V21.5249C31.5769 21.8607 31.3894 22.1684 31.091 22.3224C29.9445 22.915 29.1472 24.2371 29.1472 25.5287C29.1472 26.8203 29.9445 28.1423 31.091 28.7349C31.3894 28.8889 31.5769 29.1966 31.5769 29.5324V30.2924C31.5769 31.0184 30.9885 31.6068 30.2625 31.6068H21.2583H11.7684C11.3059 31.6068 10.9263 31.2409 10.9094 30.7787C10.8866 29.8822 10.8182 29.7074 10.3627 29.3731C10.0666 29.1528 9.35284 29.1528 9.05672 29.3731C8.60115 29.7074 8.53282 29.8822 8.51004 30.7787C8.49309 31.2409 8.11347 31.6068 7.65096 31.6068H5.45014H3.73502C3.0091 31.6068 2.42062 31.0184 2.42062 30.2924V29.5324C2.42062 29.1966 2.60812 28.8889 2.90656 28.7349C4.05307 28.1423 4.85031 26.8203 4.85031 25.5287C4.85031 24.2371 4.05307 22.915 2.90656 22.3224C2.60812 22.1684 2.42062 21.8607 2.42062 21.5249V20.7573C2.42062 20.0356 3.0057 19.4505 3.72743 19.4505H5.45014H7.65096C8.11347 19.4505 8.49309 19.8164 8.51004 20.2786Z" fill="#191919"/>
<path d="M9.21616 23.2037C8.90486 23.3405 8.58596 23.7279 8.53281 24.0318C8.50244 24.1686 8.49485 24.9284 8.51003 25.7337C8.53281 27.0633 8.548 27.2077 8.69226 27.3976C8.98838 27.8003 9.23135 27.9219 9.7097 27.9219C10.188 27.9219 10.431 27.8003 10.7271 27.3976C10.879 27.2001 10.8866 27.0861 10.8866 25.5286C10.8866 23.9711 10.879 23.8571 10.7271 23.6596C10.6436 23.5456 10.4842 23.3784 10.3779 23.3025C10.1273 23.1125 9.51988 23.0593 9.21616 23.2037Z" fill="#191919"/>
</svg>
