<svg width="42" height="48" viewBox="0 0 42 48" fill="none" xmlns="http://www.w3.org/2000/svg">
<path d="M21.857 0.15942C21.6882 0.243816 21.4538 0.440746 21.3412 0.600166L21.1349 0.890869L21.088 17.114L21.0412 33.3372L20.8255 33.9467C20.1972 35.6722 18.8562 36.9475 17.0932 37.4727C16.3055 37.7071 15.0395 37.6977 14.1955 37.4351C11.9074 36.7412 10.3882 34.725 10.3695 32.3525C10.3601 30.7771 10.8477 29.6236 11.9824 28.4983C13.0046 27.4856 13.8579 27.1011 15.4521 26.9229C16.2774 26.8291 16.5493 26.6979 16.9056 26.2196C17.0932 25.9664 17.1026 25.8539 17.1026 21.7747C17.1026 17.8736 17.0932 17.5641 16.9338 17.3016C16.5587 16.7014 16.3993 16.6451 14.9457 16.6545C12.4513 16.6826 9.6943 17.5172 7.40618 18.9614C4.37722 20.8556 1.93906 23.9409 0.832507 27.2793C-0.780434 32.1368 -0.0302291 37.2195 2.91433 41.4018C3.67391 42.4803 5.52129 44.3276 6.59971 45.0872C12.32 49.1196 19.8971 48.9508 25.3548 44.684C28.0274 42.5928 30.0061 39.6107 30.8782 36.3755C31.3846 34.4812 31.4034 34.1249 31.4034 26.0789C31.4034 21.9997 31.4221 18.6613 31.4409 18.6613C31.4502 18.6613 31.8816 18.8582 32.3974 19.0927C33.6446 19.6741 35.2388 20.1992 36.6548 20.4805C37.9958 20.7525 40.3027 20.9682 40.8184 20.8744C41.2686 20.79 41.7843 20.3305 41.9062 19.8991C41.9625 19.6928 42 18.0143 42 15.6605C42 11.8063 42 11.7594 41.7843 11.3468C41.4842 10.7467 41.1748 10.606 39.9182 10.5028C38.6147 10.3903 37.7145 10.1465 36.6079 9.61198C34.2916 8.49605 32.6037 6.51739 31.8347 4.03234C31.6847 3.56347 31.5346 2.73824 31.4596 2.03493C31.3283 0.712692 31.2158 0.459499 30.6438 0.168797C30.3531 0.0187531 29.9498 0 26.2457 0C22.6822 0 22.1289 0.0187569 21.857 0.15942ZM28.6839 2.86015C28.6839 3.08521 29.0215 4.50122 29.2184 5.11076C30.1749 8.08344 32.4443 10.6998 35.295 12.1252C36.1484 12.5472 37.5457 13.0066 38.4365 13.1567L39.1398 13.2786L39.168 15.6511L39.1867 18.033L38.6053 17.9674C36.1484 17.686 33.4008 16.6733 31.3565 15.2854C30.7188 14.854 30.5312 14.779 30.0905 14.7509C29.4341 14.704 29.0308 14.9384 28.7776 15.5011C28.5995 15.8762 28.5901 16.2231 28.5901 24.6629C28.5901 31.9024 28.562 33.581 28.4494 34.2749C27.8586 37.9134 25.7862 41.1111 22.7291 43.0898C21.7257 43.7462 21.0318 44.0932 19.9065 44.4777C18.3404 45.0216 17.5058 45.1529 15.6491 45.1435C14.2143 45.1435 13.8767 45.106 12.9577 44.8903C7.81879 43.69 4.14279 39.9202 3.02686 34.6969C2.78304 33.5903 2.78304 31.0303 3.01748 29.9144C3.24254 28.8547 3.74893 27.3637 4.15216 26.5666C5.36187 24.1659 7.44369 22.0466 9.80683 20.8369C11.1478 20.143 13.2203 19.5053 14.1018 19.5053H14.3362L14.3174 21.859L14.2893 24.2128L13.6235 24.3816C10.7258 25.1224 8.45646 27.4856 7.71564 30.5333C7.4812 31.4898 7.50933 33.2996 7.76252 34.2749C8.43771 36.8068 10.2101 38.8512 12.592 39.8452C13.6891 40.3047 14.43 40.4453 15.6959 40.4453C16.915 40.4453 17.6746 40.3047 18.7343 39.8827C20.8067 39.0575 22.5416 37.3039 23.348 35.222C23.9201 33.7498 23.9013 34.3312 23.9013 17.8548V2.81326H26.2926C27.6054 2.81326 28.6839 2.83202 28.6839 2.86015Z" fill="#191919"/>
</svg>
